<?xml version="1.0" encoding="utf-8"?>
<!-- Generator: Adobe Illustrator 21.1.0, SVG Export Plug-In . SVG Version: 6.00 Build 0)  -->
<svg version="1.1" id="spots" xmlns="http://www.w3.org/2000/svg" xmlns:xlink="http://www.w3.org/1999/xlink" x="0px" y="0px"
	 viewBox="0 0 700 700" style="enable-background:new 0 0 700 700;" xml:space="preserve">
<style type="text/css">
	.st0{fill:#E5E5E5;}
</style>
<g id="spots">
	<path class="st0" d="M339,3"/>
	<line class="st0" x1="537" y1="86.4" x2="537" y2="86.4"/>
	<path class="st0" d="M309,132.5c-4.2,0-4.4,5.4-0.2,5.4C313.1,137.9,313.3,132.5,309,132.5z"/>
	<path class="st0" d="M302.3,120.8c-7.1,0-6.1,9.5,1,9.5C310.3,130.3,309.3,120.8,302.3,120.8z"/>
	<path class="st0" d="M290.1,112.5c-5.6,0-6.3,7.4-0.4,7.4C295.4,120,296.1,112.5,290.1,112.5z"/>
	<path class="st0" d="M280.1,105.2c-6.1,0-6.7,6.1-0.5,6.1S286.4,105.2,280.1,105.2z"/>
	<path class="st0" d="M268.7,98.5c-6.8,0-11.1,9.7-2.4,9.7C273.1,108.3,277.4,98.5,268.7,98.5z"/>
	<path class="st0" d="M254.1,97.8c-4.2,0-5,6-0.8,6S258.3,97.8,254.1,97.8z"/>
	<path class="st0" d="M242.6,95.1c-4.7,0-7.4,5.4-1.6,5.4C245.6,100.4,248.5,95.1,242.6,95.1z"/>
	<path class="st0" d="M229.4,89.8c-6.1,0-9.6,8.7-2,8.7C233.5,98.5,237,89.8,229.4,89.8z"/>
	<path class="st0" d="M211.5,88c-4.3,0-4.8,4.4-0.2,4.4C215.5,92.4,215.9,88,211.5,88z"/>
	<path class="st0" d="M197.2,86.9c-4,0-5,4.9-0.6,4.9C200.7,91.8,201.8,86.9,197.2,86.9z"/>
	<path class="st0" d="M184.6,83.7c-7.8,0-9.2,10.3-1,10.3C191.3,94.1,192.9,83.7,184.6,83.7z"/>
	<path class="st0" d="M167.5,84.8c-5.9,0-5,8.4,0.8,8.4C174.1,93,173.3,84.8,167.5,84.8z"/>
	<path class="st0" d="M154.8,87.9c-6.5,0-6.1,6.5,0.4,6.5C161.7,94.3,161.3,87.9,154.8,87.9z"/>
	<path class="st0" d="M301,151.1c-5.5,0-4.8,7.8,0.7,7.8C307.2,159,306.5,151.1,301,151.1z"/>
	<path class="st0" d="M295.5,142.7c-5,0-4.9,5.3,0.1,5.3C300.6,148,300.5,142.7,295.5,142.7z"/>
	<path class="st0" d="M288.9,132.8c-3.8,0-3.7,4.9,0.1,4.9C292.9,137.7,292.7,132.8,288.9,132.8z"/>
	<path class="st0" d="M280.3,126.1c-2.9,0-6,4.1-1.8,4.1C281.4,130.1,284.5,126.1,280.3,126.1z"/>
	<path class="st0" d="M266.8,119c-6.2,0-8.1,8.5-1.4,8.5C271.6,127.6,273.5,119,266.8,119z"/>
	<path class="st0" d="M254.9,115.2c-4.5,0-6.7,6.6-1.6,6.6C257.9,121.8,260.1,115.2,254.9,115.2z"/>
	<path class="st0" d="M241.3,110.4c-6.9,0-9.6,9.9-1.8,9.9C246.4,120.3,249,110.4,241.3,110.4z"/>
	<path class="st0" d="M229.9,109.7c-5.4,0-6.6,7.8-1.1,7.8C234.3,117.4,235.4,109.7,229.9,109.7z"/>
	<path class="st0" d="M216.7,108.8c-5.3,0-4.7,6,0.6,6C222.6,114.8,221.9,108.8,216.7,108.8z"/>
	<path class="st0" d="M200.4,108.1c-3.8,0-4.7,4.8-0.4,4.8C203.9,112.9,204.8,108.1,200.4,108.1z"/>
	<path class="st0" d="M187,108.5c-4,0-4.1,4.9-0.1,4.9S191,108.5,187,108.5z"/>
	<path class="st0" d="M173.5,107.5c-3.6,0-3.4,3.2,0.2,3.2C177.3,110.9,177.1,107.5,173.5,107.5z"/>
	<path class="st0" d="M157.2,107.1c-6,0-5.5,8.6,0.5,8.6C163.7,115.6,163.2,107.1,157.2,107.1z"/>
	<path class="st0" d="M282.7,162.7c-4.7,0-5.7,6.7-0.8,6.7C286.5,169.4,287.7,162.7,282.7,162.7z"/>
	<path class="st0" d="M279.7,149.4c-5.7,0-8.5,6.8-1.6,6.8C283.9,156.2,286.6,149.4,279.7,149.4z"/>
	<path class="st0" d="M267.5,139.9c-6.3,0-9.2,8.3-1.9,8.3C271.9,148.1,274.8,139.9,267.5,139.9z"/>
	<path class="st0" d="M252.2,137.9c-3.5,0-3.5,3.4,0.1,3.4C255.8,141.3,255.8,137.9,252.2,137.9z"/>
	<path class="st0" d="M238.9,129.5c-5.5,0-8.4,7.8-1.8,7.8C242.5,137.3,245.5,129.5,238.9,129.5z"/>
	<path class="st0" d="M223.9,127h-0.5c-2.8,0-5.7,1.6-6,4.3c-0.2,2.4,1.7,5,4.5,5h0.5c2.8,0,5.7-1.6,6-4.3
		C228.7,129.5,226.8,127,223.9,127z"/>
	<path class="st0" d="M206.4,127c-3.4,0-4.7,4.9-0.8,4.9C208.9,131.9,210.3,127,206.4,127z"/>
	<path class="st0" d="M186.2,128.1c-1.4,0-3,0.1-4.3,0.7c-0.8,0.5-1.9,1.1-1.9,2.2v0.8c0,2.4,4,3.2,5.9,3.2c1.4,0,3-0.1,4.3-0.7
		c0.8-0.5,1.9-1.1,1.9-2.2v-0.8C192.1,129.1,188.1,128.2,186.2,128.1z"/>
	<path class="st0" d="M166.3,133c-3.7,0-3.7,5.1,0.1,5.1C170.3,138.2,170.3,133,166.3,133z"/>
	<path class="st0" d="M253.7,154.7c-6.7,0-6.7,9.6,0,9.6C260.3,164.3,260.4,154.7,253.7,154.7z"/>
	<path class="st0" d="M242.3,148.3c-5,0-5.6,6.5-0.2,6.5C247.1,154.7,247.7,148.3,242.3,148.3z"/>
	<path class="st0" d="M226.9,146.8c-3.6,0-3.4,3.4,0.2,3.4C230.7,150.1,230.5,146.8,226.9,146.8z"/>
	<path class="st0" d="M217.7,145.5c-1.6-1.3-4.4-1.6-6.1-0.1c-0.1,0.1-0.4,0.2-0.5,0.5c-1.4,1.4-1.8,3.7-0.1,5
		c1.6,1.3,4.4,1.6,6.1,0.1c0.1-0.1,0.4-0.2,0.5-0.5C219.1,149.2,219.4,146.9,217.7,145.5z"/>
	<path class="st0" d="M193.6,145.3c-4.3,0-6.9,6.2-1.7,6.2C196.3,151.6,198.9,145.3,193.6,145.3z"/>
	<path class="st0" d="M296.1,95.1c-6.2,0-6.2,6.1,0,6.1C302.3,101.2,302.3,95.1,296.1,95.1z"/>
	<path class="st0" d="M282.9,83.2c-5.5,0-12.7,7.8-4.3,7.8C284.2,91.1,291.4,83.2,282.9,83.2z"/>
	<path class="st0" d="M260.7,77.7c-4,0-8.3,5.6-2.5,5.6C262.1,83.3,266.4,77.7,260.7,77.7z"/>
	<path class="st0" d="M243.2,73.5c-6.9,0-7.1,7.9-0.1,7.9C250,81.4,250.2,73.5,243.2,73.5z"/>
	<path class="st0" d="M206,67.3c-6.6,0-6.3,8.1,0.2,8.1C212.8,75.3,212.5,67.3,206,67.3z"/>
	<path class="st0" d="M187.5,67.6c-3.2,0-5.1,3.7-1.1,3.7C189.6,71.4,191.5,67.6,187.5,67.6z"/>
	<path class="st0" d="M166.3,65.1c-7.7,0-7.4,6.2,0.2,6.2C174.2,71.2,174,65.1,166.3,65.1z"/>
	<path class="st0" d="M277.7,65.5c-4.3,0-6.2,5.4-1.2,5.4C280.8,70.9,282.7,65.5,277.7,65.5z"/>
	<path class="st0" d="M257.2,57.2c-0.8-0.1-1.6-0.2-2.4-0.5c-1.7-0.4-3.6,0.1-4.4,1.6c-0.7,1.2-0.2,3,1.4,3.4
		c0.8,0.1,1.6,0.2,2.4,0.5c1.7,0.4,3.6-0.1,4.4-1.6C259.2,59.4,258.9,57.6,257.2,57.2z"/>
	<path class="st0" d="M229.3,53.5c-3.6,0-4.9,4.7-0.8,4.7C232.1,58.2,233.4,53.5,229.3,53.5z"/>
	<path class="st0" d="M211.6,51.1c-4.3,0-5.1,6-0.7,6C215.2,57,216.1,51.1,211.6,51.1z"/>
	<path class="st0" d="M190.5,50.4c-3.4,0-7.1,4.8-2.3,4.8C191.6,55.1,195.3,50.4,190.5,50.4z"/>
	<path class="st0" d="M223.9,70.5c-4.7,0-7.4,5.4-1.6,5.4C227,75.8,229.8,70.5,223.9,70.5z"/>
	<ellipse class="st0" cx="350.7" cy="123.2" rx="20.7" ry="6.9"/>
	<ellipse class="st0" cx="350.7" cy="145.3" rx="15" ry="5.4"/>
	<ellipse class="st0" cx="350.7" cy="166" rx="9.3" ry="3.4"/>
	<path class="st0" d="M319.9,144c-4,0-5.3,5.3-1,5.3C322.9,149.3,324.2,144,319.9,144z"/>
	<path class="st0" d="M326.6,158c-4.2,0-6.2,4.7-1,4.7C329.9,162.6,331.9,158,326.6,158z"/>
	<path class="st0" d="M309.4,165c-5.1,0-10.3,7.4-2.8,7.4C311.8,172.4,316.9,165,309.4,165z"/>
	<path class="st0" d="M226.5,28.7c0,0,72.9,7.8,95.5,75.2c-2.2,3.4-13.5-36-49.3-56.3C246.5,32.7,230.5,35.8,226.5,28.7z"/>
	<path class="st0" d="M268.7,23.6c0,0,64.5,21.4,63.3,87.9c-3.1,2.6-0.7-35.8-26.9-61.5C285.6,31.1,269.9,30.9,268.7,23.6z"/>
	<path class="st0" d="M311.3,17.4c-4.1-0.5-8-0.7-12.1-0.5c-2.3,0.1-4.5,1.4-4.7,3.7c-0.1,2,1.9,3.8,4.2,3.7
		c3.2-0.2,6.6-0.2,9.8,0.2c2.3,0.2,4.8-0.4,5.6-2.6C314.9,20.1,313.6,17.6,311.3,17.4z"/>
	<path class="st0" d="M342.7,17.4c-3.5-1.1-6.9-2.2-10.4-3.2c-4.1-1.3-6.9,4.4-2.8,5.7c3.5,1.1,6.9,2.2,10.4,3.2
		C344.1,24.4,347,18.7,342.7,17.4z"/>
	<path class="st0" d="M340.9,34.1c-3.1-2.5-6.8-2.6-10.8-2.9c-5.7-0.4-11.5-0.6-17.1-1c-3.2-0.2-5.3,3.5-1.2,3.7
		c3.8,0.2,7.7,0.5,11.5,0.6c3.6,0.2,9.7-0.4,12.7,1.9C337.6,38,343.4,36,340.9,34.1z"/>
	<path class="st0" d="M345.7,48c-6.9-3.5-14.4-5.5-22.3-6c-2.2-0.1-5.6,0.7-6.2,3c-0.6,2.3,2,3.6,4.2,3.7c6.2,0.4,12,1.9,17.5,4.7
		C342.8,55.6,351.3,51,345.7,48z"/>
	<path class="st0" d="M393.1,133.4c4.2,0,4.4,5.4,0.2,5.4C389.1,138.8,388.9,133.4,393.1,133.4z"/>
	<path class="st0" d="M399.9,121.6c7.1,0,6.1,9.5-1,9.5C391.7,131.1,392.8,121.6,399.9,121.6z"/>
	<path class="st0" d="M412.1,113.4c5.6,0,6.3,7.4,0.4,7.4C406.7,120.8,406,113.4,412.1,113.4z"/>
	<path class="st0" d="M422,106.1c6.1,0,6.7,6.1,0.5,6.1C416.3,112.2,415.7,106.1,422,106.1z"/>
	<path class="st0" d="M433.4,99.5c6.8,0,11.1,9.7,2.4,9.7C429,109.2,424.7,99.5,433.4,99.5z"/>
	<path class="st0" d="M448,98.6c4.2,0,5,6,0.8,6C444.7,104.6,443.8,98.6,448,98.6z"/>
	<path class="st0" d="M459.5,95.9c4.7,0,7.4,5.4,1.6,5.4C456.5,101.3,453.6,95.9,459.5,95.9z"/>
	<path class="st0" d="M472.7,90.6c6.1,0,9.6,8.7,2,8.7C468.6,99.4,465.1,90.6,472.7,90.6z"/>
	<path class="st0" d="M490.7,88.8c4.3,0,4.8,4.4,0.2,4.4C486.6,93.3,486.2,88.8,490.7,88.8z"/>
	<path class="st0" d="M504.9,87.8c4,0,5,4.9,0.6,4.9C501.5,92.7,500.3,87.8,504.9,87.8z"/>
	<path class="st0" d="M517.6,84.6c7.8,0,9.2,10.3,1,10.3C510.7,94.9,509.2,84.6,517.6,84.6z"/>
	<path class="st0" d="M534.6,85.6c5.9,0,5,8.4-0.8,8.4C528,94,528.8,85.6,534.6,85.6z"/>
	<path class="st0" d="M547.2,88.7c6.5,0,6.1,6.5-0.4,6.5C540.4,95.2,540.8,88.7,547.2,88.7z"/>
	<path class="st0" d="M401.1,151.9c5.5,0,4.8,7.8-0.7,7.8C394.9,159.8,395.6,151.9,401.1,151.9z"/>
	<path class="st0" d="M406.6,143.5c5,0,4.9,5.3-0.1,5.3C401.4,148.8,401.6,143.5,406.6,143.5z"/>
	<path class="st0" d="M413.2,133.6c3.8,0,3.7,4.9-0.1,4.9C409.2,138.5,409.3,133.6,413.2,133.6z"/>
	<path class="st0" d="M421.8,127c2.9,0,6,4.1,1.8,4.1C420.8,131,417.6,127,421.8,127z"/>
	<path class="st0" d="M435.3,119.8c6.2,0,8.1,8.5,1.4,8.5C430.5,128.5,428.6,119.8,435.3,119.8z"/>
	<path class="st0" d="M447.2,116c4.5,0,6.7,6.6,1.6,6.6C444.2,122.6,442,116,447.2,116z"/>
	<path class="st0" d="M460.9,111.2c6.9,0,9.6,9.9,1.8,9.9C455.7,121.2,453.2,111.2,460.9,111.2z"/>
	<path class="st0" d="M472.2,110.5c5.4,0,6.6,7.8,1.1,7.8C467.8,118.4,466.7,110.5,472.2,110.5z"/>
	<path class="st0" d="M485.5,109.7c5.3,0,4.7,6-0.6,6C479.5,115.6,480.2,109.7,485.5,109.7z"/>
	<path class="st0" d="M501.6,108.9c3.8,0,4.7,4.8,0.4,4.8C498.2,113.7,497.3,108.9,501.6,108.9z"/>
	<path class="st0" d="M515,109.3c4,0,4.1,4.9,0.1,4.9C511.2,114.2,511.1,109.3,515,109.3z"/>
	<path class="st0" d="M528.6,108.3c3.6,0,3.4,3.2-0.2,3.2C524.7,111.7,525,108.3,528.6,108.3z"/>
	<path class="st0" d="M545,108c6,0,5.5,8.6-0.5,8.6C538.4,116.5,538.9,108,545,108z"/>
	<path class="st0" d="M419.4,163.5c4.7,0,5.7,6.7,0.8,6.7C415.6,170.2,414.5,163.5,419.4,163.5z"/>
	<path class="st0" d="M422.4,150.2c5.7,0,8.5,6.8,1.6,6.8C418.2,157.1,415.4,150.2,422.4,150.2z"/>
	<path class="st0" d="M434.6,140.8c6.3,0,9.2,8.3,1.9,8.3C430.2,148.9,427.3,140.8,434.6,140.8z"/>
	<path class="st0" d="M449.9,138.8c3.5,0,3.5,3.4-0.1,3.4C446.3,142.1,446.3,138.8,449.9,138.8z"/>
	<path class="st0" d="M463.2,130.4c5.5,0,8.4,7.8,1.8,7.8C459.6,138.2,456.7,130.4,463.2,130.4z"/>
	<path class="st0" d="M478.2,127.9h0.5c2.8,0,5.7,1.6,6,4.3c0.2,2.4-1.7,5-4.5,5h-0.5c-2.8,0-5.7-1.6-6-4.3
		C473.4,130.4,475.3,127.9,478.2,127.9z"/>
	<path class="st0" d="M495.7,127.9c3.4,0,4.7,4.9,0.8,4.9C493.1,132.8,491.8,127.9,495.7,127.9z"/>
	<path class="st0" d="M516,128.9c1.4,0,3,0.1,4.3,0.7c0.8,0.5,1.9,1.1,1.9,2.2v0.8c0,2.4-4,3.2-5.9,3.2c-1.4,0-3-0.1-4.3-0.7
		c-0.8-0.5-1.9-1.1-1.9-2.2v-0.8C510,129.9,514,129.1,516,128.9z"/>
	<path class="st0" d="M535.8,133.8c3.7,0,3.7,5.1-0.1,5.1C531.8,139,531.9,133.8,535.8,133.8z"/>
	<path class="st0" d="M448.4,155.5c6.7,0,6.7,9.6,0,9.6C441.8,165.1,441.7,155.5,448.4,155.5z"/>
	<path class="st0" d="M459.7,149.2c5,0,5.6,6.5,0.2,6.5C455,155.5,454.4,149.2,459.7,149.2z"/>
	<path class="st0" d="M475.2,147.6c3.6,0,3.4,3.4-0.2,3.4C471.4,151,471.6,147.6,475.2,147.6z"/>
	<path class="st0" d="M484.4,146.3c1.6-1.3,4.4-1.6,6.1-0.1c0.1,0.1,0.4,0.2,0.5,0.5c1.4,1.4,1.8,3.7,0.1,5
		c-1.6,1.3-4.4,1.6-6.1,0.1c-0.1-0.1-0.4-0.2-0.5-0.5C483,150,482.7,147.7,484.4,146.3z"/>
	<path class="st0" d="M508.5,146.2c4.3,0,6.9,6.2,1.7,6.2C505.8,152.4,503.2,146.2,508.5,146.2z"/>
	<path class="st0" d="M406,96c6.2,0,6.2,6.1,0,6.1C399.8,102,399.8,96,406,96z"/>
	<path class="st0" d="M419.2,84c5.5,0,12.7,7.8,4.3,7.8C417.8,91.9,410.7,84,419.2,84z"/>
	<path class="st0" d="M441.4,78.5c4,0,8.3,5.6,2.5,5.6C440,84.2,435.7,78.5,441.4,78.5z"/>
	<path class="st0" d="M458.9,74.3c6.9,0,7.1,7.9,0.1,7.9C452.1,82.2,452,74.3,458.9,74.3z"/>
	<path class="st0" d="M496.1,68.1c6.6,0,6.3,8.1-0.2,8.1C489.3,76.1,489.5,68.1,496.1,68.1z"/>
	<path class="st0" d="M514.6,68.5c3.2,0,5.1,3.7,1.1,3.7C512.5,72.2,510.6,68.5,514.6,68.5z"/>
	<path class="st0" d="M535.8,66c7.7,0,7.4,6.2-0.2,6.2C527.9,72.1,528.1,66,535.8,66z"/>
	<path class="st0" d="M424.5,66.3c4.3,0,6.2,5.4,1.2,5.4C421.3,71.7,419.4,66.3,424.5,66.3z"/>
	<path class="st0" d="M445,58.1c0.8-0.1,1.6-0.2,2.4-0.5c1.7-0.4,3.6,0.1,4.4,1.6c0.7,1.2,0.2,3-1.4,3.4c-0.8,0.1-1.6,0.2-2.4,0.5
		c-1.7,0.4-3.6-0.1-4.4-1.6C442.9,60.2,443.2,58.4,445,58.1z"/>
	<path class="st0" d="M472.8,54.4c3.6,0,4.9,4.7,0.8,4.7C470,59,468.7,54.4,472.8,54.4z"/>
	<path class="st0" d="M490.5,52c4.3,0,5.1,6,0.7,6C486.9,57.8,486,52,490.5,52z"/>
	<path class="st0" d="M511.6,51.2c3.4,0,7.1,4.8,2.3,4.8C510.5,55.9,506.8,51.2,511.6,51.2z"/>
	<path class="st0" d="M478.2,71.4c4.7,0,7.4,5.4,1.6,5.4C475.2,76.6,472.3,71.4,478.2,71.4z"/>
	<path class="st0" d="M382.2,144.9c4,0,5.3,5.3,1,5.3C379.2,150.1,377.9,144.9,382.2,144.9z"/>
	<path class="st0" d="M375.6,158.9c4.2,0,6.2,4.7,1,4.7C372.4,163.4,370.3,158.9,375.6,158.9z"/>
	<path class="st0" d="M392.7,165.8c5.1,0,10.3,7.4,2.8,7.4C390.3,173.2,385.3,165.8,392.7,165.8z"/>
	<path class="st0" d="M475.5,29.6c0,0-72.9,7.8-95.5,75.2c2.2,3.4,13.5-36,49.3-56.3C455.7,33.5,471.7,36.6,475.5,29.6z"/>
	<path class="st0" d="M433.5,24.4c0,0-64.5,21.4-63.3,87.9c3.1,2.6,0.7-35.8,26.9-61.5C416.5,32,432.2,31.7,433.5,24.4z"/>
	<path class="st0" d="M390.8,18.2c4.1-0.5,8-0.7,12.1-0.5c2.3,0.1,4.5,1.4,4.7,3.7c0.1,2-1.9,3.8-4.2,3.7c-3.2-0.2-6.6-0.2-9.8,0.2
		c-2.3,0.2-4.8-0.4-5.6-2.6C387.3,21,388.5,18.4,390.8,18.2z"/>
	<path class="st0" d="M359.4,18.2c3.5-1.1,6.9-2.2,10.4-3.2c4.1-1.3,6.9,4.4,2.8,5.7c-3.5,1.1-6.9,2.2-10.4,3.2
		C358.1,25.3,355.2,19.5,359.4,18.2z"/>
	<path class="st0" d="M361.2,35c3.1-2.5,6.8-2.6,10.8-2.9c5.7-0.4,11.5-0.6,17.1-1c3.2-0.2,5.3,3.5,1.2,3.7
		c-3.8,0.2-7.7,0.5-11.5,0.6c-3.6,0.2-9.7-0.4-12.7,1.9C364.5,38.8,358.7,36.9,361.2,35z"/>
	<path class="st0" d="M356.5,49c6.9-3.5,14.4-5.5,22.3-6c2.2-0.1,5.6,0.7,6.2,3c0.6,2.3-2,3.6-4.2,3.7c-6.2,0.4-12,1.9-17.5,4.7
		C359.3,56.5,350.8,51.8,356.5,49z"/>
	<path class="st0" d="M366.2,69.6c-2,0.4-4.7,1.3-6.5,2.3c-2.6,1.6-6.7,1.7-9-0.7c-0.1-0.1-0.1-0.1-0.2-0.2
		c-2.3,1.7-5.9,1.6-8.3,0.1c-1.8-1.1-4.4-1.9-6.5-2.3c-3-0.5-5.7-2.9-5-6c0.7-2.9,4.4-4.7,7.4-4.2c4.4,0.7,8.5,2.3,12.3,4.4
		c0.4,0.2,0.7,0.5,1,0.7c3.8-2.2,7.8-3.6,12.2-4.4c3.1-0.5,6.8,1.3,7.4,4.2C372,66.7,369.2,69.1,366.2,69.6z"/>
	<path class="st0" d="M360.9,81.5c0.1,1.1-0.4,1.8-1.2,2.4c-2.2,1.6-5.9,1.2-8.1,0.4c-0.5-0.1-1-0.4-1.4-0.6c-2.4,0.7-5.6,1-7.5-0.5
		c-0.8-0.6-1.3-1.3-1.2-2.4s1.3-1.9,2.3-2.5c0.6-0.4,1.4-0.7,2.2-1c1.3-0.7,2.8-1.1,4.3-1.1c1.6-0.1,3.5,0.2,4.4,1.2
		c0.7,0.2,1.3,0.5,2,0.7c0.8,0.2,1.6,0.5,2.2,1C359.5,79.6,360.7,80.5,360.9,81.5z"/>
	<path class="st0" d="M358,93.6c0.1,2.6-1.8,4.7-4.1,5.9c-1.3,0.6-3,0.4-4.2-0.5c-0.5,0-1-0.1-1.4-0.4c-2.3-1.2-4.2-3.2-4.1-5.9
		c0.1-2,1.3-3.5,3.6-3.7c1.3-0.1,3,0.6,3.8,1.7c0.8-0.6,1.9-1,2.9-0.8C356.7,90.1,357.9,91.6,358,93.6z"/>
	<path class="st0" d="M202.8,396.4c-5.7,4,4.9,2,15.8-2.3c32.8-13,72.1-45.8,87.4-83c9.8-23.7,12.8-74.1,5.6-99.4
		c-1.7-5.7-5.9-24.3-6.6-15.8C309,250.9,328.4,339.5,202.8,396.4z"/>
	<path class="st0" d="M286.8,179.9c-3.7,0-3.5,5.6,0.2,5.6C290.7,185.7,290.5,179.9,286.8,179.9z"/>
	<path class="st0" d="M290.5,197.6c-2.5,0-2.5,4,0,4C293.1,201.5,293,197.6,290.5,197.6z"/>
	<path class="st0" d="M294.4,216.8c-2.9,0-3.8,3.8-0.6,3.8C296.6,220.6,297.7,216.8,294.4,216.8z"/>
	<path class="st0" d="M296.2,233.3c-3,0-2.5,4.3,0.4,4.3C299.6,237.6,299.2,233.3,296.2,233.3z"/>
	<path class="st0" d="M291.8,256.7c-0.8,0-2.9,0.2-2.9,1.4v2.4c0,1.2,1.7,1.8,2.6,1.8c0.8,0,2.9-0.2,2.9-1.4v-2.4
		C294.4,257.1,292.7,256.7,291.8,256.7z"/>
	<path class="st0" d="M289.6,275c-3.4,0-4.5,4.8-0.8,4.8C292.3,279.8,293.3,275,289.6,275z"/>
	<path class="st0" d="M283.3,294.9c-2.3,0-4.9,3.5-1.6,3.5C284,298.2,286.6,294.9,283.3,294.9z"/>
	<path class="st0" d="M262.3,170.4c-5.5,0-7.7,7.3-1.2,7.3C266.8,177.7,268.8,170.4,262.3,170.4z"/>
	<path class="st0" d="M266.6,185.1c-5.4,0-4.9,8.3,0.5,8.3C272.6,193.3,272,185.1,266.6,185.1z"/>
	<path class="st0" d="M271.4,205.2c-2.5,0-5.5,3.8-1.8,3.8C272.2,209.1,275.1,205.2,271.4,205.2z"/>
	<path class="st0" d="M272.4,223c-4.7,0-4.3,4.1,0.2,4.1C277.2,227.1,276.9,223,272.4,223z"/>
	<path class="st0" d="M271.9,235c-6.5,0-6.3,9.8,0.4,9.8C278.7,244.8,278.6,235,271.9,235z"/>
	<path class="st0" d="M270.7,251.9c-6.8,0-6.3,10.2,0.5,10.2C277.9,262.2,277.5,251.9,270.7,251.9z"/>
	<path class="st0" d="M267,274.3c-4.4,0-4.8,4.5-0.2,4.5C271.3,278.8,271.6,274.3,267,274.3z"/>
	<path class="st0" d="M264.9,285c-5.6,0-7.4,8.7-1.4,8.7C269,293.7,270.8,285,264.9,285z"/>
	<path class="st0" d="M196.4,160.3c-5.4,0-6.7,7.4-0.8,7.4C200.8,167.8,202.2,160.3,196.4,160.3z"/>
	<path class="st0" d="M219.1,162.2c-2.9,0-5.9,4.4-1.7,4.4C220.2,166.6,223.3,162.2,219.1,162.2z"/>
	<path class="st0" d="M234.2,168.6c-2.5,0-5.4,3.8-1.6,3.8C235,172.4,238,168.6,234.2,168.6z"/>
	<path class="st0" d="M241.6,182.1c-4,0-5.7,6.1-1.2,6.1C244.4,188.3,246.2,182.1,241.6,182.1z"/>
	<path class="st0" d="M245,199.6c-4.8,0-7.3,6.3-1.7,6.3C248.1,205.9,250.6,199.6,245,199.6z"/>
	<path class="st0" d="M244.4,215c-3.6,0-4.3,5-0.4,5C247.5,220,248.2,215,244.4,215z"/>
	<path class="st0" d="M242.2,229c-2.8,0-3,4.2-0.1,4.2C244.9,233.2,245.1,229,242.2,229z"/>
	<path class="st0" d="M239,244.9c-4.1,0-5.3,5.7-0.7,5.7C242.2,250.7,243.4,244.9,239,244.9z"/>
	<path class="st0" d="M231.8,261.2c-3.5,0-3.6,5.3,0,5.3C235.3,266.5,235.4,261.2,231.8,261.2z"/>
	<path class="st0" d="M226.8,271c-4.7,0-9.6,7.2-2.8,7.2C228.7,278.2,233.6,271,226.8,271z"/>
	<path class="st0" d="M202.4,182.7c-4.8,0-4.9,7.4-0.1,7.4C207,190.1,207.2,182.7,202.4,182.7z"/>
	<path class="st0" d="M221.5,186.4c-0.8-0.5-1.9-0.7-2.9-0.7c-1,0-2,0.1-2.9,0.7c-0.6,0.4-1.2,0.8-1.2,1.7v0.4
		c0,0.7,0.6,1.3,1.2,1.6c0.8,0.5,1.9,0.7,2.9,0.7c1,0,2-0.1,2.9-0.7c0.6-0.4,1.2-0.8,1.2-1.7V188C222.6,187.2,222,186.8,221.5,186.4
		z"/>
	<path class="st0" d="M223.6,198.8c-3.4,0-4.8,4.7-1,4.7C225.9,203.5,227.4,198.8,223.6,198.8z"/>
	<path class="st0" d="M221.6,215.4c-3.2,0-4.9,4.2-1.1,4.2C223.7,219.7,225.5,215.4,221.6,215.4z"/>
	<path class="st0" d="M215.5,227c-5.5,0-5.7,7.5-0.2,7.5C220.8,234.4,221,227,215.5,227z"/>
	<path class="st0" d="M209.2,239.5c-2.2,0-2.5,2.9-0.1,2.9C211.1,242.5,211.5,239.5,209.2,239.5z"/>
	<path class="st0" d="M198.5,251.5c-3.4,0-6,3.8-1.2,3.8C200.7,255.4,203.2,251.5,198.5,251.5z"/>
	<path class="st0" d="M202.6,204.4c-6.2,0-8.3,8.9-1.4,8.9C207.4,213.2,209.4,204.4,202.6,204.4z"/>
	<path class="st0" d="M195.7,223.7c-4.9,0-5.4,6.6-0.4,6.6C200.3,230.5,200.7,223.7,195.7,223.7z"/>
	<path class="st0" d="M185.6,238.1c-4.8,0-5,6-0.2,6C190.3,244.1,190.5,238.1,185.6,238.1z"/>
	<path class="st0" d="M173,148.9c-5,0-9.2,7.9-2.3,7.9C175.9,156.8,180.1,148.9,173,148.9z"/>
	<path class="st0" d="M177.9,170c-4.2,0-4.1,4.1,0,4.1C182.1,174.1,182.1,170,177.9,170z"/>
	<path class="st0" d="M535.6,134.2c3.7,0,3.7,5.1-0.1,5.1S531.8,134.2,535.6,134.2z"/>
	<path class="st0" d="M505.7,161.5c5.4,0,6.7,7.4,0.8,7.4C501.2,169,499.8,161.5,505.7,161.5z"/>
	<path class="st0" d="M483,163.4c2.9,0,5.9,4.4,1.7,4.4C481.8,167.8,478.8,163.4,483,163.4z"/>
	<path class="st0" d="M528.9,150.1c5,0,9.2,7.9,2.3,7.9C526.2,158,521.9,150.1,528.9,150.1z"/>
	<path class="st0" d="M524.1,171.2c4.2,0,4.1,4.1,0,4.1C520,175.3,520,171.2,524.1,171.2z"/>
	<path class="st0" d="M183.6,185.6c-2.4,0-5.5,1-6.8,3.2c-1,1.8-0.6,4.1,1.9,4.1c2.4,0,5.5-1,6.8-3.2
		C186.4,187.8,186.1,185.6,183.6,185.6z"/>
	<path class="st0" d="M179.5,202.9c-3.4,0-6.2,3.7-1.6,3.7C181.3,206.6,184.2,202.9,179.5,202.9z"/>
	<path class="st0" d="M172.8,215.4c-4.3,0-4.7,4.3-0.1,4.3C177,219.7,177.2,215.4,172.8,215.4z"/>
	<path class="st0" d="M165.7,221.7c-6.3,0-5.7,8.5,0.6,8.5C172.7,230.1,172,221.7,165.7,221.7z"/>
	<path class="st0" d="M131.5,94.1c-3.2,0-5.4,5-1.3,5C133.4,99.1,135.7,94.1,131.5,94.1z"/>
	<path class="st0" d="M138.1,115.5c-3.7,0-3.8,5.1-0.1,5.1C141.8,120.8,141.9,115.5,138.1,115.5z"/>
	<path class="st0" d="M143.1,136.4c-4,0-5.4,5-0.7,5C146.5,141.4,147.9,136.4,143.1,136.4z"/>
	<path class="st0" d="M153.6,154.7c-4,0-5.4,5.1-0.8,5.1C156.8,159.8,158.2,154.7,153.6,154.7z"/>
	<path class="st0" d="M164.7,172.9c-3.6,0-7.4,5.6-2,5.6C166.1,178.4,169.9,172.9,164.7,172.9z"/>
	<path class="st0" d="M159.6,186.9c-4.1,0-6.6,6.3-1.6,6.3C162.1,193.1,164.7,186.9,159.6,186.9z"/>
	<path class="st0" d="M150.5,204c-4,0-5.3,5.5-1,5.5C153.4,209.5,154.8,204,150.5,204z"/>
	<path class="st0" d="M140.6,215c-4.3,0-5.4,5.7-0.4,5.7C144.5,220.8,145.6,215,140.6,215z"/>
	<path class="st0" d="M130.1,203.9c-0.2-0.7-1.1-1.1-1.7-1.1c-1.9-0.4-4.3,0.5-5.7,1.9l-0.8,0.8c-0.5,0.5-1,1.2-0.7,1.9
		c0.2,0.7,1.1,1.1,1.7,1.1c1.9,0.4,4.3-0.5,5.7-1.9c0.2-0.2,0.5-0.5,0.8-0.8C129.8,205.3,130.3,204.5,130.1,203.9z"/>
	<path class="st0" d="M137.5,189.2c-2.2-1.2-5.1-0.6-6.8,1.1c-0.2,0.2-0.5,0.5-0.8,0.8c-0.7,0.7-1.4,1.8-1.4,2.9c0,1,0.6,2,1.4,2.5
		c2.2,1.2,5.1,0.6,6.8-1.1c0.2-0.2,0.5-0.5,0.8-0.8c0.7-0.7,1.4-1.8,1.4-2.9C138.9,190.7,138.3,189.6,137.5,189.2z"/>
	<path class="st0" d="M142.1,175.1c-2.9,0-3.1,4.2-0.2,4.2S145,175.1,142.1,175.1z"/>
	<path class="st0" d="M138.6,157.1c-4.4,0-8.4,6.7-2.5,6.7C140.4,163.8,144.4,157.1,138.6,157.1z"/>
	<path class="st0" d="M124.9,141.3c-6.1,0-5.3,8.1,0.6,8.1C131.6,149.4,130.9,141.3,124.9,141.3z"/>
	<path class="st0" d="M118.4,120.7c-1.9,0-3.1,3-0.7,3C119.6,123.7,120.8,120.7,118.4,120.7z"/>
	<path class="st0" d="M104.4,110.7c-1.9,0-6.5,3.7-3.1,3.7C103.4,114.5,107.8,110.7,104.4,110.7z"/>
	<path class="st0" d="M89.8,129.2c-3.6,0-4.9,5.1-0.8,5.1C92.6,134.3,93.8,129.2,89.8,129.2z"/>
	<path class="st0" d="M102.2,147c-4.1,0-4.1,6,0,6C106.2,153.1,106.2,147,102.2,147z"/>
	<path class="st0" d="M115.5,167.1c-1.7,0-3.8,2.5-1.2,2.5C115.9,169.8,118.1,167.1,115.5,167.1z"/>
	<path class="st0" d="M109.5,186.6c-2.5,0-3.1,3.5-0.4,3.5C111.6,190.1,112.2,186.6,109.5,186.6z"/>
	<path class="st0" d="M101.3,200.4c-4.4,0-4.4,4.8,0,4.8C105.8,205.2,105.8,200.4,101.3,200.4z"/>
	<path class="st0" d="M86,179.6c-6.5,0-6.1,6.3,0.2,6.3C92.7,186,92.3,179.6,86,179.6z"/>
	<path class="st0" d="M81.6,155c-4.3,0-5,6-0.4,6C85.5,161,86.2,155,81.6,155z"/>
	<path class="st0" d="M64,165.3c-6,0-6.3,6.2-0.2,6.2C69.6,171.6,70.1,165.3,64,165.3z"/>
	<path class="st0" d="M530.1,216.6c4.3,0,4.7,4.3,0.1,4.3C525.9,220.9,525.7,216.6,530.1,216.6z"/>
	<path class="st0" d="M537.3,222.9c6.3,0,5.7,8.5-0.6,8.5C530.4,231.3,531,222.9,537.3,222.9z"/>
	<path class="st0" d="M571.4,95.3c3.2,0,5.4,5,1.3,5C569.5,100.3,567.4,95.3,571.4,95.3z"/>
	<path class="st0" d="M564.8,116.7c3.7,0,3.8,5.1,0.1,5.1C561.3,122,561.1,116.7,564.8,116.7z"/>
	<path class="st0" d="M559.8,137.6c4,0,5.4,5,0.7,5C556.6,142.6,555.1,137.6,559.8,137.6z"/>
	<path class="st0" d="M549.4,155.9c4,0,5.4,5.1,0.8,5.1C546.2,161,544.7,155.9,549.4,155.9z"/>
	<path class="st0" d="M538.4,174.1c3.6,0,7.4,5.6,2,5.6C536.8,179.6,533,174.1,538.4,174.1z"/>
	<path class="st0" d="M543.4,188.1c4.1,0,6.6,6.3,1.6,6.3C540.9,194.3,538.4,188.1,543.4,188.1z"/>
	<path class="st0" d="M552.5,205.2c4,0,5.3,5.5,1,5.5C549.5,210.7,548.1,205.2,552.5,205.2z"/>
	<path class="st0" d="M562.3,216.2c4.3,0,5.4,5.7,0.4,5.7C558.4,222,557.3,216.2,562.3,216.2z"/>
	<path class="st0" d="M572.9,205.1c0.2-0.7,1.1-1.1,1.7-1.1c1.9-0.4,4.3,0.5,5.7,1.9l0.8,0.8c0.5,0.5,1,1.2,0.7,1.9
		c-0.2,0.7-1.1,1.1-1.7,1.1c-1.9,0.4-4.3-0.5-5.7-1.9c-0.2-0.2-0.5-0.5-0.8-0.8C573.1,206.5,572.6,205.7,572.9,205.1z"/>
	<path class="st0" d="M565.4,190.3c2.2-1.2,5.1-0.6,6.8,1.1c0.2,0.2,0.5,0.5,0.8,0.8c0.7,0.7,1.4,1.8,1.4,2.9c0,1-0.6,2-1.4,2.5
		c-2.2,1.2-5.1,0.6-6.8-1.1c-0.2-0.2-0.5-0.5-0.8-0.8c-0.7-0.7-1.4-1.8-1.4-2.9C564,191.9,564.6,190.8,565.4,190.3z"/>
	<path class="st0" d="M560.8,176.3c2.9,0,3.1,4.2,0.2,4.2C558.1,180.5,557.9,176.3,560.8,176.3z"/>
	<path class="st0" d="M564.5,158.3c4.4,0,8.4,6.7,2.5,6.7C562.6,165,558.6,158.3,564.5,158.3z"/>
	<path class="st0" d="M578,142.5c6.1,0,5.3,8.1-0.6,8.1C571.3,150.6,572,142.5,578,142.5z"/>
	<path class="st0" d="M584.5,121.9c1.9,0,3.1,3,0.7,3C583.3,124.9,582.1,121.9,584.5,121.9z"/>
	<path class="st0" d="M598.5,111.9c1.9,0,6.5,3.7,3.1,3.7C599.7,115.6,595.1,111.9,598.5,111.9z"/>
	<path class="st0" d="M613.2,130.4c3.6,0,4.9,5.1,0.8,5.1C610.3,135.5,609.1,130.4,613.2,130.4z"/>
	<path class="st0" d="M600.9,148.2c4.1,0,4.1,6,0,6C596.7,154.3,596.7,148.2,600.9,148.2z"/>
	<path class="st0" d="M587.5,168.3c1.7,0,3.8,2.5,1.2,2.5C587,171,584.8,168.3,587.5,168.3z"/>
	<path class="st0" d="M593.5,187.8c2.5,0,3.1,3.5,0.4,3.5C591.3,191.3,590.7,187.8,593.5,187.8z"/>
	<path class="st0" d="M601.6,201.6c4.4,0,4.4,4.8,0,4.8S597.3,201.6,601.6,201.6z"/>
	<path class="st0" d="M616.9,180.8c6.5,0,6.1,6.3-0.2,6.3C610.2,187.2,610.6,180.8,616.9,180.8z"/>
	<path class="st0" d="M621.5,156.2c4.3,0,5,6,0.4,6C617.4,162.2,616.7,156.2,621.5,156.2z"/>
	<path class="st0" d="M638.9,166.5c6,0,6.3,6.2,0.2,6.2C633.3,172.8,633,166.5,638.9,166.5z"/>
	<path class="st0" d="M416,182.3c3.7,0,3.5,5.6-0.2,5.6C412.1,188.1,412.3,182.3,416,182.3z"/>
	<path class="st0" d="M412.3,200c2.5,0,2.5,4,0,4C409.7,203.9,409.8,200,412.3,200z"/>
	<path class="st0" d="M408.4,219.2c2.9,0,3.8,3.8,0.6,3.8C406.2,223,405.2,219.2,408.4,219.2z"/>
	<path class="st0" d="M406.5,235.7c3,0,2.5,4.3-0.4,4.3S403.6,235.7,406.5,235.7z"/>
	<path class="st0" d="M411,259.1c0.8,0,2.9,0.2,2.9,1.4v2.4c0,1.2-1.7,1.8-2.6,1.8c-0.8,0-2.9-0.2-2.9-1.4v-2.4
		C408.4,259.5,410.1,259.1,411,259.1z"/>
	<path class="st0" d="M413.1,277.4c3.4,0,4.5,4.8,0.8,4.8C410.5,282.2,409.3,277.4,413.1,277.4z"/>
	<path class="st0" d="M419.5,297.2c2.3,0,4.9,3.5,1.6,3.5C418.8,300.6,416.2,297.2,419.5,297.2z"/>
	<path class="st0" d="M440.5,172.8c5.5,0,7.7,7.3,1.2,7.3C436,180.1,434,172.8,440.5,172.8z"/>
	<path class="st0" d="M436.2,187.5c5.4,0,4.9,8.3-0.5,8.3C430.2,195.7,430.8,187.5,436.2,187.5z"/>
	<path class="st0" d="M431.4,207.6c2.5,0,5.5,3.8,1.8,3.8C430.7,211.5,427.7,207.6,431.4,207.6z"/>
	<path class="st0" d="M430.4,225.4c4.7,0,4.3,4.1-0.2,4.1C425.5,229.5,425.9,225.4,430.4,225.4z"/>
	<path class="st0" d="M430.9,237.4c6.5,0,6.3,9.8-0.4,9.8C423.9,247.2,424.2,237.4,430.9,237.4z"/>
	<path class="st0" d="M432.1,254.3c6.8,0,6.3,10.2-0.5,10.2C424.8,264.6,425.3,254.3,432.1,254.3z"/>
	<path class="st0" d="M435.8,276.7c4.4,0,4.8,4.5,0.2,4.5C431.5,281.2,431.1,276.7,435.8,276.7z"/>
	<path class="st0" d="M438,287.4c5.6,0,7.4,8.7,1.4,8.7C433.8,296.1,432,287.4,438,287.4z"/>
	<path class="st0" d="M468.6,171c2.5,0,5.4,3.8,1.6,3.8C467.6,174.8,464.8,171,468.6,171z"/>
	<path class="st0" d="M461.2,184.5c4,0,5.7,6.1,1.2,6.1C458.4,190.7,456.6,184.5,461.2,184.5z"/>
	<path class="st0" d="M457.8,202c4.8,0,7.3,6.3,1.7,6.3C454.7,208.3,452.1,202,457.8,202z"/>
	<path class="st0" d="M458.4,217.4c3.6,0,4.3,5,0.4,5C455.2,222.4,454.5,217.4,458.4,217.4z"/>
	<path class="st0" d="M460.6,231.4c2.8,0,3,4.2,0.1,4.2C457.9,235.6,457.7,231.4,460.6,231.4z"/>
	<path class="st0" d="M463.8,247.3c4.1,0,5.3,5.7,0.7,5.7C460.5,253.1,459.3,247.3,463.8,247.3z"/>
	<path class="st0" d="M471,263.6c3.5,0,3.6,5.3,0,5.3C467.4,268.9,467.3,263.6,471,263.6z"/>
	<path class="st0" d="M476,273.4c4.7,0,9.6,7.2,2.8,7.2C474.1,280.6,469.2,273.4,476,273.4z"/>
	<path class="st0" d="M500.4,185.1c4.8,0,4.9,7.4,0.1,7.4C495.8,192.5,495.7,185.1,500.4,185.1z"/>
	<path class="st0" d="M481.3,188.8c0.8-0.5,1.9-0.7,2.9-0.7s2,0.1,2.9,0.7c0.6,0.4,1.2,0.8,1.2,1.7v0.4c0,0.7-0.6,1.3-1.2,1.6
		c-0.8,0.5-1.9,0.7-2.9,0.7s-2-0.1-2.9-0.7c-0.6-0.4-1.2-0.8-1.2-1.7v-0.4C480.1,189.6,480.8,189.2,481.3,188.8z"/>
	<path class="st0" d="M479.3,201.2c3.4,0,4.8,4.7,1,4.7C476.9,205.9,475.4,201.2,479.3,201.2z"/>
	<path class="st0" d="M481.2,217.8c3.2,0,4.9,4.2,1.1,4.2C479.1,222.1,477.3,217.8,481.2,217.8z"/>
	<path class="st0" d="M487.2,229.4c5.5,0,5.7,7.5,0.2,7.5C482,236.8,481.6,229.4,487.2,229.4z"/>
	<path class="st0" d="M493.6,241.9c2.2,0,2.5,2.9,0.1,2.9C491.7,244.9,491.3,241.9,493.6,241.9z"/>
	<path class="st0" d="M504.3,253.9c3.4,0,6,3.8,1.2,3.8C502.1,257.7,499.6,253.9,504.3,253.9z"/>
	<path class="st0" d="M500.2,206.7c6.2,0,8.3,8.9,1.4,8.9C495.4,215.6,493.4,206.7,500.2,206.7z"/>
	<path class="st0" d="M507.1,226.1c4.9,0,5.4,6.6,0.4,6.6C502.5,232.8,502,226.1,507.1,226.1z"/>
	<path class="st0" d="M517.2,240.5c4.8,0,5,6,0.2,6C512.5,246.5,512.3,240.5,517.2,240.5z"/>
	<path class="st0" d="M519.2,188c2.4,0,5.5,1,6.8,3.2c1,1.8,0.6,4.1-1.9,4.1c-2.4,0-5.5-1-6.8-3.2C516.2,190.2,516.7,188,519.2,188z
		"/>
	<path class="st0" d="M523.3,205.3c3.4,0,6.2,3.7,1.6,3.7C521.5,209,518.6,205.3,523.3,205.3z"/>
	<path class="st0" d="M57.4,544.7"/>
	<line class="st0" x1="26.5" y1="332" x2="26.5" y2="332"/>
	<path class="st0" d="M183.7,503.3c2.2,3.6,6.9,1,4.8-2.6C186.3,497.2,181.5,499.7,183.7,503.3z"/>
	<path class="st0" d="M177.1,515.1c3.7,6.1,11.3,0.4,7.7-5.7C181.1,503.4,173.5,509.1,177.1,515.1z"/>
	<path class="st0" d="M176.4,530c2.9,4.8,9.7,1.6,6.6-3.6C180,521.5,173.3,524.7,176.4,530z"/>
	<path class="st0" d="M175.3,542.2c3.1,5.3,8.7,2.6,5.5-2.8C177.6,534.2,172.1,536.8,175.3,542.2z"/>
	<path class="st0" d="M175.5,555.3c3.5,5.9,14.1,4.5,9.6-3C181.5,546.6,171,547.9,175.5,555.3z"/>
	<path class="st0" d="M182.4,568.3c2.2,3.6,7.8,1.2,5.5-2.4C185.8,562.3,180.2,564.7,182.4,568.3z"/>
	<path class="st0" d="M186,579.6c2.4,4,8.5,3.6,5.4-1.4C189,574.3,183,574.5,186,579.6z"/>
	<path class="st0" d="M188.4,593.5c3.1,5.3,12.3,3.7,8.5-2.8C193.6,585.5,184.4,587.1,188.4,593.5z"/>
	<path class="st0" d="M196.1,609.9c2.3,3.7,6.2,1.8,3.8-2C197.7,604.1,193.7,606.1,196.1,609.9z"/>
	<path class="st0" d="M202.4,622.6c2,3.4,6.8,1.8,4.5-2C204.9,617.1,200.1,618.8,202.4,622.6z"/>
	<path class="st0" d="M206.3,635.1c4,6.6,13.6,2.6,9.3-4.5C211.6,623.9,202,628,206.3,635.1z"/>
	<path class="st0" d="M215.9,649.2c3,5,9.7,0,6.7-5C219.7,639.1,212.9,644.2,215.9,649.2z"/>
	<path class="st0" d="M225.2,658.3c3.4,5.5,8.6,1.9,5.3-3.6C227.1,649.2,221.9,652.9,225.2,658.3z"/>
	<path class="st0" d="M203.8,500.6c2.9,4.8,9.2,0.1,6.3-4.7C207.3,491.2,200.9,495.8,203.8,500.6z"/>
	<path class="st0" d="M199.5,509.6c2.6,4.3,6.9,1.4,4.4-2.9C201.3,502.4,196.9,505.3,199.5,509.6z"/>
	<path class="st0" d="M194.3,520.4c2,3.4,6.1,0.7,4.2-2.6C196.5,514.5,192.3,517.2,194.3,520.4z"/>
	<path class="st0" d="M193.1,531.2c1.4,2.4,6.6,3.1,4.4-0.5C196,528.3,190.9,527.6,193.1,531.2z"/>
	<path class="st0" d="M194,546.5c3.2,5.4,11.5,2.5,8.1-3.1C198.9,538,190.5,540.7,194,546.5z"/>
	<path class="st0" d="M196.9,558.6c2.4,4,9.1,2.4,6.3-2C200.8,552.6,194.2,554.3,196.9,558.6z"/>
	<path class="st0" d="M199.8,572.8c3.6,6,13.4,3,9.5-3.6C205.6,563.2,195.8,566.1,199.8,572.8z"/>
	<path class="st0" d="M205.1,582.9c2.8,4.7,10.1,1.6,7.2-3.1C209.5,575.1,202.2,578.1,205.1,582.9z"/>
	<path class="st0" d="M211.2,594.6c2.8,4.5,7.5,0.8,4.8-3.6C213.3,586.5,208.5,590.2,211.2,594.6z"/>
	<path class="st0" d="M218.9,608.9c1.9,3.2,6.5,1.6,4.3-2.2C221.3,603.5,216.7,605.1,218.9,608.9z"/>
	<path class="st0" d="M226.2,620.2c2,3.4,6.3,1,4.3-2.5C228.5,614.4,224.1,616.8,226.2,620.2z"/>
	<path class="st0" d="M232.4,632.2c1.9,3.1,4.5,1.2,2.6-1.9C233.1,627.3,230.5,629.2,232.4,632.2z"/>
	<path class="st0" d="M240.4,646.4c3.1,5.1,10.2,0.4,7.1-4.8C244.4,636.5,237.3,641.3,240.4,646.4z"/>
	<path class="st0" d="M223.2,510.3c2.4,4.1,8.7,1.6,6.2-2.8C226.9,503.5,220.6,506,223.2,510.3z"/>
	<path class="st0" d="M213.4,519.7c3,4.9,10.2,3.7,6.7-2.2C217.1,512.6,209.8,513.8,213.4,519.7z"/>
	<path class="st0" d="M211.5,535c3.4,5.5,11.9,3.7,8-2.5C216.2,527,207.7,528.8,211.5,535z"/>
	<path class="st0" d="M217.7,549.1c1.8,3,4.7,1.2,2.9-1.8C218.8,544.3,215.9,546.1,217.7,549.1z"/>
	<path class="st0" d="M217.4,564.9c2.9,4.7,11,3.1,7.7-2.5C222.2,557.9,214.1,559.3,217.4,564.9z"/>
	<path class="st0" d="M223,579l0.2,0.4c1.4,2.3,4.3,4.1,6.8,2.9c2.3-1.1,3.5-4.1,1.9-6.5l-0.2-0.4c-1.4-2.3-4.3-4.1-6.8-2.9
		C222.7,573.7,221.5,576.7,223,579z"/>
	<path class="st0" d="M232.1,594c1.8,2.9,6.6,1.6,4.7-1.8C234.9,589.3,230,590.7,232.1,594z"/>
	<path class="st0" d="M243.5,610.8c0.7,1.2,1.7,2.5,2.9,3.4c0.8,0.5,1.9,1.1,2.8,0.5l0.7-0.5c2-1.2,0.7-5-0.2-6.7
		c-0.7-1.2-1.7-2.5-2.9-3.4c-0.8-0.5-1.9-1.1-2.8-0.5l-0.7,0.5C241.1,605.3,242.5,609.1,243.5,610.8z"/>
	<path class="st0" d="M257.9,625.1c1.9,3.2,6.3,0.5,4.3-2.8C260.3,619.2,255.9,621.9,257.9,625.1z"/>
	<path class="st0" d="M231.3,539.3c3.5,5.7,11.6,0.8,8.1-4.9C236,528.7,227.9,533.4,231.3,539.3z"/>
	<path class="st0" d="M231.7,552.2c2.5,4.3,8.4,1.6,5.6-3.1C234.7,544.8,228.9,547.6,231.7,552.2z"/>
	<path class="st0" d="M238.4,566.2c1.9,3.1,4.5,1.2,2.8-1.9C239.2,561.3,236.5,563.2,238.4,566.2z"/>
	<path class="st0" d="M242,574.9c-0.2,2,1,4.7,3.1,5.3c0.2,0.1,0.4,0.1,0.6,0.2c1.9,0.6,4.1-0.4,4.4-2.5c0.2-2-1-4.7-3.1-5.3
		c-0.2-0.1-0.4-0.1-0.6-0.2C244.5,571.7,242.3,572.7,242,574.9z"/>
	<path class="st0" d="M254.3,595.6c2.3,3.7,8.9,2.8,6.1-1.8C258.3,590.1,251.6,591,254.3,595.6z"/>
	<path class="st0" d="M158.4,533.8c3.2,5.4,8.4,2.2,5.1-3.2C160.3,525.2,155.2,528.4,158.4,533.8z"/>
	<path class="st0" d="M155,551.2c2.9,4.8,13.3,6.8,8.9-0.4C161.1,545.9,150.6,543.9,155,551.2z"/>
	<path class="st0" d="M161.8,573.1c2,3.4,9.1,4.2,6.1-0.7C165.9,568.9,158.9,568.2,161.8,573.1z"/>
	<path class="st0" d="M167.2,590.2c3.6,6,10.4,2,6.8-4S163.6,584.2,167.2,590.2z"/>
	<path class="st0" d="M181.2,625.4c3.5,5.6,10.3,1.3,6.8-4.3C184.5,615.3,177.7,619.6,181.2,625.4z"/>
	<path class="st0" d="M191,640.8c1.7,2.8,5.9,2.4,3.7-1C193.1,637.2,189,637.5,191,640.8z"/>
	<path class="st0" d="M199.7,660.3c4,6.6,9.1,3.1,5.1-3.4C200.9,650.4,195.8,653.7,199.7,660.3z"/>
	<path class="st0" d="M142.6,564.8c2.3,3.7,7.8,2.5,5.1-1.8C145.5,559.4,140,560.5,142.6,564.8z"/>
	<path class="st0" d="M146.1,586.6c0.2,0.7,0.6,1.6,0.8,2.3c0.6,1.6,1.9,3.1,3.7,3c1.4,0,2.8-1.3,2.2-3c-0.2-0.7-0.6-1.6-0.8-2.3
		c-0.6-1.6-1.9-3.1-3.7-3C146.8,583.7,145.5,585,146.1,586.6z"/>
	<path class="st0" d="M157.4,612.3c1.9,3.1,6.5,1.8,4.4-1.7C159.9,607.7,155.2,608.9,157.4,612.3z"/>
	<path class="st0" d="M164.4,628.7c2.2,3.7,7.8,1.4,5.5-2.4C167.6,622.6,162,624.9,164.4,628.7z"/>
	<path class="st0" d="M174.7,647.3c1.7,2.9,7.7,3.6,5.3-0.5C178.2,643.9,172.2,643.1,174.7,647.3z"/>
	<path class="st0" d="M174.6,608.3c2.4,4,8.5,3.6,5.4-1.4C177.6,602.9,171.6,603.2,174.6,608.3z"/>
	
		<ellipse transform="matrix(0.8562 -0.5167 0.5167 0.8562 -221.9635 147.6566)" class="st0" cx="154.2" cy="472.5" rx="6.9" ry="20.7"/>
	
		<ellipse transform="matrix(0.8562 -0.5167 0.5167 0.8562 -213.3216 155.7676)" class="st0" cx="173.1" cy="461.1" rx="5.4" ry="15"/>
	
		<ellipse transform="matrix(0.8562 -0.5167 0.5167 0.8562 -205.2667 163.4072)" class="st0" cx="190.9" cy="450.4" rx="3.4" ry="9.3"/>
	<path class="st0" d="M188,488.1c2,3.4,7.2,1.8,5-1.9C190.9,482.8,185.7,484.4,188,488.1z"/>
	<path class="st0" d="M196.5,475.1c2.2,3.6,7.2,2.9,4.4-1.6C198.8,470,193.7,470.6,196.5,475.1z"/>
	<path class="st0" d="M137.5,627.5c0,0-31.1-66.4,15-120.7c4,0.1-23.8,30.3-22.7,71.3C130.5,608.5,141.5,620.6,137.5,627.5z"/>
	<path class="st0" d="M111.4,594.3c0,0-15-66.3,42.6-99.6c3.8,1.2-30.3,19.2-38.7,54.8C109,575.7,116.9,589.5,111.4,594.3z"/>
	<path class="st0" d="M84,560.9c1.7,3.7,3.6,7.2,5.9,10.7c1.2,1.8,3.6,3.1,5.5,2.2c1.8-1,2.3-3.7,1.1-5.5c-1.8-2.8-3.6-5.5-4.9-8.5
		c-1-2-2.8-3.8-5.1-3.5C84.4,556.4,83,558.8,84,560.9z"/>
	<path class="st0" d="M67.7,534c0.8,3.6,1.7,7.1,2.6,10.7c1.1,4.2,7.4,3.7,6.3-0.6c-0.8-3.6-1.7-7.1-2.6-10.7
		C73.1,529.2,66.6,529.7,67.7,534z"/>
	<path class="st0" d="M83,526.9c-0.5,4,1.2,7.2,3.1,10.8c2.6,5,5.4,10.2,8,15.2c1.6,2.9,5.7,2.8,3.8-0.8c-1.8-3.4-3.6-6.7-5.4-10.2
		c-1.7-3.2-5.4-8.1-4.9-11.9C88,527.6,83.4,523.7,83,526.9z"/>
	<path class="st0" d="M92.6,515.6c0.6,7.7,2.8,15.2,6.5,22.1c1.1,1.9,3.5,4.4,5.7,3.7c2.3-0.7,2-3.6,1.1-5.5
		c-2.9-5.5-4.5-11.3-5-17.4C100.5,514.2,92.1,509.3,92.6,515.6z"/>
	<path class="st0" d="M141,431c-2.2-3.6,2.4-6.6,4.5-3C147.7,431.6,143.2,434.6,141,431z"/>
	<path class="st0" d="M127.4,431.2c-3.7-6.1,5-10.1,8.6-4.1C139.8,433.2,131.1,437.2,127.4,431.2z"/>
	<path class="st0" d="M114.1,425c-2.9-4.8,3.1-9.3,6.2-4.1C123.2,425.7,117.2,430.2,114.1,425z"/>
	<path class="st0" d="M102.8,420.2c-3.1-5.3,1.8-8.9,5-3.5C110.9,422,106,425.6,102.8,420.2z"/>
	<path class="st0" d="M91.2,414c-3.5-5.9,2.6-14.6,7.1-7.1C101.7,412.7,95.6,421.4,91.2,414z"/>
	<path class="st0" d="M82.9,401.8c-2.2-3.6,2.5-7.4,4.7-3.8C89.8,401.6,85.2,405.5,82.9,401.8z"/>
	<path class="st0" d="M74.6,393.4c-2.4-4,0.7-9.2,3.7-4.2C80.7,393.3,77.6,398.4,74.6,393.4z"/>
	<path class="st0" d="M63.4,384.9c-3.1-5.3,2.5-12.7,6.3-6.2C73,383.8,67.2,391.2,63.4,384.9z"/>
	<path class="st0" d="M52.5,370.3c-2.3-3.7,1.3-6.3,3.6-2.5S54.8,374.1,52.5,370.3z"/>
	<path class="st0" d="M44.2,358.8c-2-3.4,1.6-6.8,4-3C50.2,359.1,46.5,362.6,44.2,358.8z"/>
	<path class="st0" d="M35,349.6c-4-6.6,4.1-13.3,8.4-6.2C47.3,350,39.2,356.6,35,349.6z"/>
	<path class="st0" d="M27,334.5c-3-5,4.5-8.6,7.5-3.6C37.5,335.8,30,339.4,27,334.5z"/>
	<path class="st0" d="M23.2,322c-3.4-5.5,2.4-8.5,5.6-3C32.1,324.5,26.5,327.4,23.2,322z"/>
	<path class="st0" d="M152.8,414.4c-2.9-4.8,4.2-8.1,7.1-3.5C162.7,415.8,155.7,419.1,152.8,414.4z"/>
	<path class="st0" d="M142.7,414.1c-2.6-4.3,1.9-6.8,4.5-2.6C149.9,415.9,145.4,418.4,142.7,414.1z"/>
	<path class="st0" d="M130.8,413.6c-2-3.4,2.3-5.7,4.3-2.5C137.1,414.4,132.8,416.8,130.8,413.6z"/>
	<path class="st0" d="M120.7,409.7c-1.4-2.4,0.4-7.2,2.5-3.6C124.7,408.5,122.9,413.2,120.7,409.7z"/>
	<path class="st0" d="M107.7,401.8c-3.2-5.4,3.1-11.4,6.6-5.7C117.5,401.4,111,407.4,107.7,401.8z"/>
	<path class="st0" d="M98.2,393.6c-2.4-4,2.2-9.1,4.8-4.7C105.4,392.8,100.8,397.9,98.2,393.6z"/>
	<path class="st0" d="M87.1,384.3c-3.6-6,3.6-13.3,7.7-6.7C98.2,383.7,91,391,87.1,384.3z"/>
	<path class="st0" d="M80.6,374.9c-2.8-4.7,3.2-9.7,6.1-4.9C89.6,374.7,83.5,379.7,80.6,374.9z"/>
	<path class="st0" d="M73.1,364c-2.8-4.5,2.8-7.1,5.4-2.5C81.2,366.1,75.7,368.6,73.1,364z"/>
	<path class="st0" d="M64.1,350.6c-1.9-3.2,1.7-6.5,4-2.8C70,351.1,66.3,354.2,64.1,350.6z"/>
	<path class="st0" d="M57.4,338.9c-2-3.4,2.2-6,4.2-2.6C63.6,339.6,59.4,342.3,57.4,338.9z"/>
	<path class="st0" d="M49.6,327.8c-1.9-3.1,1.1-4.5,2.9-1.6C54.4,329.5,51.5,330.9,49.6,327.8z"/>
	<path class="st0" d="M40.8,314c-3.1-5.1,4.4-9.2,7.5-4.1C51.5,315.2,43.9,319.2,40.8,314z"/>
	<path class="st0" d="M153.3,392.8c-2.4-4.1,2.8-8.4,5.3-4.2C160.9,392.7,155.8,397.1,153.3,392.8z"/>
	<path class="st0" d="M140.4,397.1c-3-4.9,1.6-10.8,5-4.9C148.4,397.1,143.9,403,140.4,397.1z"/>
	<path class="st0" d="M125.9,391.6c-3.4-5.5,2.3-12.2,6-6C135.2,391.1,129.7,397.8,125.9,391.6z"/>
	<path class="st0" d="M116.3,379.5c-1.8-3,1.1-4.7,2.9-1.7C121,380.8,118.1,382.5,116.3,379.5z"/>
	<path class="st0" d="M102.2,372.4c-2.9-4.7,2.4-11.1,5.7-5.6C110.8,371.5,105.6,378.1,102.2,372.4z"/>
	<path class="st0" d="M92.3,360.9l-0.2-0.4c-1.4-2.3-1.6-5.7,0.6-7.3c1.9-1.4,5.1-1.2,6.7,1.3l0.2,0.4c1.4,2.3,1.6,5.7-0.6,7.3
		C97,363.7,93.8,363.3,92.3,360.9z"/>
	<path class="st0" d="M83.4,346c-1.8-2.9,1.7-6.6,3.7-3.2C88.8,345.6,85.3,349.2,83.4,346z"/>
	<path class="st0" d="M73.8,328c-0.7-1.2-1.6-2.6-1.6-4.1c0-1,0-2.2,0.8-2.6l0.7-0.5c2-1.2,4.8,1.7,5.9,3.4c0.7,1.2,1.6,2.6,1.6,4.1
		c0,1,0,2.2-0.8,2.6l-0.7,0.5C77.6,332.6,74.9,329.7,73.8,328z"/>
	<path class="st0" d="M67.8,308.5c-1.9-3.2,2.5-5.7,4.4-2.5C74.2,309.2,69.7,311.9,67.8,308.5z"/>
	<path class="st0" d="M131.4,372.1c-3.5-5.7,4.7-10.8,8.1-4.9C143,372.9,134.8,377.8,131.4,372.1z"/>
	<path class="st0" d="M120.1,365.7c-2.5-4.3,2.6-8.1,5.4-3.5C128,366.4,122.9,370.4,120.1,365.7z"/>
	<path class="st0" d="M110.8,353.3c-1.9-3.1,1.1-4.7,3-1.6C115.6,354.8,112.6,356.3,110.8,353.3z"/>
	<path class="st0" d="M104.9,346c-1.9-0.7-3.6-3-3.2-5.1c0-0.2,0.1-0.5,0.1-0.6c0.4-2,2.3-3.5,4.3-2.6c1.9,0.7,3.6,3,3.2,5.1
		c0,0.2-0.1,0.5-0.1,0.6C108.9,345.3,107,346.8,104.9,346z"/>
	<path class="st0" d="M92.3,325.5c-2.3-3.7,1.7-9.2,4.4-4.7C99.1,324.5,95.1,330.1,92.3,325.5z"/>
	<path class="st0" d="M102.3,439.1c-3.2-5.4,2-8.5,5.3-3.1C110.8,441.4,105.5,444.5,102.3,439.1z"/>
	<path class="st0" d="M85.4,434.1c-2.9-4.8,0.1-15,4.5-7.7C92.7,431.1,89.7,441.4,85.4,434.1z"/>
	<path class="st0" d="M69.1,417.8c-2-3.4,0.5-9.9,3.5-5C74.6,416.1,72.1,422.7,69.1,417.8z"/>
	<path class="st0" d="M56.4,405.1c-3.6-6,3.1-10.2,6.7-4.2C66.7,406.9,60,411.1,56.4,405.1z"/>
	<path class="st0" d="M31.9,376.4c-3.5-5.6,3.6-9.7,7.1-4C42.3,378.1,35.2,382,31.9,376.4z"/>
	<path class="st0" d="M22.7,360.5c-1.7-2.8,0.6-6.2,2.6-2.9C27,360.2,24.8,363.8,22.7,360.5z"/>
	<path class="st0" d="M9.6,343.6c-4-6.6,1.4-9.6,5.4-3C19,347.2,13.5,350.2,9.6,343.6z"/>
	<path class="st0" d="M67.4,438.6c-2.3-3.7,1.4-8.1,4-3.8C73.7,438.6,70.1,442.9,67.4,438.6z"/>
	<path class="st0" d="M49.7,425.3c-0.5-0.6-1.1-1.2-1.6-1.8c-1.1-1.2-1.8-3.1-1-4.7c0.7-1.2,2.5-1.8,3.6-0.5
		c0.5,0.6,1.1,1.2,1.6,1.8c1.1,1.2,1.8,3.1,1,4.7C52.7,426.1,50.9,426.7,49.7,425.3z"/>
	<path class="st0" d="M32.3,403.4c-1.9-3.1,1.4-6.6,3.5-3.1C37.6,403.4,34.3,407,32.3,403.4z"/>
	<path class="st0" d="M21,389.5c-2.2-3.7,2.4-7.5,4.7-3.7C27.9,389.5,23.3,393.4,21,389.5z"/>
	<path class="st0" d="M9.5,371.8c-1.7-2.9,0.4-8.5,2.9-4.4C14.1,370.4,11.9,376,9.5,371.8z"/>
	<path class="st0" d="M43.9,390.1c-2.4-4,0.7-9.2,3.7-4.2C50.1,390,47,395.2,43.9,390.1z"/>
	<path class="st0" d="M156.5,434.3c-2-3.4,1.8-7.3,4.1-3.6C162.5,434.2,158.8,438,156.5,434.3z"/>
	<path class="st0" d="M172,432.8c-2.2-3.6,0.7-7.7,3.5-3.2C177.6,433.1,174.6,437.3,172,432.8z"/>
	<path class="st0" d="M169,414.4c-2.6-4.4,1.1-12.6,4.9-6.2C176.6,412.7,172.9,420.9,169,414.4z"/>
	<path class="st0" d="M9.5,414c0,0,44.3,58.4,113.7,43c1.8-3.6-37.8,7.1-73.7-13.2C23.3,428.9,17.5,413.6,9.5,414z"/>
	<path class="st0" d="M26.9,452.6c0,0,51.7,44.2,108,8.7c0.7-4-31,18-66.6,8.7C42.2,463.3,33.7,449.9,26.9,452.6z"/>
	<path class="st0" d="M43.6,492.4c-2.5-3.2-4.8-6.5-6.7-10.1c-1.1-1.9-1.2-4.7,0.7-5.9c1.7-1.2,4.3-0.4,5.4,1.7
		c1.6,2.9,3.2,5.7,5.3,8.3c1.4,1.8,2.2,4.3,0.7,6.1C47.8,493.9,45.1,494.2,43.6,492.4z"/>
	<path class="st0" d="M59.8,519.3c-2.8-2.4-5.5-4.8-8.1-7.2c-3.2-2.9,0.2-8.3,3.5-5.4c2.8,2.4,5.5,4.8,8.1,7.2
		C66.6,516.8,63.1,522.2,59.8,519.3z"/>
	<path class="st0" d="M73.2,509c-3.8-1.4-5.9-4.4-8.1-7.8c-3.2-4.7-6.5-9.5-9.7-14.2c-1.9-2.8,0.2-6.3,2.5-3
		c2.2,3.1,4.3,6.3,6.5,9.5c2,3,4.7,8.5,8.1,9.8C74.9,504.3,76.2,510.2,73.2,509z"/>
	<path class="st0" d="M87.7,505.9c-6.6-4.1-12.2-9.5-16.6-16c-1.2-1.8-2.3-5.1-0.6-6.8c1.7-1.7,4.2-0.1,5.4,1.7
		c3.5,5.1,7.8,9.2,13,12.4C92.6,499.6,93.1,509.3,87.7,505.9z"/>
	<path class="st0" d="M100.2,486.9c1.3,1.6,3.5,3.4,5.3,4.3c2.8,1.4,4.9,4.9,4,8c0,0.1,0,0.2-0.1,0.2c2.6,1.1,4.3,4.2,4.4,7.1
		c0,2,0.6,4.8,1.3,6.7c1.1,2.9,0.5,6.3-2.5,7.4c-2.9,1-6.3-1.3-7.4-4.2c-1.7-4.2-2.5-8.4-2.5-12.8c0-0.5,0-0.8,0.1-1.2
		c-3.8-2.2-7.2-4.8-10.1-8.1c-2-2.4-2.4-6.5-0.2-8.6C94.9,483.4,98.2,484.6,100.2,486.9z"/>
	<path class="st0" d="M113.3,485.3c0.8-0.7,1.7-0.6,2.6-0.2c2.5,1,4,4.4,4.5,6.8c0.1,0.5,0.1,1,0.2,1.6c1.8,1.7,3.7,4.3,3.5,6.7
		c-0.1,1.1-0.5,1.8-1.4,2.3c-1,0.5-2.4-0.1-3.4-0.6c-0.6-0.4-1.3-0.8-1.9-1.4c-1.3-0.7-2.3-1.9-3.1-3.1c-0.8-1.2-1.6-3-1.3-4.4
		c-0.2-0.7-0.4-1.4-0.4-2.2c-0.2-0.8-0.4-1.7-0.4-2.4C112.3,487.5,112.5,485.9,113.3,485.3z"/>
	<path class="st0" d="M125.1,481.5c2.2-1.4,4.9-0.8,7.2,0.5c1.2,0.7,1.9,2.4,1.8,3.8c0.2,0.4,0.4,0.8,0.4,1.3
		c0.2,2.6-0.6,5.3-2.9,6.6c-1.8,1-3.6,0.6-5-1.1c-0.8-1.1-1.1-2.9-0.5-4.1c-1-0.5-1.8-1.2-2.2-2
		C122.9,484.5,123.5,482.7,125.1,481.5z"/>
	<path class="st0" d="M464.6,465.9c6.2,3.2-0.5-5.4-9.2-13c-26.6-23.2-73.6-43.2-113.7-40c-25.6,2-71.8,22.4-91,40.2
		c-4.4,4.1-18.9,16.3-11.1,13C286.8,437.7,356.8,380,464.6,465.9z"/>
	<path class="st0" d="M235.9,497.9c1.9,3.1,6.6,0,4.7-3.1C238.6,491.5,234,494.7,235.9,497.9z"/>
	<path class="st0" d="M249,485.6c1.3,2.2,4.7,0.1,3.4-2C251.1,481.4,247.7,483.4,249,485.6z"/>
	<path class="st0" d="M263.4,472.3c1.4,2.4,5.3,1.3,3.6-1.4C265.7,468.4,261.7,469.5,263.4,472.3z"/>
	<path class="st0" d="M276.6,462.2c1.6,2.5,5-0.1,3.5-2.6C278.6,457.1,275.1,459.7,276.6,462.2z"/>
	<path class="st0" d="M298.8,454c0.4,0.7,1.6,2.3,2.6,1.7l2-1.2c1.1-0.6,0.6-2.3,0.1-3.1c-0.4-0.7-1.6-2.3-2.6-1.7l-2,1.2
		C298,451.4,298.5,453.1,298.8,454z"/>
	<path class="st0" d="M315.7,446.3c1.8,2.9,6.5,1.4,4.5-1.8C318.5,441.6,313.8,443.1,315.7,446.3z"/>
	<path class="st0" d="M336,441.5c1.2,1.9,5.5,2.4,3.8-0.5C338.6,439.1,334.3,438.6,336,441.5z"/>
	<path class="st0" d="M240.3,523.7c2.9,4.8,10.2,2.8,6.8-2.8C244.3,516.2,237,518.2,240.3,523.7z"/>
	<path class="st0" d="M250.6,512.5c2.8,4.7,9.7-0.1,6.8-4.7C254.7,503.2,247.9,507.8,250.6,512.5z"/>
	<path class="st0" d="M265.4,498c1.3,2.2,6.2,2.8,4.3-0.5C268.3,495.4,263.4,494.8,265.4,498z"/>
	<path class="st0" d="M280.2,487.9c2.4,4,5.7,1.6,3.4-2.3C281.1,481.6,277.8,484,280.2,487.9z"/>
	<path class="st0" d="M290.6,482.1c3.4,5.6,11.7,0.2,8.3-5.4C295.5,471.2,287.1,476.5,290.6,482.1z"/>
	<path class="st0" d="M305.8,474.4c3.5,5.9,12,0.2,8.5-5.7C310.7,462.9,302.2,468.6,305.8,474.4z"/>
	<path class="st0" d="M326.9,466c2.3,3.8,6.3,1.7,4.1-2.2C328.5,460.1,324.5,462.1,326.9,466z"/>
	<path class="st0" d="M337.2,462.3c2.9,4.8,11.3,1.8,8.1-3.4C342.4,454.2,334,457.3,337.2,462.3z"/>
	<path class="st0" d="M265.8,585.5c2.8,4.5,9.8,1.9,6.8-3.1C269.9,577.7,262.7,580.4,265.8,585.5z"/>
	<path class="st0" d="M255.6,564.9c1.4,2.5,6.8,2.8,4.7-0.8C258.9,561.7,253.5,561.3,255.6,564.9z"/>
	<path class="st0" d="M253.2,548.8c1.3,2.2,6.1,2.6,4.1-0.6C256,546,251.2,545.5,253.2,548.8z"/>
	<path class="st0" d="M261,535.5c2,3.4,8.3,1.8,5.9-2.2C264.9,529.8,258.6,531.5,261,535.5z"/>
	<path class="st0" d="M274.2,523.5c2.4,4.1,9.2,3,6.2-1.9C278,517.5,271.3,518.6,274.2,523.5z"/>
	<path class="st0" d="M287.7,516.1c1.8,3.1,6.6,1.1,4.5-2.3C290.5,510.7,285.7,512.7,287.7,516.1z"/>
	<path class="st0" d="M300.8,510.7c1.4,2.4,5.1,0.4,3.7-2C303,506.1,299.3,508.3,300.8,510.7z"/>
	<path class="st0" d="M316.2,505.2c2.2,3.5,7.7,1.6,5.3-2.3C319.4,499.4,313.9,501.4,316.2,505.2z"/>
	<path class="st0" d="M333.8,502.9c1.8,3,6.3,0.4,4.4-2.8C336.4,497.3,331.9,499.8,333.8,502.9z"/>
	<path class="st0" d="M344.8,502.2c2.4,4,11.1,4.4,7.7-1.3C350,496.8,341.2,496.3,344.8,502.2z"/>
	<path class="st0" d="M281.8,568.8c2.5,4.1,8.9,0.4,6.3-3.8C285.8,560.9,279.3,564.7,281.8,568.8z"/>
	<path class="st0" d="M275.1,550.4c0,1,0.4,2,0.8,2.8c0.5,0.8,1.2,1.7,2,2c0.6,0.4,1.3,0.6,2,0.1l0.4-0.2c0.6-0.4,0.8-1.2,0.8-1.8
		c0-1-0.4-2-0.8-2.8c-0.5-0.8-1.2-1.7-2-2c-0.6-0.4-1.3-0.6-2-0.1l-0.4,0.2C275.3,549,275.1,549.8,275.1,550.4z"/>
	<path class="st0" d="M284.7,542.3c1.8,2.9,6.5,1.7,4.5-1.7C287.5,537.7,282.7,538.9,284.7,542.3z"/>
	<path class="st0" d="M299.9,535.4c1.7,2.8,6.1,2,4.2-1.2C302.4,531.4,297.9,532,299.9,535.4z"/>
	<path class="st0" d="M312.9,534.5c2.9,4.7,9.5,1.1,6.6-3.7C316.6,526.3,310,529.8,312.9,534.5z"/>
	<path class="st0" d="M327,533.6c1.1,1.8,3.8,0.6,2.5-1.4C328.5,530.3,325.8,531.5,327,533.6z"/>
	<path class="st0" d="M342.8,536.4c1.8,2.9,6.3,3.1,4-1C344.8,532.6,340.3,532.4,342.8,536.4z"/>
	<path class="st0" d="M300.2,557.4c3.2,5.3,11.9,2.5,8.4-3.4C305.3,548.6,296.7,551.5,300.2,557.4z"/>
	<path class="st0" d="M320.4,553.2c2.5,4.2,8.5,1.2,5.9-3.1C323.7,545.9,317.9,548.9,320.4,553.2z"/>
	<path class="st0" d="M337.9,554.4c2.5,4.1,7.8,1.2,5.3-3C340.6,547.3,335.4,550.3,337.9,554.4z"/>
	<path class="st0" d="M268.1,611.3c2.6,4.3,11.5,3.8,7.9-2.2C273.4,604.8,264.4,605.3,268.1,611.3z"/>
	<path class="st0" d="M283.6,596.2c2.2,3.6,5.6,1.4,3.5-2.2C284.8,590.5,281.5,592.6,283.6,596.2z"/>
	<path class="st0" d="M68.2,308.4c-1.9-3.2,2.5-5.7,4.4-2.5C74.5,309.1,70.1,311.7,68.2,308.4z"/>
	<path class="st0" d="M107,320c-2.8-4.5,2.9-9.6,6-4.5C115.7,320,109.9,325,107,320z"/>
	<path class="st0" d="M120.4,338.4c-1.4-2.5,0.7-7.3,2.9-3.7C124.8,337.1,122.5,342,120.4,338.4z"/>
	<path class="st0" d="M85.2,305.9c-2.6-4.3,1.9-12,5.5-6C93.3,304.3,88.9,312,85.2,305.9z"/>
	<path class="st0" d="M105.8,299.2c-2.2-3.6,1.3-5.6,3.5-2C111.4,300.7,107.9,302.8,105.8,299.2z"/>
	<path class="st0" d="M293.9,583.4c1.2,2,3.6,4.3,6.2,4.2c2-0.1,3.8-1.6,2.5-3.7c-1.2-2-3.6-4.3-6.2-4.2
		C294.4,579.6,292.6,581.2,293.9,583.4z"/>
	<path class="st0" d="M310.9,577.9c1.7,2.9,6.5,3.4,4.1-0.6C313.2,574.4,308.4,573.9,310.9,577.9z"/>
	<path class="st0" d="M325.1,577.1c2.3,3.7,6.1,1.7,3.8-2C326.6,571.3,322.8,573.3,325.1,577.1z"/>
	<path class="st0" d="M334.2,580c3.4,5.5,10.2,0.6,6.9-4.8C337.8,569.7,330.9,574.6,334.2,580z"/>
	<path class="st0" d="M242.6,675.2c1.7,2.8,7.1,2,4.9-1.4C245.8,670.9,240.4,671.6,242.6,675.2z"/>
	<path class="st0" d="M257.5,658.4c1.9,3.2,6.5,0.6,4.4-2.6C260.1,652.7,255.6,655.2,257.5,658.4z"/>
	<path class="st0" d="M272.8,643.3c2,3.4,7.1,2,4.7-2C275.4,637.9,270.4,639.3,272.8,643.3z"/>
	<path class="st0" d="M283,624.9c2,3.4,7.2,2,4.8-1.9C285.8,619.6,280.7,620.9,283,624.9z"/>
	<path class="st0" d="M292.9,606.1c1.8,3.1,8.6,3.5,5.9-1.1C296.8,601.9,290.1,601.6,292.9,606.1z"/>
	<path class="st0" d="M307.5,603.2c2.2,3.5,8.9,2.4,6.2-1.9C311.5,597.8,304.8,598.9,307.5,603.2z"/>
	<path class="st0" d="M326.9,602.2c2,3.4,7.4,1.7,5.1-2C330,596.8,324.6,598.3,326.9,602.2z"/>
	<path class="st0" d="M341.3,604.8c2.3,3.7,7.7,1.7,5.1-2.6C344.3,598.6,338.8,600.6,341.3,604.8z"/>
	<path class="st0" d="M337.3,619.6c-0.5,0.5-0.4,1.4-0.1,2c0.7,1.8,2.6,3.5,4.5,4l1.1,0.2c0.6,0.1,1.6,0.1,2-0.4
		c0.5-0.5,0.4-1.4,0.1-2c-0.7-1.8-2.6-3.5-4.5-4c-0.4-0.1-0.7-0.2-1.1-0.2C338.6,619.2,337.8,619.2,337.3,619.6z"/>
	<path class="st0" d="M320.9,620.9c0.1,2.4,2.2,4.8,4.4,5.4c0.4,0.1,0.7,0.2,1.1,0.2c1.1,0.2,2.3,0.4,3.1-0.2
		c0.8-0.5,1.4-1.6,1.4-2.5c-0.1-2.4-2.2-4.8-4.4-5.4c-0.4-0.1-0.7-0.2-1.1-0.2c-1.1-0.2-2.3-0.4-3.1,0.2
		C321.5,618.9,320.9,619.9,320.9,620.9z"/>
	<path class="st0" d="M306.5,624.2c1.4,2.5,5.1,0.5,3.7-1.9C308.7,619.8,305,621.7,306.5,624.2z"/>
	<path class="st0" d="M292.9,636.6c2.3,3.7,10.1,3.7,7.1-1.3C297.7,631.6,289.9,631.6,292.9,636.6z"/>
	<path class="st0" d="M286.3,656.4c3.1,5.1,9.7,0.4,6.6-4.8C289.9,646.4,283.2,651.4,286.3,656.4z"/>
	<path class="st0" d="M272,672.7c1,1.7,4.1,1.1,2.9-1C273.9,670,270.8,670.6,272,672.7z"/>
	<path class="st0" d="M270.7,689.8c1,1.7,6.5,3.6,4.8,0.7C274.5,688.8,269,686.9,270.7,689.8z"/>
	<path class="st0" d="M294.2,692.8c1.9,3.1,6.9,1.4,4.9-1.9C297.2,687.7,292,689.3,294.2,692.8z"/>
	<path class="st0" d="M303.2,672.9c2.2,3.5,7.3,0.4,5.1-3.1C306.2,666.3,301,669.4,303.2,672.9z"/>
	<path class="st0" d="M313.5,651.1c0.8,1.4,4.2,1.9,2.8-0.4C315.4,649.4,312,648.8,313.5,651.1z"/>
	<path class="st0" d="M333.2,646.2c1.3,2.2,4.7,1,3.2-1.4C335.1,642.6,331.8,643.8,333.2,646.2z"/>
	<path class="st0" d="M349.1,646.1c2.3,3.8,6.3,1.3,4.1-2.5C350.9,639.9,346.9,642.4,349.1,646.1z"/>
	<path class="st0" d="M339.3,669.9c3.4,5.5,8.6,1.9,5.3-3.5C341.2,660.9,336,664.4,339.3,669.9z"/>
	<path class="st0" d="M320.5,686.4c2.3,3.7,7.8,1.2,5.4-2.8C323.6,680,318.1,682.4,320.5,686.4z"/>
	<path class="st0" d="M338.5,696.2c3.1,5.1,8.6,2.3,5.5-3C340.9,688.1,335.4,691,338.5,696.2z"/>
	<path class="st0" d="M141.4,270.6c-2.3-3.7,1.3-6.2,3.6-2.4C147.3,272,143.7,274.4,141.4,270.6z"/>
	<path class="st0" d="M143.1,261.2c-3.4-5.5,4.3-9.3,7.5-3.8C154,262.8,146.5,266.6,143.1,261.2z"/>
	<path class="st0" d="M16.3,297.8c-1.7-2.8,1.4-7.2,3.6-3.7C21.6,296.9,18.4,301.4,16.3,297.8z"/>
	<path class="st0" d="M38,292.5c-1.9-3.2,2.4-6,4.4-2.8C44.3,292.8,40,295.7,38,292.5z"/>
	<path class="st0" d="M58.5,286c-2-3.4,1.6-7.2,4-3.1C64.5,286.2,60.9,289.9,58.5,286z"/>
	<path class="st0" d="M79.5,285.5c-2-3.4,1.6-7.3,4-3.4C85.6,285.5,81.9,289.5,79.5,285.5z"/>
	<path class="st0" d="M100.7,285.5c-1.8-3.1,1-9.2,3.7-4.7C106.4,284,103.6,290.1,100.7,285.5z"/>
	<path class="st0" d="M110.2,274c-2.2-3.5,2-9,4.5-4.7C116.9,272.8,112.8,278.3,110.2,274z"/>
	<path class="st0" d="M120.2,257.3c-2-3.4,1.9-7.3,4.2-3.6C126.3,257,122.4,261.1,120.2,257.3z"/>
	<path class="st0" d="M124.5,243.1c-2.3-3.7,2.2-7.5,4.7-3.4C131.5,243.6,127.1,247.4,124.5,243.1z"/>
	<path class="st0" d="M109.5,240c-0.7,0.1-1.4-0.4-1.8-0.8c-1.3-1.6-1.8-4-1.3-5.9l0.2-1.1c0.1-0.6,0.6-1.4,1.3-1.6
		c0.7-0.1,1.4,0.4,1.8,0.8c1.3,1.6,1.8,4,1.3,5.9c-0.1,0.4-0.2,0.7-0.2,1.1C110.7,239.1,110.2,239.8,109.5,240z"/>
	<path class="st0" d="M91.2,265c-1.4-2.5,1.9-4.8,3.5-2.3C96.1,265.3,92.7,267.6,91.2,265z"/>
	<path class="st0" d="M73.8,271.3c-2.3-3.7,1.4-10.7,4.4-5.6C80.5,269.5,76.9,276.3,73.8,271.3z"/>
	<path class="st0" d="M53.2,267.9c-3.1-5.1,4.2-8.7,7.3-3.7C63.6,269.5,56.3,273.1,53.2,267.9z"/>
	<path class="st0" d="M32.3,272.9c-1-1.7,1-4.2,2.2-2.2C35.4,272.5,33.4,275,32.3,272.9z"/>
	<path class="st0" d="M16.6,266.1c-1-1.7-0.1-7.4,1.6-4.5C19.1,263.3,18.2,269,16.6,266.1z"/>
	<path class="st0" d="M24.7,244.1c-1.9-3.1,1.9-6.8,4.1-3.5C30.6,243.7,26.7,247.4,24.7,244.1z"/>
	<path class="st0" d="M46.4,245.3c-2.2-3.5,3.1-6.6,5.1-3.1C53.7,245.8,48.5,248.9,46.4,245.3z"/>
	<path class="st0" d="M70.6,246.4c-0.8-1.4,0.2-4.5,1.6-2.3C73,245.5,71.9,248.6,70.6,246.4z"/>
	<path class="st0" d="M84.1,231.2c-1.3-2.2,1.3-4.5,2.8-2.2C88.2,231.2,85.5,233.6,84.1,231.2z"/>
	<path class="st0" d="M91.6,217.2c-2.3-3.8,1.8-6.2,4.1-2.4C98.1,218.5,93.9,220.9,91.6,217.2z"/>
	<path class="st0" d="M66,214.8c-3.4-5.5,2.3-8.5,5.6-3C74.9,217.2,69.2,220.2,66,214.8z"/>
	<path class="st0" d="M42.7,223.6c-2.3-3.7,2.5-7.4,5-3.5C49.9,223.9,45.1,227.6,42.7,223.6z"/>
	<path class="st0" d="M42.3,203.3c-3.1-5.1,2-8.6,5.1-3.5C50.6,204.8,45.5,208.4,42.3,203.3z"/>
	<path class="st0" d="M213.7,484c2.6,4.4,11.6,5,7.8-1.4C218.9,478.1,209.9,477.5,213.7,484z"/>
	<path class="st0" d="M171.1,386c-1.9-3.1,3-5.9,4.9-2.8C178.1,386.4,173,389.2,171.1,386z"/>
	<path class="st0" d="M188.1,380c-1.3-2.2,2-4.2,3.4-2C192.8,380.2,189.4,382.2,188.1,380z"/>
	<path class="st0" d="M206.6,373.5c-1.4-2.4,1.3-5.3,3-2.5C211,373.4,208.2,376.3,206.6,373.5z"/>
	<path class="st0" d="M221.6,366.6c-1.6-2.5,2.4-4.4,4-1.9C227.1,367.2,223.2,369.1,221.6,366.6z"/>
	<path class="st0" d="M239.4,350.6c-0.5-0.7-1.3-2.5-0.2-3.1l2-1.2c1.1-0.6,2.3,0.5,2.9,1.3c0.5,0.7,1.3,2.5,0.2,3.1l-2,1.2
		C241.1,352.6,239.8,351.5,239.4,350.6z"/>
	<path class="st0" d="M254,339.4c-1.8-2.9,1.8-6.3,3.7-3.2C259.3,339,255.9,342.5,254,339.4z"/>
	<path class="st0" d="M267.6,323.6c-1.2-1.9,0.5-6,2.2-3.1C271,322.5,269.4,326.5,267.6,323.6z"/>
	<path class="st0" d="M150.3,370c-2.9-4.8,2.3-10.3,5.6-4.8C158.8,370,153.6,375.5,150.3,370z"/>
	<path class="st0" d="M165.1,366.2c-2.8-4.7,4.5-8.5,7.4-3.8C175.3,366.9,167.9,370.8,165.1,366.2z"/>
	<path class="st0" d="M184.8,359.7c-1.3-2.2,0.5-6.7,2.4-3.6C188.5,358.4,186.7,363,184.8,359.7z"/>
	<path class="st0" d="M200.6,351.4c-2.4-4,1.2-5.9,3.6-1.9C206.6,353.4,203,355.3,200.6,351.4z"/>
	<path class="st0" d="M210.5,344.9c-3.4-5.6,5.1-10.4,8.6-4.8C222.5,345.6,214,350.5,210.5,344.9z"/>
	<path class="st0" d="M224.4,335c-3.5-5.9,5.4-10.8,9-4.8C237,336,228,340.9,224.4,335z"/>
	<path class="st0" d="M241.6,320.4c-2.3-3.8,1.4-6.5,3.8-2.5C247.9,321.7,244,324.2,241.6,320.4z"/>
	<path class="st0" d="M249.6,312.9c-2.9-4.8,3.7-10.8,6.7-5.7C259.3,312.1,252.8,318.1,249.6,312.9z"/>
	<path class="st0" d="M134.1,346.9c-1.3-2.2,0.5-6.6,2.5-3.4C138,345.6,136.2,350.2,134.1,346.9z"/>
	<path class="st0" d="M149.7,346.2c-2-3.4,2.3-8.1,4.7-4.2C156.3,345.4,152,350.2,149.7,346.2z"/>
	<path class="st0" d="M166.3,340.1c-2.4-4.1,1.7-9.6,4.5-4.7C173.4,339.5,169.3,344.9,166.3,340.1z"/>
	<path class="st0" d="M179.3,331.6c-1.8-3.1,2.2-6.3,4.1-3C185.2,331.7,181.2,335,179.3,331.6z"/>
	<path class="st0" d="M190,322.5c-1.4-2.4,2.2-4.7,3.6-2.3C195.1,322.6,191.5,324.9,190,322.5z"/>
	<path class="st0" d="M202.1,311.5c-2.2-3.5,2.2-7.4,4.5-3.6C208.7,311.4,204.4,315.3,202.1,311.5z"/>
	<path class="st0" d="M212.3,297c-1.8-3,2.6-5.9,4.4-2.8C218.5,297.2,214.2,300.1,212.3,297z"/>
	<path class="st0" d="M218,287.6c-2.4-4,1.2-11.9,4.8-6.1C225.2,285.5,221.5,293.4,218,287.6z"/>
	<path class="st0" d="M129.8,312.2c-2.5-4.1,3.8-8,6.3-4C138.7,312.5,132.3,316.4,129.8,312.2z"/>
	<path class="st0" d="M142.9,326.7c-0.8-0.5-1.6-1.3-2-2c-0.5-0.8-1-1.8-0.8-2.8c0-0.7,0.1-1.4,0.8-1.8l0.4-0.2
		c0.6-0.4,1.4-0.1,2,0.1c0.8,0.5,1.6,1.3,2,2c0.5,0.8,1,1.8,0.8,2.8c0,0.7-0.1,1.4-0.8,1.8l-0.4,0.2
		C144.3,327.3,143.5,327.1,142.9,326.7z"/>
	<path class="st0" d="M154.6,322c-1.8-2.9,1.6-6.6,3.6-3.2C159.9,321.8,156.5,325.4,154.6,322z"/>
	<path class="st0" d="M167.8,311.9c-1.7-2.8,1.1-6.5,3-3.1C172.4,311.5,169.8,315.1,167.8,311.9z"/>
	<path class="st0" d="M174.6,300.7c-2.9-4.7,3.5-8.9,6.3-4.1C183.7,301.3,177.3,305.5,174.6,300.7z"/>
	<path class="st0" d="M182.1,288.6c-1.1-1.8,1.2-3.6,2.4-1.7C185.6,288.9,183.3,290.7,182.1,288.6z"/>
	<path class="st0" d="M186.8,273.4c-1.8-2.9,0.2-7.1,2.6-3C191.2,273.3,189.2,277.5,186.8,273.4z"/>
	<path class="st0" d="M148.5,301.3c-3.2-5.3,3.4-11.7,6.8-5.9C158.5,300.8,152,307.2,148.5,301.3z"/>
	<path class="st0" d="M161.5,285.4c-2.5-4.2,2.9-8,5.5-3.7C169.6,285.9,164.2,289.7,161.5,285.4z"/>
	<path class="st0" d="M168.6,269.4c-2.5-4.1,2.5-7.4,5-3.2C176.1,270.2,171.1,273.5,168.6,269.4z"/>
	<path class="st0" d="M122.6,294.7c-1.2-2-2-5.3-0.8-7.5c1-1.8,3.2-2.6,4.5-0.5c1.2,2,2,5.3,0.8,7.5
		C126.1,296.1,123.8,296.9,122.6,294.7z"/>
	<path class="st0" d="M135.3,282.3c-1.7-2.9,0-7.3,2.4-3.2C139.4,281.8,137.7,286.4,135.3,282.3z"/>
	<path class="st0" d="M101.9,253.4c-2.2-1.2-3.2-4.1-2.6-6.5c0.1-0.4,0.2-0.7,0.2-1.1c0.2-1.1,0.7-2.2,1.7-2.6
		c0.8-0.5,2-0.6,2.9-0.1c2.2,1.2,3.2,4.1,2.6,6.5c-0.1,0.4-0.2,0.7-0.2,1.1c-0.2,1.1-0.7,2.2-1.7,2.6
		C104,253.8,102.8,253.9,101.9,253.4z"/>
	<path class="st0" d="M668.8,511.4"/>
	<line class="st0" x1="500.6" y1="645.2" x2="500.6" y2="645.2"/>
	<path class="st0" d="M569.4,423.1c2-3.7-2.6-6.5-4.7-2.8C562.8,424,567.4,426.8,569.4,423.1z"/>
	<path class="st0" d="M582.9,422.8c3.5-6.2-5.4-9.8-8.7-3.7C570.8,425.3,579.6,428.9,582.9,422.8z"/>
	<path class="st0" d="M596.1,416c2.8-5-3.5-9.2-6.5-3.8C587,417.1,593.2,421.4,596.1,416z"/>
	<path class="st0" d="M607.2,410.7c3-5.4-2.2-8.9-5.1-3.4C599.1,412.9,604.2,416.2,607.2,410.7z"/>
	<path class="st0" d="M618.5,403.9c3.2-6-3.2-14.4-7.4-6.8C607.8,403.2,614.3,411.6,618.5,403.9z"/>
	<path class="st0" d="M626.3,391.5c2-3.7-2.9-7.3-4.9-3.6C619.3,391.6,624.2,395.2,626.3,391.5z"/>
	<path class="st0" d="M634.2,382.7c2.3-4.1-1.1-9.1-4-4C627.9,382.8,631.3,387.9,634.2,382.7z"/>
	<path class="st0" d="M645.1,373.7c2.9-5.4-3.1-12.6-6.7-6C635.5,373,641.5,380.2,645.1,373.7z"/>
	<path class="st0" d="M655.2,358.7c2-3.8-1.6-6.2-3.7-2.4C649.5,360.2,653.1,362.6,655.2,358.7z"/>
	<path class="st0" d="M663,346.8c1.9-3.5-1.9-6.8-4.1-2.9C657.1,347.4,660.9,350.8,663,346.8z"/>
	<path class="st0" d="M671.9,337.2c3.7-6.8-4.7-13-8.6-5.7C659.5,338.2,667.9,344.5,671.9,337.2z"/>
	<path class="st0" d="M679.2,321.8c2.8-5.1-4.9-8.4-7.7-3.4C668.6,323.6,676.4,326.8,679.2,321.8z"/>
	<path class="st0" d="M682.4,309.2c3.1-5.6-2.8-8.4-5.7-2.8C673.5,312.1,679.4,314.7,682.4,309.2z"/>
	<path class="st0" d="M556.9,407.1c2.6-4.9-4.5-8-7.2-3.1C547.1,408.8,554.3,411.9,556.9,407.1z"/>
	<path class="st0" d="M566.9,406.3c2.4-4.4-2.3-6.8-4.7-2.4C559.8,408.3,564.5,410.7,566.9,406.3z"/>
	<path class="st0" d="M578.9,405.3c1.8-3.4-2.5-5.6-4.3-2.3C572.6,406.4,577.1,408.7,578.9,405.3z"/>
	<path class="st0" d="M588.8,400.9c1.3-2.5-0.6-7.2-2.6-3.5C584.7,399.8,586.8,404.6,588.8,400.9z"/>
	<path class="st0" d="M601.5,392.5c3-5.5-3.6-11.3-6.8-5.4C591.7,392.5,598.4,398.3,601.5,392.5z"/>
	<path class="st0" d="M610.6,383.9c2.2-4.1-2.5-9-5-4.4C603.4,383.4,608.1,388.5,610.6,383.9z"/>
	<path class="st0" d="M621.3,374.2c3.4-6.1-4.2-13.2-7.9-6.3C610.1,374,617.6,381,621.3,374.2z"/>
	<path class="st0" d="M627.3,364.5c2.6-4.8-3.7-9.6-6.3-4.7C618.4,364.6,624.7,369.4,627.3,364.5z"/>
	<path class="st0" d="M634.4,353.4c2.5-4.7-3-6.9-5.5-2.4C626.4,355.7,632,357.9,634.4,353.4z"/>
	<path class="st0" d="M642.9,339.5c1.8-3.4-1.9-6.3-4.1-2.6C637,340.2,640.7,343.2,642.9,339.5z"/>
	<path class="st0" d="M649,327.5c1.9-3.5-2.4-6-4.3-2.4C642.8,328.5,647.1,331,649,327.5z"/>
	<path class="st0" d="M656.3,316.2c1.8-3.2-1.2-4.5-3-1.3C651.5,318,654.5,319.3,656.3,316.2z"/>
	<path class="st0" d="M664.4,302c2.9-5.3-4.9-9-7.8-3.7C653.9,303.6,661.6,307.3,664.4,302z"/>
	<path class="st0" d="M555.5,385.5c2.3-4.1-3.1-8.3-5.5-4C547.8,385.7,553.1,389.9,555.5,385.5z"/>
	<path class="st0" d="M568.7,389.3c2.8-5-1.9-10.7-5.3-4.7C560.7,389.7,565.3,395.3,568.7,389.3z"/>
	<path class="st0" d="M582.8,383.1c3.1-5.6-2.8-12.1-6.2-5.6C573.5,383.1,579.3,389.5,582.8,383.1z"/>
	<path class="st0" d="M591.9,370.6c1.7-3.1-1.3-4.7-3-1.6C587.2,372.2,590.2,373.7,591.9,370.6z"/>
	<path class="st0" d="M605.7,363c2.6-4.8-2.9-11.1-6-5.4C597,362.4,602.6,368.7,605.7,363z"/>
	<path class="st0" d="M615,351l0.2-0.4c1.3-2.4,1.3-5.7-1-7.3c-2-1.4-5.3-1-6.6,1.6l-0.2,0.4c-1.3,2.4-1.3,5.7,1,7.3
		C610.5,354,613.7,353.5,615,351z"/>
	<path class="st0" d="M623.4,335.7c1.7-3-2-6.5-3.8-3.1C617.9,335.6,621.6,339,623.4,335.7z"/>
	<path class="st0" d="M632.1,317.4c0.7-1.2,1.4-2.8,1.4-4.2c0-1-0.1-2.2-1-2.6l-0.7-0.5c-2.2-1.2-4.8,1.9-5.7,3.6
		c-0.7,1.2-1.4,2.8-1.4,4.2c0,1,0.1,2.2,1,2.6l0.7,0.5C628.5,322,631.2,319,632.1,317.4z"/>
	<path class="st0" d="M637.3,297.6c1.8-3.2-2.8-5.6-4.5-2.3C630.9,298.6,635.5,301,637.3,297.6z"/>
	<path class="st0" d="M576.5,363.9c3.2-5.9-5.1-10.5-8.4-4.5C565,365.1,573.2,369.8,576.5,363.9z"/>
	<path class="st0" d="M587.5,357c2.4-4.4-2.9-8-5.5-3.2C579.6,358.1,585,361.8,587.5,357z"/>
	<path class="st0" d="M596.3,344.2c1.8-3.2-1.3-4.5-3-1.4C591.5,346,594.5,347.3,596.3,344.2z"/>
	<path class="st0" d="M601.8,336.6c1.9-0.8,3.5-3.1,3-5.3c0-0.2-0.1-0.5-0.1-0.6c-0.5-1.9-2.4-3.4-4.4-2.5c-1.9,0.8-3.5,3.1-3,5.3
		c0,0.2,0.1,0.5,0.1,0.6C597.9,336.2,599.8,337.6,601.8,336.6z"/>
	<path class="st0" d="M613.4,315.7c2-3.8-2-9.1-4.7-4.4C606.7,315,610.9,320.4,613.4,315.7z"/>
	<path class="st0" d="M608.4,429.6c3-5.5-2.4-8.4-5.4-2.9C600.2,432.2,605.4,435.2,608.4,429.6z"/>
	<path class="st0" d="M625.2,423.8c2.6-4.9-0.7-15-4.8-7.5C617.6,421.3,621.1,431.3,625.2,423.8z"/>
	<path class="st0" d="M640.7,406.9c1.9-3.5-1-9.9-3.7-4.9C635.1,405.5,638,411.9,640.7,406.9z"/>
	<path class="st0" d="M652.7,393.6c3.4-6.1-3.5-10.1-6.8-3.8C642.5,395.8,649.5,399.7,652.7,393.6z"/>
	<path class="st0" d="M676.2,363.9c3.1-5.9-4.1-9.5-7.2-3.7C665.8,366,672.9,369.7,676.2,363.9z"/>
	<path class="st0" d="M684.6,347.5c1.6-2.8-0.8-6.2-2.8-2.8C680.2,347.5,682.6,351,684.6,347.5z"/>
	<path class="st0" d="M697,330.2c3.7-6.7-1.9-9.5-5.5-2.8C687.8,334.1,693.3,336.9,697,330.2z"/>
	<path class="st0" d="M643.3,427.6c2-3.8-1.7-8-4.2-3.6C637,427.9,640.9,432,643.3,427.6z"/>
	<path class="st0" d="M660.4,413.6c0.5-0.6,1.1-1.2,1.6-1.9c1.1-1.3,1.7-3.2,0.7-4.7c-0.7-1.2-2.5-1.7-3.6-0.4
		c-0.5,0.6-1.1,1.2-1.6,1.9c-1.1,1.3-1.7,3.2-0.7,4.7C657.5,414.4,659.3,414.9,660.4,413.6z"/>
	<path class="st0" d="M676.9,391c1.7-3.2-1.7-6.6-3.7-3C671.5,391.2,675,394.6,676.9,391z"/>
	<path class="st0" d="M687.6,376.6c2-3.7-2.8-7.4-4.9-3.5C680.6,376.9,685.4,380.6,687.6,376.6z"/>
	<path class="st0" d="M698.3,358.4c1.6-3-0.7-8.5-3.1-4.3C693.7,357.1,696,362.6,698.3,358.4z"/>
	<path class="st0" d="M664.7,378.2c2.3-4.1-1.1-9.1-4-4C658.5,378.3,661.8,383.3,664.7,378.2z"/>
	
		<ellipse transform="matrix(0.4792 -0.8777 0.8777 0.4792 -116.8807 731.1691)" class="st0" cx="557.7" cy="464.1" rx="20.7" ry="6.9"/>
	
		<ellipse transform="matrix(0.4792 -0.8777 0.8777 0.4792 -117.6592 708.5476)" class="st0" cx="538.2" cy="453.4" rx="15" ry="5.4"/>
	
		<ellipse transform="matrix(0.4792 -0.8777 0.8777 0.4792 -118.4217 687.4063)" class="st0" cx="520" cy="443.5" rx="9.3" ry="3.4"/>
	<path class="st0" d="M554.1,427.1c1.9-3.5-2-7.2-4.2-3.4C548.1,427.3,552,431,554.1,427.1z"/>
	<path class="st0" d="M538.6,426.3c2-3.6-1.1-7.7-3.6-3C533,426.9,536.1,430.8,538.6,426.3z"/>
	<path class="st0" d="M540.8,407.9c2.5-4.5-1.6-12.6-5.1-6C533.1,406.3,537.2,414.4,540.8,407.9z"/>
	<path class="st0" d="M700,400.4c0,0-41.8,60.3-111.8,47.9c-1.9-3.5,38.2,5.4,73-16.3C687.1,416,692,400.4,700,400.4z"/>
	<path class="st0" d="M684.4,439.8c0,0-49.7,46.3-107.5,13.4c-0.8-4,31.8,16.6,66.9,5.7C669.6,451.1,677.4,437.4,684.4,439.8z"/>
	<path class="st0" d="M669.4,480.3c2.4-3.4,4.4-6.7,6.2-10.4c1-2,1-4.7-1-5.9c-1.7-1.1-4.3-0.1-5.3,1.9c-1.4,3-3,5.9-4.9,8.5
		c-1.3,1.8-1.9,4.3-0.5,6.1C665.3,482.1,668,482.1,669.4,480.3z"/>
	<path class="st0" d="M654.4,507.8c2.6-2.5,5.3-5,7.9-7.5c3.1-3-0.6-8.3-3.7-5.1c-2.6,2.5-5.3,5-7.9,7.5
		C647.6,505.7,651.2,510.9,654.4,507.8z"/>
	<path class="st0" d="M640.5,498.2c3.7-1.6,5.6-4.7,7.8-8.1c3-4.9,6.1-9.7,9.1-14.6c1.8-2.8-0.5-6.3-2.8-2.9c-2,3.2-4.1,6.5-6.1,9.7
		c-1.9,3.1-4.3,8.7-7.8,10.2C638.6,493.6,637.6,499.4,640.5,498.2z"/>
	<path class="st0" d="M626,495.6c6.3-4.3,11.7-10.1,15.9-16.8c1.2-1.9,2-5.3,0.4-6.8c-1.7-1.6-4.2,0.1-5.3,1.9
		c-3.4,5.3-7.4,9.6-12.4,13C620.8,489.5,620.8,499.2,626,495.6z"/>
	<path class="st0" d="M528.5,496.4c-2,3.7-6.8,1.3-4.8-2.4C525.6,490.3,530.5,492.7,528.5,496.4z"/>
	<path class="st0" d="M535.5,508.1c-3.5,6.2-11.3,0.8-7.9-5.4C531.1,496.3,538.9,501.8,535.5,508.1z"/>
	<path class="st0" d="M536.8,522.7c-2.8,5-9.6,2-6.7-3.4C532.9,514.4,539.8,517.4,536.8,522.7z"/>
	<path class="st0" d="M538.5,534.9c-3,5.4-8.6,3-5.6-2.5C535.9,527,541.5,529.4,538.5,534.9z"/>
	<path class="st0" d="M538.9,548c-3.2,6-13.9,5.1-9.7-2.5C532.4,539.5,543.1,540.5,538.9,548z"/>
	<path class="st0" d="M532.5,561.3c-2,3.7-7.7,1.6-5.6-2.2C528.9,555.5,534.6,557.6,532.5,561.3z"/>
	<path class="st0" d="M529.4,572.7c-2.3,4.1-8.3,4-5.5-1.2C526.2,567.4,532.3,567.6,529.4,572.7z"/>
	<path class="st0" d="M527.7,586.7c-2.9,5.4-12.2,4.2-8.6-2.4C522,579,531.3,580.1,527.7,586.7z"/>
	<path class="st0" d="M520.7,603.5c-2,3.8-6.1,2-4-1.9C518.8,597.7,522.8,599.5,520.7,603.5z"/>
	<path class="st0" d="M514.9,616.4c-1.9,3.5-6.7,2-4.5-1.9C512.2,611.1,517.1,612.4,514.9,616.4z"/>
	<path class="st0" d="M511.6,629.1c-3.7,6.8-13.5,3.2-9.6-4.1C505.7,618.2,515.5,621.8,511.6,629.1z"/>
	<path class="st0" d="M502.5,643.6c-2.8,5.1-9.7,0.4-6.9-4.7C498.4,633.8,505.4,638.4,502.5,643.6z"/>
	<path class="st0" d="M493.6,653.1c-3.1,5.6-8.5,2.3-5.5-3.4C491.3,644.1,496.7,647.5,493.6,653.1z"/>
	<path class="st0" d="M508.2,494.7c-2.6,4.9-9.2,0.5-6.6-4.4C504.4,485.3,510.9,489.7,508.2,494.7z"/>
	<path class="st0" d="M513,503.4c-2.4,4.4-6.9,1.8-4.5-2.6C510.9,496.3,515.4,499,513,503.4z"/>
	<path class="st0" d="M518.5,514c-1.8,3.4-6.1,1-4.3-2.4C516.1,508.2,520.4,510.6,518.5,514z"/>
	<path class="st0" d="M520.2,524.7c-1.3,2.5-6.5,3.4-4.4-0.4C517.2,521.9,522.2,521,520.2,524.7z"/>
	<path class="st0" d="M520.1,540c-3,5.5-11.4,3-8.3-2.8C514.8,531.6,523.2,534.2,520.1,540z"/>
	<path class="st0" d="M517.7,552.2c-2.2,4.1-9,2.8-6.5-1.8C513.4,546.5,520.2,547.7,517.7,552.2z"/>
	<path class="st0" d="M515.3,566.6c-3.4,6.1-13.3,3.6-9.6-3.2C509.1,557.3,519.1,559.8,515.3,566.6z"/>
	<path class="st0" d="M510.5,576.9c-2.6,4.8-10.1,2-7.4-2.9C505.7,569.2,513.1,572,510.5,576.9z"/>
	<path class="st0" d="M504.9,588.9c-2.5,4.7-7.4,1.2-4.9-3.4C502.5,580.7,507.4,584.3,504.9,588.9z"/>
	<path class="st0" d="M497.8,603.4c-1.8,3.4-6.5,1.8-4.3-2C495.3,598.1,499.8,599.6,497.8,603.4z"/>
	<path class="st0" d="M491,615.1c-1.9,3.5-6.3,1.2-4.4-2.3C488.6,609.3,492.9,611.6,491,615.1z"/>
	<path class="st0" d="M485.4,627.3c-1.8,3.2-4.4,1.4-2.8-1.8C484.4,622.4,487,624.2,485.4,627.3z"/>
	<path class="st0" d="M477.9,641.9c-2.9,5.3-10.2,0.7-7.3-4.5C473.5,632.1,480.8,636.6,477.9,641.9z"/>
	<path class="st0" d="M489.3,505.1c-2.3,4.1-8.6,1.9-6.3-2.5C485.2,498.5,491.7,500.8,489.3,505.1z"/>
	<path class="st0" d="M499.5,514c-2.8,5-10.1,4.2-6.7-1.9C495.5,507.1,502.8,508.1,499.5,514z"/>
	<path class="st0" d="M502,529.4c-3.1,5.6-11.6,4.2-8.1-2.2C497,521.5,505.5,522.9,502,529.4z"/>
	<path class="st0" d="M496.4,543.7c-1.7,3.1-4.5,1.4-2.9-1.7S498,540.6,496.4,543.7z"/>
	<path class="st0" d="M497.3,559.4c-2.6,4.8-10.9,3.6-7.7-2.2C492.3,552.6,500.6,553.7,497.3,559.4z"/>
	<path class="st0" d="M492.4,573.8l-0.2,0.4c-1.3,2.4-4.1,4.3-6.7,3.2c-2.3-1-3.6-4-2.3-6.5l0.2-0.4c1.3-2.4,4.1-4.3,6.7-3.2
		C492.5,568.4,493.9,571.3,492.4,573.8z"/>
	<path class="st0" d="M484,589.1c-1.7,3-6.6,1.8-4.7-1.6C481,584.6,486,585.8,484,589.1z"/>
	<path class="st0" d="M473.4,606.3c-0.7,1.3-1.6,2.6-2.8,3.5c-0.8,0.5-1.8,1.1-2.8,0.6l-0.7-0.5c-2.2-1.2-1-5,0-6.8
		c0.7-1.3,1.6-2.6,2.8-3.5c0.8-0.5,1.8-1.1,2.8-0.6l0.7,0.5C475.4,600.8,474.2,604.7,473.4,606.3z"/>
	<path class="st0" d="M459.5,621.4c-1.8,3.2-6.2,0.7-4.4-2.6C457,615.4,461.4,618,459.5,621.4z"/>
	<path class="st0" d="M482.5,534.4c-3.2,5.9-11.6,1.3-8.4-4.5C477.2,524,485.7,528.5,482.5,534.4z"/>
	<path class="st0" d="M482.6,547.4c-2.4,4.4-8.4,1.9-5.7-2.9C479.3,540.1,485.2,542.7,482.6,547.4z"/>
	<path class="st0" d="M476.5,561.7c-1.8,3.2-4.5,1.4-2.9-1.8C475.4,556.8,478.3,558.6,476.5,561.7z"/>
	<path class="st0" d="M473.3,570.4c0.4,2-0.7,4.7-2.9,5.4c-0.2,0.1-0.4,0.1-0.6,0.2c-1.9,0.6-4.1-0.2-4.5-2.4
		c-0.4-2,0.7-4.7,2.9-5.4c0.2-0.1,0.4-0.1,0.6-0.2C470.6,567.4,472.9,568.3,473.3,570.4z"/>
	<path class="st0" d="M461.9,591.6c-2,3.8-8.7,3.2-6.2-1.4C457.7,586.4,464.4,586.9,461.9,591.6z"/>
	<path class="st0" d="M555,525.8c-3,5.5-8.3,2.5-5.3-3C552.6,517.3,558,520.3,555,525.8z"/>
	<path class="st0" d="M559.2,542.9c-2.6,4.9-12.9,7.4-8.9,0C552.9,538.1,563.3,535.5,559.2,542.9z"/>
	<path class="st0" d="M553.4,565.2c-1.9,3.5-8.9,4.5-6.1-0.5C549,561.2,556.1,560.1,553.4,565.2z"/>
	<path class="st0" d="M548.7,582.5c-3.4,6.1-10.3,2.4-6.9-3.7C545,572.7,552,576.4,548.7,582.5z"/>
	<path class="st0" d="M536.2,618.2c-3.1,5.9-10.2,1.7-7.1-4.1C532.4,608.4,539.5,612.4,536.2,618.2z"/>
	<path class="st0" d="M527,634.1c-1.6,2.8-5.7,2.8-3.8-0.8C524.7,630.5,528.9,630.6,527,634.1z"/>
	<path class="st0" d="M519.2,654c-3.7,6.7-9,3.5-5.4-3.1C517.6,644.1,522.8,647.3,519.2,654z"/>
	<path class="st0" d="M572.1,556.2c-2,3.8-7.7,2.9-5.3-1.6C568.9,550.8,574.5,551.8,572.1,556.2z"/>
	<path class="st0" d="M569.6,578.1c-0.2,0.7-0.5,1.6-0.7,2.3c-0.5,1.6-1.8,3.1-3.6,3.1c-1.4,0-2.9-1.2-2.3-2.9
		c0.2-0.7,0.5-1.6,0.7-2.3c0.5-1.6,1.8-3.1,3.6-3.1C568.7,575.2,570.1,576.4,569.6,578.1z"/>
	<path class="st0" d="M559.5,604.3c-1.7,3.2-6.5,2.2-4.4-1.4C556.8,599.6,561.5,600.7,559.5,604.3z"/>
	<path class="st0" d="M553.1,620.9c-2,3.7-7.7,1.7-5.5-2.2C549.6,615,555.3,617,553.1,620.9z"/>
	<path class="st0" d="M543.7,639.9c-1.6,3-7.5,4-5.3-0.2C540.1,636.6,545.9,635.7,543.7,639.9z"/>
	<path class="st0" d="M542.1,600.8c-2.3,4.1-8.3,4-5.5-1.2C538.9,595.6,544.9,595.7,542.1,600.8z"/>
	<path class="st0" d="M523.5,481.4c-1.9,3.5-7.2,2.2-5-1.7C520.3,476.2,525.6,477.5,523.5,481.4z"/>
	<path class="st0" d="M514.4,468.8c-2,3.6-7.1,3.2-4.5-1.4C511.9,463.8,517,464.2,514.4,468.8z"/>
	<path class="st0" d="M500.1,480.5c-2.5,4.5-11.4,5.5-7.8-1.1C494.7,474.9,503.7,473.9,500.1,480.5z"/>
	<path class="st0" d="M580,618.6c0,0,28.1-67.8-20.1-119.8c-4,0.2,25.1,29.2,25.7,70.3C586,599.2,575.6,611.8,580,618.6z"/>
	<path class="st0" d="M604.6,584.1c0,0,12.1-66.9-46.8-97.7c-3.8,1.4,31.1,17.7,41.1,53.2C606.1,565.5,598.8,579.5,604.6,584.1z"/>
	<path class="st0" d="M630.6,549.6c-1.6,3.8-3.2,7.4-5.4,10.9c-1.2,1.9-3.4,3.4-5.5,2.4c-1.9-0.8-2.4-3.6-1.3-5.4
		c1.7-2.8,3.4-5.7,4.5-8.7c0.8-2.2,2.6-4,4.9-3.7C629.8,545.2,631.4,547.6,630.6,549.6z"/>
	<path class="st0" d="M645.7,522.1c-0.7,3.6-1.4,7.2-2.2,10.7c-0.8,4.2-7.3,4-6.3-0.4c0.7-3.6,1.4-7.2,2.2-10.7
		C640,517.5,646.5,517.8,645.7,522.1z"/>
	<path class="st0" d="M630.1,515.6c0.7,4-1,7.3-2.6,10.9c-2.4,5.1-4.9,10.4-7.4,15.6c-1.4,3-5.6,3-3.8-0.7c1.7-3.5,3.2-6.9,4.9-10.4
		c1.6-3.2,5-8.4,4.3-12.1C625.1,516.6,629.5,512.5,630.1,515.6z"/>
	<path class="st0" d="M620,504.8c-0.2,7.8-2,15.3-5.5,22.4c-1,1.9-3.2,4.5-5.6,4c-2.3-0.6-2.2-3.6-1.3-5.4
		c2.6-5.6,4.1-11.4,4.2-17.6C612,503.6,620.3,498.5,620,504.8z"/>
	<path class="st0" d="M597.3,503.5c0.7-1.9,1.1-4.7,1.1-6.8c-0.1-3.1,1.8-6.7,4.9-7.5c0.1,0,0.2,0,0.2,0c-0.4-2.9,1.4-5.9,3.8-7.3
		c1.8-1.1,3.8-3,5.1-4.5c1.9-2.4,5.3-3.7,7.7-1.6c2.3,2,2,6.1,0.1,8.6c-2.8,3.6-6,6.3-9.8,8.6c-0.4,0.2-0.8,0.4-1.2,0.5
		c0.1,4.4-0.5,8.6-1.9,12.8c-1,3-4.3,5.4-7.3,4.5C597,509.9,596.2,506.4,597.3,503.5z"/>
	<path class="st0" d="M589.3,493c-1-0.4-1.4-1.1-1.6-2.3c-0.4-2.6,1.8-5.6,3.7-7.3c0.4-0.4,0.7-0.6,1.2-1c0.5-2.4,1.8-5.4,4.1-6.3
		c1-0.5,1.8-0.6,2.6,0.1c0.8,0.6,1.1,2.2,1.1,3.2c0,0.7-0.1,1.6-0.2,2.4c0,1.4-0.5,3-1.1,4.3c-0.6,1.4-1.8,2.9-3.1,3.4
		c-0.5,0.5-1.1,1-1.7,1.3c-0.6,0.6-1.2,1.1-1.9,1.6C591.7,492.7,590.3,493.3,589.3,493z"/>
	<path class="st0" d="M580.2,484.7c-2.3-1.2-3.2-3.8-3.1-6.5c0-1.4,1.1-2.8,2.4-3.5c0.2-0.4,0.6-0.8,1-1.1c2.2-1.4,4.9-2.2,7.1-0.8
		c1.7,1.1,2.4,2.9,1.6,4.9c-0.5,1.2-1.9,2.4-3.2,2.5c0.1,1.1-0.1,2.2-0.7,3C583.8,485.2,582,485.6,580.2,484.7z"/>
	<path class="st0" d="M392,199.3c-0.2-6.9-4.4,3.1-6.6,14.5c-6.7,34.6-0.2,85.4,22.7,118.4c14.7,21.1,55.5,50.8,80.6,58.3
		c5.7,1.8,23.6,8.1,16.9,3C457.2,367.2,372.1,335.7,392,199.3z"/>
	<path class="st0" d="M538.4,380.8c1.8-3.2-3.4-5.7-5-2.5C531.6,381.5,536.6,384,538.4,380.8z"/>
	<path class="st0" d="M521.2,375.5c1.2-2.3-2.3-4.1-3.5-1.8S520,377.8,521.2,375.5z"/>
	<path class="st0" d="M502.5,369.8c1.3-2.5-1.6-5.3-3.1-2.4C498,369.9,500.9,372.7,502.5,369.8z"/>
	<path class="st0" d="M487,363.6c1.4-2.6-2.6-4.3-4.1-1.7C481.6,364.4,485.7,366.1,487,363.6z"/>
	<path class="st0" d="M468.7,348.5c0.5-0.7,1.2-2.5,0.1-3.1l-2.2-1.2c-1.1-0.6-2.3,0.6-2.8,1.4c-0.5,0.7-1.2,2.5-0.1,3.1l2.2,1.2
		C467,350.5,468.2,349.3,468.7,348.5z"/>
	<path class="st0" d="M453.6,337.8c1.6-3-2-6.2-3.8-3C448.2,337.7,451.8,341.1,453.6,337.8z"/>
	<path class="st0" d="M439.3,322.7c1.1-2-0.7-6-2.3-3C435.9,321.7,437.7,325.6,439.3,322.7z"/>
	<path class="st0" d="M558.6,363.9c2.6-4.9-2.8-10.2-5.9-4.5C550,364.3,555.5,369.7,558.6,363.9z"/>
	<path class="st0" d="M543.7,360.7c2.6-4.8-4.9-8.3-7.5-3.6C533.5,361.9,541,365.5,543.7,360.7z"/>
	<path class="st0" d="M523.7,355.2c1.2-2.3-0.7-6.7-2.5-3.5C519.8,354,521.9,358.5,523.7,355.2z"/>
	<path class="st0" d="M507.5,347.5c2.2-4.1-1.6-5.7-3.7-1.8C501.6,349.8,505.4,351.5,507.5,347.5z"/>
	<path class="st0" d="M497.3,341.4c3.1-5.7-5.6-10.2-8.7-4.4C485.4,342.7,494.1,347.3,497.3,341.4z"/>
	<path class="st0" d="M483,332.2c3.2-6-5.9-10.5-9.2-4.4C470.5,333.8,479.7,338.2,483,332.2z"/>
	<path class="st0" d="M465.1,318.3c2.2-4-1.7-6.3-4-2.4C459,319.9,463,322.3,465.1,318.3z"/>
	<path class="st0" d="M456.7,311.3c2.8-4.9-4.2-10.7-6.9-5.4C447.1,310.8,453.9,316.5,456.7,311.3z"/>
	<path class="st0" d="M599.1,310.8c2.5-4.7-3.4-9.5-6.1-4.3C590.3,311.3,596.2,316,599.1,310.8z"/>
	<path class="st0" d="M586.4,329.9c1.4-2.5-1.1-7.3-3.1-3.6C582,328.9,584.5,333.5,586.4,329.9z"/>
	<path class="st0" d="M573.7,340.1c1.2-2.2-0.8-6.6-2.6-3.2C569.9,339.1,571.9,343.5,573.7,340.1z"/>
	<path class="st0" d="M558.1,340.1c1.9-3.5-2.6-8-4.8-4C551.4,339.6,556,344.2,558.1,340.1z"/>
	<path class="st0" d="M541.3,334.7c2.3-4.2-2-9.5-4.8-4.4C534.2,334.5,538.5,339.7,541.3,334.7z"/>
	<path class="st0" d="M528,326.8c1.7-3.1-2.4-6.2-4.3-2.8C522,327.2,526.2,330.2,528,326.8z"/>
	<path class="st0" d="M516.7,318.2c1.3-2.4-2.3-4.5-3.7-2.2C511.8,318.6,515.4,320.7,516.7,318.2z"/>
	<path class="st0" d="M504.3,307.7c1.9-3.6-2.5-7.3-4.7-3.5C497.7,307.9,502.1,311.6,504.3,307.7z"/>
	<path class="st0" d="M493.5,293.7c1.7-3.1-2.9-5.7-4.5-2.5C487.2,294.3,491.7,296.9,493.5,293.7z"/>
	<path class="st0" d="M576.6,305.4c2.3-4.2-4.2-7.8-6.5-3.6C567.7,306,574.2,309.6,576.6,305.4z"/>
	<path class="st0" d="M564.1,320.4c0.8-0.5,1.6-1.3,1.9-2.2c0.5-0.8,0.8-1.8,0.7-2.8c0-0.7-0.2-1.4-0.8-1.8l-0.4-0.2
		c-0.6-0.4-1.4-0.1-2,0.2c-0.8,0.5-1.6,1.3-1.9,2.2c-0.5,0.8-0.8,1.8-0.7,2.8c0,0.7,0.2,1.4,0.8,1.8l0.4,0.2
		C562.8,321,563.5,320.7,564.1,320.4z"/>
	<path class="st0" d="M552.3,316.3c1.7-3-1.8-6.5-3.7-3.1C546.9,316.2,550.4,319.6,552.3,316.3z"/>
	<path class="st0" d="M538.5,306.6c1.6-2.8-1.3-6.3-3.1-3C533.8,306.5,536.7,309.9,538.5,306.6z"/>
	<path class="st0" d="M531.3,295.8c2.6-4.8-3.8-8.6-6.5-3.8C522.2,296.8,528.7,300.6,531.3,295.8z"/>
	<path class="st0" d="M523.3,284.1c1.1-1.9-1.3-3.6-2.5-1.6C519.8,284.4,522.1,286.1,523.3,284.1z"/>
	<path class="st0" d="M517.9,269c1.7-3-0.5-7.1-2.8-2.9C513.5,269.1,515.6,273.2,517.9,269z"/>
	<path class="st0" d="M557.4,295.3c3-5.5-3.8-11.5-7.1-5.5C547.4,295.2,554.2,301.3,557.4,295.3z"/>
	<path class="st0" d="M543.7,279.9c2.4-4.3-3.2-7.9-5.6-3.5C535.6,280.7,541.3,284.3,543.7,279.9z"/>
	<path class="st0" d="M535.9,264.2c2.3-4.2-2.9-7.3-5.1-3C528.5,265.4,533.6,268.4,535.9,264.2z"/>
	<path class="st0" d="M620.2,295.9c2.4-4.4-2.4-11.9-5.9-5.7C611.9,294.6,616.8,302,620.2,295.9z"/>
	<path class="st0" d="M599.3,290.1c2-3.6-1.6-5.5-3.6-1.9C593.8,291.7,597.3,293.7,599.3,290.1z"/>
	<path class="st0" d="M459.3,621.2c-1.8,3.2-6.2,0.7-4.4-2.6C456.6,615.2,461.2,617.7,459.3,621.2z"/>
	<path class="st0" d="M449.7,581.8c-2.5,4.7-9.8,2.3-6.9-2.9C445.3,574.3,452.6,576.7,449.7,581.8z"/>
	<path class="st0" d="M458.9,560.9c-1.4,2.5-6.7,3-4.7-0.6C455.7,557.7,460.9,557.3,458.9,560.9z"/>
	<path class="st0" d="M448.5,607.7c-2.4,4.4-11.4,4.4-7.9-1.8C443,601.4,452,601.4,448.5,607.7z"/>
	<path class="st0" d="M432.3,593.3c-2,3.6-5.5,1.7-3.5-1.9C430.9,587.7,434.4,589.7,432.3,593.3z"/>
	<path class="st0" d="M583,287.6c1.2-2.2,1.9-5.3,0.5-7.5c-1.1-1.7-3.4-2.5-4.5-0.2c-1.2,2.2-1.9,5.3-0.5,7.5
		C579.6,289,581.7,289.8,583,287.6z"/>
	<path class="st0" d="M569.8,275.7c1.6-2.9-0.4-7.3-2.5-3.2C565.6,275.5,567.5,279.8,569.8,275.7z"/>
	<path class="st0" d="M562,263.9c2-3.8-1.6-6.1-3.7-2.3S559.8,267.8,562,263.9z"/>
	<path class="st0" d="M559.8,254.5c3.1-5.6-4.7-9.1-7.7-3.6C549.2,256.5,556.8,260.1,559.8,254.5z"/>
	<path class="st0" d="M688.1,285.6c1.6-2.9-1.8-7.2-3.7-3.5C682.9,285,686.2,289.2,688.1,285.6z"/>
	<path class="st0" d="M666.2,281.2c1.8-3.4-2.6-5.9-4.5-2.5C659.9,281.9,664.4,284.4,666.2,281.2z"/>
	<path class="st0" d="M645.5,275.6c1.9-3.5-1.8-7.1-4.1-3C639.5,276.1,643.3,279.8,645.5,275.6z"/>
	<path class="st0" d="M624.5,276.1c1.9-3.5-1.9-7.2-4.2-3.1C618.4,276.3,622.2,280.1,624.5,276.1z"/>
	<path class="st0" d="M603.3,277c1.7-3.1-1.3-9.2-4-4.5C597.6,275.7,600.6,281.7,603.3,277z"/>
	<path class="st0" d="M593.3,265.9c1.9-3.6-2.4-8.9-4.8-4.4C586.6,265,590.9,270.3,593.3,265.9z"/>
	<path class="st0" d="M582.7,249.6c1.9-3.5-2.3-7.3-4.3-3.5C576.5,249.6,580.5,253.4,582.7,249.6z"/>
	<path class="st0" d="M577.7,235.7c2-3.8-2.5-7.5-4.9-3.1C570.7,236.4,575.3,240.1,577.7,235.7z"/>
	<path class="st0" d="M592.5,231.9c0.7,0.1,1.4-0.5,1.8-1c1.2-1.6,1.7-4,1.1-5.9L595,224c-0.1-0.6-0.6-1.4-1.3-1.6
		c-0.7-0.1-1.4,0.5-1.8,1c-1.2,1.6-1.7,4-1.1,5.9c0.1,0.4,0.2,0.7,0.4,1.1C591.4,230.9,591.9,231.8,592.5,231.9z"/>
	<path class="st0" d="M601.8,245.4c2-1.3,3-4.2,2.4-6.6c-0.1-0.4-0.2-0.7-0.4-1.1c-0.2-1-0.8-2-1.8-2.6c-0.8-0.5-2-0.5-2.9,0
		c-2,1.3-3,4.2-2.4,6.6c0.1,0.4,0.2,0.7,0.4,1.1c0.2,1,0.8,2,1.8,2.6C599.9,245.9,601,245.9,601.8,245.4z"/>
	<path class="st0" d="M612,256.2c1.3-2.5-2.2-4.7-3.6-2.2C607.1,256.5,610.6,258.7,612,256.2z"/>
	<path class="st0" d="M629.6,261.6c2.2-3.8-1.9-10.5-4.7-5.4C622.8,260,626.7,266.7,629.6,261.6z"/>
	<path class="st0" d="M650,257.4c2.9-5.3-4.5-8.6-7.4-3.4C639.7,259.3,647.1,262.5,650,257.4z"/>
	<path class="st0" d="M671.1,261.5c1-1.7-1.1-4.1-2.3-2C667.9,261.1,670,263.6,671.1,261.5z"/>
	<path class="st0" d="M686.6,254c1-1.7-0.2-7.4-1.8-4.4C683.8,251.2,685,256.9,686.6,254z"/>
	<path class="st0" d="M677.5,232.2c1.8-3.2-2.3-6.7-4.2-3.2C671.5,232.2,675.6,235.8,677.5,232.2z"/>
	<path class="st0" d="M655.8,234.5c1.9-3.6-3.4-6.5-5.3-2.9C648.5,235.2,653.8,238.1,655.8,234.5z"/>
	<path class="st0" d="M631.8,236.6c0.8-1.4-0.4-4.5-1.7-2.3C629.3,235.8,630.4,239,631.8,236.6z"/>
	<path class="st0" d="M617.5,222.1c1.2-2.2-1.6-4.4-2.9-2C613.4,222.2,616.2,224.5,617.5,222.1z"/>
	<path class="st0" d="M634.9,204.8c3.1-5.6-2.6-8.4-5.7-2.8C626.1,207.6,631.9,210.3,634.9,204.8z"/>
	<path class="st0" d="M658.7,212.6c2-3.8-2.9-7.3-5.1-3.2C651.5,213.2,656.4,216.8,658.7,212.6z"/>
	<path class="st0" d="M658.1,192.3c2.9-5.3-2.4-8.5-5.4-3.2C649.8,194.3,655.1,197.5,658.1,192.3z"/>
	<path class="st0" d="M389.7,576.9c-2,3.8-6,1.9-3.8-1.9C387.9,571.1,391.9,572.9,389.7,576.9z"/>
	<path class="st0" d="M380.7,580.1c-3.1,5.6-10.2,1-7.2-4.5C376.7,570,383.7,574.5,380.7,580.1z"/>
	<path class="st0" d="M476.3,671.2c-1.6,2.9-6.9,2.4-5-1.3C472.9,667.2,478.3,667.6,476.3,671.2z"/>
	<path class="st0" d="M460.6,655.2c-1.8,3.4-6.3,1-4.5-2.4C457.8,649.4,462.5,651.8,460.6,655.2z"/>
	<path class="st0" d="M444.8,640.7c-1.9,3.5-6.9,2.3-4.7-1.8C441.9,635.4,447.1,636.6,444.8,640.7z"/>
	<path class="st0" d="M433.8,622.9c-1.9,3.5-7.1,2.3-4.9-1.8C430.7,617.6,435.9,618.8,433.8,622.9z"/>
	<path class="st0" d="M423.1,604.4c-1.7,3.1-8.5,3.8-5.9-0.8C418.9,600.5,425.6,599.8,423.1,604.4z"/>
	<path class="st0" d="M408.4,602.2c-1.9,3.6-8.7,2.8-6.3-1.7C404.1,596.9,410.8,597.7,408.4,602.2z"/>
	<path class="st0" d="M389,601.9c-1.9,3.5-7.3,2-5.3-1.8C385.5,596.8,391,598.1,389,601.9z"/>
	<path class="st0" d="M374.5,605.3c-2,3.8-7.7,1.9-5.3-2.4C371.4,599,376.9,601,374.5,605.3z"/>
	<path class="st0" d="M379.3,619.9c0.5,0.5,0.4,1.4,0.2,2c-0.7,1.9-2.4,3.6-4.3,4.1l-1.1,0.4c-0.6,0.1-1.6,0.2-2-0.4
		c-0.5-0.5-0.4-1.4-0.2-2c0.7-1.9,2.4-3.6,4.3-4.1c0.4-0.1,0.7-0.2,1.1-0.4C378,619.4,378.8,619.4,379.3,619.9z"/>
	<path class="st0" d="M395.7,620.5c0,2.4-1.9,4.9-4.2,5.5c-0.4,0.1-0.7,0.2-1.1,0.4c-1,0.2-2.2,0.4-3.2-0.1
		c-0.8-0.5-1.4-1.4-1.6-2.5c0-2.4,1.9-4.9,4.2-5.5c0.4-0.1,0.7-0.2,1.1-0.4c1-0.2,2.2-0.4,3.2,0.1
		C395.1,618.4,395.7,619.4,395.7,620.5z"/>
	<path class="st0" d="M410.3,623.1c-1.3,2.5-5.1,0.7-3.7-1.8C407.9,618.8,411.6,620.6,410.3,623.1z"/>
	<path class="st0" d="M424.4,635c-2.2,3.8-9.9,4.2-7.1-1C419.4,630,427.2,629.8,424.4,635z"/>
	<path class="st0" d="M431.8,654.5c-2.9,5.3-9.7,0.7-6.8-4.4C427.9,644.7,434.7,649.2,431.8,654.5z"/>
	<path class="st0" d="M446.7,670c-1,1.7-4.1,1.3-2.9-0.8C444.8,667.5,447.9,667.9,446.7,670z"/>
	<path class="st0" d="M448.7,687c-1,1.7-6.3,3.8-4.8,1C445,686.2,450.4,684,448.7,687z"/>
	<path class="st0" d="M425.6,691.1c-1.8,3.2-6.9,1.8-5-1.8C422.4,686.2,427.5,687.6,425.6,691.1z"/>
	<path class="st0" d="M415.7,671.7c-1.9,3.6-7.3,0.7-5.3-2.9C412.5,665.1,417.7,668,415.7,671.7z"/>
	<path class="st0" d="M404.6,650.3c-0.8,1.4-4.1,2.2-2.8-0.2C402.5,648.7,405.8,648,404.6,650.3z"/>
	<path class="st0" d="M384.6,646.2c-1.2,2.2-4.5,1.1-3.2-1.3C382.5,642.7,385.9,643.8,384.6,646.2z"/>
	<path class="st0" d="M368.6,646.8c-2.2,3.8-6.3,1.6-4.2-2.3C366.5,640.6,370.7,643,368.6,646.8z"/>
	<path class="st0" d="M379.4,670.1c-3.1,5.6-8.5,2.3-5.4-3.2C377.1,661.3,382.5,664.6,379.4,670.1z"/>
	<path class="st0" d="M398.9,685.8c-2,3.8-7.7,1.6-5.5-2.6C395.5,679.5,401.1,681.8,398.9,685.8z"/>
	<path class="st0" d="M381.4,696.4c-2.9,5.3-8.5,2.6-5.6-2.8C378.7,688.5,384.3,691.1,381.4,696.4z"/>
	<path class="st0" d="M474.3,493.1c-1.8,3.2-6.6,0.4-4.9-2.9C471.4,486.9,476.1,489.9,474.3,493.1z"/>
	<path class="st0" d="M460.7,481.4c-1.2,2.3-4.7,0.4-3.5-1.9C458.4,477.3,461.9,479.2,460.7,481.4z"/>
	<path class="st0" d="M445.7,468.8c-1.3,2.5-5.3,1.6-3.7-1.3C443.3,465,447.3,465.9,445.7,468.8z"/>
	<path class="st0" d="M432.1,459.2c-1.4,2.6-5,0.1-3.6-2.4C429.9,454.2,433.5,456.7,432.1,459.2z"/>
	<path class="st0" d="M409.5,451.9c-0.4,0.7-1.6,2.4-2.6,1.8l-2.2-1.2c-1.1-0.6-0.7-2.3-0.4-3.1c0.4-0.7,1.6-2.4,2.6-1.8l2.2,1.2
		C410.3,449.4,409.9,451.1,409.5,451.9z"/>
	<path class="st0" d="M392.3,445c-1.6,3-6.3,1.7-4.5-1.6C389.5,440.4,394.1,441.7,392.3,445z"/>
	<path class="st0" d="M372,441.1c-1.1,2-5.4,2.6-3.8-0.2C369.2,438.9,373.5,438.1,372,441.1z"/>
	<path class="st0" d="M471.1,519.2c-2.6,4.9-10.1,3.2-6.9-2.5C466.8,511.8,474.2,513.4,471.1,519.2z"/>
	<path class="st0" d="M460.3,508.3c-2.6,4.8-9.6,0.2-7.1-4.4C455.9,499.1,462.9,503.6,460.3,508.3z"/>
	<path class="st0" d="M444.9,494.4c-1.2,2.3-6.1,3-4.3-0.2C441.8,492,446.7,491.2,444.9,494.4z"/>
	<path class="st0" d="M429.7,485.1c-2.2,4.1-5.6,1.8-3.5-2.2C428.4,478.9,431.8,481,429.7,485.1z"/>
	<path class="st0" d="M419,479.8c-3.1,5.7-11.6,0.8-8.5-5C413.7,469,422.2,473.9,419,479.8z"/>
	<path class="st0" d="M403.5,472.7c-3.2,6-12,0.7-8.7-5.3C398.1,461.5,406.8,466.6,403.5,472.7z"/>
	<path class="st0" d="M382.2,465.2c-2.2,4-6.3,2-4.1-2C380.1,459.2,384.3,461.3,382.2,465.2z"/>
	<path class="st0" d="M371.8,462c-2.8,4.9-11.3,2.3-8.4-3C366.1,454.1,374.6,456.8,371.8,462z"/>
	<path class="st0" d="M459.3,544.7c-1.2,2.2-6,2.9-4.2-0.5C456.3,542.1,461.1,541.3,459.3,544.7z"/>
	<path class="st0" d="M450.9,531.8c-1.9,3.5-8.1,2.2-6-1.9C446.8,526.4,453,527.7,450.9,531.8z"/>
	<path class="st0" d="M437.1,520.4c-2.3,4.2-9.1,3.4-6.3-1.6C433,514.6,439.9,515.4,437.1,520.4z"/>
	<path class="st0" d="M423.3,513.6c-1.7,3.1-6.5,1.3-4.7-2C420.5,508.3,425.3,510.1,423.3,513.6z"/>
	<path class="st0" d="M410.1,508.7c-1.3,2.4-5.1,0.6-3.8-1.9C407.5,504.3,411.4,506.3,410.1,508.7z"/>
	<path class="st0" d="M394.4,503.9c-1.9,3.6-7.5,1.9-5.4-2C391,498.2,396.5,499.9,394.4,503.9z"/>
	<path class="st0" d="M376.8,502.4c-1.7,3.1-6.3,0.7-4.5-2.5C373.9,496.8,378.5,499.2,376.8,502.4z"/>
	<path class="st0" d="M365.8,502.1c-2.3,4.1-10.9,4.9-7.7-1.1C360.4,496.9,369,496.1,365.8,502.1z"/>
	<path class="st0" d="M431.5,565.9c-2.3,4.2-8.9,0.7-6.6-3.5C427.3,558.2,433.9,561.7,431.5,565.9z"/>
	<path class="st0" d="M437.5,547.3c0,1-0.4,2-0.7,2.8c-0.5,0.8-1.1,1.7-1.9,2.2c-0.6,0.4-1.3,0.6-2,0.2l-0.4-0.2
		c-0.6-0.4-0.8-1.2-0.8-1.8c0-1,0.4-2,0.7-2.8c0.5-0.8,1.1-1.7,1.9-2.2c0.6-0.4,1.3-0.6,2-0.2l0.4,0.2
		C437.2,545.9,437.5,546.7,437.5,547.3z"/>
	<path class="st0" d="M427.5,539.5c-1.7,3-6.5,1.9-4.5-1.4C424.5,535.2,429.5,536.2,427.5,539.5z"/>
	<path class="st0" d="M412.1,533.3c-1.6,2.8-6.1,2.3-4.2-1.1C409.3,529.5,413.9,530,412.1,533.3z"/>
	<path class="st0" d="M399,533.1c-2.6,4.8-9.3,1.4-6.7-3.4C395,524.9,401.7,528.3,399,533.1z"/>
	<path class="st0" d="M384.8,532.6c-1.1,1.9-3.7,0.8-2.6-1.3C383.2,529.5,386,530.6,384.8,532.6z"/>
	<path class="st0" d="M369.2,536.3c-1.7,3-6.2,3.4-4-0.7C367,532.5,371.5,532.1,369.2,536.3z"/>
	<path class="st0" d="M412.7,555.2c-3,5.5-11.7,3-8.5-3C407.2,546.8,415.9,549.2,412.7,555.2z"/>
	<path class="st0" d="M392.2,552c-2.4,4.3-8.4,1.6-6-2.9C388.6,544.8,394.7,547.6,392.2,552z"/>
	<path class="st0" d="M375,554c-2.3,4.2-7.7,1.6-5.4-2.8C371.9,547.1,377.3,549.7,375,554z"/>
	<path class="st0" d="M420,581c-1.2,2.2-3.5,4.4-6.1,4.4c-2,0-3.8-1.4-2.6-3.6s3.5-4.4,6.1-4.4C419.4,577.4,421.3,578.8,420,581z"/>
	<path class="st0" d="M402.9,576.3c-1.6,2.9-6.3,3.7-4.1-0.5C400.5,572.9,405.2,572.1,402.9,576.3z"/>
	<path class="st0" d="M153.8,239c-4.3,0-5.4,5.7-0.4,5.7C157.7,244.7,158.8,239,153.8,239z"/>
</g>
</svg>
