<?xml version="1.0" encoding="utf-8"?>
<!-- Generator: Adobe Illustrator 21.1.0, SVG Export Plug-In . SVG Version: 6.00 Build 0)  -->
<svg version="1.1" xmlns="http://www.w3.org/2000/svg" xmlns:xlink="http://www.w3.org/1999/xlink" x="0px" y="0px"
	 viewBox="0 0 700 700" enable-background="new 0 0 700 700" xml:space="preserve">
<g id="circle">
	<circle fill="#FCFCFC" cx="350" cy="350" r="350"/>
</g>
<g id="level2-disk0-aesthetic">
	<g>
		<path fill="none" d="M368.87,351.254c28.63,12.832,112.4,46.636,189.02,56.779"/>
		<path fill="none" d="M371.96,346.973c25.63,11.473,109.02,45.286,185.7,55.238"/>
		<path fill="none" d="M533.122,388.931c-0.095-1.454,0.38-3.218,1.304-4.25c0.991-1.107,2.354-1.943,3.859-1.899
			c0.481,0.059,0.961,0.118,1.442,0.177c0.766,0.208,1.462,0.572,2.094,1.078c0.605,0.416,1.232,0.78,1.883,1.093
			c0.221,0.076,0.44,0.164,0.664,0.229c1.389,0.404,2.704,1.362,3.523,2.683c0.79,1.276,1.226,3.176,0.901,4.642
			c-0.684,3.085-3.471,5.3-6.519,4.414c-2.682-0.779-4.934-2.101-7.191-3.87C533.958,392.348,533.213,390.328,533.122,388.931z"/>
		<path fill="none" d="M516.311,379.706c7.721,0,7.734,12.087,0,12.087C508.59,391.794,508.577,379.706,516.311,379.706z"/>
		<path fill="none" d="M490.735,377.448c1.174-1.085,2.617-1.77,4.243-1.77h2.667c1.538,0,3.155,0.674,4.243,1.77
			c1.041,1.048,1.824,2.768,1.757,4.273c-0.069,1.563-0.579,3.184-1.757,4.273c-1.174,1.085-2.617,1.77-4.243,1.77h-2.667
			c-1.538,0-3.155-0.674-4.243-1.77c-1.041-1.048-1.824-2.768-1.757-4.273C489.048,380.158,489.557,378.537,490.735,377.448z"/>
		<path fill="none" d="M471.036,369.953c7.35,0,7.362,9.677,0,9.677C463.686,379.629,463.674,369.953,471.036,369.953z"/>
		<path fill="none" d="M451.947,364.56c5.196,0,5.204,8.133,0,8.133C446.751,372.693,446.742,364.56,451.947,364.56z"/>
		<path fill="none" d="M431.531,360.568c0.83-0.768,1.85-1.252,3-1.252h0.236c1.088,0,2.231,0.477,3,1.252
			c0.736,0.741,1.29,1.957,1.243,3.022c-0.049,1.105-0.41,2.251-1.243,3.022c-0.83,0.768-1.85,1.252-3,1.252h-0.236
			c-1.088,0-2.231-0.477-3-1.252c-0.736-0.741-1.29-1.957-1.243-3.022C430.337,362.485,430.698,361.339,431.531,360.568z"/>
		<path fill="none" d="M418.343,355.758c5.458,0,5.467,7.118,0,7.118C412.885,362.876,412.876,355.758,418.343,355.758z"/>
		<path fill="none" d="M359.81,367.42c25.37,18.584,96.97,71.868,143.91,133.17"/>
		<path fill="none" d="M498.536,503.206c-46.759-61.331-117.982-114.169-140.787-130.9"/>
		<path fill="none" d="M475.551,489.371c-1.298,0.644-2.577,1.941-3.002,3.263c-0.456,1.418-0.494,3.024,0.297,4.316
			c0.291,0.39,0.582,0.779,0.873,1.169c0.562,0.564,1.223,0.989,1.973,1.287c0.66,0.32,1.286,0.685,1.882,1.096
			c0.176,0.155,0.361,0.301,0.529,0.465c1.041,1.01,2.523,1.678,4.068,1.731c1.492,0.052,3.343-0.519,4.441-1.535
			c2.31-2.139,2.821-5.678,0.535-7.894c-2.011-1.95-4.273-3.254-6.922-4.338C478.907,488.392,476.798,488.752,475.551,489.371z"/>
		<path fill="none" d="M459.215,479.319c3.861,6.736,14.259,0.703,10.392-6.044C465.746,466.54,455.348,472.572,459.215,479.319z"/>
		<path fill="none" d="M444.485,458.138c-0.346,1.567-0.213,3.168,0.599,4.586l1.333,2.326c0.769,1.342,2.157,2.415,3.643,2.816
			c1.422,0.384,3.292,0.207,4.553-0.604c1.309-0.842,2.448-2.097,2.796-3.67c0.346-1.567,0.213-3.168-0.599-4.586l-1.333-2.326
			c-0.769-1.342-2.157-2.415-3.643-2.816c-1.422-0.384-3.292-0.207-4.553,0.604C445.971,455.31,444.832,456.565,444.485,458.138z"/>
		<path fill="none" d="M428.191,444.701c3.675,6.411,12.001,1.584,8.32-4.838C432.836,433.452,424.51,438.279,428.191,444.701z"/>
		<path fill="none" d="M414.01,430.746c2.598,4.532,9.595,0.473,6.993-4.067C418.405,422.147,411.408,426.206,414.01,430.746z"/>
		<path fill="none" d="M400.37,414.932c-0.245,1.108-0.151,2.24,0.424,3.243l0.118,0.206c0.544,0.949,1.525,1.707,2.576,1.991
			c1.005,0.271,2.328,0.147,3.219-0.427c0.926-0.595,1.731-1.483,1.977-2.595c0.245-1.108,0.151-2.24-0.424-3.243l-0.118-0.206
			c-0.544-0.949-1.525-1.707-2.576-1.991c-1.005-0.271-2.328-0.147-3.219,0.427C401.421,412.933,400.616,413.821,400.37,414.932z"/>
		<path fill="none" d="M389.64,405.834c2.729,4.761,8.854,1.21,6.12-3.559C393.031,397.514,386.907,401.065,389.64,405.834z"/>
	</g>
	<path fill="none" d="M453.1,409.205"/>
</g>
<g id="level2-disk0">
	<g>
		<circle fill="none" cx="146.529" cy="229.218" r="38.913"/>
		<circle fill="none" cx="74.461" cy="239.799" r="33.154"/>
		<circle fill="none" cx="112.053" cy="282.049" r="22"/>
		<circle fill="none" cx="151.461" cy="298.512" r="20.574"/>
		<circle fill="none" cx="189.813" cy="283.549" r="20.5"/>
		<circle fill="none" cx="216.644" cy="257.799" r="18"/>
		<circle fill="none" cx="231.187" cy="227.161" r="15.423"/>
		<circle fill="none" cx="229.362" cy="199.019" r="12.718"/>
		<circle fill="none" cx="221.942" cy="177.057" r="9.245"/>
		<circle fill="none" cx="204.362" cy="151.049" r="5.718"/>
		<circle fill="none" cx="212.404" cy="162.836" r="7.538"/>
		<circle fill="none" cx="99.367" cy="194.438" r="19.5"/>
	</g>
	<path fill="none" d="M143.104,231.203"/>
</g>
<g id="level2-disk1-aesthetic">
	<g>
		<path fill="none" d="M331.27,350.63c-29.15,12.95-111.79,47.33-188.16,57.24"/>
		<path fill="none" d="M328.2,346.37c-26.22,11.64-108.46,46-184.86,55.72"/>
		<path fill="none" d="M168.501,388.825c0.095-1.444-0.38-3.195-1.304-4.22c-0.991-1.099-2.354-1.929-3.859-1.885
			c-0.481,0.059-0.961,0.117-1.442,0.176c-0.766,0.207-1.462,0.568-2.094,1.07c-0.605,0.413-1.232,0.774-1.883,1.086
			c-0.221,0.075-0.44,0.163-0.664,0.228c-1.389,0.401-2.704,1.352-3.523,2.664c-0.79,1.267-1.226,3.153-0.901,4.608
			c0.684,3.063,3.471,5.262,6.519,4.382c2.682-0.774,4.934-2.086,7.191-3.842C167.665,392.218,168.41,390.212,168.501,388.825z"/>
		<path fill="none" d="M185.311,379.667c-7.721,0-7.734,12,0,12C193.033,391.667,193.046,379.667,185.311,379.667z"/>
		<path fill="none" d="M210.887,377.425c-1.174-1.078-2.617-1.757-4.243-1.757h-2.667c-1.538,0-3.155,0.669-4.243,1.757
			c-1.041,1.041-1.824,2.748-1.757,4.243c0.069,1.552,0.579,3.161,1.757,4.243c1.174,1.078,2.617,1.757,4.243,1.757h2.667
			c1.538,0,3.155-0.669,4.243-1.757c1.041-1.041,1.824-2.748,1.757-4.243C212.575,380.116,212.066,378.506,210.887,377.425z"/>
		<path fill="none" d="M230.587,369.984c-7.35,0-7.362,9.607,0,9.607C237.936,379.591,237.949,369.984,230.587,369.984z"/>
		<path fill="none" d="M249.676,364.63c-5.196,0-5.204,8.075,0,8.075C254.872,372.705,254.88,364.63,249.676,364.63z"/>
		<path fill="none" d="M270.092,360.667c-0.83-0.762-1.85-1.243-3-1.243h-0.236c-1.088,0-2.231,0.473-3,1.243
			c-0.736,0.736-1.29,1.943-1.243,3c0.049,1.097,0.41,2.235,1.243,3c0.83,0.762,1.85,1.243,3,1.243h0.236
			c1.088,0,2.231-0.473,3-1.243c0.736-0.736,1.29-1.943,1.243-3C271.285,362.57,270.925,361.432,270.092,360.667z"/>
		<path fill="none" d="M283.279,355.891c-5.458,0-5.467,7.067,0,7.067C288.737,362.958,288.746,355.891,283.279,355.891z"/>
		<path fill="none" d="M340.35,366.81c-25.79,18.78-95.97,72.51-142.63,133.1"/>
		<path fill="none" d="M202.917,502.498C249.344,441.95,319.043,388.711,342.38,371.68"/>
		<path fill="none" d="M226.072,488.541c1.298,0.64,2.577,1.927,3.002,3.239c0.456,1.408,0.494,3.003-0.297,4.285
			c-0.291,0.387-0.582,0.774-0.873,1.16c-0.562,0.56-1.223,0.982-1.973,1.278c-0.66,0.317-1.286,0.68-1.882,1.088
			c-0.176,0.154-0.361,0.299-0.529,0.462c-1.041,1.002-2.523,1.666-4.068,1.719c-1.492,0.051-3.343-0.515-4.441-1.524
			c-2.31-2.124-2.821-5.637-0.535-7.837c2.011-1.936,4.273-3.23,6.922-4.307C222.716,487.569,224.825,487.927,226.072,488.541z"/>
		<path fill="none" d="M242.408,478.562c-3.861,6.687-14.259,0.698-10.392-6C235.876,465.875,246.275,471.864,242.408,478.562z"/>
		<path fill="none" d="M257.138,457.534c0.346,1.556,0.213,3.145-0.599,4.553l-1.333,2.309c-0.769,1.332-2.157,2.397-3.643,2.796
			c-1.422,0.381-3.292,0.206-4.553-0.599c-1.309-0.836-2.448-2.082-2.796-3.643c-0.346-1.555-0.213-3.145,0.599-4.553l1.333-2.309
			c0.769-1.332,2.157-2.397,3.643-2.796c1.422-0.381,3.292-0.206,4.553,0.599C255.652,454.726,256.791,455.973,257.138,457.534z"/>
		<path fill="none" d="M273.432,444.194c-3.675,6.365-12.001,1.572-8.32-4.803C268.787,433.025,277.113,437.818,273.432,444.194z"/>
		<path fill="none" d="M287.613,430.339c-2.598,4.5-9.595,0.47-6.993-4.037C283.218,421.802,290.215,425.832,287.613,430.339z"/>
		<path fill="none" d="M301.253,414.64c0.245,1.1,0.151,2.224-0.424,3.219l-0.118,0.204c-0.544,0.942-1.525,1.695-2.576,1.977
			c-1.005,0.269-2.328,0.146-3.219-0.424c-0.926-0.591-1.731-1.472-1.977-2.576c-0.245-1.1-0.151-2.224,0.424-3.219l0.118-0.204
			c0.544-0.942,1.525-1.695,2.576-1.977c1.005-0.269,2.328-0.146,3.219,0.424C300.202,412.655,301.007,413.536,301.253,414.64z"/>
		<path fill="none" d="M311.983,405.607c-2.729,4.727-8.854,1.201-6.12-3.533C308.592,397.347,314.716,400.872,311.983,405.607z"/>
	</g>
	<path fill="none" d="M245.366,410.247"/>
</g>
<g id="level2-disk1">
	<g>
		
			<ellipse transform="matrix(0.5 -0.866 0.866 0.5 76.9014 597.566)" fill="none" cx="555.958" cy="232.184" rx="38.913" ry="38.913"/>
		
			<ellipse transform="matrix(0.5 -0.866 0.866 0.5 148.9688 586.9846)" fill="none" cx="582.828" cy="164.482" rx="33.154" ry="33.154"/>
		<ellipse transform="matrix(0.5 -0.866 0.866 0.5 111.377 544.7346)" fill="none" cx="527.443" cy="175.912" rx="22" ry="22"/>
		
			<ellipse transform="matrix(0.5 -0.866 0.866 0.5 71.9687 528.2717)" fill="none" cx="493.481" cy="201.809" rx="20.574" ry="20.574"/>
		<ellipse transform="matrix(0.5 -0.866 0.866 0.5 33.6174 543.2346)" fill="none" cx="487.264" cy="242.504" rx="20.5" ry="20.5"/>
		<ellipse transform="matrix(0.5 -0.866 0.866 0.5 6.786 568.9846)" fill="none" cx="496.148" cy="278.615" rx="18" ry="18"/>
		
			<ellipse transform="matrix(0.5 -0.866 0.866 0.5 -7.7568 599.6233)" fill="none" cx="515.411" cy="306.529" rx="15.423" ry="15.423"/>
		
			<ellipse transform="matrix(0.5 -0.866 0.866 0.5 -5.9322 627.7644)" fill="none" cx="540.694" cy="319.02" rx="12.718" ry="12.718"/>
		
			<ellipse transform="matrix(0.5 -0.866 0.866 0.5 1.4879 649.7273)" fill="none" cx="563.424" cy="323.575" rx="9.245" ry="9.245"/>
		
			<ellipse transform="matrix(0.5 -0.866 0.866 0.5 19.0678 675.7346)" fill="none" cx="594.737" cy="321.354" rx="5.718" ry="5.718"/>
		
			<ellipse transform="matrix(0.5 -0.866 0.866 0.5 11.0255 663.9474)" fill="none" cx="580.508" cy="322.425" rx="7.538" ry="7.538"/>
		
			<ellipse transform="matrix(0.5 -0.866 0.866 0.5 124.0626 632.3459)" fill="none" cx="609.659" cy="208.732" rx="19.5" ry="19.5"/>
	</g>
	<path fill="none" d="M569.5,232.184"/>
</g>
<g id="level2-disk2-aesthetic">
	<g>
		<path fill="none" d="M359.78,332.81c3.62-33.33,15.34-120.46,44.55-190.28"/>
		<path fill="none" d="M365,332.18c3.35-30.53,14.9-116.91,44.18-186.45"/>
		<path fill="none" d="M407.882,174.636c1.203,0.804,2.957,1.268,4.306,0.98c1.447-0.309,2.847-1.074,3.562-2.4
			c0.189-0.446,0.379-0.891,0.568-1.337c0.204-0.767,0.239-1.55,0.12-2.348c-0.055-0.73-0.054-1.454,0.001-2.173
			c0.046-0.229,0.079-0.462,0.135-0.689c0.347-1.403,0.181-3.018-0.545-4.383c-0.702-1.318-2.118-2.638-3.54-3.084
			c-2.994-0.939-6.292,0.375-7.055,3.455c-0.671,2.709-0.661,5.316-0.268,8.148C405.363,172.215,406.727,173.864,407.882,174.636z"
			/>
		<path fill="none" d="M407.408,193.773c3.861-6.687-6.525-12.698-10.392-6C393.155,194.46,403.541,200.471,407.408,193.773z"/>
		<path fill="none" d="M396.562,217.044c1.52-0.478,2.83-1.388,3.643-2.796l1.333-2.309c0.769-1.332,0.998-3.067,0.599-4.553
			c-0.381-1.422-1.468-2.954-2.796-3.643c-1.379-0.716-3.027-1.079-4.553-0.599c-1.52,0.478-2.83,1.388-3.643,2.796l-1.333,2.309
			c-0.769,1.332-0.998,3.067-0.599,4.553c0.381,1.422,1.468,2.954,2.796,3.643C393.388,217.16,395.037,217.524,396.562,217.044z"/>
		<path fill="none" d="M393.156,237.825c3.675-6.365-4.639-11.179-8.32-4.803C381.162,239.386,389.476,244.2,393.156,237.825z"/>
		<path fill="none" d="M388.248,257.033c2.598-4.5-4.391-8.544-6.993-4.037C378.658,257.496,385.646,261.54,388.248,257.033z"/>
		<path fill="none" d="M381.472,276.695c1.075-0.338,2.001-0.981,2.576-1.977l0.118-0.204c0.544-0.942,0.705-2.168,0.424-3.219
			c-0.269-1.005-1.038-2.089-1.977-2.576c-0.975-0.506-2.141-0.763-3.219-0.424c-1.075,0.338-2.001,0.981-2.576,1.977l-0.118,0.204
			c-0.544,0.942-0.705,2.168-0.424,3.219c0.269,1.005,1.038,2.089,1.977,2.576C379.228,276.778,380.393,277.034,381.472,276.695z"/>
		<path fill="none" d="M379.015,290.504c2.729-4.727-3.387-8.268-6.12-3.533C370.166,291.697,376.281,295.239,379.015,290.504z"/>
		<path fill="none" d="M340.85,332.86c-3.62-33.34-15.37-120.74-44.69-190.64"/>
		<path fill="none" d="M335.63,332.27c-3.35-30.5-14.92-117.21-44.32-186.87"/>
		<path fill="none" d="M292.74,174.636c-1.203,0.804-2.957,1.268-4.306,0.98c-1.447-0.309-2.847-1.074-3.562-2.4
			c-0.189-0.446-0.379-0.891-0.568-1.337c-0.204-0.767-0.239-1.55-0.12-2.348c0.055-0.73,0.054-1.454-0.001-2.173
			c-0.046-0.229-0.079-0.462-0.135-0.689c-0.347-1.403-0.181-3.018,0.545-4.383c0.702-1.318,2.118-2.638,3.54-3.084
			c2.994-0.939,6.292,0.375,7.054,3.455c0.671,2.709,0.661,5.316,0.268,8.148C295.26,172.215,293.896,173.864,292.74,174.636z"/>
		<path fill="none" d="M293.215,193.773c-3.861-6.687,6.525-12.698,10.392-6C307.468,194.46,297.082,200.471,293.215,193.773z"/>
		<path fill="none" d="M304.061,217.044c-1.52-0.478-2.83-1.388-3.643-2.796l-1.333-2.309c-0.769-1.332-0.998-3.067-0.599-4.553
			c0.381-1.422,1.468-2.954,2.796-3.643c1.379-0.716,3.027-1.079,4.553-0.599c1.52,0.478,2.83,1.388,3.643,2.796l1.333,2.309
			c0.769,1.332,0.998,3.067,0.599,4.553c-0.381,1.422-1.468,2.954-2.796,3.643C307.235,217.16,305.586,217.524,304.061,217.044z"/>
		<path fill="none" d="M307.466,237.825c-3.675-6.365,4.639-11.179,8.32-4.803C319.461,239.386,311.147,244.2,307.466,237.825z"/>
		<path fill="none" d="M312.374,257.033c-2.598-4.5,4.391-8.544,6.993-4.037C321.965,257.496,314.977,261.54,312.374,257.033z"/>
		<path fill="none" d="M319.151,276.695c-1.075-0.338-2.001-0.981-2.576-1.977l-0.118-0.204c-0.544-0.942-0.705-2.168-0.424-3.219
			c0.269-1.005,1.038-2.089,1.977-2.576c0.975-0.506,2.141-0.763,3.219-0.424c1.075,0.338,2.001,0.981,2.576,1.977l0.118,0.204
			c0.544,0.942,0.705,2.168,0.424,3.219c-0.269,1.005-1.038,2.089-1.977,2.576C321.395,276.778,320.229,277.034,319.151,276.695z"/>
		<path fill="none" d="M321.608,290.504c-2.729-4.727,3.387-8.268,6.12-3.533C330.457,291.697,324.342,295.239,321.608,290.504z"/>
	</g>
	<path fill="none" d="M350,230.165"/>
</g>
<g id="level2-disk2">
	<g>
		
			<ellipse transform="matrix(0.0021 -1 1 0.0021 -235.2795 934.5999)" fill="none" cx="350.662" cy="585.192" rx="38.913" ry="38.913"/>
		
			<ellipse transform="matrix(0.0021 -1 1 0.0021 -296.9646 1016.9623)" fill="none" cx="361.089" cy="657.282" rx="33.154" ry="33.154"/>
		<ellipse transform="matrix(0.0021 -1 1 0.0021 -217.2237 1021.8718)" fill="none" cx="403.42" cy="619.781" rx="22" ry="22"/>
		
			<ellipse transform="matrix(0.0021 -1 1 0.0021 -161.339 999.1304)" fill="none" cx="419.967" cy="580.408" rx="20.574" ry="20.574"/>
		<ellipse transform="matrix(0.0021 -1 1 0.0021 -137.8046 945.9487)" fill="none" cx="405.086" cy="542.024" rx="20.5" ry="20.5"/>
		<ellipse transform="matrix(0.0021 -1 1 0.0021 -136.5556 893.4274)" fill="none" cx="379.394" cy="515.138" rx="18" ry="18"/>
		
			<ellipse transform="matrix(0.0021 -1 1 0.0021 -152.4891 848.2429)" fill="none" cx="348.786" cy="500.53" rx="15.423" ry="15.423"/>
		
			<ellipse transform="matrix(0.0021 -1 1 0.0021 -182.3381 821.8586)" fill="none" cx="320.641" cy="502.294" rx="12.718" ry="12.718"/>
		
			<ellipse transform="matrix(0.0021 -1 1 0.0021 -211.6428 807.2371)" fill="none" cx="298.663" cy="509.667" rx="9.245" ry="9.245"/>
		
			<ellipse transform="matrix(0.0021 -1 1 0.0021 -255.156 798.6788)" fill="none" cx="272.618" cy="527.191" rx="5.718" ry="5.718"/>
		<ellipse transform="matrix(0.0021 -1 1 0.0021 -235.36 802.4833)" fill="none" cx="284.422" cy="519.174" rx="7.538" ry="7.538"/>
		<ellipse transform="matrix(0.0021 -1 1 0.0021 -317.1721 946.7048)" fill="none" cx="315.781" cy="632.279" rx="19.5" ry="19.5"/>
	</g>
	<path fill="none" d="M350,587.797"/>
</g>
<g id="level2-disk0-static">
	<path fill="none" d="M360.68,367c-6.75-4.94-10.68-7.63-10.68-7.63"/>
	<path fill="none" d="M503.41,500.65c38.68,50.58,60.72,105.81,26.77,149.4"/>
	<path fill="none" d="M358.61,371.84c-5.47-4-8.61-6.17-8.61-6.17"/>
	<path fill="none" d="M498.23,503.26c38.81,51,60.86,107.05,24.71,150.95"/>
	<path fill="none" d="M513.895,637.5c-0.195,0.479-0.33,0.958-0.431,1.436c-0.702,1.009-1.211,2.116-1.416,3.356
		c-0.274,1.656,0.065,3.656,1.007,4.803c1.012,1.231,2.476,2.147,4.205,2.057c1.594-0.083,3.456-0.636,4.761-1.978
		c1.401-1.441,2.38-2.738,3.197-4.579c0.798-1.799,0.884-3.329,0.959-5.131c-0.036-0.894-0.274-1.675-0.713-2.343
		c-0.323-0.785-0.833-1.399-1.53-1.843c-1.204-0.846-3.099-1.207-4.699-0.693c-1.658,0.533-3.344,1.577-4.402,3.206
		C514.521,636.361,514.208,636.931,513.895,637.5z"/>
	<path fill="none" d="M524.57,615.696c-0.507,0.851-0.912,1.878-0.971,2.852c-0.566,0.882-0.921,1.956-0.98,2.792
		c-0.094,1.343,0.453,2.927,1.482,3.777c1.037,0.856,2.424,1.459,3.944,1.316c0.501-0.087,1.002-0.175,1.504-0.262
		c1.045-0.317,1.966-0.849,2.763-1.595c1.212-0.963,2.156-2.505,2.625-3.863c0.47-1.359,0.64-3.051,0.206-4.332
		c-0.129-0.724-0.445-1.342-0.945-1.852c-0.378-0.582-0.906-1.022-1.585-1.32c-1.171-0.571-2.922-0.75-4.302-0.279
		C526.83,613.435,525.37,614.353,524.57,615.696z"/>
	<path fill="none" d="M526.006,590.827c-2.054,2.276-2.271,5.587-0.391,7.97c-0.398,2.889,1.4,6.051,4.365,6.711
		c3.149,0.701,6.511-0.995,7.348-4.243c0.973-3.774-0.108-7.722-2.836-10.5C532.294,588.526,528.154,588.447,526.006,590.827z"/>
	<path fill="none" d="M520.658,569.155c-0.32,1.438-0.339,3.322,0.599,4.553c0.098,0.128,0.182,0.26,0.268,0.393
		c-0.447,2.942,1.265,6.193,4.33,6.875c3.093,0.689,6.581-0.979,7.349-4.243c0.702-2.986,0.359-6.517-1.553-9.025
		c-1.011-1.326-1.965-2.346-3.643-2.796c-1.422-0.381-3.292-0.206-4.553,0.599C522.145,566.348,521.006,567.594,520.658,569.155z"/>
	<path fill="none" d="M509.23,538.895c-2.35,2.381-2.169,6.122,0.061,8.487c0.368,0.391,0.426,0.405,0.42,0.369
		c0.032,0.056,0.097,0.164,0.23,0.37c0.239,0.361,0.46,0.733,0.663,1.116c0.188,0.403,0.278,0.586,0.29,0.594
		c0.244,0.703,0.48,2.13,0.495,2.604c0.101,3.238,2.647,6.014,5.969,6.033c3.157,0.018,6.134-2.719,6.033-5.969
		c-0.162-5.196-2.107-9.883-5.674-13.665C515.494,536.475,511.447,536.649,509.23,538.895z"/>
	<path fill="none" d="M490.69,512.652c-1.586,2.784-0.724,5.533,1.758,7.114c0.253,0.161,0.358,0.218,0.395,0.231
		c0.041,0.041,0.119,0.113,0.257,0.235c0.471,0.414,0.948,0.813,1.388,1.259c0.19,0.188,0.373,0.382,0.55,0.582
		c0.1,0.117,0.177,0.207,0.235,0.275c0.076,0.134,0.673,1.027,0.787,1.212c1.404,2.294,4.852,3.286,7.483,1.621
		c2.548-1.613,3.843-4.831,2.338-7.291c-1.905-3.113-4.425-5.528-7.549-7.518C496.011,508.894,492.077,510.218,490.69,512.652z"/>
	<path fill="none" d="M370,350.72c-7.61-3.37-11.88-5.41-11.88-5.41"/>
	<path fill="none" d="M557.53,407.58c63.01,8.12,121.67-0.46,142.41-51.56"/>
	<path fill="none" d="M373.12,346.5c-6.14-2.71-9.55-4.33-9.55-4.33"/>
	<path fill="none" d="M557.23,401.79c63.43,8.03,122.8-0.97,142.7-54.12"/>
	<path fill="none" d="M680.93,348.187c0.318-0.408,0.664-0.765,1.028-1.091c0.523-1.113,1.227-2.107,2.198-2.905
		c1.297-1.065,3.199-1.772,4.663-1.529c1.572,0.261,3.097,1.07,3.884,2.613c0.725,1.421,1.177,3.312,0.667,5.112
		c-0.548,1.934-1.181,3.43-2.367,5.058c-1.159,1.591-2.441,2.43-3.964,3.396c-0.792,0.416-1.587,0.601-2.386,0.554
		c-0.841,0.113-1.628-0.022-2.361-0.404c-1.335-0.62-2.595-2.08-2.95-3.723c-0.367-1.702-0.307-3.684,0.576-5.415
		C680.257,349.299,680.594,348.743,680.93,348.187z"/>
	<path fill="none" d="M667.384,368.335c0.484-0.865,1.17-1.729,1.985-2.267c0.481-0.931,1.234-1.776,1.928-2.245
		c1.116-0.753,2.761-1.071,4.012-0.605c1.26,0.47,2.475,1.37,3.112,2.757c0.175,0.478,0.35,0.956,0.525,1.433
		c0.248,1.063,0.248,2.127,0,3.19c-0.228,1.531-1.091,3.119-2.033,4.205c-0.942,1.086-2.322,2.08-3.649,2.344
		c-0.692,0.25-1.384,0.286-2.076,0.107c-0.693-0.036-1.338-0.274-1.936-0.712c-1.08-0.728-2.11-2.155-2.393-3.586
		C666.556,371.422,666.622,369.698,667.384,368.335z"/>
	<path fill="none" d="M646.565,382.013c0.944-2.917,3.703-4.76,6.707-4.324c2.302-1.789,5.941-1.813,7.995,0.425
		c2.182,2.376,2.394,6.137,0,8.485c-2.782,2.73-6.741,3.768-10.511,2.794C647.716,388.609,645.578,385.062,646.565,382.013z"/>
	<path fill="none" d="M625.123,388.217c1.085-0.996,2.708-1.955,4.243-1.757c0.16,0.021,0.317,0.027,0.474,0.035
		c2.324-1.858,5.995-2.001,8.119,0.312c2.143,2.335,2.442,6.189,0,8.485c-2.235,2.101-5.465,3.569-8.593,3.167
		c-1.654-0.212-3.014-0.529-4.243-1.757c-1.041-1.041-1.824-2.748-1.757-4.243C623.435,390.908,623.945,389.298,625.123,388.217z"/>
	<path fill="none" d="M593.203,393.45c0.887-3.226,4.217-4.939,7.381-4.191c0.522,0.124,0.564,0.167,0.529,0.18
		c0.065-0.001,0.191,0.002,0.436,0.014c0.432,0.026,0.865,0.031,1.298,0.016c0.444-0.039,0.647-0.052,0.66-0.046
		c0.731-0.14,2.085-0.649,2.502-0.873c2.855-1.532,6.532-0.715,8.209,2.153c1.594,2.725,0.712,6.672-2.153,8.209
		c-4.581,2.458-9.612,3.116-14.671,1.919C594.239,400.084,592.366,396.492,593.203,393.45z"/>
	<path fill="none" d="M561.206,390.515c1.618-2.766,4.429-3.394,7.04-2.034c0.266,0.139,0.368,0.201,0.398,0.227
		c0.056,0.015,0.157,0.046,0.332,0.105c0.594,0.201,1.178,0.414,1.784,0.572c0.258,0.07,0.517,0.132,0.779,0.185
		c0.151,0.028,0.267,0.05,0.356,0.066c0.154-0.001,1.226,0.07,1.443,0.075c2.689,0.069,5.272,2.559,5.145,5.67
		c-0.122,3.013-2.262,5.744-5.145,5.67c-3.649-0.094-7-1.068-10.285-2.779C560.612,397.002,559.791,392.934,561.206,390.515z"/>
	<path fill="none" d="M556.216,409.125c0.21,17.88-4.23,36.06-13.82,52.68c-9.93,17.19-24.06,30.45-40.35,39.21
		c-1.7,0.92-3.43,1.79-5.18,2.6c-29.48,13.79-64.99,13.43-95.31-4.07c-44.77-25.84-62.83-80.19-44.48-126.89
		c0.65-1.63,1.33-3.24,2.06-4.85c1.39-3.08,2.95-6.12,4.68-9.11c1.38-2.39,2.84-4.7,4.38-6.94c0.99-1.45,2.02-2.87,3.09-4.25
		c30.99-40.53,88-52.75,133.37-26.55c30.91,17.85,49.08,49.27,51.33,82.39C556.116,405.265,556.196,407.195,556.216,409.125z"/>
	<line fill="none" x1="350" y1="365.67" x2="350" y2="359.37"/>
</g>
<g id="level2-disk1-static">
	<path fill="none" d="M341.88,345.31c0,0-3.9,1.87-10.89,4.97"/>
	<path fill="none" d="M336.43,342.17c0,0-3.05,1.45-8.58,3.9"/>
	<path fill="none" d="M350,359.37c0,0-3.55,2.44-9.71,6.91"/>
	<path fill="none" d="M350,365.67c0,0-2.75,1.9-7.59,5.43"/>
	<path fill="none" d="M0.06,356.02c20.88,51.45,80.22,59.8,143.73,51.39"/>
	<path fill="none" d="M0.07,347.67c20.04,53.52,80.1,62.27,144.03,53.95"/>
	<path fill="none" d="M19.07,348.187c-0.318-0.408-0.664-0.765-1.028-1.091c-0.523-1.113-1.227-2.107-2.199-2.905
		c-1.297-1.065-3.199-1.772-4.663-1.529c-1.572,0.261-3.097,1.07-3.884,2.613c-0.725,1.421-1.177,3.312-0.667,5.112
		c0.548,1.934,1.181,3.43,2.367,5.058c1.158,1.591,2.441,2.43,3.964,3.396c0.792,0.416,1.587,0.601,2.386,0.554
		c0.841,0.113,1.628-0.022,2.361-0.404c1.335-0.62,2.595-2.08,2.95-3.723c0.367-1.702,0.306-3.684-0.576-5.415
		C19.743,349.299,19.406,348.743,19.07,348.187z"/>
	<path fill="none" d="M32.616,368.335c-0.484-0.865-1.17-1.729-1.985-2.267c-0.481-0.931-1.234-1.776-1.928-2.245
		c-1.116-0.753-2.761-1.071-4.012-0.605c-1.26,0.47-2.475,1.37-3.112,2.757c-0.175,0.478-0.35,0.956-0.525,1.433
		c-0.248,1.063-0.248,2.127,0,3.19c0.228,1.531,1.091,3.119,2.033,4.205c0.942,1.086,2.322,2.08,3.649,2.344
		c0.692,0.25,1.384,0.286,2.076,0.107c0.693-0.036,1.338-0.274,1.936-0.712c1.08-0.728,2.11-2.155,2.393-3.586
		C33.444,371.422,33.378,369.698,32.616,368.335z"/>
	<path fill="none" d="M53.435,382.013c-0.944-2.917-3.703-4.76-6.707-4.324c-2.302-1.789-5.941-1.813-7.995,0.425
		c-2.182,2.376-2.394,6.137,0,8.485c2.782,2.73,6.741,3.768,10.511,2.794C52.284,388.609,54.422,385.062,53.435,382.013z"/>
	<path fill="none" d="M74.877,388.217c-1.085-0.996-2.708-1.955-4.243-1.757c-0.16,0.021-0.317,0.027-0.474,0.035
		c-2.324-1.858-5.995-2.001-8.119,0.312c-2.143,2.335-2.442,6.189,0,8.485c2.235,2.101,5.465,3.569,8.593,3.167
		c1.654-0.212,3.014-0.529,4.243-1.757c1.041-1.041,1.824-2.748,1.757-4.243C76.565,390.908,76.055,389.298,74.877,388.217z"/>
	<path fill="none" d="M106.797,393.45c-0.887-3.226-4.217-4.939-7.381-4.191c-0.522,0.124-0.564,0.167-0.529,0.18
		c-0.065-0.001-0.191,0.002-0.436,0.014c-0.432,0.026-0.865,0.031-1.298,0.016c-0.444-0.039-0.647-0.052-0.66-0.046
		c-0.731-0.14-2.085-0.649-2.502-0.873c-2.855-1.532-6.532-0.715-8.209,2.153c-1.594,2.725-0.712,6.672,2.153,8.209
		c4.581,2.458,9.612,3.116,14.671,1.919C105.761,400.084,107.634,396.492,106.797,393.45z"/>
	<path fill="none" d="M138.794,390.515c-1.618-2.766-4.429-3.394-7.04-2.034c-0.266,0.139-0.368,0.201-0.398,0.227
		c-0.056,0.015-0.157,0.046-0.332,0.105c-0.594,0.201-1.178,0.414-1.784,0.572c-0.258,0.07-0.517,0.132-0.779,0.185
		c-0.151,0.028-0.267,0.05-0.356,0.066c-0.154-0.001-1.226,0.07-1.443,0.075c-2.689,0.069-5.272,2.559-5.145,5.67
		c0.122,3.013,2.262,5.744,5.145,5.67c3.649-0.094,7-1.068,10.285-2.779C139.389,397.002,140.209,392.934,138.794,390.515z"/>
	<path fill="none" d="M169.82,650.05c-34.06-43.73-11.76-99.18,27.15-149.9"/>
	<path fill="none" d="M177.06,654.21c-36.26-44.03-13.97-100.28,25.06-151.4"/>
	<path fill="none" d="M186.105,637.5c0.195,0.479,0.33,0.958,0.431,1.436c0.702,1.009,1.211,2.116,1.416,3.356
		c0.274,1.656-0.065,3.656-1.007,4.803c-1.012,1.231-2.476,2.147-4.205,2.057c-1.593-0.083-3.456-0.636-4.761-1.978
		c-1.401-1.441-2.38-2.738-3.197-4.579c-0.798-1.799-0.884-3.329-0.959-5.131c0.036-0.894,0.274-1.675,0.713-2.343
		c0.323-0.785,0.833-1.399,1.53-1.843c1.204-0.846,3.099-1.207,4.699-0.693c1.658,0.533,3.344,1.577,4.402,3.206
		C185.479,636.361,185.792,636.931,186.105,637.5z"/>
	<path fill="none" d="M175.43,615.696c0.507,0.851,0.912,1.878,0.971,2.852c0.566,0.882,0.921,1.956,0.98,2.792
		c0.094,1.343-0.453,2.927-1.482,3.777c-1.037,0.856-2.424,1.459-3.944,1.316c-0.501-0.087-1.002-0.175-1.504-0.262
		c-1.045-0.317-1.966-0.849-2.763-1.595c-1.212-0.963-2.156-2.505-2.625-3.863c-0.47-1.359-0.64-3.051-0.206-4.332
		c0.13-0.724,0.445-1.342,0.945-1.852c0.378-0.582,0.906-1.022,1.585-1.32c1.171-0.571,2.922-0.75,4.302-0.279
		C173.17,613.435,174.63,614.353,175.43,615.696z"/>
	<path fill="none" d="M173.994,590.827c2.054,2.276,2.271,5.587,0.391,7.97c0.398,2.889-1.4,6.051-4.365,6.711
		c-3.149,0.701-6.511-0.995-7.348-4.243c-0.973-3.774,0.108-7.722,2.836-10.5C167.706,588.526,171.846,588.447,173.994,590.827z"/>
	<path fill="none" d="M179.342,569.155c0.32,1.438,0.339,3.322-0.599,4.553c-0.098,0.128-0.182,0.26-0.268,0.393
		c0.447,2.942-1.264,6.193-4.33,6.875c-3.093,0.689-6.581-0.979-7.348-4.243c-0.702-2.986-0.359-6.517,1.553-9.025
		c1.011-1.326,1.965-2.346,3.643-2.796c1.422-0.381,3.292-0.206,4.553,0.599C177.855,566.348,178.994,567.594,179.342,569.155z"/>
	<path fill="none" d="M190.77,538.895c2.35,2.381,2.169,6.122-0.061,8.487c-0.368,0.391-0.426,0.405-0.42,0.369
		c-0.032,0.056-0.097,0.164-0.23,0.37c-0.239,0.361-0.46,0.733-0.663,1.116c-0.188,0.403-0.278,0.586-0.29,0.594
		c-0.244,0.703-0.48,2.13-0.495,2.604c-0.101,3.238-2.647,6.014-5.969,6.033c-3.157,0.018-6.134-2.719-6.033-5.969
		c0.162-5.196,2.107-9.883,5.674-13.665C184.506,536.475,188.553,536.649,190.77,538.895z"/>
	<path fill="none" d="M209.31,512.652c1.586,2.784,0.724,5.533-1.758,7.114c-0.253,0.161-0.358,0.218-0.395,0.231
		c-0.041,0.041-0.119,0.113-0.257,0.235c-0.471,0.414-0.948,0.813-1.388,1.259c-0.19,0.188-0.373,0.382-0.55,0.582
		c-0.1,0.117-0.177,0.207-0.235,0.275c-0.076,0.134-0.673,1.027-0.787,1.212c-1.404,2.294-4.852,3.286-7.483,1.621
		c-2.548-1.613-3.843-4.831-2.338-7.291c1.906-3.113,4.425-5.528,7.549-7.518C203.989,508.894,207.923,510.218,209.31,512.652z"/>
	<path fill="none" d="M297.77,499.545c-30.16,17.41-65.47,17.85-94.85,4.29c-1.76-0.81-3.49-1.67-5.2-2.59
		c-16.48-8.76-30.77-22.09-40.79-39.44c-9.58-16.59-14.02-34.74-13.82-52.6c0.02-1.93,0.09-3.86,0.23-5.78
		c2.22-33.15,20.4-64.61,51.33-82.47c45.45-26.24,102.57-13.94,133.53,26.75c1.06,1.39,2.08,2.81,3.07,4.26
		c1.49,2.17,2.9,4.41,4.24,6.73c1.79,3.1,3.4,6.25,4.84,9.45c0.72,1.61,1.4,3.24,2.03,4.87
		C360.5,419.635,342.43,473.765,297.77,499.545z"/>
</g>
<g id="level2-disk2-static">
	<path fill="none" d="M341.88,345.31c0,0-0.35-4.54-1.2-12.52"/>
	<path fill="none" d="M336.43,342.17c0,0-0.29-3.6-0.98-10.02"/>
	<line fill="none" x1="336.43" y1="342.17" x2="341.88" y2="345.31"/>
	<path fill="none" d="M359.31,332.91c-0.84,7.9-1.19,12.4-1.19,12.4"/>
	<path fill="none" d="M364.53,332.34c-0.67,6.29-0.96,9.83-0.96,9.83"/>
	<line fill="none" x1="358.12" y1="345.31" x2="363.57" y2="342.17"/>
	<path fill="none" d="M180.24,43.93c54.91-7.63,91.79,39.42,116.25,98.49"/>
	<path fill="none" d="M173.02,48.12c56.29-9.39,93.87,38.1,118.62,97.5"/>
	<path fill="none" d="M182.965,64.312c-0.512-0.071-0.994-0.193-1.459-0.345c-1.225,0.103-2.438-0.009-3.615-0.452
		c-1.571-0.591-3.134-1.884-3.655-3.274c-0.56-1.492-0.622-3.217,0.321-4.67c0.868-1.339,2.279-2.675,4.094-3.134
		c1.949-0.493,3.561-0.692,5.564-0.48c1.957,0.208,3.325,0.899,4.923,1.735c0.756,0.478,1.314,1.074,1.673,1.789
		c0.518,0.672,0.795,1.42,0.831,2.247c0.131,1.466-0.504,3.287-1.749,4.416c-1.29,1.169-3.037,2.108-4.977,2.209
		C184.264,64.34,183.615,64.326,182.965,64.312z"/>
	<path fill="none" d="M207.186,65.97c-0.991,0.013-2.082-0.149-2.955-0.586c-1.047,0.049-2.155-0.18-2.908-0.548
		c-1.21-0.59-2.308-1.855-2.53-3.172c-0.223-1.326-0.052-2.829,0.832-4.074c0.326-0.39,0.653-0.781,0.979-1.171
		c0.797-0.746,1.718-1.278,2.763-1.595c1.44-0.568,3.247-0.614,4.659-0.342c1.412,0.273,2.962,0.971,3.854,1.988
		c0.563,0.474,0.94,1.056,1.131,1.745c0.315,0.618,0.432,1.296,0.351,2.033c-0.091,1.3-0.812,2.905-1.909,3.865
		C210.274,65.144,208.748,65.949,207.186,65.97z"/>
	<path fill="none" d="M229.441,77.161c-2.999,0.641-5.974-0.827-7.098-3.647c-2.701-1.099-4.54-4.238-3.63-7.136
		c0.967-3.077,4.118-5.141,7.348-4.243c3.755,1.044,6.634,3.954,7.676,7.706C234.578,72.866,232.575,76.491,229.441,77.161z"/>
	<path fill="none" d="M245.535,92.628c-1.405-0.442-3.047-1.368-3.643-2.796c-0.062-0.149-0.134-0.288-0.206-0.428
		c-2.771-1.084-4.731-4.191-3.789-7.187c0.95-3.023,4.138-5.209,7.348-4.243c2.937,0.885,5.823,2.948,7.039,5.858
		c0.643,1.538,1.049,2.875,0.599,4.553c-0.381,1.422-1.468,2.954-2.796,3.643C248.709,92.744,247.061,93.108,245.535,92.628z"/>
	<path fill="none" d="M266.027,117.656c-3.237,0.845-6.386-1.182-7.32-4.297c-0.154-0.514-0.138-0.572-0.109-0.548
		c-0.033-0.056-0.094-0.166-0.206-0.384c-0.194-0.387-0.405-0.765-0.635-1.132c-0.255-0.365-0.368-0.534-0.369-0.548
		c-0.486-0.563-1.605-1.481-2.008-1.73c-2.754-1.706-3.885-5.299-2.24-8.186c1.563-2.743,5.422-3.953,8.186-2.24
		c4.419,2.738,7.505,6.766,8.998,11.746C271.254,113.441,269.08,116.858,266.027,117.656z"/>
	<path fill="none" d="M279.484,146.833c-3.204-0.018-5.154-2.139-5.281-5.079c-0.013-0.3-0.01-0.419-0.003-0.458
		c-0.015-0.056-0.039-0.159-0.075-0.34c-0.123-0.615-0.23-1.227-0.396-1.831c-0.068-0.258-0.144-0.514-0.229-0.767
		c-0.051-0.145-0.091-0.256-0.121-0.341c-0.078-0.133-0.552-1.097-0.656-1.288c-1.285-2.363-0.42-5.845,2.338-7.291
		c2.671-1.401,6.106-0.913,7.483,1.621c1.743,3.207,2.575,6.596,2.736,10.297C285.4,144.104,282.286,146.849,279.484,146.833z"/>
	<path fill="none" d="M403.77,141.78c24.47-58.77,61.27-105.45,115.99-97.85"/>
	<path fill="none" d="M408.65,144.91c24.76-59.07,62.26-106.14,118.33-96.79"/>
	<path fill="none" d="M517.035,64.312c0.512-0.071,0.994-0.193,1.459-0.345c1.225,0.103,2.438-0.009,3.615-0.452
		c1.571-0.591,3.134-1.884,3.655-3.274c0.56-1.492,0.622-3.217-0.321-4.67c-0.868-1.339-2.279-2.675-4.094-3.134
		c-1.949-0.493-3.561-0.692-5.564-0.48c-1.957,0.208-3.325,0.899-4.923,1.735c-0.756,0.478-1.314,1.074-1.673,1.789
		c-0.518,0.672-0.795,1.42-0.831,2.247c-0.131,1.466,0.504,3.287,1.749,4.416c1.29,1.169,3.037,2.108,4.977,2.209
		C515.736,64.34,516.385,64.326,517.035,64.312z"/>
	<path fill="none" d="M492.814,65.97c0.991,0.013,2.082-0.149,2.956-0.586c1.047,0.049,2.155-0.18,2.908-0.548
		c1.21-0.59,2.308-1.855,2.53-3.172c0.223-1.326,0.052-2.829-0.832-4.074c-0.326-0.39-0.653-0.781-0.979-1.171
		c-0.797-0.746-1.718-1.278-2.763-1.595c-1.44-0.568-3.247-0.614-4.659-0.342c-1.412,0.273-2.962,0.971-3.854,1.988
		c-0.563,0.474-0.94,1.056-1.131,1.745c-0.315,0.618-0.432,1.296-0.351,2.033c0.091,1.3,0.812,2.905,1.909,3.865
		C489.726,65.144,491.252,65.949,492.814,65.97z"/>
	<path fill="none" d="M470.559,77.161c2.999,0.641,5.974-0.827,7.098-3.647c2.701-1.099,4.54-4.238,3.63-7.136
		c-0.967-3.077-4.118-5.141-7.348-4.243c-3.755,1.044-6.634,3.954-7.676,7.706C465.422,72.866,467.425,76.491,470.559,77.161z"/>
	<path fill="none" d="M454.465,92.628c1.405-0.442,3.047-1.368,3.643-2.796c0.062-0.149,0.134-0.288,0.206-0.428
		c2.771-1.084,4.731-4.191,3.789-7.187c-0.95-3.023-4.138-5.209-7.348-4.243c-2.937,0.885-5.823,2.948-7.039,5.858
		c-0.643,1.538-1.049,2.875-0.599,4.553c0.381,1.422,1.468,2.954,2.796,3.643C451.291,92.744,452.939,93.108,454.465,92.628z"/>
	<path fill="none" d="M433.973,117.656c3.237,0.845,6.386-1.182,7.32-4.297c0.154-0.514,0.138-0.572,0.109-0.548
		c0.033-0.056,0.094-0.166,0.206-0.384c0.194-0.387,0.405-0.765,0.635-1.132c0.255-0.365,0.368-0.534,0.369-0.548
		c0.486-0.563,1.605-1.481,2.008-1.73c2.754-1.706,3.885-5.299,2.24-8.186c-1.563-2.743-5.422-3.953-8.186-2.24
		c-4.419,2.738-7.505,6.766-8.998,11.746C428.746,113.441,430.92,116.858,433.973,117.656z"/>
	<path fill="none" d="M420.516,146.833c3.204-0.018,5.154-2.139,5.281-5.079c0.013-0.3,0.01-0.419,0.003-0.458
		c0.015-0.056,0.039-0.159,0.075-0.34c0.123-0.615,0.23-1.227,0.396-1.831c0.068-0.258,0.144-0.514,0.229-0.767
		c0.051-0.145,0.091-0.256,0.121-0.341c0.078-0.133,0.552-1.097,0.656-1.288c1.285-2.363,0.42-5.845-2.338-7.291
		c-2.671-1.401-6.106-0.913-7.483,1.621c-1.743,3.207-2.575,6.596-2.736,10.297C414.6,144.104,417.714,146.849,420.516,146.833z"/>
	<path fill="none" d="M453.1,230.17c0,51.84-38.27,94.75-88.1,102.01c-1.72,0.26-3.46,0.47-5.22,0.63c-3.22,0.3-6.48,0.46-9.78,0.46
		c-3.08,0-6.14-0.14-9.15-0.41c-1.76-0.15-3.5-0.34-5.22-0.59c-50.14-6.99-88.73-50.04-88.73-102.1c0-35.13,17.57-66.16,44.41-84.77
		c1.58-1.11,3.2-2.17,4.85-3.18c15.67-9.62,34.11-15.16,53.84-15.16c19.94,0,38.56,5.66,54.33,15.47c1.65,1.02,3.27,2.09,4.85,3.2
		C435.74,164.39,453.1,195.25,453.1,230.17z"/>
</g>
<g id="level1-disk0">
	<path fill="#A5A4A4" d="M389.119,400.044c2.634-7.382,5.968-14.637,10.028-21.669c3.84-6.651,8.177-12.842,12.941-18.555
		c45.212,54.07,167.414,81.226,230.782,103.529c-2.063,19.139-13,40.822-16.21,46.382c-3.435,5.95-16.019,25.007-32.082,37.204
		C543.578,503.251,458.486,412.277,389.119,400.044z"/>
	<path fill="none" d="M513.32,444.145"/>
</g>
<g id="level1-disk0-aesthetic">
	<g>
		
			<ellipse transform="matrix(0.5 -0.866 0.866 0.5 -39.4862 529.4312)" fill="none" stroke="#000000" stroke-miterlimit="10" cx="438.758" cy="298.912" rx="5.163" ry="5.163"/>
		
			<ellipse transform="matrix(0.5 -0.866 0.866 0.5 -16.9738 546.3428)" fill="none" stroke="#000000" stroke-miterlimit="10" cx="464.66" cy="287.871" rx="5.163" ry="5.163"/>
		
			<ellipse transform="matrix(0.5 -0.866 0.866 0.5 3.3862 569.0095)" fill="none" stroke="#000000" stroke-miterlimit="10" cx="494.47" cy="281.572" rx="5.163" ry="5.163"/>
		
			<ellipse transform="matrix(0.5 -0.866 0.866 0.5 21.3595 599.6762)" fill="none" stroke="#000000" stroke-miterlimit="10" cx="530.015" cy="281.34" rx="5.163" ry="5.163"/>
		
			<ellipse transform="matrix(0.5 -0.866 0.866 0.5 31.9272 635.0095)" fill="none" stroke="#000000" stroke-miterlimit="10" cx="565.898" cy="289.855" rx="5.163" ry="5.163"/>
		
			<ellipse transform="matrix(0.5 -0.866 0.866 0.5 34.9331 675.3502)" fill="none" stroke="#000000" stroke-miterlimit="10" cx="602.337" cy="307.422" rx="5.163" ry="5.163"/>
		
			<ellipse transform="matrix(0.5 -0.866 0.866 0.5 26.5225 718.3428)" fill="none" stroke="#000000" stroke-miterlimit="10" cx="635.364" cy="336.202" rx="5.163" ry="5.163"/>
		
			<ellipse transform="matrix(0.5 -0.866 0.866 0.5 5.3862 759.6762)" fill="none" stroke="#000000" stroke-miterlimit="10" cx="660.592" cy="375.174" rx="5.163" ry="5.163"/>
		
			<ellipse transform="matrix(0.5 -0.866 0.866 0.5 -27.2998 792.6399)" fill="none" stroke="#000000" stroke-miterlimit="10" cx="672.796" cy="419.962" rx="5.163" ry="5.163"/>
		
			<ellipse transform="matrix(0.5 -0.866 0.866 0.5 -216.388 529.4312)" fill="none" stroke="#000000" stroke-miterlimit="10" cx="350.307" cy="452.113" rx="5.163" ry="5.163"/>
		
			<ellipse transform="matrix(0.5 -0.866 0.866 0.5 -238.9003 546.3428)" fill="none" stroke="#000000" stroke-miterlimit="10" cx="353.697" cy="480.065" rx="5.163" ry="5.163"/>
		
			<ellipse transform="matrix(0.5 -0.866 0.866 0.5 -259.2603 569.0095)" fill="none" stroke="#000000" stroke-miterlimit="10" cx="363.147" cy="509.031" rx="5.163" ry="5.163"/>
		
			<ellipse transform="matrix(0.5 -0.866 0.866 0.5 -277.2336 599.6762)" fill="none" stroke="#000000" stroke-miterlimit="10" cx="380.718" cy="539.93" rx="5.163" ry="5.163"/>
		
			<ellipse transform="matrix(0.5 -0.866 0.866 0.5 -287.8013 635.0095)" fill="none" stroke="#000000" stroke-miterlimit="10" cx="406.034" cy="566.748" rx="5.163" ry="5.163"/>
		
			<ellipse transform="matrix(0.5 -0.866 0.866 0.5 -290.8072 675.3502)" fill="none" stroke="#000000" stroke-miterlimit="10" cx="439.467" cy="589.521" rx="5.163" ry="5.163"/>
		
			<ellipse transform="matrix(0.5 -0.866 0.866 0.5 -282.3967 718.3428)" fill="none" stroke="#000000" stroke-miterlimit="10" cx="480.905" cy="603.734" rx="5.163" ry="5.163"/>
		
			<ellipse transform="matrix(0.5 -0.866 0.866 0.5 -261.2603 759.6762)" fill="none" stroke="#000000" stroke-miterlimit="10" cx="527.269" cy="606.096" rx="5.163" ry="5.163"/>
		
			<ellipse transform="matrix(0.5 -0.866 0.866 0.5 -228.5743 792.6399)" fill="none" stroke="#000000" stroke-miterlimit="10" cx="572.159" cy="594.271" rx="5.163" ry="5.163"/>
	</g>
</g>
<g id="level1-disk1">
	<path fill="#A5A4A4" d="M287.101,358.856c5.076,5.972,9.692,12.487,13.752,19.519c3.84,6.651,7.033,13.502,9.599,20.485
		c-69.432,12.12-154.051,104.371-205.05,148.099C89.859,535.603,76.549,515.29,73.34,509.73
		c-3.435-5.95-13.647-26.377-16.179-46.385C120.492,441.018,241.824,412.813,287.101,358.856z"/>
	<path fill="none" d="M186.945,444.145"/>
</g>
<g id="level1-disk1-aesthetic">
	<g>
		
			<ellipse transform="matrix(0.866 -0.5 0.5 0.866 -179.1973 235.5802)" fill="none" stroke="#000000" stroke-miterlimit="10" cx="350" cy="452.177" rx="5.163" ry="5.163"/>
		
			<ellipse transform="matrix(0.866 -0.5 0.5 0.866 -193.6274 237.6302)" fill="none" stroke="#000000" stroke-miterlimit="10" cx="346.61" cy="480.129" rx="5.163" ry="5.163"/>
		
			<ellipse transform="matrix(0.866 -0.5 0.5 0.866 -209.3763 236.7859)" fill="none" stroke="#000000" stroke-miterlimit="10" cx="337.16" cy="509.094" rx="5.163" ry="5.163"/>
		
			<ellipse transform="matrix(0.866 -0.5 0.5 0.866 -227.1798 232.1398)" fill="none" stroke="#000000" stroke-miterlimit="10" cx="319.589" cy="539.993" rx="5.163" ry="5.163"/>
		
			<ellipse transform="matrix(0.866 -0.5 0.5 0.866 -243.9807 223.075)" fill="none" stroke="#000000" stroke-miterlimit="10" cx="294.273" cy="566.812" rx="5.163" ry="5.163"/>
		
			<ellipse transform="matrix(0.866 -0.5 0.5 0.866 -259.8466 209.4095)" fill="none" stroke="#000000" stroke-miterlimit="10" cx="260.84" cy="589.585" rx="5.163" ry="5.163"/>
		
			<ellipse transform="matrix(0.866 -0.5 0.5 0.866 -272.5046 190.5946)" fill="none" stroke="#000000" stroke-miterlimit="10" cx="219.402" cy="603.798" rx="5.163" ry="5.163"/>
		
			<ellipse transform="matrix(0.866 -0.5 0.5 0.866 -279.8972 167.7291)" fill="none" stroke="#000000" stroke-miterlimit="10" cx="173.038" cy="606.16" rx="5.163" ry="5.163"/>
		
			<ellipse transform="matrix(0.866 -0.5 0.5 0.866 -279.9988 143.6996)" fill="none" stroke="#000000" stroke-miterlimit="10" cx="128.148" cy="594.335" rx="5.163" ry="5.163"/>
		
			<ellipse transform="matrix(0.866 -0.5 0.5 0.866 -114.4467 170.8296)" fill="none" stroke="#000000" stroke-miterlimit="10" cx="261.549" cy="298.975" rx="5.163" ry="5.163"/>
		
			<ellipse transform="matrix(0.866 -0.5 0.5 0.866 -112.3967 156.3995)" fill="none" stroke="#000000" stroke-miterlimit="10" cx="235.647" cy="287.935" rx="5.163" ry="5.163"/>
		
			<ellipse transform="matrix(0.866 -0.5 0.5 0.866 -113.241 140.6506)" fill="none" stroke="#000000" stroke-miterlimit="10" cx="205.837" cy="281.636" rx="5.163" ry="5.163"/>
		
			<ellipse transform="matrix(0.866 -0.5 0.5 0.866 -117.8871 122.8471)" fill="none" stroke="#000000" stroke-miterlimit="10" cx="170.292" cy="281.404" rx="5.163" ry="5.163"/>
		
			<ellipse transform="matrix(0.866 -0.5 0.5 0.866 -126.952 106.0462)" fill="none" stroke="#000000" stroke-miterlimit="10" cx="134.409" cy="289.919" rx="5.163" ry="5.163"/>
		
			<ellipse transform="matrix(0.866 -0.5 0.5 0.866 -140.6174 90.1803)" fill="none" stroke="#000000" stroke-miterlimit="10" cx="97.97" cy="307.486" rx="5.163" ry="5.163"/>
		
			<ellipse transform="matrix(0.866 -0.5 0.5 0.866 -159.4323 77.5223)" fill="none" stroke="#000000" stroke-miterlimit="10" cx="64.942" cy="336.266" rx="5.163" ry="5.163"/>
		
			<ellipse transform="matrix(0.866 -0.5 0.5 0.866 -182.2978 70.1297)" fill="none" stroke="#000000" stroke-miterlimit="10" cx="39.715" cy="375.237" rx="5.163" ry="5.163"/>
		
			<ellipse transform="matrix(0.866 -0.5 0.5 0.866 -206.3273 70.0281)" fill="none" stroke="#000000" stroke-miterlimit="10" cx="27.511" cy="420.026" rx="5.163" ry="5.163"/>
	</g>
</g>
<g id="level1-disk2">
	<path fill="#A5A4A4" d="M373.78,291.1c-7.71,1.41-15.66,2.15-23.78,2.15c-7.68,0-15.21-0.66-22.54-1.93
		c24.22-66.19-13.363-185.598-25.733-251.628C319.333,31.91,343.58,30.54,350,30.54c6.87,0,29.667,1.37,48.261,9.181
		C385.931,105.731,349.69,224.91,373.78,291.1z"/>
	<path fill="none" d="M349.5,161.9"/>
</g>
<g id="level1-disk2-aesthetic">
	<g>
		<circle fill="none" stroke="#000000" stroke-miterlimit="10" cx="261.512" cy="298.912" r="5.163"/>
		<circle fill="none" stroke="#000000" stroke-miterlimit="10" cx="239" cy="282" r="5.163"/>
		<circle fill="none" stroke="#000000" stroke-miterlimit="10" cx="218.64" cy="259.333" r="5.163"/>
		<circle fill="none" stroke="#000000" stroke-miterlimit="10" cx="200.667" cy="228.667" r="5.163"/>
		<circle fill="none" stroke="#000000" stroke-miterlimit="10" cx="190.099" cy="193.333" r="5.163"/>
		<circle fill="none" stroke="#000000" stroke-miterlimit="10" cx="187.093" cy="152.993" r="5.163"/>
		<circle fill="none" stroke="#000000" stroke-miterlimit="10" cx="195.504" cy="110" r="5.163"/>
		<circle fill="none" stroke="#000000" stroke-miterlimit="10" cx="216.64" cy="68.667" r="5.163"/>
		<circle fill="none" stroke="#000000" stroke-miterlimit="10" cx="249.326" cy="35.703" r="5.163"/>
		<circle fill="none" stroke="#000000" stroke-miterlimit="10" cx="438.414" cy="298.912" r="5.163"/>
		<circle fill="none" stroke="#000000" stroke-miterlimit="10" cx="460.927" cy="282" r="5.163"/>
		<circle fill="none" stroke="#000000" stroke-miterlimit="10" cx="481.286" cy="259.333" r="5.163"/>
		<circle fill="none" stroke="#000000" stroke-miterlimit="10" cx="499.26" cy="228.667" r="5.163"/>
		<circle fill="none" stroke="#000000" stroke-miterlimit="10" cx="509.827" cy="193.333" r="5.163"/>
		<circle fill="none" stroke="#000000" stroke-miterlimit="10" cx="512.833" cy="152.993" r="5.163"/>
		<circle fill="none" stroke="#000000" stroke-miterlimit="10" cx="504.423" cy="110" r="5.163"/>
		<circle fill="none" stroke="#000000" stroke-miterlimit="10" cx="483.286" cy="68.667" r="5.163"/>
		<circle fill="none" stroke="#000000" stroke-miterlimit="10" cx="450.6" cy="35.703" r="5.163"/>
	</g>
</g>
<g id="level1-disk0-static">
	<path fill="none" d="M644.68,444.15c0,16.79-3.15,32.85-8.91,47.62c-4.82,12.42-11.49,23.91-19.66,34.16
		c-12.55,15.76-28.65,28.56-47.09,37.2c-0.02,0-0.03,0.01-0.05,0.02c-16.89,7.93-35.75,12.35-55.65,12.35
		c-72.54,0-131.35-58.81-131.35-131.35c0-15.86,2.82-31.08,7.97-45.17c1.07-2.96,2.26-5.86,3.54-8.71c0.01-0.03,0.02-0.05,0.04-0.08
		c3.71-8.22,8.25-16,13.51-23.23c0.02-0.03,0.04-0.05,0.06-0.08c1.85-2.55,3.8-5.02,5.83-7.43c24.08-28.53,60.13-46.66,100.4-46.66
		c67.25,0,122.7,50.54,130.43,115.71c0.01,0.04,0.02,0.08,0.02,0.12C644.37,433.71,644.68,438.89,644.68,444.15z"/>
	<path fill="#A5A4A4" d="M642.871,463.348c12.425,4.379,27.067,8.285,34.68,9.759c0,0-9.754,26.453-24.442,51.893
		c-14.688,25.44-33.159,47.875-33.159,47.875c-5.807-6.167-15.315-17.318-25.37-25.941c8.838-7.318,20.832-17.719,32.082-37.204
		C638.348,489.487,641.472,472.29,642.871,463.348z"/>
	<path fill="#A5A4A4" d="M412.92,359.45c-2.03,2.41-3.98,4.88-5.83,7.43c-0.02,0.03-0.04,0.05-0.06,0.08
		c-5.26,7.23-9.8,15.01-13.51,23.23c-0.02,0.03-0.03,0.05-0.04,0.08c-1.28,2.85-2.47,5.75-3.54,8.71
		c-15.62-2.84-29.42-2.75-40.38,1.21L350,349.5l44.55-24.71C396.55,335.99,403.09,347.67,412.92,359.45z"/>
</g>
<g id="level1-disk2-static">
	<path fill="#A5A4A4" d="M394.55,324.79L350,349.5l-43.67-24.71c8.74-7.36,15.62-18.96,20.93-33.51c2.94,0.52,5.92,0.94,8.92,1.25
		c4.54,0.48,9.15,0.72,13.82,0.72c4.41,0,8.77-0.22,13.07-0.64c3.55-0.35,7.05-0.84,10.5-1.47
		C378.89,305.75,385.78,317.4,394.55,324.79z"/>
	<path fill="#A5A4A4" d="M301.727,39.692c-2.42-12.95-6.358-27.583-8.888-34.913c0,0,27.786-4.779,57.161-4.779
		c29.375,0,58.041,4.779,58.041,4.779c-2.437,8.113-7.341,21.922-9.781,34.942C387.504,35.727,372.5,30.54,350,30.54
		C326.625,30.54,310.17,36.433,301.727,39.692z"/>
	<path fill="none" d="M481.36,161.9c0,64.49-46.49,118.14-107.79,129.24c-3.45,0.63-6.95,1.12-10.5,1.47
		c-4.3,0.42-8.66,0.64-13.07,0.64c-4.67,0-9.28-0.24-13.82-0.72c-3-0.31-5.98-0.73-8.92-1.25
		c-61.71-10.76-108.62-64.6-108.62-129.38c0-43.06,20.72-81.27,52.71-105.24h0.01c17.09-12.79,37.4-21.51,59.51-24.74
		c6.24-0.91,12.63-1.38,19.13-1.38c6.79,0,13.47,0.52,19.98,1.52c20.2,3.07,38.89,10.75,54.96,21.93
		C459.04,77.73,481.36,117.21,481.36,161.9z"/>
</g>
<g id="level1-disk1-static">
	<path fill="#A5A4A4" d="M350,349.5l-0.44,50.69c-10.71-3.87-24.12-4.04-39.29-1.39c-1-2.73-2.09-5.42-3.27-8.06
		c-3.68-8.26-8.19-16.07-13.43-23.33c-1.89-2.62-3.87-5.17-5.95-7.64c10.03-11.9,16.69-23.68,18.71-34.98L350,349.5z"/>
	<path fill="#A5A4A4" d="M105.402,546.959c-10.005,8.571-20.708,19.298-25.791,25.154c0,0-18.032-21.674-32.719-47.113
		c-14.688-25.439-24.882-52.655-24.882-52.655c8.245-1.946,22.655-4.604,35.151-9.001c1.919,11.313,4.929,26.9,16.179,46.385
		C85.027,529.973,98.358,541.277,105.402,546.959z"/>
	<path fill="none" d="M318.3,444.14c0,72.54-58.81,131.36-131.35,131.36c-18.38,0-35.88-3.78-51.77-10.59
		c-20.18-8.67-37.75-22.24-51.21-39.22c-8.09-10.19-14.68-21.6-19.48-33.92c-5.75-14.76-8.9-30.83-8.9-47.63
		c0-3.75,0.16-7.46,0.47-11.13c5.64-67.34,62.09-120.23,130.89-120.23c40.42,0,76.59,18.26,100.67,46.99
		c2.08,2.47,4.06,5.02,5.95,7.64c5.24,7.26,9.75,15.07,13.43,23.33c1.18,2.64,2.27,5.33,3.27,8.06
		C315.46,412.93,318.3,428.2,318.3,444.14z"/>
</g>
<g id="level0-disk0-static">
	<path fill="#B2B1B1" d="M407.09,366.88c-0.02,0.03-0.04,0.05-0.06,0.08c-5.26,7.23-9.8,15.01-13.51,23.23
		c-13.49-9.5-27.97-19.29-43.52-29.36V350l9.44-5.51C375.51,352.71,391.43,360.15,407.09,366.88z"/>
	<path fill="#B2B1B1" d="M690.55,431.08c0,0-10.33,46.77-37.5,93.82c-35.5,57.83-62.5,79.39-62.5,79.39
		c-5.3-10.11-11.33-23.85-21.53-41.16c44.7-20.95,75.66-66.35,75.66-118.98c0-5.26-0.31-10.44-0.91-15.53
		c0-0.04-0.01-0.08-0.02-0.12C673.26,431.38,690.55,431.08,690.55,431.08z"/>
	<path fill="none" d="M644.68,444.15c0,52.63-30.96,98.03-75.66,118.98c-0.02,0-0.03,0.01-0.05,0.02
		c-16.89,7.93-35.75,12.35-55.65,12.35c-72.54,0-131.35-58.81-131.35-131.35c0-19.19,4.12-37.44,11.51-53.88
		c0.01-0.03,0.02-0.05,0.04-0.08c3.71-8.22,8.25-16,13.51-23.23c0.02-0.03,0.04-0.05,0.06-0.08
		c23.87-32.78,62.57-54.09,106.23-54.09c67.25,0,122.7,50.54,130.43,115.71c0.01,0.04,0.02,0.08,0.02,0.12
		C644.37,433.71,644.68,438.89,644.68,444.15z"/>
</g>
<g id="level0-disk0">
	<path fill="#B2B1B1" d="M644.68,444.03c0,52.65-30.98,98.07-75.71,119.01c-23.24-39.4-68.14-97.25-175.49-172.88
		c3.72-8.26,8.27-16.06,13.55-23.31c97.98,42.16,185.67,56.68,236.74,61.65C644.37,433.59,644.68,438.77,644.68,444.03z"/>
	<path fill="none" d="M513.32,444.145"/>
</g>
<g id="level0-disk1-static">
	<path display="none" fill="none" d="M318.3,444.14c0,72.54-58.81,131.36-131.35,131.36c-18.38,0-35.88-3.78-51.77-10.59
		c-46.81-20.1-79.59-66.61-79.59-120.77c0-3.75,0.16-7.46,0.47-11.13c5.64-67.34,62.09-120.23,130.89-120.23
		c43.9,0,82.78,21.54,106.62,54.63c5.24,7.26,9.75,15.07,13.43,23.33C314.26,407.05,318.3,425.12,318.3,444.14z"/>
	<path fill="#B2B1B1" d="M135.18,564.91c-17.32,24.2-25.73,39.38-25.73,39.38s-35.34-32.33-62.5-79.39
		c-32.33-59.66-37.5-93.82-37.5-93.82c11.45,0.46,26.42,2.12,46.61,1.93c-0.31,3.67-0.47,7.38-0.47,11.13
		C55.59,498.3,88.37,544.81,135.18,564.91z"/>
	<path fill="#B2B1B1" d="M350,350v10.83c-15.08,9.76-29.41,19.77-43,29.91c-3.68-8.26-8.19-16.07-13.43-23.33
		c14.92-6.91,30.57-14.53,46.99-22.92L350,350z"/>
</g>
<g id="level0-disk1">
	<path fill="#B2B1B1" d="M307,390.74c-85.48,63.73-141.92,132.39-171.82,174.17c-46.81-20.1-79.59-66.61-79.59-120.77
		c0-3.75,0.16-7.46,0.47-11.13c45.76-0.44,118.34-10.42,237.51-65.6C298.81,374.67,303.32,382.48,307,390.74z"/>
	<path fill="none" d="M186.945,444.14"/>
</g>
<g id="level0-disk2-static">
	<path fill="none" d="M481.36,161.9c0,68.13-51.88,124.15-118.29,130.71c-4.3,0.42-8.66,0.64-13.07,0.64
		c-4.67,0-9.28-0.24-13.82-0.72c-66.05-6.9-117.54-62.76-117.54-130.63c0-43.06,20.72-81.27,52.71-105.24h0.01
		c21.92-16.4,49.14-26.12,78.64-26.12c27.86,0,53.69,8.67,74.94,23.45C459.04,77.73,481.36,117.21,481.36,161.9z"/>
	<path fill="#B2B1B1" d="M363.07,292.61c-1.47,16.29-2.7,33.56-3.63,51.88L350,350l-9.44-5.51c-0.91-17.85-2.41-35.19-4.38-51.96
		c4.54,0.48,9.15,0.72,13.82,0.72C354.41,293.25,358.77,293.03,363.07,292.61z"/>
	<path fill="#B2B1B1" d="M271.35,56.66C259,29.41,250,14.44,250,14.44S295.67,0,350,0c67.83,1.83,100,14.44,100,14.44
		c-6.15,9.71-15.1,21.89-25.06,39.55C403.69,39.21,377.86,30.54,350,30.54c-29.5,0-56.72,9.72-78.64,26.12H271.35z"/>
</g>
<g id="level0-disk2">
	<path fill="#B2B1B1" d="M424.94,53.99c-22.51,39.91-50.11,107.81-61.87,238.62c-4.3,0.42-8.66,0.64-13.07,0.64
		c-4.67,0-9.28-0.24-13.82-0.72c-12.41-105.82-43.58-189-64.82-235.87c21.92-16.4,49.14-26.12,78.64-26.12
		C377.86,30.54,403.69,39.21,424.94,53.99z"/>
	<path fill="none" d="M350.33,161.9"/>
</g>
</svg>
