<?xml version="1.0" encoding="utf-8"?>
<!-- Generator: Adobe Illustrator 21.1.0, SVG Export Plug-In . SVG Version: 6.00 Build 0)  -->
<svg version="1.1" xmlns="http://www.w3.org/2000/svg" xmlns:xlink="http://www.w3.org/1999/xlink" x="0px" y="0px"
	 viewBox="0 0 700 700" style="enable-background:new 0 0 700 700;" xml:space="preserve">
<style type="text/css">
	.st0{fill:#A386EA;}
	.st1{fill:#F48211;}
</style>
<g id="circle">
	<circle id="background" class="st0" cx="350" cy="350" r="350"/>
</g>
<g id="spots">
	<g>
		<path class="st1" d="M340,8"/>
		<line class="st1" x1="534.3" y1="89.8" x2="534.3" y2="89.8"/>
		<path class="st1" d="M310.7,135.1c-4.1,0-4.3,5.3-0.2,5.3C314.6,140.4,314.9,135.1,310.7,135.1z"/>
		<path class="st1" d="M304.1,123.6c-6.9,0-6,9.3,0.9,9.3C311.9,132.8,310.9,123.6,304.1,123.6z"/>
		<path class="st1" d="M292.1,115.5c-5.5,0-6.2,7.3-0.4,7.3C297.3,122.7,298,115.5,292.1,115.5z"/>
		<path class="st1" d="M282.2,108.3c-6,0-6.6,6-0.5,6C287.9,114.3,288.5,108.3,282.2,108.3z"/>
		<path class="st1" d="M271.1,101.7c-6.7,0-10.9,9.5-2.3,9.5C275.4,111.3,279.6,101.7,271.1,101.7z"/>
		<path class="st1" d="M256.7,101c-4.1,0-4.9,5.9-0.8,5.9S260.9,101,256.7,101z"/>
		<path class="st1" d="M245.5,98.3c-4.6,0-7.3,5.3-1.5,5.3C248.4,103.6,251.2,98.3,245.5,98.3z"/>
		<path class="st1" d="M232.6,93.1c-6,0-9.4,8.6-2,8.6C236.5,101.7,239.9,93.1,232.6,93.1z"/>
		<path class="st1" d="M214.9,91.4c-4.2,0-4.7,4.3-0.2,4.3C218.9,95.7,219.3,91.4,214.9,91.4z"/>
		<path class="st1" d="M201,90.3c-3.9,0-4.9,4.8-0.6,4.8C204.4,95.1,205.4,90.3,201,90.3z"/>
		<path class="st1" d="M188.6,87.1c-7.6,0-9,10.1-0.9,10.1C195.2,97.4,196.7,87.1,188.6,87.1z"/>
		<path class="st1" d="M171.8,88.2c-5.8,0-4.9,8.2,0.8,8.2C178.3,96.3,177.5,88.2,171.8,88.2z"/>
		<path class="st1" d="M159.4,91.3c-6.3,0-6,6.3,0.4,6.3C166.1,97.6,165.7,91.3,159.4,91.3z"/>
		<path class="st1" d="M302.8,153.3c-5.4,0-4.7,7.6,0.7,7.6C308.9,161,308.2,153.3,302.8,153.3z"/>
		<path class="st1" d="M297.4,145.1c-4.9,0-4.8,5.2,0.1,5.2C302.4,150.2,302.3,145.1,297.4,145.1z"/>
		<path class="st1" d="M290.9,135.3c-3.8,0-3.6,4.8,0.1,4.8C294.8,140.1,294.7,135.3,290.9,135.3z"/>
		<path class="st1" d="M282.5,128.7c-2.8,0-5.9,4-1.8,4C283.5,132.7,286.6,128.7,282.5,128.7z"/>
		<path class="st1" d="M269.2,121.8c-6.1,0-8,8.3-1.4,8.3C273.9,130.3,275.8,121.8,269.2,121.8z"/>
		<path class="st1" d="M257.6,118c-4.5,0-6.6,6.5-1.5,6.5C260.5,124.5,262.6,118,257.6,118z"/>
		<path class="st1" d="M244.2,113.3c-6.8,0-9.4,9.7-1.8,9.7C249.2,123.1,251.8,113.3,244.2,113.3z"/>
		<path class="st1" d="M233,112.6c-5.3,0-6.5,7.6-1.1,7.6S238.4,112.6,233,112.6z"/>
		<path class="st1" d="M220.1,111.8c-5.2,0-4.6,5.9,0.6,5.9C225.9,117.7,225.2,111.8,220.1,111.8z"/>
		<path class="st1" d="M204.1,111.1c-3.8,0-4.6,4.7-0.4,4.7C207.5,115.8,208.4,111.1,204.1,111.1z"/>
		<path class="st1" d="M191,111.5c-3.9,0-4,4.8-0.1,4.8C194.7,116.3,194.8,111.5,191,111.5z"/>
		<path class="st1" d="M177.7,110.5c-3.5,0-3.3,3.2,0.2,3.2C181.5,113.8,181.2,110.5,177.7,110.5z"/>
		<path class="st1" d="M161.7,110.2c-5.9,0-5.4,8.5,0.5,8.5C168.1,118.5,167.6,110.2,161.7,110.2z"/>
		<path class="st1" d="M284.8,164.7c-4.6,0-5.6,6.6-0.8,6.6C288.6,171.2,289.7,164.7,284.8,164.7z"/>
		<path class="st1" d="M281.9,151.6c-5.6,0-8.3,6.7-1.5,6.7C286,158.3,288.7,151.6,281.9,151.6z"/>
		<path class="st1" d="M269.9,142.3c-6.2,0-9,8.1-1.9,8.1C274.2,150.3,277.1,142.3,269.9,142.3z"/>
		<path class="st1" d="M254.9,140.4c-3.4,0-3.4,3.3,0.1,3.3C258.4,143.6,258.4,140.4,254.9,140.4z"/>
		<path class="st1" d="M241.8,132.1c-5.4,0-8.2,7.6-1.8,7.6C245.4,139.8,248.3,132.1,241.8,132.1z"/>
		<path class="st1" d="M227.1,129.7h-0.5c-2.7,0-5.6,1.5-5.9,4.2c-0.2,2.3,1.6,4.9,4.5,4.9h0.5c2.7,0,5.6-1.5,5.9-4.2
			C231.8,132.1,230,129.7,227.1,129.7z"/>
		<path class="st1" d="M210,129.7c-3.3,0-4.6,4.8-0.8,4.8C212.5,134.5,213.8,129.7,210,129.7z"/>
		<path class="st1" d="M190.2,130.7c-1.4,0-2.9,0.1-4.2,0.7c-0.8,0.5-1.9,1.1-1.9,2.1v0.8c0,2.3,3.9,3.2,5.8,3.2
			c1.4,0,2.9-0.1,4.2-0.7c0.8-0.5,1.9-1.1,1.9-2.1v-0.8C195.9,131.7,192,130.8,190.2,130.7z"/>
		<path class="st1" d="M170.7,135.5c-3.6,0-3.6,5.1,0.1,5.1C174.5,140.6,174.5,135.5,170.7,135.5z"/>
		<path class="st1" d="M256.4,156.8c-6.6,0-6.6,9.4,0,9.4C262.9,166.2,263,156.8,256.4,156.8z"/>
		<path class="st1" d="M245.2,150.6c-4.9,0-5.5,6.3-0.2,6.3C249.9,156.8,250.5,150.6,245.2,150.6z"/>
		<path class="st1" d="M230.1,149c-3.5,0-3.3,3.3,0.2,3.3S233.6,149,230.1,149z"/>
		<path class="st1" d="M221,147.8c-1.5-1.3-4.3-1.5-6-0.1c-0.1,0.1-0.4,0.2-0.5,0.5c-1.4,1.4-1.8,3.6-0.1,4.9c1.5,1.3,4.3,1.5,6,0.1
			c0.1-0.1,0.4-0.2,0.5-0.5C222.4,151.4,222.7,149.2,221,147.8z"/>
		<path class="st1" d="M197.4,147.6c-4.2,0-6.8,6.1-1.6,6.1C200,153.7,202.6,147.6,197.4,147.6z"/>
		<path class="st1" d="M298,98.3c-6.1,0-6.1,6,0,6C304.1,104.3,304.1,98.3,298,98.3z"/>
		<path class="st1" d="M285.1,86.7c-5.4,0-12.4,7.6-4.2,7.6C286.3,94.4,293.4,86.7,285.1,86.7z"/>
		<path class="st1" d="M263.2,81.3c-3.9,0-8.1,5.5-2.5,5.5C264.6,86.8,268.8,81.3,263.2,81.3z"/>
		<path class="st1" d="M246.1,77.2c-6.8,0-6.9,7.8-0.1,7.8C252.8,84.9,253,77.2,246.1,77.2z"/>
		<path class="st1" d="M209.5,71.1c-6.5,0-6.2,8,0.2,8C216.2,78.9,216,71.1,209.5,71.1z"/>
		<path class="st1" d="M191.4,71.4c-3.2,0-5.1,3.6-1.1,3.6C193.4,75.1,195.3,71.4,191.4,71.4z"/>
		<path class="st1" d="M170.7,68.9c-7.5,0-7.3,6.1,0.2,6.1C178.4,74.9,178.2,68.9,170.7,68.9z"/>
		<path class="st1" d="M279.9,69.3c-4.2,0-6.1,5.3-1.2,5.3C282.9,74.6,284.8,69.3,279.9,69.3z"/>
		<path class="st1" d="M259.8,61.2c-0.8-0.1-1.5-0.2-2.3-0.5c-1.6-0.4-3.5,0.1-4.3,1.5c-0.7,1.2-0.2,2.9,1.4,3.3
			c0.8,0.1,1.5,0.2,2.3,0.5c1.6,0.4,3.5-0.1,4.3-1.5C261.8,63.3,261.4,61.5,259.8,61.2z"/>
		<path class="st1" d="M232.4,57.6c-3.5,0-4.8,4.6-0.8,4.6C235.1,62.1,236.4,57.6,232.4,57.6z"/>
		<path class="st1" d="M215.1,55.2c-4.2,0-5.1,5.9-0.7,5.9C218.6,61,219.5,55.2,215.1,55.2z"/>
		<path class="st1" d="M194.4,54.5c-3.3,0-6.9,4.7-2.2,4.7C195.4,59.1,199.1,54.5,194.4,54.5z"/>
		<path class="st1" d="M227.1,74.2c-4.6,0-7.3,5.3-1.5,5.3C230.2,79.4,232.9,74.2,227.1,74.2z"/>
		<ellipse class="st1" cx="351.5" cy="125.9" rx="20.3" ry="6.8"/>
		<ellipse class="st1" cx="351.5" cy="147.6" rx="14.7" ry="5.3"/>
		<ellipse class="st1" cx="351.5" cy="168" rx="9.2" ry="3.3"/>
		<path class="st1" d="M321.3,146.3c-3.9,0-5.2,5.2-0.9,5.2C324.3,151.5,325.6,146.3,321.3,146.3z"/>
		<path class="st1" d="M327.9,160.1c-4.1,0-6.1,4.6-0.9,4.6C331.1,164.5,333.1,160.1,327.9,160.1z"/>
		<path class="st1" d="M311,166.9c-5.1,0-10.1,7.3-2.7,7.3C313.4,174.2,318.4,166.9,311,166.9z"/>
		<path class="st1" d="M229.7,33.2c0,0,71.5,7.6,93.7,73.8c-2.1,3.3-13.3-35.4-48.4-55.2C249.3,37.1,233.6,40.2,229.7,33.2z"/>
		<path class="st1" d="M271.1,28.2c0,0,63.3,21,62.1,86.2c-3.1,2.6-0.7-35.1-26.4-60.4C287.6,35.6,272.2,35.4,271.1,28.2z"/>
		<path class="st1" d="M312.9,22.1c-4-0.5-7.9-0.7-11.9-0.5c-2.2,0.1-4.5,1.4-4.6,3.6c-0.1,2,1.9,3.8,4.1,3.6
			c3.2-0.2,6.5-0.2,9.6,0.2c2.2,0.2,4.7-0.4,5.5-2.6C316.4,24.8,315.1,22.3,312.9,22.1z"/>
		<path class="st1" d="M343.7,22.1c-3.4-1.1-6.8-2.1-10.2-3.2c-4-1.3-6.8,4.3-2.7,5.6c3.4,1.1,6.8,2.1,10.2,3.2
			C345.1,29,347.9,23.4,343.7,22.1z"/>
		<path class="st1" d="M341.9,38.5c-3.1-2.5-6.7-2.6-10.6-2.8c-5.6-0.4-11.3-0.6-16.8-0.9c-3.2-0.2-5.2,3.4-1.2,3.6
			c3.8,0.2,7.5,0.5,11.3,0.6c3.5,0.2,9.5-0.4,12.4,1.9C338.7,42.3,344.4,40.4,341.9,38.5z"/>
		<path class="st1" d="M346.6,52.1c-6.8-3.4-14.1-5.4-21.8-5.9c-2.1-0.1-5.5,0.7-6.1,2.9s2,3.5,4.1,3.6c6.1,0.4,11.7,1.9,17.1,4.6
			C343.8,59.5,352.1,55.1,346.6,52.1z"/>
		<path class="st1" d="M393.1,135.9c4.1,0,4.3,5.3,0.2,5.3C389.2,141.2,389,135.9,393.1,135.9z"/>
		<path class="st1" d="M399.8,124.4c6.9,0,6,9.3-0.9,9.3C391.8,133.7,392.9,124.4,399.8,124.4z"/>
		<path class="st1" d="M411.8,116.3c5.5,0,6.2,7.3,0.4,7.3C406.5,123.6,405.8,116.3,411.8,116.3z"/>
		<path class="st1" d="M421.5,109.1c6,0,6.6,6,0.5,6C415.9,115.1,415.3,109.1,421.5,109.1z"/>
		<path class="st1" d="M432.7,102.7c6.7,0,10.9,9.5,2.3,9.5C428.3,112.2,424.1,102.7,432.7,102.7z"/>
		<path class="st1" d="M447,101.8c4.1,0,4.9,5.9,0.8,5.9C443.7,107.7,442.9,101.8,447,101.8z"/>
		<path class="st1" d="M458.3,99.1c4.6,0,7.3,5.3,1.5,5.3C455.4,104.4,452.5,99.1,458.3,99.1z"/>
		<path class="st1" d="M471.2,94c6,0,9.4,8.6,2,8.6C467.2,102.5,463.8,94,471.2,94z"/>
		<path class="st1" d="M488.9,92.2c4.2,0,4.7,4.3,0.2,4.3C484.8,96.5,484.5,92.2,488.9,92.2z"/>
		<path class="st1" d="M502.8,91.1c3.9,0,4.9,4.8,0.6,4.8C499.5,96,498.3,91.1,502.8,91.1z"/>
		<path class="st1" d="M515.3,88.1c7.6,0,9,10.1,0.9,10.1C508.6,98.2,507,88.1,515.3,88.1z"/>
		<path class="st1" d="M531.9,89c5.8,0,4.9,8.2-0.8,8.2C525.5,97.2,526.3,89,531.9,89z"/>
		<path class="st1" d="M544.4,92.1c6.3,0,6,6.3-0.4,6.3C537.7,98.4,538,92.1,544.4,92.1z"/>
		<path class="st1" d="M401,154.1c5.4,0,4.7,7.6-0.7,7.6C394.9,161.8,395.6,154.1,401,154.1z"/>
		<path class="st1" d="M406.4,145.9c4.9,0,4.8,5.2-0.1,5.2C401.3,151,401.4,145.9,406.4,145.9z"/>
		<path class="st1" d="M412.8,136.1c3.8,0,3.6,4.8-0.1,4.8C409,140.9,409.1,136.1,412.8,136.1z"/>
		<path class="st1" d="M421.3,129.7c2.8,0,5.9,4,1.8,4C420.4,133.5,417.2,129.7,421.3,129.7z"/>
		<path class="st1" d="M434.6,122.6c6.1,0,8,8.3,1.4,8.3C429.9,131.1,428,122.6,434.6,122.6z"/>
		<path class="st1" d="M446.2,118.9c4.5,0,6.6,6.5,1.5,6.5C443.3,125.3,441.1,118.9,446.2,118.9z"/>
		<path class="st1" d="M459.7,114.2c6.8,0,9.4,9.7,1.8,9.7C454.5,123.9,452.1,114.2,459.7,114.2z"/>
		<path class="st1" d="M470.7,113.5c5.3,0,6.5,7.6,1.1,7.6C466.4,121.2,465.3,113.5,470.7,113.5z"/>
		<path class="st1" d="M483.8,112.6c5.2,0,4.6,5.9-0.6,5.9C477.9,118.5,478.6,112.6,483.8,112.6z"/>
		<path class="st1" d="M499.6,111.9c3.8,0,4.6,4.7,0.4,4.7C496.2,116.6,495.4,111.9,499.6,111.9z"/>
		<path class="st1" d="M512.8,112.3c3.9,0,4,4.8,0.1,4.8C509,117.1,508.9,112.3,512.8,112.3z"/>
		<path class="st1" d="M526.1,111.3c3.5,0,3.3,3.2-0.2,3.2C522.3,114.6,522.5,111.3,526.1,111.3z"/>
		<path class="st1" d="M542.1,111c5.9,0,5.4,8.5-0.5,8.5C535.7,119.3,536.2,111,542.1,111z"/>
		<path class="st1" d="M418.9,165.5c4.6,0,5.6,6.6,0.8,6.6C415.2,172.1,414.1,165.5,418.9,165.5z"/>
		<path class="st1" d="M421.9,152.4c5.6,0,8.3,6.7,1.5,6.7C417.8,159.1,415.1,152.4,421.9,152.4z"/>
		<path class="st1" d="M433.9,143.2c6.2,0,9,8.1,1.9,8.1C429.5,151.2,426.7,143.2,433.9,143.2z"/>
		<path class="st1" d="M448.9,141.2c3.4,0,3.4,3.3-0.1,3.3C445.4,144.5,445.4,141.2,448.9,141.2z"/>
		<path class="st1" d="M461.9,133c5.4,0,8.2,7.6,1.8,7.6C458.4,140.6,455.6,133,461.9,133z"/>
		<path class="st1" d="M476.6,130.5h0.5c2.7,0,5.6,1.5,5.9,4.2c0.2,2.3-1.6,4.9-4.5,4.9H478c-2.7,0-5.6-1.5-5.9-4.2
			C471.9,133,473.8,130.5,476.6,130.5z"/>
		<path class="st1" d="M493.8,130.5c3.3,0,4.6,4.8,0.8,4.8C491.3,135.3,490,130.5,493.8,130.5z"/>
		<path class="st1" d="M513.7,131.5c1.4,0,2.9,0.1,4.2,0.7c0.8,0.5,1.9,1.1,1.9,2.1v0.8c0,2.3-3.9,3.2-5.8,3.2
			c-1.4,0-2.9-0.1-4.2-0.7c-0.8-0.5-1.9-1.1-1.9-2.1v-0.8C507.9,132.5,511.7,131.7,513.7,131.5z"/>
		<path class="st1" d="M533.1,136.4c3.6,0,3.6,5.1-0.1,5.1C529.2,141.4,529.3,136.4,533.1,136.4z"/>
		<path class="st1" d="M447.4,157.6c6.6,0,6.6,9.4,0,9.4C440.9,167,440.8,157.6,447.4,157.6z"/>
		<path class="st1" d="M458.5,151.4c4.9,0,5.5,6.3,0.2,6.3C453.8,157.6,453.2,151.4,458.5,151.4z"/>
		<path class="st1" d="M473.7,149.9c3.5,0,3.3,3.3-0.2,3.3C469.9,153.2,470.2,149.9,473.7,149.9z"/>
		<path class="st1" d="M482.7,148.6c1.5-1.3,4.3-1.5,6-0.1c0.1,0.1,0.4,0.2,0.5,0.5c1.4,1.4,1.8,3.6,0.1,4.9c-1.5,1.3-4.3,1.5-6,0.1
			c-0.1-0.1-0.4-0.2-0.5-0.5C481.3,152.2,481.1,150,482.7,148.6z"/>
		<path class="st1" d="M506.3,148.5c4.2,0,6.8,6.1,1.6,6.1C503.7,154.6,501.2,148.5,506.3,148.5z"/>
		<path class="st1" d="M405.8,99.2c6.1,0,6.1,6,0,6C399.7,105.1,399.7,99.2,405.8,99.2z"/>
		<path class="st1" d="M418.7,87.5c5.4,0,12.4,7.6,4.2,7.6C417.4,95.3,410.4,87.5,418.7,87.5z"/>
		<path class="st1" d="M440.6,82.1c3.9,0,8.1,5.5,2.5,5.5C439.1,87.6,434.9,82.1,440.6,82.1z"/>
		<path class="st1" d="M457.7,78c6.8,0,6.9,7.8,0.1,7.8C451,85.7,450.9,78,457.7,78z"/>
		<path class="st1" d="M494.2,71.9c6.5,0,6.2,8-0.2,8C487.5,79.7,487.8,71.9,494.2,71.9z"/>
		<path class="st1" d="M512.3,72.2c3.2,0,5.1,3.6,1.1,3.6C510.3,75.9,508.4,72.2,512.3,72.2z"/>
		<path class="st1" d="M533.1,69.8c7.5,0,7.3,6.1-0.2,6.1C525.4,75.8,525.6,69.8,533.1,69.8z"/>
		<path class="st1" d="M424,70.1c4.2,0,6.1,5.3,1.2,5.3C420.8,75.4,418.9,70.1,424,70.1z"/>
		<path class="st1" d="M444.1,62c0.8-0.1,1.5-0.2,2.3-0.5c1.6-0.4,3.5,0.1,4.3,1.5c0.7,1.2,0.2,2.9-1.4,3.3
			c-0.8,0.1-1.5,0.2-2.3,0.5c-1.6,0.4-3.5-0.1-4.3-1.5C442,64.1,442.3,62.4,444.1,62z"/>
		<path class="st1" d="M471.3,58.4c3.5,0,4.8,4.6,0.8,4.6C468.6,63,467.3,58.4,471.3,58.4z"/>
		<path class="st1" d="M488.7,56c4.2,0,5.1,5.9,0.7,5.9C485.2,61.8,484.2,56,488.7,56z"/>
		<path class="st1" d="M509.4,55.3c3.3,0,6.9,4.7,2.2,4.7C508.3,59.9,504.7,55.3,509.4,55.3z"/>
		<path class="st1" d="M476.6,75.1c4.6,0,7.3,5.3,1.5,5.3C473.7,80.2,470.9,75.1,476.6,75.1z"/>
		<path class="st1" d="M382.4,147.2c3.9,0,5.2,5.2,0.9,5.2C379.5,152.3,378.2,147.2,382.4,147.2z"/>
		<path class="st1" d="M376,160.9c4.1,0,6.1,4.6,0.9,4.6C372.8,165.4,370.8,160.9,376,160.9z"/>
		<path class="st1" d="M392.8,167.7c5.1,0,10.1,7.3,2.7,7.3C390.4,175,385.5,167.7,392.8,167.7z"/>
		<path class="st1" d="M474,34.1c0,0-71.5,7.6-93.7,73.8c2.1,3.3,13.3-35.4,48.4-55.2C454.5,37.9,470.3,41,474,34.1z"/>
		<path class="st1" d="M432.8,29c0,0-63.3,21-62.1,86.2c3.1,2.6,0.7-35.1,26.4-60.4C416.1,36.4,431.5,36.2,432.8,29z"/>
		<path class="st1" d="M390.9,22.9c4-0.5,7.9-0.7,11.9-0.5c2.2,0.1,4.5,1.4,4.6,3.6c0.1,2-1.9,3.8-4.1,3.6c-3.2-0.2-6.5-0.2-9.6,0.2
			c-2.2,0.2-4.7-0.4-5.5-2.6C387.5,25.6,388.6,23.1,390.9,22.9z"/>
		<path class="st1" d="M360.1,22.9c3.4-1.1,6.8-2.1,10.2-3.2c4-1.3,6.8,4.3,2.7,5.6c-3.4,1.1-6.8,2.1-10.2,3.2
			C358.8,29.8,356,24.2,360.1,22.9z"/>
		<path class="st1" d="M361.9,39.3c3.1-2.5,6.7-2.6,10.6-2.8c5.6-0.4,11.3-0.6,16.8-0.9c3.2-0.2,5.2,3.4,1.2,3.6
			c-3.8,0.2-7.5,0.5-11.3,0.6c-3.5,0.2-9.5-0.4-12.4,1.9C365,43.1,359.4,41.2,361.9,39.3z"/>
		<path class="st1" d="M357.3,53.1c6.8-3.4,14.1-5.4,21.8-5.9c2.1-0.1,5.5,0.7,6.1,2.9c0.6,2.2-2,3.5-4.1,3.6
			c-6.1,0.4-11.7,1.9-17.1,4.6C360,60.5,351.6,55.9,357.3,53.1z"/>
		<path class="st1" d="M366.8,73.3c-2,0.4-4.6,1.3-6.3,2.2c-2.6,1.5-6.6,1.6-8.8-0.7c-0.1-0.1-0.1-0.1-0.2-0.2
			c-2.2,1.6-5.8,1.5-8.1,0.1c-1.8-1.1-4.3-1.9-6.3-2.2c-2.9-0.5-5.6-2.8-4.9-5.9c0.7-2.8,4.3-4.6,7.3-4.1c4.3,0.7,8.3,2.2,12.1,4.3
			c0.4,0.2,0.7,0.5,0.9,0.7c3.8-2.1,7.6-3.5,12-4.3c3.1-0.5,6.7,1.3,7.3,4.1C372.4,70.5,369.7,72.8,366.8,73.3z"/>
		<path class="st1" d="M361.5,85c0.1,1.1-0.4,1.8-1.2,2.3c-2.1,1.5-5.8,1.2-8,0.4c-0.5-0.1-0.9-0.4-1.4-0.6
			c-2.3,0.7-5.5,0.9-7.4-0.5c-0.8-0.6-1.3-1.3-1.2-2.3c0.1-1.1,1.3-1.9,2.2-2.5c0.6-0.4,1.4-0.7,2.1-0.9c1.3-0.7,2.7-1.1,4.2-1.1
			c1.5-0.1,3.4,0.2,4.3,1.2c0.7,0.2,1.3,0.5,2,0.7c0.8,0.2,1.5,0.5,2.1,0.9C360.2,83.2,361.4,84,361.5,85z"/>
		<path class="st1" d="M358.7,96.9c0.1,2.6-1.8,4.6-4,5.8c-1.3,0.6-2.9,0.4-4.1-0.5c-0.5,0-0.9-0.1-1.4-0.4c-2.2-1.2-4.1-3.2-4-5.8
			c0.1-2,1.3-3.4,3.5-3.6c1.3-0.1,2.9,0.6,3.8,1.6c0.8-0.6,1.9-0.9,2.8-0.8C357.4,93.5,358.6,94.9,358.7,96.9z"/>
		<path class="st1" d="M206.5,393.9c-5.6,3.9,4.8,2,15.5-2.2c32.2-12.8,70.7-45,85.7-81.4c9.6-23.3,12.6-72.7,5.5-97.5
			c-1.6-5.6-5.8-23.8-6.5-15.5C310.7,251.2,329.7,338.1,206.5,393.9z"/>
		<path class="st1" d="M288.8,181.6c-3.6,0-3.4,5.5,0.2,5.5C292.7,187.2,292.4,181.6,288.8,181.6z"/>
		<path class="st1" d="M292.4,199c-2.5,0-2.5,3.9,0,3.9C295,202.7,294.9,199,292.4,199z"/>
		<path class="st1" d="M296.3,217.8c-2.8,0-3.8,3.8-0.6,3.8C298.4,221.5,299.5,217.8,296.3,217.8z"/>
		<path class="st1" d="M298.1,234c-2.9,0-2.5,4.2,0.4,4.2C301.4,238.2,301,234,298.1,234z"/>
		<path class="st1" d="M293.7,256.9c-0.8,0-2.8,0.2-2.8,1.4v2.3c0,1.2,1.6,1.8,2.6,1.8c0.8,0,2.8-0.2,2.8-1.4v-2.3
			C296.3,257.3,294.7,256.9,293.7,256.9z"/>
		<path class="st1" d="M291.6,274.8c-3.3,0-4.5,4.7-0.8,4.7C294.2,279.5,295.3,274.8,291.6,274.8z"/>
		<path class="st1" d="M285.4,294.3c-2.2,0-4.8,3.4-1.5,3.4C286.1,297.6,288.7,294.3,285.4,294.3z"/>
		<path class="st1" d="M264.8,172.2c-5.4,0-7.5,7.2-1.2,7.2C269.2,179.3,271.2,172.2,264.8,172.2z"/>
		<path class="st1" d="M269.1,186.6c-5.3,0-4.8,8.1,0.5,8.1C274.9,194.7,274.4,186.6,269.1,186.6z"/>
		<path class="st1" d="M273.8,206.4c-2.5,0-5.4,3.8-1.8,3.8C274.5,210.2,277.4,206.4,273.8,206.4z"/>
		<path class="st1" d="M274.7,223.9c-4.6,0-4.2,4,0.2,4C279.4,227.9,279.2,223.9,274.7,223.9z"/>
		<path class="st1" d="M274.2,235.6c-6.3,0-6.2,9.6,0.4,9.6C280.9,245.2,280.8,235.6,274.2,235.6z"/>
		<path class="st1" d="M273.1,252.2c-6.7,0-6.2,10,0.5,10C280.1,262.3,279.8,252.2,273.1,252.2z"/>
		<path class="st1" d="M269.4,274.1c-4.3,0-4.7,4.5-0.2,4.5C273.7,278.6,273.9,274.1,269.4,274.1z"/>
		<path class="st1" d="M267.3,284.7c-5.5,0-7.3,8.6-1.4,8.6C271.4,293.2,273.2,284.7,267.3,284.7z"/>
		<path class="st1" d="M200.1,162.3c-5.3,0-6.6,7.3-0.8,7.3C204.5,169.7,205.9,162.3,200.1,162.3z"/>
		<path class="st1" d="M222.4,164.2c-2.8,0-5.8,4.3-1.6,4.3C223.5,168.5,226.6,164.2,222.4,164.2z"/>
		<path class="st1" d="M237.2,170.4c-2.5,0-5.3,3.8-1.5,3.8C238.1,174.2,241,170.4,237.2,170.4z"/>
		<path class="st1" d="M244.5,183.7c-3.9,0-5.6,6-1.2,6C247.2,189.8,249,183.7,244.5,183.7z"/>
		<path class="st1" d="M247.8,200.8c-4.7,0-7.2,6.2-1.6,6.2C250.9,207.1,253.3,200.8,247.8,200.8z"/>
		<path class="st1" d="M247.2,216c-3.5,0-4.2,4.9-0.4,4.9C250.3,220.9,251,216,247.2,216z"/>
		<path class="st1" d="M245.1,229.7c-2.7,0-2.9,4.1-0.1,4.1C247.7,233.8,247.9,229.7,245.1,229.7z"/>
		<path class="st1" d="M241.9,245.4c-4,0-5.2,5.6-0.7,5.6C245.1,251,246.3,245.4,241.9,245.4z"/>
		<path class="st1" d="M234.9,261.3c-3.4,0-3.5,5.2,0,5.2C238.3,266.5,238.4,261.3,234.9,261.3z"/>
		<path class="st1" d="M230,271c-4.6,0-9.4,7-2.7,7C231.8,278,236.7,271,230,271z"/>
		<path class="st1" d="M206,184.3c-4.7,0-4.8,7.3-0.1,7.3C210.6,191.6,210.7,184.3,206,184.3z"/>
		<path class="st1" d="M224.8,187.9c-0.8-0.5-1.9-0.7-2.8-0.7s-2,0.1-2.8,0.7c-0.6,0.4-1.2,0.8-1.2,1.6v0.4c0,0.7,0.6,1.3,1.2,1.5
			c0.8,0.5,1.9,0.7,2.8,0.7c0.9,0,2-0.1,2.8-0.7c0.6-0.4,1.2-0.8,1.2-1.6v-0.4C225.9,188.7,225.3,188.3,224.8,187.9z"/>
		<path class="st1" d="M226.8,200.1c-3.3,0-4.7,4.6-0.9,4.6C229.1,204.7,230.6,200.1,226.8,200.1z"/>
		<path class="st1" d="M224.9,216.3c-3.2,0-4.8,4.1-1.1,4.1C226.9,220.6,228.7,216.3,224.9,216.3z"/>
		<path class="st1" d="M218.9,227.7c-5.4,0-5.6,7.4-0.2,7.4C224.1,235,224.3,227.7,218.9,227.7z"/>
		<path class="st1" d="M212.7,240.1c-2.1,0-2.5,2.8-0.1,2.8C214.6,243,214.9,240.1,212.7,240.1z"/>
		<path class="st1" d="M202.2,251.8c-3.3,0-5.9,3.8-1.2,3.8C204.4,255.6,206.8,251.8,202.2,251.8z"/>
		<path class="st1" d="M206.2,205.5c-6.1,0-8.1,8.7-1.4,8.7C210.9,214.2,212.9,205.5,206.2,205.5z"/>
		<path class="st1" d="M199.4,224.6c-4.8,0-5.3,6.5-0.4,6.5C204,231.1,204.4,224.6,199.4,224.6z"/>
		<path class="st1" d="M189.6,238.7c-4.7,0-4.9,5.9-0.2,5.9C194.1,244.5,194.4,238.7,189.6,238.7z"/>
		<path class="st1" d="M177.2,151.2c-4.9,0-9,7.8-2.2,7.8C180.1,158.9,184.2,151.2,177.2,151.2z"/>
		<path class="st1" d="M182,171.8c-4.1,0-4,4,0,4C186.2,175.8,186.2,171.8,182,171.8z"/>
		<path class="st1" d="M533,136.7c3.6,0,3.6,5.1-0.1,5.1C529.1,141.8,529.2,136.7,533,136.7z"/>
		<path class="st1" d="M503.6,163.5c5.3,0,6.6,7.3,0.8,7.3C499.2,170.9,497.9,163.5,503.6,163.5z"/>
		<path class="st1" d="M481.3,165.4c2.8,0,5.8,4.3,1.6,4.3C480.1,169.7,477.2,165.4,481.3,165.4z"/>
		<path class="st1" d="M526.4,152.3c4.9,0,9,7.8,2.2,7.8C523.7,160.1,519.5,152.3,526.4,152.3z"/>
		<path class="st1" d="M521.7,173c4.1,0,4,4,0,4C517.6,177,517.6,173,521.7,173z"/>
		<path class="st1" d="M187.6,187.1c-2.3,0-5.4,0.9-6.7,3.2c-0.9,1.8-0.6,4,1.9,4c2.3,0,5.4-0.9,6.7-3.2
			C190.4,189.3,190,187.1,187.6,187.1z"/>
		<path class="st1" d="M183.6,204.1c-3.3,0-6.1,3.6-1.5,3.6C185.3,207.8,188.2,204.1,183.6,204.1z"/>
		<path class="st1" d="M177,216.3c-4.2,0-4.6,4.2-0.1,4.2C181.1,220.6,181.3,216.3,177,216.3z"/>
		<path class="st1" d="M170.1,222.6c-6.2,0-5.6,8.3,0.6,8.3C176.9,230.8,176.2,222.6,170.1,222.6z"/>
		<path class="st1" d="M136.5,97.4c-3.2,0-5.3,4.9-1.3,4.9C138.4,102.3,140.6,97.4,136.5,97.4z"/>
		<path class="st1" d="M142.9,118.4c-3.6,0-3.8,5.1-0.1,5.1C146.6,123.6,146.7,118.4,142.9,118.4z"/>
		<path class="st1" d="M147.9,138.8c-3.9,0-5.3,4.9-0.7,4.9C151.2,143.8,152.6,138.8,147.9,138.8z"/>
		<path class="st1" d="M158.2,156.8c-3.9,0-5.3,5.1-0.8,5.1C161.3,161.8,162.7,156.8,158.2,156.8z"/>
		<path class="st1" d="M169,174.6c-3.5,0-7.3,5.5-2,5.5C170.4,180.1,174.2,174.6,169,174.6z"/>
		<path class="st1" d="M164.1,188.4c-4,0-6.5,6.2-1.5,6.2C166.5,194.5,169,188.4,164.1,188.4z"/>
		<path class="st1" d="M155.2,205.2c-3.9,0-5.2,5.4-0.9,5.4C158,210.6,159.4,205.2,155.2,205.2z"/>
		<path class="st1" d="M145.4,216c-4.2,0-5.3,5.6-0.4,5.6C149.3,221.6,150.3,216,145.4,216z"/>
		<path class="st1" d="M135.1,205.1c-0.2-0.7-1.1-1.1-1.6-1.1c-1.9-0.4-4.2,0.5-5.6,1.9l-0.8,0.8c-0.5,0.5-0.9,1.2-0.7,1.9
			c0.2,0.7,1.1,1.1,1.6,1.1c1.9,0.4,4.2-0.5,5.6-1.9c0.2-0.2,0.5-0.5,0.8-0.8C134.8,206.5,135.3,205.7,135.1,205.1z"/>
		<path class="st1" d="M142.3,190.6c-2.1-1.2-5.1-0.6-6.7,1.1c-0.2,0.2-0.5,0.5-0.8,0.8c-0.7,0.7-1.4,1.8-1.4,2.8
			c0,0.9,0.6,2,1.4,2.5c2.1,1.2,5.1,0.6,6.7-1.1c0.2-0.2,0.5-0.5,0.8-0.8c0.7-0.7,1.4-1.8,1.4-2.8
			C143.8,192.1,143.2,191.1,142.3,190.6z"/>
		<path class="st1" d="M146.9,176.9c-2.8,0-3.1,4.1-0.2,4.1C149.5,181,149.7,176.9,146.9,176.9z"/>
		<path class="st1" d="M143.4,159.1c-4.3,0-8.2,6.6-2.5,6.6C145.2,165.7,149.2,159.1,143.4,159.1z"/>
		<path class="st1" d="M130,143.6c-6,0-5.2,8,0.6,8C136.6,151.6,135.9,143.6,130,143.6z"/>
		<path class="st1" d="M123.7,123.4c-1.9,0-3.1,2.9-0.7,2.9C124.8,126.4,126,123.4,123.7,123.4z"/>
		<path class="st1" d="M109.9,113.7c-1.9,0-6.3,3.6-3.1,3.6C108.9,117.3,113.2,113.7,109.9,113.7z"/>
		<path class="st1" d="M95.6,131.8c-3.5,0-4.8,5.1-0.8,5.1C98.3,136.8,99.5,131.8,95.6,131.8z"/>
		<path class="st1" d="M107.7,149.3c-4,0-4,5.9,0,5.9C111.7,155.3,111.7,149.3,107.7,149.3z"/>
		<path class="st1" d="M120.7,169c-1.6,0-3.8,2.5-1.2,2.5C121.2,171.6,123.3,169,120.7,169z"/>
		<path class="st1" d="M114.9,188.2c-2.5,0-3.1,3.4-0.4,3.4C117,191.6,117.6,188.2,114.9,188.2z"/>
		<path class="st1" d="M106.9,201.7c-4.3,0-4.3,4.7,0,4.7S111.2,201.7,106.9,201.7z"/>
		<path class="st1" d="M91.8,181.2c-6.3,0-6,6.2,0.2,6.2C98.4,187.6,98.1,181.2,91.8,181.2z"/>
		<path class="st1" d="M87.5,157.1c-4.2,0-4.9,5.9-0.4,5.9C91.4,163,92.1,157.1,87.5,157.1z"/>
		<path class="st1" d="M70.2,167.2c-5.9,0-6.2,6.1-0.2,6.1C75.8,173.4,76.2,167.2,70.2,167.2z"/>
		<path class="st1" d="M527.6,217.5c4.2,0,4.6,4.2,0.1,4.2C523.5,221.7,523.2,217.5,527.6,217.5z"/>
		<path class="st1" d="M534.6,223.7c6.2,0,5.6,8.3-0.6,8.3C527.8,232,528.4,223.7,534.6,223.7z"/>
		<path class="st1" d="M568.1,98.5c3.2,0,5.3,4.9,1.3,4.9C566.2,103.5,564.1,98.5,568.1,98.5z"/>
		<path class="st1" d="M561.6,119.6c3.6,0,3.8,5.1,0.1,5.1C558.1,124.7,558,119.6,561.6,119.6z"/>
		<path class="st1" d="M556.7,140c3.9,0,5.3,4.9,0.7,4.9C553.5,144.9,552.1,140,556.7,140z"/>
		<path class="st1" d="M546.5,158c3.9,0,5.3,5.1,0.8,5.1C543.3,163,541.9,158,546.5,158z"/>
		<path class="st1" d="M535.7,175.8c3.5,0,7.3,5.5,2,5.5C534.2,181.2,530.4,175.8,535.7,175.8z"/>
		<path class="st1" d="M540.6,189.6c4,0,6.5,6.2,1.5,6.2C538.2,195.7,535.7,189.6,540.6,189.6z"/>
		<path class="st1" d="M549.5,206.4c3.9,0,5.2,5.4,0.9,5.4C546.6,211.8,545.2,206.4,549.5,206.4z"/>
		<path class="st1" d="M559.2,217.2c4.2,0,5.3,5.6,0.4,5.6C555.3,222.8,554.2,217.2,559.2,217.2z"/>
		<path class="st1" d="M569.5,206.2c0.2-0.7,1.1-1.1,1.6-1.1c1.9-0.4,4.2,0.5,5.6,1.9l0.8,0.8c0.5,0.5,0.9,1.2,0.7,1.9
			c-0.2,0.7-1.1,1.1-1.6,1.1c-1.9,0.4-4.2-0.5-5.6-1.9c-0.2-0.2-0.5-0.5-0.8-0.8C569.7,207.7,569.3,206.8,569.5,206.2z"/>
		<path class="st1" d="M562.2,191.8c2.1-1.2,5.1-0.6,6.7,1.1c0.2,0.2,0.5,0.5,0.8,0.8c0.7,0.7,1.4,1.8,1.4,2.8c0,0.9-0.6,2-1.4,2.5
			c-2.1,1.2-5.1,0.6-6.7-1.1c-0.2-0.2-0.5-0.5-0.8-0.8c-0.7-0.7-1.4-1.8-1.4-2.8C560.8,193.3,561.4,192.3,562.2,191.8z"/>
		<path class="st1" d="M557.7,178.1c2.8,0,3.1,4.1,0.2,4.1C555.1,182.2,554.8,178.1,557.7,178.1z"/>
		<path class="st1" d="M561.3,160.3c4.3,0,8.2,6.6,2.5,6.6C559.4,166.9,555.5,160.3,561.3,160.3z"/>
		<path class="st1" d="M574.6,144.8c6,0,5.2,8-0.6,8C568,152.8,568.7,144.8,574.6,144.8z"/>
		<path class="st1" d="M580.9,124.6c1.9,0,3.1,2.9,0.7,2.9C579.7,127.6,578.6,124.6,580.9,124.6z"/>
		<path class="st1" d="M594.6,114.9c1.9,0,6.3,3.6,3.1,3.6C595.8,118.5,591.4,114.9,594.6,114.9z"/>
		<path class="st1" d="M609.1,133c3.5,0,4.8,5.1,0.8,5.1C606.3,138,605.1,133,609.1,133z"/>
		<path class="st1" d="M597,150.5c4,0,4,5.9,0,5.9C592.9,156.4,592.9,150.5,597,150.5z"/>
		<path class="st1" d="M583.8,170.2c1.6,0,3.8,2.5,1.2,2.5C583.4,172.8,581.3,170.2,583.8,170.2z"/>
		<path class="st1" d="M589.7,189.3c2.5,0,3.1,3.4,0.4,3.4C587.6,192.7,587,189.3,589.7,189.3z"/>
		<path class="st1" d="M597.7,202.8c4.3,0,4.3,4.7,0,4.7S593.5,202.8,597.7,202.8z"/>
		<path class="st1" d="M612.7,182.4c6.3,0,6,6.2-0.2,6.2C606.2,188.7,606.5,182.4,612.7,182.4z"/>
		<path class="st1" d="M617.2,158.3c4.2,0,4.9,5.9,0.4,5.9C613.2,164.2,612.5,158.3,617.2,158.3z"/>
		<path class="st1" d="M634.3,168.4c5.9,0,6.2,6.1,0.2,6.1C628.8,174.5,628.5,168.4,634.3,168.4z"/>
		<path class="st1" d="M415.7,183.9c3.6,0,3.4,5.5-0.2,5.5C411.8,189.6,412,183.9,415.7,183.9z"/>
		<path class="st1" d="M412,201.3c2.5,0,2.5,3.9,0,3.9C409.4,205.1,409.5,201.3,412,201.3z"/>
		<path class="st1" d="M408.1,220.1c2.8,0,3.8,3.8,0.6,3.8C406,223.9,405,220.1,408.1,220.1z"/>
		<path class="st1" d="M406.3,236.3c2.9,0,2.5,4.2-0.4,4.2S403.4,236.3,406.3,236.3z"/>
		<path class="st1" d="M410.7,259.2c0.8,0,2.8,0.2,2.8,1.4v2.3c0,1.2-1.6,1.8-2.6,1.8c-0.8,0-2.8-0.2-2.8-1.4V261
			C408.1,259.7,409.8,259.2,410.7,259.2z"/>
		<path class="st1" d="M412.7,277.2c3.3,0,4.5,4.7,0.8,4.7C410.3,281.9,409.1,277.2,412.7,277.2z"/>
		<path class="st1" d="M419.1,296.7c2.2,0,4.8,3.4,1.5,3.4C418.4,300,415.8,296.7,419.1,296.7z"/>
		<path class="st1" d="M439.6,174.5c5.4,0,7.5,7.2,1.2,7.2C435.3,181.7,433.3,174.5,439.6,174.5z"/>
		<path class="st1" d="M435.4,189c5.3,0,4.8,8.1-0.5,8.1C429.5,197.1,430.1,189,435.4,189z"/>
		<path class="st1" d="M430.7,208.7c2.5,0,5.4,3.8,1.8,3.8C430,212.6,427,208.7,430.7,208.7z"/>
		<path class="st1" d="M429.7,226.2c4.6,0,4.2,4-0.2,4C424.9,230.2,425.3,226.2,429.7,226.2z"/>
		<path class="st1" d="M430.2,238c6.3,0,6.2,9.6-0.4,9.6C423.4,247.6,423.6,238,430.2,238z"/>
		<path class="st1" d="M431.4,254.5c6.7,0,6.2,10-0.5,10C424.2,264.6,424.7,254.5,431.4,254.5z"/>
		<path class="st1" d="M435,276.5c4.3,0,4.7,4.5,0.2,4.5C430.8,280.9,430.5,276.5,435,276.5z"/>
		<path class="st1" d="M437.1,287c5.5,0,7.3,8.6,1.4,8.6C433,295.5,431.3,287,437.1,287z"/>
		<path class="st1" d="M467.2,172.8c2.5,0,5.3,3.8,1.5,3.8C466.3,176.5,463.5,172.8,467.2,172.8z"/>
		<path class="st1" d="M459.9,186c3.9,0,5.6,6,1.2,6C457.2,192.1,455.5,186,459.9,186z"/>
		<path class="st1" d="M456.6,203.2c4.7,0,7.2,6.2,1.6,6.2C453.6,209.4,451,203.2,456.6,203.2z"/>
		<path class="st1" d="M457.2,218.3c3.5,0,4.2,4.9,0.4,4.9C454.1,223.3,453.4,218.3,457.2,218.3z"/>
		<path class="st1" d="M459.3,232.1c2.7,0,2.9,4.1,0.1,4.1C456.8,236.2,456.5,232.1,459.3,232.1z"/>
		<path class="st1" d="M462.5,247.7c4,0,5.2,5.6,0.7,5.6C459.2,253.3,458.1,247.7,462.5,247.7z"/>
		<path class="st1" d="M469.6,263.7c3.4,0,3.5,5.2,0,5.2C466,268.8,465.9,263.7,469.6,263.7z"/>
		<path class="st1" d="M474.5,273.3c4.6,0,9.4,7,2.7,7C472.6,280.4,467.8,273.3,474.5,273.3z"/>
		<path class="st1" d="M498.5,186.6c4.7,0,4.8,7.3,0.1,7.3C493.9,193.9,493.8,186.6,498.5,186.6z"/>
		<path class="st1" d="M479.7,190.3c0.8-0.5,1.9-0.7,2.8-0.7c0.9,0,2,0.1,2.8,0.7c0.6,0.4,1.2,0.8,1.2,1.6v0.4
			c0,0.7-0.6,1.3-1.2,1.5c-0.8,0.5-1.9,0.7-2.8,0.7c-0.9,0-2-0.1-2.8-0.7c-0.6-0.4-1.2-0.8-1.2-1.6v-0.4
			C478.5,191.1,479.2,190.6,479.7,190.3z"/>
		<path class="st1" d="M477.7,202.5c3.3,0,4.7,4.6,0.9,4.6C475.3,207.1,473.9,202.5,477.7,202.5z"/>
		<path class="st1" d="M479.5,218.7c3.2,0,4.8,4.1,1.1,4.1C477.6,222.9,475.8,218.7,479.5,218.7z"/>
		<path class="st1" d="M485.4,230.1c5.4,0,5.6,7.4,0.2,7.4C480.4,237.4,480,230.1,485.4,230.1z"/>
		<path class="st1" d="M491.8,242.4c2.1,0,2.5,2.8,0.1,2.8C489.9,245.4,489.5,242.4,491.8,242.4z"/>
		<path class="st1" d="M502.2,254.2c3.3,0,5.9,3.8,1.2,3.8C500.1,257.9,497.6,254.2,502.2,254.2z"/>
		<path class="st1" d="M498.2,207.9c6.1,0,8.1,8.7,1.4,8.7C493.5,216.6,491.5,207.9,498.2,207.9z"/>
		<path class="st1" d="M505,226.9c4.8,0,5.3,6.5,0.4,6.5C500.5,233.5,500,226.9,505,226.9z"/>
		<path class="st1" d="M514.9,241c4.7,0,4.9,5.9,0.2,5.9C510.3,246.9,510.1,241,514.9,241z"/>
		<path class="st1" d="M516.9,189.4c2.3,0,5.4,0.9,6.7,3.2c0.9,1.8,0.6,4-1.9,4c-2.3,0-5.4-0.9-6.7-3.2
			C514,191.7,514.4,189.4,516.9,189.4z"/>
		<path class="st1" d="M520.9,206.5c3.3,0,6.1,3.6,1.5,3.6C519.1,210.1,516.3,206.5,520.9,206.5z"/>
		<path class="st1" d="M63.8,539.4"/>
		<line class="st1" x1="33.5" y1="330.7" x2="33.5" y2="330.7"/>
		<path class="st1" d="M187.7,498.8c2.1,3.5,6.8,0.9,4.7-2.6C190.3,492.8,185.6,495.3,187.7,498.8z"/>
		<path class="st1" d="M181.2,510.4c3.6,6,11,0.4,7.5-5.6C185.1,498.9,177.7,504.6,181.2,510.4z"/>
		<path class="st1" d="M180.5,525c2.8,4.7,9.5,1.5,6.5-3.5C184,516.7,177.5,519.8,180.5,525z"/>
		<path class="st1" d="M179.5,537c3.1,5.2,8.6,2.6,5.4-2.7C181.7,529.1,176.3,531.7,179.5,537z"/>
		<path class="st1" d="M179.7,549.9c3.4,5.8,13.9,4.5,9.4-2.9C185.6,541.3,175.2,542.6,179.7,549.9z"/>
		<path class="st1" d="M186.4,562.6c2.1,3.5,7.6,1.2,5.4-2.3C189.8,556.7,184.3,559.1,186.4,562.6z"/>
		<path class="st1" d="M189.9,573.7c2.3,3.9,8.3,3.5,5.3-1.4C192.9,568.5,187,568.7,189.9,573.7z"/>
		<path class="st1" d="M192.3,587.4c3.1,5.2,12.1,3.6,8.3-2.7C197.4,579.5,188.4,581,192.3,587.4z"/>
		<path class="st1" d="M199.9,603.5c2.2,3.6,6.1,1.8,3.8-2C201.4,597.7,197.6,599.7,199.9,603.5z"/>
		<path class="st1" d="M206,615.9c2,3.3,6.7,1.8,4.5-2C208.5,610.5,203.8,612.1,206,615.9z"/>
		<path class="st1" d="M209.9,628.1c3.9,6.5,13.4,2.6,9.2-4.5C215.1,617.2,205.7,621.2,209.9,628.1z"/>
		<path class="st1" d="M219.3,642c2.9,4.9,9.5,0,6.6-4.9C223,632.1,216.3,637,219.3,642z"/>
		<path class="st1" d="M228.4,650.9c3.3,5.4,8.5,1.9,5.2-3.5C230.3,642,225.2,645.6,228.4,650.9z"/>
		<path class="st1" d="M207.4,496.2c2.8,4.7,9,0.1,6.2-4.6C210.8,486.9,204.6,491.5,207.4,496.2z"/>
		<path class="st1" d="M203.2,505c2.6,4.2,6.8,1.4,4.3-2.8C204.9,498,200.6,500.8,203.2,505z"/>
		<path class="st1" d="M198.1,515.6c2,3.3,6,0.7,4.1-2.6C200.3,509.8,196.1,512.4,198.1,515.6z"/>
		<path class="st1" d="M197,526.2c1.4,2.3,6.5,3.1,4.3-0.5C199.8,523.4,194.7,522.7,197,526.2z"/>
		<path class="st1" d="M197.8,541.2c3.2,5.3,11.3,2.5,8-3.1C202.6,532.9,194.4,535.6,197.8,541.2z"/>
		<path class="st1" d="M200.6,553.1c2.3,3.9,8.9,2.3,6.2-2C204.5,547.2,198,548.8,200.6,553.1z"/>
		<path class="st1" d="M203.5,567c3.5,5.9,13.2,2.9,9.3-3.5C209.2,557.7,199.5,560.5,203.5,567z"/>
		<path class="st1" d="M208.7,576.9c2.7,4.6,9.9,1.5,7-3.1C213.1,569.3,205.9,572.2,208.7,576.9z"/>
		<path class="st1" d="M214.7,588.4c2.7,4.5,7.4,0.8,4.7-3.5C216.7,580.4,212,584.1,214.7,588.4z"/>
		<path class="st1" d="M222.2,602.4c1.9,3.2,6.3,1.5,4.2-2.1C224.6,597.1,220.1,598.8,222.2,602.4z"/>
		<path class="st1" d="M229.4,613.6c2,3.3,6.2,0.9,4.2-2.5C231.6,607.8,227.4,610.2,229.4,613.6z"/>
		<path class="st1" d="M235.5,625.3c1.9,3.1,4.5,1.2,2.6-1.9C236.2,620.5,233.6,622.4,235.5,625.3z"/>
		<path class="st1" d="M243.4,639.3c3.1,5.1,10,0.4,6.9-4.7C247.2,629.5,240.3,634.2,243.4,639.3z"/>
		<path class="st1" d="M226.4,505.7c2.3,4,8.6,1.5,6.1-2.7C230.1,499,223.9,501.5,226.4,505.7z"/>
		<path class="st1" d="M216.8,514.9c2.9,4.8,10,3.6,6.6-2.1C220.5,508,213.3,509.1,216.8,514.9z"/>
		<path class="st1" d="M214.9,529.9c3.3,5.4,11.6,3.6,7.9-2.5C219.6,522.1,211.3,523.8,214.9,529.9z"/>
		<path class="st1" d="M221,543.8c1.8,2.9,4.6,1.2,2.8-1.8C222.1,539.1,219.3,540.9,221,543.8z"/>
		<path class="st1" d="M220.8,559.3c2.8,4.6,10.8,3.1,7.5-2.5C225.5,552.4,217.5,553.8,220.8,559.3z"/>
		<path class="st1" d="M226.2,573.2l0.2,0.4c1.4,2.2,4.2,4,6.7,2.8c2.2-1.1,3.4-4,1.9-6.3l-0.2-0.4c-1.4-2.2-4.2-4-6.7-2.8
			C226,567.9,224.8,570.8,226.2,573.2z"/>
		<path class="st1" d="M235.1,587.8c1.8,2.8,6.5,1.5,4.6-1.8C238,583.3,233.1,584.5,235.1,587.8z"/>
		<path class="st1" d="M246.4,604.3c0.7,1.2,1.6,2.5,2.8,3.3c0.8,0.5,1.9,1.1,2.7,0.5l0.7-0.5c2-1.2,0.7-4.9-0.2-6.6
			c-0.7-1.2-1.6-2.5-2.8-3.3c-0.8-0.5-1.9-1.1-2.7-0.5l-0.7,0.5C244.1,598.9,245.4,602.6,246.4,604.3z"/>
		<path class="st1" d="M260.5,618.4c1.9,3.2,6.2,0.5,4.2-2.7C262.9,612.5,258.5,615.2,260.5,618.4z"/>
		<path class="st1" d="M234.4,534.2c3.4,5.6,11.4,0.8,8-4.8C239,523.7,231,528.4,234.4,534.2z"/>
		<path class="st1" d="M234.8,546.8c2.5,4.2,8.2,1.5,5.5-3.1C237.7,539.6,232.1,542.3,234.8,546.8z"/>
		<path class="st1" d="M241.4,560.6c1.9,3.1,4.5,1.2,2.7-1.9C242.2,555.8,239.5,557.7,241.4,560.6z"/>
		<path class="st1" d="M244.9,569c-0.2,2,0.9,4.6,3.1,5.2c0.2,0.1,0.4,0.1,0.6,0.2c1.9,0.6,4-0.4,4.3-2.5c0.2-2-0.9-4.6-3.1-5.2
			c-0.2-0.1-0.4-0.1-0.6-0.2C247.3,566,245.2,566.9,244.9,569z"/>
		<path class="st1" d="M257,589.4c2.2,3.6,8.7,2.7,6-1.8C260.9,584,254.3,584.9,257,589.4z"/>
		<path class="st1" d="M162.9,528.8c3.2,5.3,8.2,2.1,5.1-3.2C164.8,520.3,159.7,523.5,162.9,528.8z"/>
		<path class="st1" d="M159.5,545.8c2.8,4.7,13,6.7,8.7-0.4C165.5,540.6,155.3,538.6,159.5,545.8z"/>
		<path class="st1" d="M166.2,567.3c2,3.3,8.9,4.1,6-0.7C170.2,563.2,163.4,562.5,166.2,567.3z"/>
		<path class="st1" d="M171.5,584.1c3.5,5.9,10.2,2,6.7-3.9C174.6,574.3,168,578.2,171.5,584.1z"/>
		<path class="st1" d="M185.2,618.6c3.4,5.5,10.1,1.3,6.7-4.2C188.5,608.7,181.8,613,185.2,618.6z"/>
		<path class="st1" d="M194.8,633.8c1.6,2.7,5.8,2.3,3.6-0.9C197,630.2,192.9,630.5,194.8,633.8z"/>
		<path class="st1" d="M203.4,652.9c3.9,6.5,8.9,3.1,5.1-3.3C204.6,643.2,199.5,646.4,203.4,652.9z"/>
		<path class="st1" d="M147.4,559.2c2.2,3.6,7.6,2.5,5.1-1.8C150.2,553.9,144.8,554.9,147.4,559.2z"/>
		<path class="st1" d="M150.8,580.6c0.2,0.7,0.6,1.5,0.8,2.2c0.6,1.5,1.9,3.1,3.6,2.9c1.4,0,2.7-1.3,2.1-2.9
			c-0.2-0.7-0.6-1.5-0.8-2.2c-0.6-1.5-1.9-3.1-3.6-2.9C151.5,577.7,150.2,579,150.8,580.6z"/>
		<path class="st1" d="M161.8,605.8c1.9,3.1,6.3,1.8,4.3-1.6C164.3,601.2,159.7,602.4,161.8,605.8z"/>
		<path class="st1" d="M168.8,621.9c2.1,3.6,7.6,1.4,5.4-2.3C171.9,615.9,166.4,618.1,168.8,621.9z"/>
		<path class="st1" d="M178.9,640.1c1.6,2.8,7.5,3.5,5.2-0.5C182.3,636.8,176.4,636,178.9,640.1z"/>
		<path class="st1" d="M178.8,601.8c2.3,3.9,8.3,3.5,5.3-1.4C181.7,596.5,175.8,596.9,178.8,601.8z"/>
		
			<ellipse transform="matrix(0.8562 -0.5167 0.5167 0.8562 -219.3026 149.4511)" class="st1" cx="158.8" cy="468.6" rx="6.8" ry="20.3"/>
		
			<ellipse transform="matrix(0.8562 -0.5167 0.5167 0.8562 -210.8239 157.4089)" class="st1" cx="177.3" cy="457.4" rx="5.3" ry="14.7"/>
		
			<ellipse transform="matrix(0.8562 -0.5167 0.5167 0.8562 -202.9212 164.9042)" class="st1" cx="194.7" cy="446.9" rx="3.3" ry="9.2"/>
		<path class="st1" d="M191.9,483.9c2,3.3,7,1.8,4.9-1.9C194.7,478.7,189.7,480.3,191.9,483.9z"/>
		<path class="st1" d="M200.3,471.2c2.1,3.5,7,2.8,4.3-1.5C202.5,466.2,197.6,466.7,200.3,471.2z"/>
		<path class="st1" d="M142.3,620.7c0,0-30.5-65.2,14.7-118.4c3.9,0.1-23.4,29.7-22.3,70C135.5,602,146.3,613.9,142.3,620.7z"/>
		<path class="st1" d="M116.7,588.1c0,0-14.7-65.1,41.8-97.7c3.8,1.2-29.7,18.8-37.9,53.8C114.4,569.9,122.1,583.4,116.7,588.1z"/>
		<path class="st1" d="M89.8,555.3c1.6,3.6,3.5,7,5.8,10.5c1.2,1.8,3.5,3.1,5.4,2.1c1.8-0.9,2.2-3.6,1.1-5.4
			c-1.8-2.7-3.5-5.4-4.8-8.3c-0.9-2-2.7-3.8-5.1-3.4C90.3,551,88.9,553.3,89.8,555.3z"/>
		<path class="st1" d="M73.9,529c0.8,3.5,1.6,6.9,2.6,10.5c1.1,4.1,7.3,3.6,6.2-0.6c-0.8-3.5-1.6-6.9-2.6-10.5
			C79.2,524.3,72.8,524.8,73.9,529z"/>
		<path class="st1" d="M88.9,521.9c-0.5,3.9,1.2,7,3.1,10.6c2.6,4.9,5.3,10,7.9,14.9c1.5,2.8,5.6,2.7,3.8-0.8
			c-1.8-3.3-3.5-6.6-5.3-10c-1.6-3.2-5.3-8-4.8-11.6C93.8,522.7,89.3,518.9,88.9,521.9z"/>
		<path class="st1" d="M98.3,510.9c0.6,7.5,2.7,14.9,6.3,21.7c1.1,1.9,3.4,4.3,5.6,3.6c2.2-0.7,2-3.5,1.1-5.4
			c-2.8-5.4-4.5-11-4.9-17C106.1,509.5,97.8,504.7,98.3,510.9z"/>
		<path class="st1" d="M145.8,427.9c-2.1-3.5,2.3-6.5,4.5-2.9C152.3,428.5,148,431.4,145.8,427.9z"/>
		<path class="st1" d="M132.5,428.1c-3.6-6,4.9-9.9,8.5-4C144.6,430.1,136.1,434,132.5,428.1z"/>
		<path class="st1" d="M119.4,422c-2.8-4.7,3.1-9.2,6.1-4C128.4,422.7,122.5,427.2,119.4,422z"/>
		<path class="st1" d="M108.3,417.3c-3.1-5.2,1.8-8.7,4.9-3.4C116.3,419.1,111.5,422.6,108.3,417.3z"/>
		<path class="st1" d="M96.9,411.2c-3.4-5.8,2.6-14.3,6.9-6.9C107.2,409.9,101.2,418.5,96.9,411.2z"/>
		<path class="st1" d="M88.8,399.2c-2.1-3.5,2.5-7.3,4.6-3.8C95.6,399.1,91,402.9,88.8,399.2z"/>
		<path class="st1" d="M80.7,391c-2.3-3.9,0.7-9,3.6-4.1C86.7,390.9,83.6,395.9,80.7,391z"/>
		<path class="st1" d="M69.6,382.7c-3.1-5.2,2.5-12.4,6.2-6.1C79,381.6,73.4,388.9,69.6,382.7z"/>
		<path class="st1" d="M59,368.3c-2.2-3.6,1.3-6.2,3.5-2.5C64.7,369.6,61.2,372.1,59,368.3z"/>
		<path class="st1" d="M50.9,357c-2-3.3,1.5-6.7,3.9-2.9C56.7,357.4,53.1,360.8,50.9,357z"/>
		<path class="st1" d="M41.8,348c-3.9-6.5,4-13,8.2-6.1C53.9,348.5,45.9,354.9,41.8,348z"/>
		<path class="st1" d="M33.9,333.2c-2.9-4.9,4.5-8.5,7.4-3.5C44.3,334.5,36.9,338,33.9,333.2z"/>
		<path class="st1" d="M30.2,321c-3.3-5.4,2.3-8.3,5.5-2.9C39,323.5,33.5,326.3,30.2,321z"/>
		<path class="st1" d="M157.4,411.7c-2.8-4.7,4.1-8,6.9-3.4C167.1,413,160.2,416.2,157.4,411.7z"/>
		<path class="st1" d="M147.5,411.3c-2.6-4.2,1.9-6.7,4.5-2.6C154.6,413.1,150.1,415.5,147.5,411.3z"/>
		<path class="st1" d="M135.8,410.8c-2-3.3,2.2-5.6,4.2-2.5C142,411.7,137.8,414,135.8,410.8z"/>
		<path class="st1" d="M125.9,407c-1.4-2.3,0.4-7,2.5-3.5C129.8,405.8,128,410.5,125.9,407z"/>
		<path class="st1" d="M113.1,399.2c-3.2-5.3,3.1-11.2,6.5-5.6C122.7,398.9,116.4,404.7,113.1,399.2z"/>
		<path class="st1" d="M103.8,391.2c-2.3-3.9,2.1-8.9,4.7-4.6C110.9,390.4,106.4,395.5,103.8,391.2z"/>
		<path class="st1" d="M92.9,382.1c-3.5-5.9,3.5-13,7.5-6.6C103.8,381.5,96.8,388.6,92.9,382.1z"/>
		<path class="st1" d="M86.6,372.9c-2.7-4.6,3.2-9.5,6-4.8C95.4,372.7,89.4,377.6,86.6,372.9z"/>
		<path class="st1" d="M79.2,362.2c-2.7-4.5,2.7-6.9,5.3-2.5C87.1,364.2,81.7,366.7,79.2,362.2z"/>
		<path class="st1" d="M70.4,349.1c-1.9-3.2,1.6-6.3,3.9-2.7C76.1,349.5,72.5,352.6,70.4,349.1z"/>
		<path class="st1" d="M63.8,337.6c-2-3.3,2.1-5.9,4.1-2.6C69.9,338.3,65.8,340.8,63.8,337.6z"/>
		<path class="st1" d="M56.1,326.6c-1.9-3.1,1.1-4.5,2.8-1.5C60.8,328.3,58,329.7,56.1,326.6z"/>
		<path class="st1" d="M47.4,313.1c-3.1-5.1,4.3-9,7.4-4C58,314.3,50.5,318.2,47.4,313.1z"/>
		<path class="st1" d="M157.9,390.4c-2.3-4,2.7-8.2,5.2-4.1C165.4,390.3,160.3,394.6,157.9,390.4z"/>
		<path class="st1" d="M145.2,394.6c-2.9-4.8,1.5-10.6,4.9-4.8C153,394.6,148.7,400.4,145.2,394.6z"/>
		<path class="st1" d="M131,389.2c-3.3-5.4,2.2-12,5.9-5.9C140.1,388.8,134.7,395.3,131,389.2z"/>
		<path class="st1" d="M121.6,377.4c-1.8-2.9,1.1-4.6,2.8-1.6C126.1,378.7,123.3,380.3,121.6,377.4z"/>
		<path class="st1" d="M107.7,370.4c-2.8-4.6,2.3-10.9,5.6-5.5C116.2,369.5,111.1,376,107.7,370.4z"/>
		<path class="st1" d="M98.1,359.2l-0.2-0.4c-1.4-2.2-1.5-5.6,0.6-7.2c1.9-1.4,5.1-1.2,6.6,1.3l0.2,0.4c1.4,2.2,1.5,5.6-0.6,7.2
			C102.7,361.9,99.5,361.5,98.1,359.2z"/>
		<path class="st1" d="M89.3,344.5c-1.8-2.8,1.6-6.5,3.6-3.2C94.5,344.1,91.1,347.7,89.3,344.5z"/>
		<path class="st1" d="M79.9,326.9c-0.7-1.2-1.5-2.6-1.5-4c0-0.9,0-2.1,0.8-2.6l0.7-0.5c2-1.2,4.7,1.6,5.8,3.3
			c0.7,1.2,1.5,2.6,1.5,4c0,0.9,0,2.1-0.8,2.6l-0.7,0.5C83.6,331.3,80.9,328.5,79.9,326.9z"/>
		<path class="st1" d="M74,307.7c-1.9-3.2,2.5-5.6,4.3-2.5C80.2,308.4,75.9,311,74,307.7z"/>
		<path class="st1" d="M136.4,370.1c-3.4-5.6,4.6-10.6,8-4.8C147.8,370.9,139.8,375.7,136.4,370.1z"/>
		<path class="st1" d="M125.3,363.9c-2.5-4.2,2.6-8,5.3-3.4C133.1,364.6,128,368.4,125.3,363.9z"/>
		<path class="st1" d="M116.2,351.6c-1.9-3.1,1.1-4.6,2.9-1.5C120.9,353.2,117.9,354.6,116.2,351.6z"/>
		<path class="st1" d="M110.4,344.5c-1.9-0.7-3.5-2.9-3.2-5.1c0-0.2,0.1-0.5,0.1-0.6c0.4-2,2.2-3.4,4.2-2.6c1.9,0.7,3.5,2.9,3.2,5.1
			c0,0.2-0.1,0.5-0.1,0.6C114.3,343.8,112.4,345.3,110.4,344.5z"/>
		<path class="st1" d="M98.1,324.4c-2.2-3.6,1.6-9,4.3-4.6C104.6,323.5,100.8,328.9,98.1,324.4z"/>
		<path class="st1" d="M107.8,435.9c-3.2-5.3,2-8.3,5.2-3.1C116.2,438.1,111,441.1,107.8,435.9z"/>
		<path class="st1" d="M91.3,430.9c-2.8-4.7,0.1-14.7,4.5-7.5C98.4,428,95.5,438.1,91.3,430.9z"/>
		<path class="st1" d="M75.3,414.9c-2-3.3,0.5-9.7,3.4-4.9C80.7,413.3,78.2,419.8,75.3,414.9z"/>
		<path class="st1" d="M62.8,402.5c-3.5-5.9,3.1-10,6.6-4.1C72.9,404.3,66.4,408.4,62.8,402.5z"/>
		<path class="st1" d="M38.8,374.3c-3.4-5.5,3.5-9.5,6.9-3.9C49,376,42,379.8,38.8,374.3z"/>
		<path class="st1" d="M29.7,358.7c-1.6-2.7,0.6-6.1,2.6-2.8C33.9,358.5,31.8,362,29.7,358.7z"/>
		<path class="st1" d="M16.9,342.1c-3.9-6.5,1.4-9.4,5.3-2.9C26.1,345.7,20.7,348.6,16.9,342.1z"/>
		<path class="st1" d="M73.6,435.4c-2.2-3.6,1.4-8,3.9-3.8C79.7,435.4,76.2,439.6,73.6,435.4z"/>
		<path class="st1" d="M56.3,422.3c-0.5-0.6-1.1-1.2-1.5-1.8c-1.1-1.2-1.8-3.1-0.9-4.6c0.7-1.2,2.5-1.8,3.5-0.5
			c0.5,0.6,1.1,1.2,1.5,1.8c1.1,1.2,1.8,3.1,0.9,4.6C59.2,423.1,57.4,423.6,56.3,422.3z"/>
		<path class="st1" d="M39.1,400.9c-1.9-3.1,1.4-6.5,3.4-3.1C44.4,400.9,41.1,404.4,39.1,400.9z"/>
		<path class="st1" d="M28.1,387.2c-2.1-3.6,2.3-7.4,4.6-3.6C34.9,387.2,30.3,391,28.1,387.2z"/>
		<path class="st1" d="M16.8,369.8c-1.6-2.8,0.4-8.3,2.8-4.3C21.3,368.4,19.1,374,16.8,369.8z"/>
		<path class="st1" d="M50.5,387.8c-2.3-3.9,0.7-9,3.6-4.1C56.6,387.7,53.6,392.8,50.5,387.8z"/>
		<path class="st1" d="M161,431.2c-2-3.3,1.8-7.2,4-3.5C166.9,431,163.3,434.8,161,431.2z"/>
		<path class="st1" d="M176.2,429.6c-2.1-3.5,0.7-7.5,3.4-3.2C181.7,430,178.8,434.1,176.2,429.6z"/>
		<path class="st1" d="M173.2,411.7c-2.6-4.3,1.1-12.3,4.8-6.1C180.8,409.9,177.1,418,173.2,411.7z"/>
		<path class="st1" d="M16.8,411.2c0,0,43.5,57.3,111.6,42.2c1.8-3.5-37.1,6.9-72.3-12.9C30.3,425.9,24.7,410.8,16.8,411.2z"/>
		<path class="st1" d="M33.8,449.1c0,0,50.7,43.3,105.9,8.6c0.7-3.9-30.4,17.6-65.3,8.6C48.9,459.6,40.5,446.4,33.8,449.1z"/>
		<path class="st1" d="M50.3,488.1c-2.5-3.2-4.7-6.3-6.6-9.9c-1.1-1.9-1.2-4.6,0.7-5.8c1.6-1.2,4.2-0.4,5.3,1.6
			c1.5,2.8,3.2,5.6,5.2,8.1c1.4,1.8,2.1,4.2,0.7,6C54.4,489.6,51.7,489.9,50.3,488.1z"/>
		<path class="st1" d="M66.1,514.5c-2.7-2.3-5.4-4.7-8-7c-3.2-2.8,0.2-8.1,3.4-5.3c2.7,2.3,5.4,4.7,8,7
			C72.8,512.1,69.4,517.4,66.1,514.5z"/>
		<path class="st1" d="M79.3,504.4c-3.8-1.4-5.8-4.3-8-7.6c-3.2-4.6-6.3-9.3-9.5-14c-1.9-2.7,0.2-6.2,2.5-2.9
			c2.1,3.1,4.2,6.2,6.3,9.3c2,2.9,4.6,8.3,8,9.6C80.9,499.9,82.2,505.6,79.3,504.4z"/>
		<path class="st1" d="M93.5,501.4c-6.5-4-12-9.3-16.3-15.7c-1.2-1.8-2.2-5.1-0.6-6.7c1.6-1.6,4.1-0.1,5.3,1.6
			c3.4,5.1,7.6,9,12.8,12.2C98.3,495.2,98.8,504.7,93.5,501.4z"/>
		<path class="st1" d="M105.8,482.7c1.3,1.5,3.4,3.3,5.2,4.2c2.7,1.4,4.8,4.8,3.9,7.9c0,0.1,0,0.2-0.1,0.2c2.6,1.1,4.2,4.1,4.3,6.9
			c0,2,0.6,4.7,1.3,6.6c1.1,2.8,0.5,6.2-2.5,7.3c-2.8,0.9-6.2-1.3-7.3-4.1c-1.6-4.1-2.5-8.2-2.5-12.6c0-0.5,0-0.8,0.1-1.2
			c-3.8-2.1-7-4.7-9.9-8c-2-2.3-2.3-6.3-0.2-8.5C100.5,479.3,103.8,480.5,105.8,482.7z"/>
		<path class="st1" d="M118.6,481.2c0.8-0.7,1.6-0.6,2.6-0.2c2.5,0.9,3.9,4.3,4.5,6.7c0.1,0.5,0.1,0.9,0.2,1.5
			c1.8,1.6,3.6,4.2,3.4,6.6c-0.1,1.1-0.5,1.8-1.4,2.2s-2.3-0.1-3.3-0.6c-0.6-0.4-1.3-0.8-1.9-1.4c-1.3-0.7-2.2-1.9-3.1-3.1
			c-0.8-1.2-1.5-2.9-1.3-4.3c-0.2-0.7-0.4-1.4-0.4-2.1c-0.2-0.8-0.4-1.6-0.4-2.3C117.7,483.3,117.8,481.8,118.6,481.2z"/>
		<path class="st1" d="M130.3,477.4c2.1-1.4,4.8-0.8,7,0.5c1.2,0.7,1.9,2.3,1.8,3.8c0.2,0.4,0.4,0.8,0.4,1.3
			c0.2,2.6-0.6,5.2-2.8,6.5c-1.8,0.9-3.5,0.6-4.9-1.1c-0.8-1.1-1.1-2.8-0.5-4c-0.9-0.5-1.8-1.2-2.1-2
			C128,480.4,128.6,478.6,130.3,477.4z"/>
		<path class="st1" d="M463.3,462.2c6.1,3.2-0.5-5.3-9-12.8c-26.1-22.8-72.2-42.4-111.6-39.2c-25.1,2-70.5,22-89.3,39.5
			c-4.3,4-18.6,16-10.9,12.8C288.8,434.4,357.5,377.8,463.3,462.2z"/>
		<path class="st1" d="M238.9,493.5c1.9,3.1,6.5,0,4.6-3.1C241.6,487.3,237,490.4,238.9,493.5z"/>
		<path class="st1" d="M251.8,481.4c1.3,2.1,4.6,0.1,3.3-2C253.8,477.3,250.5,479.3,251.8,481.4z"/>
		<path class="st1" d="M265.9,468.4c1.4,2.3,5.2,1.3,3.5-1.4C268.1,464.6,264.3,465.7,265.9,468.4z"/>
		<path class="st1" d="M278.8,458.5c1.5,2.5,4.9-0.1,3.4-2.6C280.8,453.5,277.4,456.1,278.8,458.5z"/>
		<path class="st1" d="M300.7,450.4c0.4,0.7,1.5,2.2,2.6,1.6l2-1.2c1.1-0.6,0.6-2.2,0.1-3.1c-0.4-0.7-1.5-2.2-2.6-1.6l-2,1.2
			C299.8,448,300.3,449.6,300.7,450.4z"/>
		<path class="st1" d="M317.2,442.9c1.8,2.8,6.3,1.4,4.5-1.8C319.9,438.3,315.4,439.7,317.2,442.9z"/>
		<path class="st1" d="M337.1,438.2c1.2,1.9,5.4,2.3,3.8-0.5C339.7,435.9,335.4,435.4,337.1,438.2z"/>
		<path class="st1" d="M243.2,518.9c2.8,4.7,10,2.7,6.7-2.7C247.1,511.5,239.9,513.5,243.2,518.9z"/>
		<path class="st1" d="M253.3,507.9c2.7,4.6,9.5-0.1,6.7-4.6C257.3,498.7,250.6,503.3,253.3,507.9z"/>
		<path class="st1" d="M267.9,493.6c1.3,2.1,6.1,2.7,4.2-0.5C270.7,491.1,265.9,490.5,267.9,493.6z"/>
		<path class="st1" d="M282.3,483.8c2.3,3.9,5.6,1.5,3.3-2.2C283.3,477.6,280,479.9,282.3,483.8z"/>
		<path class="st1" d="M292.6,478c3.3,5.5,11.5,0.2,8.1-5.3C297.4,467.3,289.2,472.5,292.6,478z"/>
		<path class="st1" d="M307.5,470.5c3.4,5.8,11.7,0.2,8.3-5.6C312.3,459.2,304,464.7,307.5,470.5z"/>
		<path class="st1" d="M328.2,462.3c2.2,3.8,6.2,1.6,4-2.1C329.8,456.4,325.8,458.4,328.2,462.3z"/>
		<path class="st1" d="M338.3,458.6c2.8,4.7,11,1.8,8-3.3C343.4,450.7,335.2,453.7,338.3,458.6z"/>
		<path class="st1" d="M268.3,579.5c2.7,4.5,9.6,1.9,6.7-3.1C272.2,571.9,265.2,574.4,268.3,579.5z"/>
		<path class="st1" d="M258.3,559.3c1.4,2.5,6.7,2.7,4.6-0.8C261.4,556.1,256.2,555.8,258.3,559.3z"/>
		<path class="st1" d="M255.9,543.4c1.3,2.1,6,2.6,4-0.6C258.6,540.7,253.9,540.3,255.9,543.4z"/>
		<path class="st1" d="M263.6,530.4c2,3.3,8.1,1.8,5.8-2.1C267.3,524.9,261.2,526.5,263.6,530.4z"/>
		<path class="st1" d="M276.5,518.7c2.3,4,9,2.9,6.1-1.9C280.2,512.8,273.7,513.8,276.5,518.7z"/>
		<path class="st1" d="M289.7,511.4c1.8,3.1,6.5,1.1,4.5-2.2C292.4,506.1,287.8,508.1,289.7,511.4z"/>
		<path class="st1" d="M302.6,506.1c1.4,2.3,5.1,0.4,3.6-2C304.8,501.6,301.1,503.7,302.6,506.1z"/>
		<path class="st1" d="M317.7,500.7c2.1,3.4,7.5,1.5,5.2-2.2C320.9,495.1,315.5,496.9,317.7,500.7z"/>
		<path class="st1" d="M335,498.5c1.8,2.9,6.2,0.4,4.3-2.7C337.6,492.9,333.1,495.4,335,498.5z"/>
		<path class="st1" d="M345.8,497.8c2.3,3.9,10.9,4.3,7.5-1.3C350.8,492.5,342.2,492,345.8,497.8z"/>
		<path class="st1" d="M284,563.1c2.5,4,8.7,0.4,6.2-3.8C287.9,555.3,281.5,559.1,284,563.1z"/>
		<path class="st1" d="M277.4,545.1c0,0.9,0.4,2,0.8,2.7c0.5,0.8,1.2,1.6,2,2c0.6,0.4,1.3,0.6,2,0.1l0.4-0.2
			c0.6-0.4,0.8-1.2,0.8-1.8c0-0.9-0.4-2-0.8-2.7c-0.5-0.8-1.2-1.6-2-2c-0.6-0.4-1.3-0.6-2-0.1l-0.4,0.2
			C277.5,543.7,277.4,544.5,277.4,545.1z"/>
		<path class="st1" d="M286.8,537.1c1.8,2.8,6.3,1.6,4.5-1.6C289.5,532.6,284.8,533.8,286.8,537.1z"/>
		<path class="st1" d="M301.7,530.3c1.6,2.7,6,2,4.1-1.2C304.2,526.4,299.7,527,301.7,530.3z"/>
		<path class="st1" d="M314.4,529.5c2.8,4.6,9.3,1.1,6.5-3.6C318.1,521.4,311.6,524.9,314.4,529.5z"/>
		<path class="st1" d="M328.3,528.5c1.1,1.8,3.8,0.6,2.5-1.4C329.8,525.4,327.1,526.5,328.3,528.5z"/>
		<path class="st1" d="M343.8,531.3c1.8,2.8,6.2,3.1,3.9-0.9C345.8,527.6,341.3,527.3,343.8,531.3z"/>
		<path class="st1" d="M302,551.9c3.2,5.2,11.6,2.5,8.2-3.3C307,543.3,298.6,546.1,302,551.9z"/>
		<path class="st1" d="M321.8,547.8c2.5,4.1,8.3,1.2,5.8-3.1C325.1,540.6,319.3,543.6,321.8,547.8z"/>
		<path class="st1" d="M339,549c2.5,4,7.6,1.2,5.2-2.9C341.7,542,336.5,545,339,549z"/>
		<path class="st1" d="M270.5,604.7c2.6,4.2,11.3,3.8,7.8-2.1C275.7,598.4,266.8,598.9,270.5,604.7z"/>
		<path class="st1" d="M285.8,589.9c2.1,3.5,5.5,1.4,3.4-2.1C286.9,584.4,283.6,586.4,285.8,589.9z"/>
		<path class="st1" d="M74.3,307.6c-1.9-3.2,2.5-5.6,4.3-2.5C80.6,308.3,76.2,310.9,74.3,307.6z"/>
		<path class="st1" d="M112.4,319c-2.7-4.5,2.8-9.4,5.9-4.5C121,319,115.3,323.9,112.4,319z"/>
		<path class="st1" d="M125.6,337.1c-1.4-2.5,0.7-7.2,2.8-3.6C129.9,335.8,127.7,340.6,125.6,337.1z"/>
		<path class="st1" d="M91,305.1c-2.6-4.2,1.9-11.7,5.4-5.9C99,303.6,94.7,311.1,91,305.1z"/>
		<path class="st1" d="M111.2,298.6c-2.1-3.5,1.3-5.5,3.4-2C116.7,300.1,113.3,302.1,111.2,298.6z"/>
		<path class="st1" d="M295.9,577.4c1.2,2,3.5,4.2,6.1,4.1c2-0.1,3.8-1.5,2.5-3.6c-1.2-2-3.5-4.2-6.1-4.1
			C296.3,573.7,294.6,575.3,295.9,577.4z"/>
		<path class="st1" d="M312.5,572c1.6,2.8,6.3,3.3,4-0.6C314.8,568.6,310.1,568.1,312.5,572z"/>
		<path class="st1" d="M326.4,571.3c2.2,3.6,6,1.6,3.8-2C327.9,565.5,324.2,567.5,326.4,571.3z"/>
		<path class="st1" d="M335.3,574.1c3.3,5.4,10,0.6,6.8-4.7C338.8,564,332.1,568.8,335.3,574.1z"/>
		<path class="st1" d="M245.5,667.5c1.6,2.7,6.9,2,4.8-1.4C248.6,663.2,243.4,663.9,245.5,667.5z"/>
		<path class="st1" d="M260.2,651c1.9,3.2,6.3,0.6,4.3-2.6C262.6,645.4,258.3,647.9,260.2,651z"/>
		<path class="st1" d="M275.1,636.2c2,3.3,6.9,2,4.6-2C277.7,630.9,272.7,632.2,275.1,636.2z"/>
		<path class="st1" d="M285.2,618.1c2,3.3,7,2,4.7-1.9C287.9,613,282.8,614.3,285.2,618.1z"/>
		<path class="st1" d="M294.8,599.7c1.8,3.1,8.5,3.4,5.8-1.1C298.7,595.6,292.1,595.2,294.8,599.7z"/>
		<path class="st1" d="M309.1,596.9c2.1,3.4,8.7,2.3,6.1-1.9C313.1,591.6,306.5,592.7,309.1,596.9z"/>
		<path class="st1" d="M328.2,595.8c2,3.3,7.3,1.6,5.1-2C331.2,590.5,325.9,592.1,328.2,595.8z"/>
		<path class="st1" d="M342.4,598.4c2.2,3.6,7.5,1.6,5.1-2.6C345.3,592.3,339.9,594.3,342.4,598.4z"/>
		<path class="st1" d="M338.4,613c-0.5,0.5-0.4,1.4-0.1,2c0.7,1.8,2.6,3.4,4.5,3.9l1.1,0.2c0.6,0.1,1.5,0.1,2-0.4
			c0.5-0.5,0.4-1.4,0.1-2c-0.7-1.8-2.6-3.4-4.5-3.9c-0.4-0.1-0.7-0.2-1.1-0.2C339.7,612.5,338.8,612.5,338.4,613z"/>
		<path class="st1" d="M322.3,614.3c0.1,2.3,2.1,4.7,4.3,5.3c0.4,0.1,0.7,0.2,1.1,0.2c1.1,0.2,2.2,0.4,3.1-0.2
			c0.8-0.5,1.4-1.5,1.4-2.5c-0.1-2.3-2.1-4.7-4.3-5.3c-0.4-0.1-0.7-0.2-1.1-0.2c-1.1-0.2-2.2-0.4-3.1,0.2
			C322.9,612.3,322.3,613.2,322.3,614.3z"/>
		<path class="st1" d="M308.2,617.4c1.4,2.5,5.1,0.5,3.6-1.9C310.3,613.1,306.7,615,308.2,617.4z"/>
		<path class="st1" d="M294.8,629.6c2.2,3.6,9.9,3.6,6.9-1.3C299.5,624.7,291.9,624.7,294.8,629.6z"/>
		<path class="st1" d="M288.3,649c3.1,5.1,9.5,0.4,6.5-4.7C291.9,639.3,285.3,644.1,288.3,649z"/>
		<path class="st1" d="M274.4,665c0.9,1.6,4,1.1,2.8-0.9C276.2,662.4,273.2,663,274.4,665z"/>
		<path class="st1" d="M273.1,681.8c0.9,1.6,6.3,3.5,4.7,0.7C276.8,680.9,271.4,679,273.1,681.8z"/>
		<path class="st1" d="M296.1,684.7c1.9,3.1,6.8,1.4,4.8-1.9C299,679.8,294,681.3,296.1,684.7z"/>
		<path class="st1" d="M304.9,665.2c2.1,3.4,7.2,0.4,5.1-3.1C307.8,658.8,302.8,661.8,304.9,665.2z"/>
		<path class="st1" d="M315,643.9c0.8,1.4,4.1,1.9,2.7-0.4C316.9,642.2,313.6,641.6,315,643.9z"/>
		<path class="st1" d="M334.4,639c1.3,2.1,4.6,0.9,3.2-1.4C336.3,635.5,333,636.7,334.4,639z"/>
		<path class="st1" d="M350,638.9c2.2,3.8,6.2,1.3,4-2.5C351.8,632.8,347.8,635.3,350,638.9z"/>
		<path class="st1" d="M340.4,662.3c3.3,5.4,8.5,1.9,5.2-3.4C342.2,653.5,337.1,656.9,340.4,662.3z"/>
		<path class="st1" d="M321.9,678.5c2.2,3.6,7.6,1.2,5.3-2.7C325,672.2,319.6,674.5,321.9,678.5z"/>
		<path class="st1" d="M339.5,688.1c3.1,5.1,8.5,2.2,5.4-2.9C341.9,680.2,336.5,683,339.5,688.1z"/>
		<path class="st1" d="M146.2,270.5c-2.2-3.6,1.3-6.1,3.5-2.3S148.5,274.2,146.2,270.5z"/>
		<path class="st1" d="M147.9,261.3c-3.3-5.4,4.2-9.2,7.4-3.8C158.6,262.9,151.2,266.6,147.9,261.3z"/>
		<path class="st1" d="M23.5,297.3c-1.6-2.7,1.4-7,3.5-3.6C28.7,296.3,25.5,300.8,23.5,297.3z"/>
		<path class="st1" d="M44.7,292c-1.9-3.2,2.3-5.9,4.3-2.7C51,292.3,46.7,295.2,44.7,292z"/>
		<path class="st1" d="M64.8,285.6c-2-3.3,1.5-7,3.9-3.1C70.7,285.9,67.2,289.5,64.8,285.6z"/>
		<path class="st1" d="M85.5,285.2c-2-3.3,1.5-7.2,3.9-3.3C91.5,285.2,87.9,289,85.5,285.2z"/>
		<path class="st1" d="M106.3,285.2c-1.8-3.1,0.9-9,3.6-4.6C111.8,283.6,109.1,289.6,106.3,285.2z"/>
		<path class="st1" d="M115.6,273.9c-2.1-3.4,2-8.8,4.5-4.6C122.1,272.7,118.2,278.1,115.6,273.9z"/>
		<path class="st1" d="M125.4,257.4c-2-3.3,1.9-7.2,4.1-3.5C131.4,257.2,127.6,261.2,125.4,257.4z"/>
		<path class="st1" d="M129.7,243.6c-2.2-3.6,2.1-7.4,4.6-3.3C136.5,244.1,132.1,247.8,129.7,243.6z"/>
		<path class="st1" d="M114.9,240.5c-0.7,0.1-1.4-0.4-1.8-0.8c-1.3-1.5-1.8-3.9-1.3-5.8l0.2-1.1c0.1-0.6,0.6-1.4,1.3-1.5
			c0.7-0.1,1.4,0.4,1.8,0.8c1.3,1.5,1.8,3.9,1.3,5.8c-0.1,0.4-0.2,0.7-0.2,1.1C116,239.6,115.6,240.3,114.9,240.5z"/>
		<path class="st1" d="M96.9,265.1c-1.4-2.5,1.9-4.7,3.4-2.2C101.7,265.3,98.4,267.6,96.9,265.1z"/>
		<path class="st1" d="M79.9,271.2c-2.2-3.6,1.4-10.5,4.3-5.5C86.4,269.4,82.9,276.1,79.9,271.2z"/>
		<path class="st1" d="M59.7,267.9c-3.1-5.1,4.1-8.6,7.2-3.6C69.9,269.4,62.7,273,59.7,267.9z"/>
		<path class="st1" d="M39.1,272.8c-0.9-1.6,0.9-4.1,2.1-2.1C42.2,272.4,40.3,274.8,39.1,272.8z"/>
		<path class="st1" d="M23.7,266.1c-0.9-1.6-0.1-7.3,1.5-4.5C26.2,263.3,25.4,269,23.7,266.1z"/>
		<path class="st1" d="M31.7,244.5c-1.9-3.1,1.9-6.7,4-3.4C37.5,244.2,33.7,247.8,31.7,244.5z"/>
		<path class="st1" d="M53,245.7c-2.1-3.4,3.1-6.5,5.1-3.1C60.1,246.2,55.1,249.2,53,245.7z"/>
		<path class="st1" d="M76.7,246.8c-0.8-1.4,0.2-4.5,1.5-2.2C79,245.9,78,249,76.7,246.8z"/>
		<path class="st1" d="M90,231.8c-1.3-2.1,1.3-4.5,2.7-2.1C94,231.8,91.4,234.2,90,231.8z"/>
		<path class="st1" d="M97.4,218.1c-2.2-3.8,1.8-6.1,4-2.3C103.7,219.4,99.6,221.7,97.4,218.1z"/>
		<path class="st1" d="M72.2,215.8c-3.3-5.4,2.2-8.3,5.5-2.9C80.9,218.1,75.4,221,72.2,215.8z"/>
		<path class="st1" d="M49.3,224.4c-2.2-3.6,2.5-7.3,4.9-3.4C56.4,224.7,51.7,228.3,49.3,224.4z"/>
		<path class="st1" d="M49,204.5c-3.1-5.1,2-8.5,5.1-3.4C57.1,206,52.1,209.5,49,204.5z"/>
		<path class="st1" d="M217.2,479.9c2.6,4.3,11.4,4.9,7.6-1.4C222.2,474.1,213.4,473.6,217.2,479.9z"/>
		<path class="st1" d="M175.4,383.7c-1.9-3.1,2.9-5.8,4.8-2.7C182.2,384.2,177.2,386.9,175.4,383.7z"/>
		<path class="st1" d="M192,377.8c-1.3-2.1,2-4.1,3.3-2C196.6,378.1,193.3,380.1,192,377.8z"/>
		<path class="st1" d="M210.1,371.5c-1.4-2.3,1.3-5.2,2.9-2.5C214.5,371.4,211.8,374.2,210.1,371.5z"/>
		<path class="st1" d="M224.9,364.7c-1.5-2.5,2.3-4.3,3.9-1.9C230.3,365.3,226.4,367.1,224.9,364.7z"/>
		<path class="st1" d="M242.3,349.1c-0.5-0.7-1.3-2.5-0.2-3.1l2-1.2c1.1-0.6,2.2,0.5,2.8,1.3c0.5,0.7,1.3,2.5,0.2,3.1l-2,1.2
			C244.1,350.9,242.8,349.9,242.3,349.1z"/>
		<path class="st1" d="M256.6,338c-1.8-2.8,1.8-6.2,3.6-3.2C261.9,337.7,258.5,341.1,256.6,338z"/>
		<path class="st1" d="M270,322.5c-1.2-1.9,0.5-5.9,2.1-3.1C273.3,321.5,271.8,325.3,270,322.5z"/>
		<path class="st1" d="M154.9,368.1c-2.8-4.7,2.2-10.1,5.5-4.7C163.3,368.1,158.2,373.5,154.9,368.1z"/>
		<path class="st1" d="M169.5,364.3c-2.7-4.6,4.5-8.3,7.3-3.8C179.5,365,172.2,368.8,169.5,364.3z"/>
		<path class="st1" d="M188.7,358c-1.3-2.1,0.5-6.6,2.3-3.5C192.4,356.7,190.6,361.2,188.7,358z"/>
		<path class="st1" d="M204.2,349.8c-2.3-3.9,1.2-5.8,3.5-1.9C210.1,351.8,206.6,353.6,204.2,349.8z"/>
		<path class="st1" d="M214,343.4c-3.3-5.5,5.1-10.2,8.5-4.7C225.7,344.1,217.4,348.9,214,343.4z"/>
		<path class="st1" d="M227.6,333.7c-3.4-5.8,5.3-10.6,8.8-4.7C239.9,334.7,231.1,339.5,227.6,333.7z"/>
		<path class="st1" d="M244.5,319.3c-2.2-3.8,1.4-6.3,3.8-2.5C250.6,320.6,246.9,323.1,244.5,319.3z"/>
		<path class="st1" d="M252.4,312.1c-2.8-4.7,3.6-10.6,6.6-5.6C261.9,311.2,255.5,317.1,252.4,312.1z"/>
		<path class="st1" d="M139.1,345.4c-1.3-2.1,0.5-6.5,2.5-3.3C142.8,344.1,141.1,348.6,139.1,345.4z"/>
		<path class="st1" d="M154.3,344.7c-2-3.3,2.2-8,4.6-4.1C160.8,343.9,156.6,348.6,154.3,344.7z"/>
		<path class="st1" d="M170.7,338.7c-2.3-4,1.6-9.4,4.5-4.6C177.6,338.1,173.6,343.4,170.7,338.7z"/>
		<path class="st1" d="M183.3,330.4c-1.8-3.1,2.1-6.2,4-2.9C189.2,330.5,185.2,333.7,183.3,330.4z"/>
		<path class="st1" d="M193.9,321.5c-1.4-2.3,2.1-4.6,3.5-2.2C198.8,321.6,195.3,323.8,193.9,321.5z"/>
		<path class="st1" d="M205.8,310.7c-2.1-3.4,2.1-7.3,4.5-3.5C212.2,310.5,208,314.4,205.8,310.7z"/>
		<path class="st1" d="M215.8,296.4c-1.8-2.9,2.6-5.8,4.3-2.7C221.9,296.7,217.6,299.5,215.8,296.4z"/>
		<path class="st1" d="M221.4,287.2c-2.3-3.9,1.2-11.6,4.7-6C228.4,285.2,224.8,292.9,221.4,287.2z"/>
		<path class="st1" d="M134.8,311.4c-2.5-4,3.8-7.9,6.2-3.9C143.5,311.6,137.3,315.5,134.8,311.4z"/>
		<path class="st1" d="M147.6,325.6c-0.8-0.5-1.5-1.3-2-2c-0.5-0.8-0.9-1.8-0.8-2.7c0-0.7,0.1-1.4,0.8-1.8l0.4-0.2
			c0.6-0.4,1.4-0.1,2,0.1c0.8,0.5,1.5,1.3,2,2c0.5,0.8,0.9,1.8,0.8,2.7c0,0.7-0.1,1.4-0.8,1.8l-0.4,0.2
			C149,326.2,148.2,325.9,147.6,325.6z"/>
		<path class="st1" d="M159.1,321c-1.8-2.8,1.5-6.5,3.5-3.2C164.3,320.8,161,324.3,159.1,321z"/>
		<path class="st1" d="M172.1,311c-1.6-2.7,1.1-6.3,2.9-3.1C176.6,310.7,174.1,314.2,172.1,311z"/>
		<path class="st1" d="M178.8,300.1c-2.8-4.6,3.4-8.7,6.2-4C187.7,300.7,181.5,304.8,178.8,300.1z"/>
		<path class="st1" d="M186.2,288.2c-1.1-1.8,1.2-3.5,2.3-1.6C189.6,288.5,187.3,290.2,186.2,288.2z"/>
		<path class="st1" d="M190.7,273.3c-1.8-2.8,0.2-6.9,2.6-2.9C195.1,273.2,193.1,277.3,190.7,273.3z"/>
		<path class="st1" d="M153.2,300.7c-3.2-5.2,3.3-11.5,6.7-5.8C163,300.2,156.6,306.4,153.2,300.7z"/>
		<path class="st1" d="M166,285.1c-2.5-4.1,2.8-7.9,5.4-3.6C173.8,285.5,168.5,289.3,166,285.1z"/>
		<path class="st1" d="M172.9,269.3c-2.5-4,2.5-7.3,4.9-3.2C180.3,270.1,175.4,273.4,172.9,269.3z"/>
		<path class="st1" d="M127.8,294.2c-1.2-2-2-5.2-0.8-7.4c0.9-1.8,3.2-2.6,4.5-0.5c1.2,2,2,5.2,0.8,7.4
			C131.2,295.5,129,296.3,127.8,294.2z"/>
		<path class="st1" d="M140.2,282c-1.6-2.8,0-7.2,2.3-3.2C144.2,281.5,142.6,286,140.2,282z"/>
		<path class="st1" d="M107.5,253.7c-2.1-1.2-3.2-4-2.6-6.3c0.1-0.4,0.2-0.7,0.2-1.1c0.2-1.1,0.7-2.1,1.6-2.6c0.8-0.5,2-0.6,2.8-0.1
			c2.1,1.2,3.2,4,2.6,6.3c-0.1,0.4-0.2,0.7-0.2,1.1c-0.2,1.1-0.7,2.1-1.6,2.6C109.5,254,108.3,254.2,107.5,253.7z"/>
		<path class="st1" d="M663.6,506.8"/>
		<line class="st1" x1="498.6" y1="638.1" x2="498.6" y2="638.1"/>
		<path class="st1" d="M566.1,420.1c2-3.6-2.6-6.3-4.6-2.7C559.6,421.1,564.1,423.8,566.1,420.1z"/>
		<path class="st1" d="M579.4,419.9c3.4-6.1-5.3-9.6-8.6-3.6C567.5,422.3,576.1,425.9,579.4,419.9z"/>
		<path class="st1" d="M592.3,413.2c2.7-4.9-3.4-9-6.3-3.8C583.4,414.2,589.5,418.5,592.3,413.2z"/>
		<path class="st1" d="M603.2,408c2.9-5.3-2.1-8.7-5.1-3.3C595.2,410.1,600.3,413.4,603.2,408z"/>
		<path class="st1" d="M614.3,401.3c3.2-5.9-3.2-14.1-7.3-6.7C603.8,400.6,610.2,408.8,614.3,401.3z"/>
		<path class="st1" d="M621.9,389.1c2-3.6-2.8-7.2-4.8-3.5C615.1,389.2,619.9,392.8,621.9,389.1z"/>
		<path class="st1" d="M629.6,380.5c2.2-4-1.1-8.9-3.9-3.9C623.5,380.7,626.8,385.6,629.6,380.5z"/>
		<path class="st1" d="M640.3,371.7c2.8-5.3-3.1-12.3-6.6-5.9C630.9,371,636.8,378.1,640.3,371.7z"/>
		<path class="st1" d="M650.3,356.9c2-3.8-1.5-6.1-3.6-2.3C644.7,358.5,648.2,360.8,650.3,356.9z"/>
		<path class="st1" d="M658,345.3c1.9-3.4-1.9-6.7-4-2.8C652.2,345.9,655.8,349.2,658,345.3z"/>
		<path class="st1" d="M666.6,335.9c3.6-6.7-4.6-12.8-8.5-5.6C654.5,336.8,662.8,343.1,666.6,335.9z"/>
		<path class="st1" d="M673.8,320.8c2.7-5.1-4.8-8.2-7.5-3.3C663.5,322.5,671.1,325.7,673.8,320.8z"/>
		<path class="st1" d="M677,308.4c3.1-5.5-2.7-8.2-5.6-2.7C668.3,311.2,674,313.8,677,308.4z"/>
		<path class="st1" d="M553.9,404.5c2.6-4.8-4.5-7.9-7-3.1C544.3,406.1,551.3,409.2,553.9,404.5z"/>
		<path class="st1" d="M563.6,403.7c2.3-4.3-2.2-6.7-4.6-2.3C556.7,405.7,561.3,408,563.6,403.7z"/>
		<path class="st1" d="M575.4,402.7c1.8-3.3-2.5-5.5-4.2-2.2C569.3,403.8,573.6,406,575.4,402.7z"/>
		<path class="st1" d="M585.1,398.4c1.3-2.5-0.6-7-2.6-3.4C581.1,397.3,583.1,402,585.1,398.4z"/>
		<path class="st1" d="M597.6,390.2c2.9-5.4-3.5-11-6.7-5.3C588,390.2,594.5,395.8,597.6,390.2z"/>
		<path class="st1" d="M606.5,381.7c2.1-4-2.5-8.8-4.9-4.3C599.5,381.2,604,386.2,606.5,381.7z"/>
		<path class="st1" d="M617.1,372.2c3.3-6-4.1-12.9-7.8-6.2C606,372,613.4,378.9,617.1,372.2z"/>
		<path class="st1" d="M623,362.7c2.6-4.7-3.6-9.4-6.2-4.6C614.1,362.8,620.4,367.5,623,362.7z"/>
		<path class="st1" d="M629.9,351.8c2.5-4.6-2.9-6.8-5.4-2.3C622,354,627.5,356.2,629.9,351.8z"/>
		<path class="st1" d="M638.2,338.1c1.8-3.3-1.9-6.2-4-2.6C632.5,338.8,636.1,341.8,638.2,338.1z"/>
		<path class="st1" d="M644.2,326.4c1.9-3.4-2.3-5.9-4.2-2.3C638.1,327.3,642.3,329.8,644.2,326.4z"/>
		<path class="st1" d="M651.4,315.2c1.8-3.2-1.2-4.5-2.9-1.3C646.7,317,649.6,318.3,651.4,315.2z"/>
		<path class="st1" d="M659.4,301.4c2.8-5.2-4.8-8.8-7.6-3.6C649,302.9,656.5,306.5,659.4,301.4z"/>
		<path class="st1" d="M552.5,383.2c2.2-4-3.1-8.1-5.4-3.9C545,383.5,550.1,387.6,552.5,383.2z"/>
		<path class="st1" d="M565.4,387c2.7-4.9-1.9-10.5-5.2-4.6C557.5,387.3,562.1,392.9,565.4,387z"/>
		<path class="st1" d="M579.3,380.9c3.1-5.5-2.7-11.9-6.1-5.5C570.1,380.9,575.9,387.2,579.3,380.9z"/>
		<path class="st1" d="M588.2,368.7c1.6-3.1-1.3-4.6-2.9-1.5C583.6,370.2,586.5,371.7,588.2,368.7z"/>
		<path class="st1" d="M601.7,361.2c2.6-4.7-2.8-10.9-5.9-5.3C593.2,360.6,598.6,366.8,601.7,361.2z"/>
		<path class="st1" d="M610.9,349.4l0.2-0.4c1.3-2.3,1.3-5.6-0.9-7.2c-2-1.4-5.2-0.9-6.5,1.5l-0.2,0.4c-1.3,2.3-1.3,5.6,0.9,7.2
			C606.4,352.3,609.6,351.9,610.9,349.4z"/>
		<path class="st1" d="M619.1,334.4c1.6-2.9-2-6.3-3.8-3.1C613.7,334.3,617.3,337.7,619.1,334.4z"/>
		<path class="st1" d="M627.7,316.4c0.7-1.2,1.4-2.7,1.4-4.1c0-0.9-0.1-2.1-0.9-2.6l-0.7-0.5c-2.1-1.2-4.7,1.9-5.6,3.5
			c-0.7,1.2-1.4,2.7-1.4,4.1c0,0.9,0.1,2.1,0.9,2.6l0.7,0.5C624.1,321,626.7,318.1,627.7,316.4z"/>
		<path class="st1" d="M632.7,297c1.8-3.2-2.7-5.5-4.5-2.2C626.5,298,630.9,300.3,632.7,297z"/>
		<path class="st1" d="M573,362.1c3.2-5.8-5.1-10.3-8.2-4.5C561.8,363.3,569.9,367.9,573,362.1z"/>
		<path class="st1" d="M583.8,355.3c2.3-4.3-2.8-7.9-5.4-3.2C576.1,356.3,581.4,360,583.8,355.3z"/>
		<path class="st1" d="M592.5,342.7c1.8-3.2-1.3-4.5-2.9-1.4C587.8,344.5,590.8,345.8,592.5,342.7z"/>
		<path class="st1" d="M597.9,335.3c1.9-0.8,3.4-3.1,2.9-5.2c0-0.2-0.1-0.5-0.1-0.6c-0.5-1.9-2.3-3.3-4.3-2.5
			c-1.9,0.8-3.4,3.1-2.9,5.2c0,0.2,0.1,0.5,0.1,0.6C594.1,334.8,595.9,336.3,597.9,335.3z"/>
		<path class="st1" d="M609.3,314.8c2-3.8-2-8.9-4.6-4.3C602.8,314.1,606.9,319.3,609.3,314.8z"/>
		<path class="st1" d="M604.4,426.6c2.9-5.4-2.3-8.2-5.3-2.8C596.3,429,601.5,432,604.4,426.6z"/>
		<path class="st1" d="M620.8,420.8c2.6-4.8-0.7-14.7-4.7-7.4C613.4,418.4,616.8,428.2,620.8,420.8z"/>
		<path class="st1" d="M636.1,404.3c1.9-3.4-0.9-9.7-3.6-4.8C630.6,402.9,633.4,409.2,636.1,404.3z"/>
		<path class="st1" d="M647.9,391.2c3.3-6-3.4-9.9-6.7-3.8C637.9,393.3,644.7,397.2,647.9,391.2z"/>
		<path class="st1" d="M670.9,362.1c3.1-5.8-4-9.3-7-3.6C660.7,364.1,667.7,367.7,670.9,362.1z"/>
		<path class="st1" d="M679.1,346c1.5-2.7-0.8-6.1-2.7-2.7C674.9,346,677.2,349.4,679.1,346z"/>
		<path class="st1" d="M691.3,329c3.6-6.6-1.9-9.3-5.4-2.7C682.3,332.9,687.7,335.6,691.3,329z"/>
		<path class="st1" d="M638.6,424.6c2-3.8-1.6-7.9-4.1-3.5C632.5,424.8,636.2,428.9,638.6,424.6z"/>
		<path class="st1" d="M655.4,410.8c0.5-0.6,1.1-1.2,1.5-1.9c1.1-1.3,1.6-3.2,0.7-4.6c-0.7-1.2-2.5-1.6-3.5-0.4
			c-0.5,0.6-1.1,1.2-1.5,1.9c-1.1,1.3-1.6,3.2-0.7,4.6C652.6,411.7,654.3,412.1,655.4,410.8z"/>
		<path class="st1" d="M671.6,388.6c1.6-3.2-1.6-6.5-3.6-2.9C666.3,388.9,669.7,392.2,671.6,388.6z"/>
		<path class="st1" d="M682,374.5c2-3.6-2.7-7.3-4.8-3.4C675.2,374.8,679.9,378.4,682,374.5z"/>
		<path class="st1" d="M692.6,356.7c1.5-2.9-0.7-8.3-3.1-4.2C688,355.4,690.4,360.8,692.6,356.7z"/>
		<path class="st1" d="M659.6,376.1c2.2-4-1.1-8.9-3.9-3.9C653.5,376.2,656.8,381.1,659.6,376.1z"/>
		
			<ellipse transform="matrix(0.4792 -0.8777 0.8777 0.4792 -115.2105 726.5386)" class="st1" cx="554.6" cy="460.4" rx="20.3" ry="6.8"/>
		
			<ellipse transform="matrix(0.4792 -0.8777 0.8777 0.4792 -115.9742 704.3444)" class="st1" cx="535.5" cy="449.9" rx="14.7" ry="5.3"/>
		
			<ellipse transform="matrix(0.4792 -0.8777 0.8777 0.4792 -116.7223 683.6024)" class="st1" cx="517.7" cy="440.2" rx="9.2" ry="3.3"/>
		<path class="st1" d="M551.1,424.1c1.9-3.4-2-7-4.1-3.3C545.2,424.2,549.1,427.9,551.1,424.1z"/>
		<path class="st1" d="M535.9,423.3c2-3.5-1.1-7.5-3.5-2.9C530.4,423.9,533.5,427.8,535.9,423.3z"/>
		<path class="st1" d="M538,405.2c2.5-4.5-1.5-12.3-5.1-5.9C530.5,403.7,534.5,411.7,538,405.2z"/>
		<path class="st1" d="M694.2,397.9c0,0-41,59.2-109.7,47c-1.9-3.4,37.5,5.3,71.6-16C681.6,413.2,686.4,397.9,694.2,397.9z"/>
		<path class="st1" d="M679,436.6c0,0-48.7,45.5-105.5,13.2c-0.8-3.9,31.2,16.3,65.7,5.6C664.4,447.6,672,434.2,679,436.6z"/>
		<path class="st1" d="M664.2,476.3c2.3-3.3,4.3-6.6,6.1-10.2c0.9-2,0.9-4.6-0.9-5.8c-1.6-1.1-4.2-0.1-5.2,1.9
			c-1.4,2.9-2.9,5.8-4.8,8.3c-1.3,1.8-1.9,4.2-0.5,6C660.2,478,662.9,478,664.2,476.3z"/>
		<path class="st1" d="M649.5,503.3c2.6-2.5,5.2-4.9,7.8-7.4c3.1-2.9-0.6-8.1-3.6-5.1c-2.6,2.5-5.2,4.9-7.8,7.4
			C642.8,501.2,646.3,506.3,649.5,503.3z"/>
		<path class="st1" d="M635.9,493.9c3.6-1.5,5.5-4.6,7.6-8c2.9-4.8,6-9.5,8.9-14.3c1.8-2.7-0.5-6.2-2.7-2.8c-2,3.2-4,6.3-6,9.5
			c-1.9,3.1-4.2,8.6-7.6,10C634,489.3,633.1,495.1,635.9,493.9z"/>
		<path class="st1" d="M621.7,491.3c6.2-4.2,11.5-9.9,15.6-16.4c1.2-1.9,2-5.2,0.4-6.7c-1.6-1.5-4.1,0.1-5.2,1.9
			c-3.3,5.2-7.3,9.4-12.2,12.8C616.5,485.3,616.5,494.8,621.7,491.3z"/>
		<path class="st1" d="M525.9,492.1c-2,3.6-6.7,1.3-4.7-2.3C523.1,486.1,527.9,488.5,525.9,492.1z"/>
		<path class="st1" d="M532.9,503.5c-3.4,6.1-11,0.8-7.8-5.3C528.5,492,536.2,497.4,532.9,503.5z"/>
		<path class="st1" d="M534.2,517.8c-2.7,4.9-9.4,2-6.6-3.3C530.3,509.7,537.1,512.7,534.2,517.8z"/>
		<path class="st1" d="M535.8,529.8c-2.9,5.3-8.5,2.9-5.5-2.5C533.2,522.1,538.7,524.4,535.8,529.8z"/>
		<path class="st1" d="M536.2,542.7c-3.2,5.9-13.6,5.1-9.5-2.5C529.8,534.4,540.3,535.3,536.2,542.7z"/>
		<path class="st1" d="M529.9,555.8c-2,3.6-7.5,1.5-5.5-2.1C526.4,550,531.9,552.1,529.9,555.8z"/>
		<path class="st1" d="M526.9,566.9c-2.2,4-8.1,3.9-5.4-1.2C523.7,561.8,529.7,561.9,526.9,566.9z"/>
		<path class="st1" d="M525.2,580.7c-2.8,5.3-12,4.1-8.5-2.3C519.6,573.2,528.8,574.2,525.2,580.7z"/>
		<path class="st1" d="M518.3,597.1c-2,3.8-6,2-3.9-1.9C516.4,591.5,520.4,593.2,518.3,597.1z"/>
		<path class="st1" d="M512.7,609.8c-1.9,3.4-6.6,2-4.5-1.9C510,604.6,514.8,605.9,512.7,609.8z"/>
		<path class="st1" d="M509.4,622.2c-3.6,6.7-13.3,3.2-9.4-4C503.6,611.6,513.3,615.1,509.4,622.2z"/>
		<path class="st1" d="M500.5,636.5c-2.7,5.1-9.5,0.4-6.8-4.6C496.5,626.8,503.3,631.4,500.5,636.5z"/>
		<path class="st1" d="M491.8,645.9c-3.1,5.5-8.3,2.2-5.4-3.3C489.5,636.9,494.8,640.3,491.8,645.9z"/>
		<path class="st1" d="M506.1,490.4c-2.6,4.8-9,0.5-6.5-4.3C502.3,481.2,508.7,485.5,506.1,490.4z"/>
		<path class="st1" d="M510.8,498.9c-2.3,4.3-6.8,1.8-4.5-2.6C508.7,492,513.1,494.6,510.8,498.9z"/>
		<path class="st1" d="M516.2,509.4c-1.8,3.3-6,0.9-4.2-2.3C513.8,503.6,518.1,506,516.2,509.4z"/>
		<path class="st1" d="M517.8,519.8c-1.3,2.5-6.3,3.3-4.3-0.4C514.9,517.1,519.8,516.2,517.8,519.8z"/>
		<path class="st1" d="M517.7,534.9c-2.9,5.4-11.2,2.9-8.1-2.7C512.6,526.6,520.8,529.1,517.7,534.9z"/>
		<path class="st1" d="M515.4,546.8c-2.1,4-8.8,2.7-6.3-1.8C511.1,541.2,517.8,542.4,515.4,546.8z"/>
		<path class="st1" d="M513,560.9c-3.3,6-13,3.5-9.4-3.2C506.9,551.8,516.8,554.2,513,560.9z"/>
		<path class="st1" d="M508.3,571c-2.6,4.7-9.9,2-7.3-2.8C503.6,563.5,510.9,566.2,508.3,571z"/>
		<path class="st1" d="M502.8,582.8c-2.5,4.6-7.3,1.2-4.8-3.3C500.5,574.8,505.3,578.3,502.8,582.8z"/>
		<path class="st1" d="M495.9,597c-1.8,3.3-6.3,1.8-4.2-2C493.4,591.8,497.9,593.4,495.9,597z"/>
		<path class="st1" d="M489.2,608.5c-1.9,3.4-6.2,1.2-4.3-2.2C486.8,602.9,491.1,605.1,489.2,608.5z"/>
		<path class="st1" d="M483.7,620.5c-1.8,3.2-4.3,1.4-2.7-1.8C482.7,615.7,485.3,617.4,483.7,620.5z"/>
		<path class="st1" d="M476.4,634.8c-2.8,5.2-10,0.7-7.2-4.5C472,625.2,479.2,629.6,476.4,634.8z"/>
		<path class="st1" d="M487.5,500.6c-2.2,4-8.5,1.9-6.2-2.5C483.5,494.1,489.9,496.3,487.5,500.6z"/>
		<path class="st1" d="M497.5,509.4c-2.7,4.9-9.9,4.1-6.6-1.9C493.6,502.6,500.8,503.5,497.5,509.4z"/>
		<path class="st1" d="M500,524.4c-3.1,5.5-11.4,4.1-8-2.1C495.1,516.7,503.4,518.1,500,524.4z"/>
		<path class="st1" d="M494.5,538.5c-1.6,3.1-4.5,1.4-2.8-1.6C493.3,533.8,496.1,535.5,494.5,538.5z"/>
		<path class="st1" d="M495.4,553.9c-2.6,4.7-10.7,3.5-7.5-2.1C490.5,547.2,498.6,548.3,495.4,553.9z"/>
		<path class="st1" d="M490.6,568l-0.2,0.4c-1.3,2.3-4,4.2-6.6,3.2c-2.2-0.9-3.5-3.9-2.2-6.3l0.2-0.4c1.3-2.3,4-4.2,6.6-3.2
			C490.7,562.7,492,565.5,490.6,568z"/>
		<path class="st1" d="M482.4,583c-1.6,2.9-6.5,1.8-4.6-1.5C479.4,578.6,484.2,579.7,482.4,583z"/>
		<path class="st1" d="M471.9,599.9c-0.7,1.3-1.5,2.6-2.7,3.4c-0.8,0.5-1.8,1.1-2.7,0.6l-0.7-0.5c-2.1-1.2-0.9-4.9,0-6.7
			c0.7-1.3,1.5-2.6,2.7-3.4c0.8-0.5,1.8-1.1,2.7-0.6l0.7,0.5C473.9,594.5,472.7,598.3,471.9,599.9z"/>
		<path class="st1" d="M458.3,614.7c-1.8,3.2-6.1,0.7-4.3-2.6C455.8,608.9,460.2,611.3,458.3,614.7z"/>
		<path class="st1" d="M480.8,529.3c-3.2,5.8-11.4,1.3-8.2-4.5C475.7,519.1,484,523.6,480.8,529.3z"/>
		<path class="st1" d="M481,542.1c-2.3,4.3-8.2,1.9-5.6-2.8C477.7,535,483.5,537.4,481,542.1z"/>
		<path class="st1" d="M475,556.1c-1.8,3.2-4.5,1.4-2.8-1.8C473.9,551.3,476.7,553.1,475,556.1z"/>
		<path class="st1" d="M471.8,564.7c0.4,2-0.7,4.6-2.8,5.3c-0.2,0.1-0.4,0.1-0.6,0.2c-1.9,0.6-4-0.2-4.5-2.3c-0.4-2,0.7-4.6,2.8-5.3
			c0.2-0.1,0.4-0.1,0.6-0.2C469.2,561.8,471.4,562.6,471.8,564.7z"/>
		<path class="st1" d="M460.6,585.5c-2,3.8-8.6,3.2-6.1-1.4C456.5,580.3,463.1,580.9,460.6,585.5z"/>
		<path class="st1" d="M552,520.9c-2.9,5.4-8.1,2.5-5.2-2.9C549.7,512.6,554.9,515.5,552,520.9z"/>
		<path class="st1" d="M556.1,537.7c-2.6,4.8-12.7,7.3-8.7,0C549.9,533,560.1,530.4,556.1,537.7z"/>
		<path class="st1" d="M550.4,559.5c-1.9,3.4-8.7,4.5-6-0.5C546.1,555.7,553.1,554.6,550.4,559.5z"/>
		<path class="st1" d="M545.8,576.6c-3.3,6-10.1,2.3-6.8-3.6C542.1,566.9,549.1,570.6,545.8,576.6z"/>
		<path class="st1" d="M533.6,611.6c-3.1,5.8-10,1.6-6.9-4C529.8,601.9,536.7,605.9,533.6,611.6z"/>
		<path class="st1" d="M524.5,627.2c-1.5,2.7-5.6,2.7-3.8-0.8C522.3,623.7,526.4,623.8,524.5,627.2z"/>
		<path class="st1" d="M516.9,646.7c-3.6,6.6-8.8,3.4-5.3-3.1C515.3,636.9,520.4,640.1,516.9,646.7z"/>
		<path class="st1" d="M568.8,550.7c-2,3.8-7.5,2.8-5.2-1.5C565.6,545.4,571.2,546.4,568.8,550.7z"/>
		<path class="st1" d="M566.3,572.2c-0.2,0.7-0.5,1.5-0.7,2.2c-0.5,1.5-1.8,3.1-3.5,3.1c-1.4,0-2.8-1.2-2.2-2.8
			c0.2-0.7,0.5-1.5,0.7-2.2c0.5-1.5,1.8-3.1,3.5-3.1C565.4,569.4,566.8,570.6,566.3,572.2z"/>
		<path class="st1" d="M556.4,597.9c-1.6,3.2-6.3,2.1-4.3-1.4C553.8,593.4,558.4,594.4,556.4,597.9z"/>
		<path class="st1" d="M550.1,614.3c-2,3.6-7.5,1.6-5.4-2.1C546.7,608.4,552.2,610.4,550.1,614.3z"/>
		<path class="st1" d="M540.9,632.8c-1.5,2.9-7.4,3.9-5.2-0.2C537.3,629.6,543.1,628.7,540.9,632.8z"/>
		<path class="st1" d="M539.3,594.5c-2.2,4-8.1,3.9-5.4-1.2C536.2,589.4,542,589.5,539.3,594.5z"/>
		<path class="st1" d="M521.1,477.3c-1.9,3.4-7,2.1-4.9-1.6C518,472.3,523.1,473.6,521.1,477.3z"/>
		<path class="st1" d="M512.2,465c-2,3.5-6.9,3.2-4.5-1.4C509.7,460.1,514.7,460.5,512.2,465z"/>
		<path class="st1" d="M498.1,476.5c-2.5,4.5-11.2,5.4-7.6-1.1C492.8,471,501.6,470,498.1,476.5z"/>
		<path class="st1" d="M576.6,611.9c0,0,27.6-66.5-19.7-117.6c-3.9,0.2,24.7,28.7,25.3,68.9C582.4,592.9,572.2,605.3,576.6,611.9z"
			/>
		<path class="st1" d="M600.6,578.1c0,0,11.9-65.7-45.9-95.8c-3.8,1.4,30.5,17.4,40.3,52.1C602.2,559.9,595,573.6,600.6,578.1z"/>
		<path class="st1" d="M626.1,544.3c-1.5,3.8-3.2,7.3-5.3,10.7c-1.2,1.9-3.3,3.3-5.4,2.3c-1.9-0.8-2.3-3.5-1.3-5.3
			c1.6-2.7,3.3-5.6,4.5-8.6c0.8-2.1,2.6-3.9,4.8-3.6C625.4,539.9,626.9,542.3,626.1,544.3z"/>
		<path class="st1" d="M640.9,517.2c-0.7,3.5-1.4,7-2.1,10.5c-0.8,4.1-7.2,3.9-6.2-0.4c0.7-3.5,1.4-7,2.1-10.5
			C635.4,512.8,641.7,513,640.9,517.2z"/>
		<path class="st1" d="M625.7,510.9c0.7,3.9-0.9,7.2-2.6,10.7c-2.3,5.1-4.8,10.2-7.3,15.3c-1.4,2.9-5.5,2.9-3.8-0.7
			c1.6-3.4,3.2-6.8,4.8-10.2c1.5-3.2,4.9-8.2,4.2-11.9C620.7,511.8,625.1,507.9,625.7,510.9z"/>
		<path class="st1" d="M615.8,500.3c-0.2,7.6-2,15-5.4,22c-0.9,1.9-3.2,4.5-5.5,3.9c-2.2-0.6-2.1-3.5-1.3-5.3
			c2.6-5.5,4-11.2,4.1-17.3C607.9,499.2,616,494.1,615.8,500.3z"/>
		<path class="st1" d="M593.5,499c0.7-1.9,1.1-4.6,1.1-6.7c-0.1-3.1,1.8-6.6,4.8-7.4c0.1,0,0.2,0,0.2,0c-0.4-2.8,1.4-5.8,3.8-7.2
			c1.8-1.1,3.8-2.9,5.1-4.5c1.9-2.3,5.2-3.6,7.5-1.5c2.2,2,2,6,0.1,8.5c-2.7,3.5-5.9,6.2-9.6,8.5c-0.4,0.2-0.8,0.4-1.2,0.5
			c0.1,4.3-0.5,8.5-1.9,12.6c-0.9,2.9-4.2,5.3-7.2,4.5C593.2,505.3,592.4,501.9,593.5,499z"/>
		<path class="st1" d="M585.6,488.7c-0.9-0.4-1.4-1.1-1.5-2.2c-0.4-2.6,1.8-5.5,3.6-7.2c0.4-0.4,0.7-0.6,1.2-0.9
			c0.5-2.3,1.8-5.3,4-6.2c0.9-0.5,1.8-0.6,2.6,0.1c0.8,0.6,1.1,2.1,1.1,3.2c0,0.7-0.1,1.5-0.2,2.3c0,1.4-0.5,2.9-1.1,4.2
			c-0.6,1.4-1.8,2.8-3.1,3.3c-0.5,0.5-1.1,0.9-1.6,1.3c-0.6,0.6-1.2,1.1-1.9,1.5C588,488.5,586.7,489.1,585.6,488.7z"/>
		<path class="st1" d="M576.7,480.6c-2.2-1.2-3.2-3.8-3.1-6.3c0-1.4,1.1-2.7,2.3-3.4c0.2-0.4,0.6-0.8,0.9-1.1
			c2.1-1.4,4.8-2.1,6.9-0.8c1.6,1.1,2.3,2.8,1.5,4.8c-0.5,1.2-1.9,2.3-3.2,2.5c0.1,1.1-0.1,2.1-0.7,2.9
			C580.2,481.1,578.4,481.4,576.7,480.6z"/>
		<path class="st1" d="M392,200.6c-0.2-6.8-4.3,3.1-6.5,14.2c-6.6,33.9-0.2,83.7,22.3,116.2c14.4,20.7,54.5,49.8,79,57.2
			c5.6,1.8,23.1,8,16.6,2.9C456.1,365.3,372.6,334.4,392,200.6z"/>
		<path class="st1" d="M535.7,378.7c1.8-3.2-3.3-5.6-4.9-2.5C529,379.4,533.9,381.8,535.7,378.7z"/>
		<path class="st1" d="M518.8,373.5c1.2-2.2-2.2-4-3.4-1.8S517.6,375.7,518.8,373.5z"/>
		<path class="st1" d="M500.5,367.9c1.3-2.5-1.5-5.2-3.1-2.3C496.1,368,498.9,370.7,500.5,367.9z"/>
		<path class="st1" d="M485.3,361.7c1.4-2.6-2.6-4.2-4-1.6C480,362.6,484,364.2,485.3,361.7z"/>
		<path class="st1" d="M467.3,346.9c0.5-0.7,1.2-2.5,0.1-3.1l-2.1-1.2c-1.1-0.6-2.2,0.6-2.7,1.4c-0.5,0.7-1.2,2.5-0.1,3.1l2.1,1.2
			C465.7,348.9,466.9,347.8,467.3,346.9z"/>
		<path class="st1" d="M452.5,336.5c1.5-2.9-2-6.1-3.8-2.9C447.2,336.4,450.8,339.7,452.5,336.5z"/>
		<path class="st1" d="M438.4,321.7c1.1-2-0.7-5.9-2.2-2.9C435.2,320.6,436.9,324.5,438.4,321.7z"/>
		<path class="st1" d="M555.5,362.1c2.6-4.8-2.7-10-5.8-4.5C547.1,362.4,552.5,367.7,555.5,362.1z"/>
		<path class="st1" d="M540.9,358.9c2.6-4.7-4.8-8.1-7.4-3.5C530.9,360.1,538.3,363.6,540.9,358.9z"/>
		<path class="st1" d="M521.2,353.5c1.2-2.2-0.7-6.6-2.5-3.4C517.5,352.3,519.5,356.8,521.2,353.5z"/>
		<path class="st1" d="M505.4,346c2.1-4-1.5-5.6-3.6-1.8C499.6,348.2,503.3,349.9,505.4,346z"/>
		<path class="st1" d="M495.4,340c3.1-5.6-5.5-10-8.6-4.3C483.7,341.3,492.2,345.8,495.4,340z"/>
		<path class="st1" d="M481.3,331c3.2-5.9-5.8-10.3-9-4.3C469.1,332.5,478.1,336.8,481.3,331z"/>
		<path class="st1" d="M463.8,317.3c2.1-3.9-1.6-6.2-3.9-2.3C457.8,318.9,461.7,321.2,463.8,317.3z"/>
		<path class="st1" d="M455.6,310.4c2.7-4.8-4.1-10.5-6.8-5.3C446.1,309.9,452.8,315.6,455.6,310.4z"/>
		<path class="st1" d="M595.2,309.9c2.5-4.6-3.3-9.3-6-4.2C586.7,310.4,592.4,315.1,595.2,309.9z"/>
		<path class="st1" d="M582.8,328.7c1.4-2.5-1.1-7.2-3.1-3.5C578.4,327.7,580.9,332.3,582.8,328.7z"/>
		<path class="st1" d="M570.3,338.7c1.2-2.1-0.8-6.5-2.6-3.2C566.6,337.8,568.6,342,570.3,338.7z"/>
		<path class="st1" d="M555.1,338.7c1.9-3.4-2.6-7.9-4.7-3.9C548.5,338.3,553,342.7,555.1,338.7z"/>
		<path class="st1" d="M538.5,333.4c2.2-4.1-2-9.3-4.7-4.3C531.6,333.2,535.8,338.4,538.5,333.4z"/>
		<path class="st1" d="M525.5,325.7c1.6-3.1-2.3-6.1-4.2-2.7C519.6,326,523.7,329,525.5,325.7z"/>
		<path class="st1" d="M514.4,317.2c1.3-2.3-2.2-4.5-3.6-2.1C509.6,317.6,513.1,319.7,514.4,317.2z"/>
		<path class="st1" d="M502.2,306.9c1.9-3.5-2.5-7.2-4.6-3.4C495.8,307.1,500.1,310.8,502.2,306.9z"/>
		<path class="st1" d="M491.6,293.2c1.6-3.1-2.8-5.6-4.5-2.5C485.4,293.7,489.9,296.3,491.6,293.2z"/>
		<path class="st1" d="M573.2,304.7c2.2-4.1-4.1-7.6-6.3-3.5C564.5,305.3,570.8,308.8,573.2,304.7z"/>
		<path class="st1" d="M560.9,319.3c0.8-0.5,1.5-1.3,1.9-2.1c0.5-0.8,0.8-1.8,0.7-2.7c0-0.7-0.2-1.4-0.8-1.8l-0.4-0.2
			c-0.6-0.4-1.4-0.1-2,0.2c-0.8,0.5-1.5,1.3-1.9,2.1c-0.5,0.8-0.8,1.8-0.7,2.7c0,0.7,0.2,1.4,0.8,1.8l0.4,0.2
			C559.6,319.9,560.4,319.7,560.9,319.3z"/>
		<path class="st1" d="M549.3,315.4c1.6-2.9-1.8-6.3-3.6-3.1C544,315.2,547.4,318.6,549.3,315.4z"/>
		<path class="st1" d="M535.8,305.8c1.5-2.7-1.3-6.2-3.1-2.9C531.2,305.7,534,309.1,535.8,305.8z"/>
		<path class="st1" d="M528.8,295.3c2.6-4.7-3.8-8.5-6.3-3.8C519.8,296.2,526.2,300,528.8,295.3z"/>
		<path class="st1" d="M520.9,283.8c1.1-1.9-1.3-3.5-2.5-1.5C517.5,284.1,519.7,285.8,520.9,283.8z"/>
		<path class="st1" d="M515.6,269c1.6-2.9-0.5-6.9-2.7-2.8C511.3,269.1,513.4,273.1,515.6,269z"/>
		<path class="st1" d="M554.4,294.8c2.9-5.4-3.8-11.3-6.9-5.4C544.5,294.7,551.2,300.7,554.4,294.8z"/>
		<path class="st1" d="M540.9,279.6c2.3-4.2-3.2-7.8-5.5-3.4C533,280.5,538.5,284,540.9,279.6z"/>
		<path class="st1" d="M533.2,264.3c2.2-4.1-2.8-7.2-5.1-2.9C525.9,265.4,531,268.4,533.2,264.3z"/>
		<path class="st1" d="M615.9,295.4c2.3-4.3-2.3-11.6-5.8-5.6C607.8,294.1,612.6,301.4,615.9,295.4z"/>
		<path class="st1" d="M595.5,289.6c2-3.5-1.5-5.4-3.5-1.9C590.1,291.3,593.5,293.2,595.5,289.6z"/>
		<path class="st1" d="M458.1,614.5c-1.8,3.2-6.1,0.7-4.3-2.6C455.5,608.6,459.9,611.1,458.1,614.5z"/>
		<path class="st1" d="M448.7,575.9c-2.5,4.6-9.6,2.2-6.8-2.8C444.3,568.5,451.5,570.8,448.7,575.9z"/>
		<path class="st1" d="M457.7,555.3c-1.4,2.5-6.6,2.9-4.6-0.6C454.5,552.2,459.7,551.8,457.7,555.3z"/>
		<path class="st1" d="M447.5,601.2c-2.3,4.3-11.2,4.3-7.8-1.8C442.1,595.1,450.9,595.1,447.5,601.2z"/>
		<path class="st1" d="M431.6,587.1c-2,3.5-5.4,1.6-3.4-1.9C430.2,581.6,433.6,583.6,431.6,587.1z"/>
		<path class="st1" d="M579.5,287.2c1.2-2.1,1.9-5.2,0.5-7.4c-1.1-1.6-3.3-2.5-4.5-0.2c-1.2,2.1-1.9,5.2-0.5,7.4
			C576.1,288.6,578.2,289.4,579.5,287.2z"/>
		<path class="st1" d="M566.5,275.5c1.5-2.8-0.4-7.2-2.5-3.2C562.3,275.3,564.2,279.5,566.5,275.5z"/>
		<path class="st1" d="M558.8,263.9c2-3.8-1.5-6-3.6-2.2C553.1,265.4,556.7,267.8,558.8,263.9z"/>
		<path class="st1" d="M556.7,254.7c3.1-5.5-4.6-8.9-7.5-3.5C546.3,256.7,553.8,260.3,556.7,254.7z"/>
		<path class="st1" d="M682.6,285.3c1.5-2.8-1.8-7-3.6-3.4C677.4,284.7,680.7,288.8,682.6,285.3z"/>
		<path class="st1" d="M661.1,280.9c1.8-3.3-2.6-5.8-4.5-2.5C654.9,281.6,659.4,284.1,661.1,280.9z"/>
		<path class="st1" d="M640.8,275.4c1.9-3.4-1.8-6.9-4-2.9C634.9,275.9,638.6,279.5,640.8,275.4z"/>
		<path class="st1" d="M620.1,275.9c1.9-3.4-1.9-7-4.1-3.1C614.1,276.1,617.9,279.9,620.1,275.9z"/>
		<path class="st1" d="M599.3,276.8c1.6-3.1-1.3-9-3.9-4.5C593.8,275.5,596.8,281.4,599.3,276.8z"/>
		<path class="st1" d="M589.6,265.9c1.9-3.5-2.3-8.7-4.7-4.3C583,265.1,587.2,270.3,589.6,265.9z"/>
		<path class="st1" d="M579.1,249.9c1.9-3.4-2.2-7.2-4.2-3.4C573,249.9,577,253.7,579.1,249.9z"/>
		<path class="st1" d="M574.2,236.3c2-3.8-2.5-7.4-4.8-3.1C567.4,237,571.9,240.7,574.2,236.3z"/>
		<path class="st1" d="M588.8,232.6c0.7,0.1,1.4-0.5,1.8-0.9c1.2-1.5,1.6-3.9,1.1-5.8l-0.4-1.1c-0.1-0.6-0.6-1.4-1.3-1.5
			c-0.7-0.1-1.4,0.5-1.8,0.9c-1.2,1.5-1.6,3.9-1.1,5.8c0.1,0.4,0.2,0.7,0.4,1.1C587.7,231.6,588.2,232.4,588.8,232.6z"/>
		<path class="st1" d="M597.9,245.8c2-1.3,2.9-4.1,2.3-6.5c-0.1-0.4-0.2-0.7-0.4-1.1c-0.2-0.9-0.8-2-1.8-2.6c-0.8-0.5-2-0.5-2.8,0
			c-2,1.3-2.9,4.1-2.3,6.5c0.1,0.4,0.2,0.7,0.4,1.1c0.2,0.9,0.8,2,1.8,2.6C596.1,246.3,597.1,246.3,597.9,245.8z"/>
		<path class="st1" d="M607.9,256.4c1.3-2.5-2.1-4.6-3.5-2.1C603.1,256.7,606.5,258.9,607.9,256.4z"/>
		<path class="st1" d="M625.2,261.7c2.1-3.8-1.9-10.3-4.6-5.3C618.5,260.2,622.4,266.7,625.2,261.7z"/>
		<path class="st1" d="M645.2,257.6c2.8-5.2-4.5-8.5-7.3-3.3C635.1,259.4,642.3,262.6,645.2,257.6z"/>
		<path class="st1" d="M665.9,261.6c0.9-1.6-1.1-4-2.2-2C662.8,261.2,664.8,263.7,665.9,261.6z"/>
		<path class="st1" d="M681.1,254.3c0.9-1.6-0.2-7.3-1.8-4.3C678.4,251.5,679.6,257.1,681.1,254.3z"/>
		<path class="st1" d="M672.2,232.9c1.8-3.2-2.2-6.6-4.1-3.2C666.3,232.9,670.3,236.4,672.2,232.9z"/>
		<path class="st1" d="M650.9,235.1c1.9-3.5-3.3-6.3-5.2-2.8C643.7,235.8,648.9,238.7,650.9,235.1z"/>
		<path class="st1" d="M627.3,237.1c0.8-1.4-0.4-4.5-1.6-2.2C624.8,236.4,626,239.5,627.3,237.1z"/>
		<path class="st1" d="M613.3,222.9c1.2-2.1-1.5-4.3-2.8-2C609.3,223,612,225.3,613.3,222.9z"/>
		<path class="st1" d="M630.4,206c3.1-5.5-2.6-8.2-5.6-2.7C621.8,208.7,627.4,211.4,630.4,206z"/>
		<path class="st1" d="M653.7,213.6c2-3.8-2.8-7.2-5.1-3.2C646.7,214.2,651.5,217.8,653.7,213.6z"/>
		<path class="st1" d="M653.1,193.7c2.8-5.2-2.3-8.3-5.3-3.2C645,195.7,650.2,198.8,653.1,193.7z"/>
		<path class="st1" d="M389.8,571c-2,3.8-5.9,1.9-3.8-1.9C388.1,565.4,391.9,567.2,389.8,571z"/>
		<path class="st1" d="M381,574.2c-3.1,5.5-10,0.9-7-4.5C377,564.2,383.9,568.7,381,574.2z"/>
		<path class="st1" d="M474.7,663.6c-1.5,2.8-6.8,2.3-4.9-1.3C471.4,659.6,476.7,660.1,474.7,663.6z"/>
		<path class="st1" d="M459.3,647.9c-1.8,3.3-6.2,0.9-4.5-2.3C456.6,642.2,461.2,644.6,459.3,647.9z"/>
		<path class="st1" d="M443.8,633.6c-1.9,3.4-6.8,2.2-4.6-1.8C441,628.5,446.1,629.6,443.8,633.6z"/>
		<path class="st1" d="M433,616.1c-1.9,3.4-6.9,2.2-4.8-1.8C430,611,435.2,612.1,433,616.1z"/>
		<path class="st1" d="M422.6,598.1c-1.6,3.1-8.3,3.8-5.8-0.8C418.5,594.2,425.1,593.5,422.6,598.1z"/>
		<path class="st1" d="M408.1,595.8c-1.9,3.5-8.6,2.7-6.2-1.6C403.9,590.7,410.5,591.5,408.1,595.8z"/>
		<path class="st1" d="M389.1,595.6c-1.9,3.4-7.2,2-5.2-1.8C385.7,590.5,391.1,591.8,389.1,595.6z"/>
		<path class="st1" d="M374.9,598.9c-2,3.8-7.5,1.9-5.2-2.3C371.8,592.8,377.2,594.6,374.9,598.9z"/>
		<path class="st1" d="M379.6,613.2c0.5,0.5,0.4,1.4,0.2,2c-0.7,1.9-2.3,3.5-4.2,4l-1.1,0.4c-0.6,0.1-1.5,0.2-2-0.4
			c-0.5-0.5-0.4-1.4-0.2-2c0.7-1.9,2.3-3.5,4.2-4c0.4-0.1,0.7-0.2,1.1-0.4C378.3,612.7,379.1,612.7,379.6,613.2z"/>
		<path class="st1" d="M395.7,613.8c0,2.3-1.9,4.8-4.1,5.4c-0.4,0.1-0.7,0.2-1.1,0.4c-0.9,0.2-2.1,0.4-3.2-0.1
			c-0.8-0.5-1.4-1.4-1.5-2.5c0-2.3,1.9-4.8,4.1-5.4c0.4-0.1,0.7-0.2,1.1-0.4c0.9-0.2,2.1-0.4,3.2,0.1
			C395.1,611.8,395.7,612.7,395.7,613.8z"/>
		<path class="st1" d="M410,616.4c-1.3,2.5-5.1,0.7-3.6-1.8C407.7,612.1,411.3,613.9,410,616.4z"/>
		<path class="st1" d="M423.9,628c-2.1,3.8-9.7,4.1-6.9-0.9C418.9,623.2,426.6,623,423.9,628z"/>
		<path class="st1" d="M431.2,647.1c-2.8,5.2-9.5,0.7-6.7-4.3C427.3,637.5,434,642,431.2,647.1z"/>
		<path class="st1" d="M445.7,662.4c-0.9,1.6-4,1.3-2.8-0.8C443.8,659.9,446.9,660.3,445.7,662.4z"/>
		<path class="st1" d="M447.7,679.1c-0.9,1.6-6.2,3.8-4.7,0.9C444.1,678.3,449.4,676.2,447.7,679.1z"/>
		<path class="st1" d="M425.1,683.1c-1.8,3.2-6.8,1.8-4.9-1.8C421.9,678.3,426.9,679.7,425.1,683.1z"/>
		<path class="st1" d="M415.3,664.1c-1.9,3.5-7.2,0.7-5.2-2.8C412.1,657.6,417.3,660.4,415.3,664.1z"/>
		<path class="st1" d="M404.4,643c-0.8,1.4-4,2.1-2.7-0.2C402.4,641.5,405.6,640.8,404.4,643z"/>
		<path class="st1" d="M384.8,639c-1.2,2.1-4.5,1.1-3.2-1.3C382.8,635.6,386.1,636.7,384.8,639z"/>
		<path class="st1" d="M369.1,639.6c-2.1,3.8-6.2,1.5-4.1-2.2C367,633.5,371.1,635.9,369.1,639.6z"/>
		<path class="st1" d="M379.7,662.5c-3.1,5.5-8.3,2.2-5.3-3.2C377.5,653.8,382.8,657.1,379.7,662.5z"/>
		<path class="st1" d="M398.9,677.9c-2,3.8-7.5,1.5-5.4-2.6C395.5,671.7,401,673.9,398.9,677.9z"/>
		<path class="st1" d="M381.7,688.3c-2.8,5.2-8.3,2.6-5.5-2.7C379,680.5,384.5,683.1,381.7,688.3z"/>
		<path class="st1" d="M472.9,488.8c-1.8,3.2-6.5,0.4-4.8-2.8C469.9,482.7,474.6,485.7,472.9,488.8z"/>
		<path class="st1" d="M459.5,477.3c-1.2,2.2-4.6,0.4-3.4-1.9C457.2,473.3,460.6,475.2,459.5,477.3z"/>
		<path class="st1" d="M444.8,465c-1.3,2.5-5.2,1.5-3.6-1.3C442.4,461.2,446.3,462.2,444.8,465z"/>
		<path class="st1" d="M431.4,455.6c-1.4,2.6-4.9,0.1-3.5-2.3C429.3,450.7,432.8,453.1,431.4,455.6z"/>
		<path class="st1" d="M409.2,448.4c-0.4,0.7-1.5,2.3-2.6,1.8l-2.1-1.2c-1.1-0.6-0.7-2.2-0.4-3.1c0.4-0.7,1.5-2.3,2.6-1.8l2.1,1.2
			C410,446,409.7,447.6,409.2,448.4z"/>
		<path class="st1" d="M392.4,441.6c-1.5,2.9-6.2,1.6-4.5-1.5C389.6,437.1,394.2,438.4,392.4,441.6z"/>
		<path class="st1" d="M372.4,437.9c-1.1,2-5.3,2.6-3.8-0.2C369.7,435.6,374,434.9,372.4,437.9z"/>
		<path class="st1" d="M469.7,514.4c-2.6,4.8-9.9,3.2-6.8-2.5C465.5,507.1,472.7,508.8,469.7,514.4z"/>
		<path class="st1" d="M459.1,503.7c-2.6,4.7-9.4,0.2-6.9-4.3C454.8,494.7,461.6,499.2,459.1,503.7z"/>
		<path class="st1" d="M444,490.1c-1.2,2.2-6,2.9-4.2-0.2C440.9,487.8,445.7,486.9,444,490.1z"/>
		<path class="st1" d="M429,481c-2.1,4-5.5,1.8-3.4-2.1C427.8,474.8,431.2,477,429,481z"/>
		<path class="st1" d="M418.6,475.8c-3.1,5.6-11.4,0.8-8.3-4.9C413.3,465.2,421.6,470,418.6,475.8z"/>
		<path class="st1" d="M403.3,468.9c-3.2,5.9-11.7,0.7-8.6-5.2C398,457.8,406.6,462.9,403.3,468.9z"/>
		<path class="st1" d="M382.4,461.5c-2.1,3.9-6.2,2-4-2C380.4,455.6,384.5,457.6,382.4,461.5z"/>
		<path class="st1" d="M372.2,458.3c-2.7,4.8-11,2.2-8.2-2.9C366.7,450.5,375,453.2,372.2,458.3z"/>
		<path class="st1" d="M458.1,539.4c-1.2,2.1-5.9,2.8-4.1-0.5C455.1,536.9,459.8,536.2,458.1,539.4z"/>
		<path class="st1" d="M449.8,526.8c-1.9,3.4-8,2.1-5.9-1.9C445.8,521.5,451.9,522.8,449.8,526.8z"/>
		<path class="st1" d="M436.3,515.6c-2.2,4.1-8.9,3.3-6.2-1.5C432.3,510,439,510.7,436.3,515.6z"/>
		<path class="st1" d="M422.8,508.9c-1.6,3.1-6.3,1.3-4.6-2C420,503.7,424.7,505.5,422.8,508.9z"/>
		<path class="st1" d="M409.8,504.1c-1.3,2.3-5.1,0.6-3.8-1.9C407.3,499.9,411.1,501.7,409.8,504.1z"/>
		<path class="st1" d="M394.4,499.4c-1.9,3.5-7.4,1.9-5.3-2C391.1,493.9,396.5,495.5,394.4,499.4z"/>
		<path class="st1" d="M377.1,498c-1.6,3.1-6.2,0.7-4.5-2.5C374.3,492.5,378.8,494.8,377.1,498z"/>
		<path class="st1" d="M366.3,497.6c-2.2,4-10.7,4.8-7.5-1.1C361,492.6,369.5,491.8,366.3,497.6z"/>
		<path class="st1" d="M430.8,560.2c-2.2,4.1-8.7,0.7-6.5-3.4C426.7,552.7,433.2,556.1,430.8,560.2z"/>
		<path class="st1" d="M436.7,542c0,0.9-0.4,2-0.7,2.7c-0.5,0.8-1.1,1.6-1.9,2.1c-0.6,0.4-1.3,0.6-2,0.2l-0.4-0.2
			c-0.6-0.4-0.8-1.2-0.8-1.8c0-0.9,0.4-2,0.7-2.7c0.5-0.8,1.1-1.6,1.9-2.1c0.6-0.4,1.3-0.6,2-0.2l0.4,0.2
			C436.4,540.6,436.7,541.4,436.7,542z"/>
		<path class="st1" d="M426.9,534.4c-1.6,2.9-6.3,1.9-4.5-1.4C424,530.2,428.8,531.1,426.9,534.4z"/>
		<path class="st1" d="M411.8,528.3c-1.5,2.7-6,2.2-4.1-1.1C409.1,524.5,413.5,525,411.8,528.3z"/>
		<path class="st1" d="M399,528.1c-2.6,4.7-9.2,1.4-6.6-3.3C395,520.1,401.6,523.4,399,528.1z"/>
		<path class="st1" d="M385,527.6c-1.1,1.9-3.6,0.8-2.6-1.3C383.5,524.5,386.2,525.6,385,527.6z"/>
		<path class="st1" d="M369.7,531.2c-1.6,2.9-6.1,3.3-3.9-0.7C367.5,527.5,372,527.1,369.7,531.2z"/>
		<path class="st1" d="M412.4,549.8c-2.9,5.4-11.5,2.9-8.3-2.9C407,541.6,415.5,543.9,412.4,549.8z"/>
		<path class="st1" d="M392.3,546.6c-2.3,4.2-8.2,1.5-5.9-2.8C388.8,539.6,394.7,542.3,392.3,546.6z"/>
		<path class="st1" d="M375.4,548.6c-2.2,4.1-7.5,1.5-5.3-2.7C372.3,541.8,377.6,544.4,375.4,548.6z"/>
		<path class="st1" d="M419.5,575c-1.2,2.1-3.4,4.3-6,4.3c-2,0-3.8-1.4-2.6-3.5s3.4-4.3,6-4.3C418.9,571.5,420.8,572.9,419.5,575z"
			/>
		<path class="st1" d="M402.7,570.5c-1.5,2.8-6.2,3.6-4-0.5C400.4,567.2,405,566.3,402.7,570.5z"/>
		<path class="st1" d="M158.3,239.5c-4.2,0-5.3,5.6-0.4,5.6C162.2,245.1,163.3,239.5,158.3,239.5z"/>
	</g>
</g>
</svg>
