<?xml version="1.0" encoding="utf-8"?>
<!-- Generator: Adobe Illustrator 21.1.0, SVG Export Plug-In . SVG Version: 6.00 Build 0)  -->
<svg version="1.1" xmlns="http://www.w3.org/2000/svg" xmlns:xlink="http://www.w3.org/1999/xlink" x="0px" y="0px"
	 viewBox="0 0 700 700" style="enable-background:new 0 0 700 700;" xml:space="preserve">
<style type="text/css">
	.st0{fill:#D20CF4;}
	.st1{fill:#FC7315;}
</style>
<g id="circle">
	<circle id="circle" class="st0" cx="350" cy="350" r="298"/>
</g>
<g id="spots">
	<g>
		<path class="st1" d="M341.5,58.8"/>
		<line class="st1" x1="506.9" y1="128.5" x2="506.9" y2="128.5"/>
		<path class="st1" d="M316.5,167c-3.5,0-3.7,4.5-0.2,4.5C319.9,171.5,320.1,167,316.5,167z"/>
		<path class="st1" d="M310.9,157.2c-5.9,0-5.1,7.9,0.8,7.9C317.6,165.1,316.7,157.2,310.9,157.2z"/>
		<path class="st1" d="M300.7,150.3c-4.7,0-5.3,6.2-0.3,6.2C305.1,156.5,305.7,150.3,300.7,150.3z"/>
		<path class="st1" d="M292.3,144.2c-5.1,0-5.6,5.1-0.4,5.1S297.6,144.2,292.3,144.2z"/>
		<path class="st1" d="M282.8,138.6c-5.7,0-9.3,8.1-2,8.1C286.5,146.8,290.1,138.6,282.8,138.6z"/>
		<path class="st1" d="M270.6,138c-3.5,0-4.2,5-0.7,5S274.1,138,270.6,138z"/>
		<path class="st1" d="M261,135.7c-3.9,0-6.2,4.5-1.3,4.5C263.5,140.2,265.9,135.7,261,135.7z"/>
		<path class="st1" d="M250,131.3c-5.1,0-8,7.3-1.7,7.3C253.4,138.6,256.3,131.3,250,131.3z"/>
		<path class="st1" d="M235,129.8c-3.6,0-4,3.7-0.2,3.7C238.4,133.5,238.7,129.8,235,129.8z"/>
		<path class="st1" d="M223.1,128.9c-3.3,0-4.2,4.1-0.5,4.1C226,133,226.9,128.9,223.1,128.9z"/>
		<path class="st1" d="M212.6,126.2c-6.5,0-7.7,8.6-0.8,8.6C218.2,134.9,219.5,126.2,212.6,126.2z"/>
		<path class="st1" d="M198.3,127.1c-4.9,0-4.2,7,0.7,7C203.8,134,203.1,127.1,198.3,127.1z"/>
		<path class="st1" d="M187.7,129.7c-5.4,0-5.1,5.4,0.3,5.4C193.4,135.1,193.1,129.7,187.7,129.7z"/>
		<path class="st1" d="M309.8,182.5c-4.6,0-4,6.5,0.6,6.5C315,189.1,314.4,182.5,309.8,182.5z"/>
		<path class="st1" d="M305.2,175.5c-4.2,0-4.1,4.4,0.1,4.4C309.5,179.9,309.4,175.5,305.2,175.5z"/>
		<path class="st1" d="M299.7,167.2c-3.2,0-3.1,4.1,0.1,4.1C303,171.3,302.9,167.2,299.7,167.2z"/>
		<path class="st1" d="M292.5,161.6c-2.4,0-5,3.4-1.5,3.4C293.4,165,296,161.6,292.5,161.6z"/>
		<path class="st1" d="M281.2,155.7c-5.2,0-6.8,7.1-1.2,7.1C285.2,162.9,286.8,155.7,281.2,155.7z"/>
		<path class="st1" d="M271.3,152.5c-3.8,0-5.6,5.5-1.3,5.5C273.8,158,275.6,152.5,271.3,152.5z"/>
		<path class="st1" d="M259.9,148.5c-5.8,0-8,8.3-1.5,8.3C264.2,156.8,266.4,148.5,259.9,148.5z"/>
		<path class="st1" d="M250.4,147.9c-4.5,0-5.5,6.5-0.9,6.5S255,147.9,250.4,147.9z"/>
		<path class="st1" d="M239.4,147.2c-4.4,0-3.9,5,0.5,5C244.3,152.2,243.7,147.2,239.4,147.2z"/>
		<path class="st1" d="M225.8,146.6c-3.2,0-3.9,4-0.3,4C228.7,150.6,229.4,146.6,225.8,146.6z"/>
		<path class="st1" d="M214.6,146.9c-3.3,0-3.4,4.1-0.1,4.1C217.8,151,217.9,146.9,214.6,146.9z"/>
		<path class="st1" d="M203.3,146.1c-3,0-2.8,2.7,0.2,2.7C206.5,148.9,206.3,146.1,203.3,146.1z"/>
		<path class="st1" d="M189.7,145.8c-5,0-4.6,7.2,0.4,7.2C195.1,152.9,194.7,145.8,189.7,145.8z"/>
		<path class="st1" d="M294.5,192.2c-3.9,0-4.8,5.6-0.7,5.6C297.7,197.8,298.7,192.2,294.5,192.2z"/>
		<path class="st1" d="M292,181.1c-4.8,0-7.1,5.7-1.3,5.7C295.5,186.8,297.8,181.1,292,181.1z"/>
		<path class="st1" d="M281.8,173.2c-5.3,0-7.7,6.9-1.6,6.9C285.5,180,287.9,173.2,281.8,173.2z"/>
		<path class="st1" d="M269,171.5c-2.9,0-2.9,2.8,0.1,2.8C272,174.3,272,171.5,269,171.5z"/>
		<path class="st1" d="M257.9,164.5c-4.6,0-7,6.5-1.5,6.5C260.9,171,263.4,164.5,257.9,164.5z"/>
		<path class="st1" d="M245.4,162.4H245c-2.3,0-4.8,1.3-5,3.6c-0.2,2,1.4,4.2,3.8,4.2h0.4c2.3,0,4.8-1.3,5-3.6
			C249.4,164.5,247.8,162.4,245.4,162.4z"/>
		<path class="st1" d="M230.8,162.4c-2.8,0-3.9,4.1-0.7,4.1C232.9,166.5,234,162.4,230.8,162.4z"/>
		<path class="st1" d="M213.9,163.3c-1.2,0-2.5,0.1-3.6,0.6c-0.7,0.4-1.6,0.9-1.6,1.8v0.7c0,2,3.3,2.7,4.9,2.7
			c1.2,0,2.5-0.1,3.6-0.6c0.7-0.4,1.6-0.9,1.6-1.8V166C218.8,164.1,215.5,163.4,213.9,163.3z"/>
		<path class="st1" d="M197.3,167.4c-3.1,0-3.1,4.3,0.1,4.3C200.6,171.7,200.6,167.4,197.3,167.4z"/>
		<path class="st1" d="M270.3,185.5c-5.6,0-5.6,8,0,8C275.8,193.5,275.9,185.5,270.3,185.5z"/>
		<path class="st1" d="M260.8,180.2c-4.2,0-4.7,5.4-0.2,5.4C264.8,185.5,265.3,180.2,260.8,180.2z"/>
		<path class="st1" d="M247.9,178.9c-3,0-2.8,2.8,0.2,2.8C251.1,181.7,250.9,178.9,247.9,178.9z"/>
		<path class="st1" d="M240.2,177.8c-1.3-1.1-3.7-1.3-5.1-0.1c-0.1,0.1-0.3,0.2-0.4,0.4c-1.2,1.2-1.5,3.1-0.1,4.2
			c1.3,1.1,3.7,1.3,5.1,0.1c0.1-0.1,0.3-0.2,0.4-0.4C241.4,180.9,241.6,179,240.2,177.8z"/>
		<path class="st1" d="M220.1,177.7c-3.6,0-5.8,5.2-1.4,5.2C222.3,182.9,224.5,177.7,220.1,177.7z"/>
		<path class="st1" d="M305.7,135.7c-5.2,0-5.2,5.1,0,5.1C310.9,140.8,310.9,135.7,305.7,135.7z"/>
		<path class="st1" d="M294.7,125.8c-4.6,0-10.6,6.5-3.6,6.5C295.8,132.4,301.8,125.8,294.7,125.8z"/>
		<path class="st1" d="M276.1,121.2c-3.3,0-6.9,4.7-2.1,4.7C277.3,125.9,280.9,121.2,276.1,121.2z"/>
		<path class="st1" d="M261.5,117.7c-5.8,0-5.9,6.6-0.1,6.6C267.2,124.3,267.4,117.7,261.5,117.7z"/>
		<path class="st1" d="M230.4,112.5c-5.5,0-5.3,6.8,0.2,6.8C236.1,119.2,235.9,112.5,230.4,112.5z"/>
		<path class="st1" d="M215,112.8c-2.7,0-4.3,3.1-0.9,3.1C216.7,115.9,218.3,112.8,215,112.8z"/>
		<path class="st1" d="M197.3,110.7c-6.4,0-6.2,5.2,0.2,5.2C203.9,115.8,203.7,110.7,197.3,110.7z"/>
		<path class="st1" d="M290.3,111c-3.6,0-5.2,4.5-1,4.5C292.9,115.5,294.5,111,290.3,111z"/>
		<path class="st1" d="M273.2,104.1c-0.7-0.1-1.3-0.2-2-0.4c-1.4-0.3-3,0.1-3.7,1.3c-0.6,1-0.2,2.5,1.2,2.8c0.7,0.1,1.3,0.2,2,0.4
			c1.4,0.3,3-0.1,3.7-1.3C274.9,105.9,274.6,104.4,273.2,104.1z"/>
		<path class="st1" d="M249.9,101c-3,0-4.1,3.9-0.7,3.9C252.2,104.9,253.3,101,249.9,101z"/>
		<path class="st1" d="M235.1,99c-3.6,0-4.3,5-0.6,5C238.1,103.9,238.9,99,235.1,99z"/>
		<path class="st1" d="M217.5,98.4c-2.8,0-5.9,4-1.9,4C218.4,102.3,221.5,98.4,217.5,98.4z"/>
		<path class="st1" d="M245.4,115.2c-3.9,0-6.2,4.5-1.3,4.5C248,119.6,250.3,115.2,245.4,115.2z"/>
		<ellipse class="st1" cx="351.3" cy="159.2" rx="17.3" ry="5.8"/>
		<ellipse class="st1" cx="351.3" cy="177.7" rx="12.5" ry="4.5"/>
		<ellipse class="st1" cx="351.3" cy="195" rx="7.8" ry="2.8"/>
		<path class="st1" d="M325.6,176.6c-3.3,0-4.4,4.4-0.8,4.4C328.1,181,329.2,176.6,325.6,176.6z"/>
		<path class="st1" d="M331.2,188.3c-3.5,0-5.2,3.9-0.8,3.9C333.9,192.1,335.6,188.3,331.2,188.3z"/>
		<path class="st1" d="M316.8,194.1c-4.3,0-8.6,6.2-2.3,6.2C318.8,200.3,323.1,194.1,316.8,194.1z"/>
		<path class="st1" d="M247.6,80.3c0,0,60.9,6.5,79.8,62.8c-1.8,2.8-11.3-30.1-41.2-47C264.3,83.6,250.9,86.2,247.6,80.3z"/>
		<path class="st1" d="M282.8,76c0,0,53.9,17.9,52.9,73.4c-2.6,2.2-0.6-29.9-22.5-51.4C296.9,82.3,283.8,82.1,282.8,76z"/>
		<path class="st1" d="M318.4,70.8c-3.4-0.4-6.7-0.6-10.1-0.4c-1.9,0.1-3.8,1.2-3.9,3.1c-0.1,1.7,1.6,3.2,3.5,3.1
			c2.7-0.2,5.5-0.2,8.2,0.2c1.9,0.2,4-0.3,4.7-2.2C321.4,73.1,320.3,71,318.4,70.8z"/>
		<path class="st1" d="M344.6,70.8c-2.9-0.9-5.8-1.8-8.7-2.7c-3.4-1.1-5.8,3.7-2.3,4.8c2.9,0.9,5.8,1.8,8.7,2.7
			C345.8,76.7,348.2,71.9,344.6,70.8z"/>
		<path class="st1" d="M343.1,84.8c-2.6-2.1-5.7-2.2-9-2.4c-4.8-0.3-9.6-0.5-14.3-0.8c-2.7-0.2-4.4,2.9-1,3.1
			c3.2,0.2,6.4,0.4,9.6,0.5c3,0.2,8.1-0.3,10.6,1.6C340.4,88,345.2,86.4,343.1,84.8z"/>
		<path class="st1" d="M347.1,96.4c-5.8-2.9-12-4.6-18.6-5c-1.8-0.1-4.7,0.6-5.2,2.5s1.7,3,3.5,3.1c5.2,0.3,10,1.6,14.6,3.9
			C344.7,102.7,351.8,98.9,347.1,96.4z"/>
		<path class="st1" d="M386.7,167.7c3.5,0,3.7,4.5,0.2,4.5C383.4,172.2,383.2,167.7,386.7,167.7z"/>
		<path class="st1" d="M392.4,157.9c5.9,0,5.1,7.9-0.8,7.9C385.6,165.8,386.5,157.9,392.4,157.9z"/>
		<path class="st1" d="M402.6,151c4.7,0,5.3,6.2,0.3,6.2C398.1,157.2,397.5,151,402.6,151z"/>
		<path class="st1" d="M410.9,144.9c5.1,0,5.6,5.1,0.4,5.1C406.1,150,405.6,144.9,410.9,144.9z"/>
		<path class="st1" d="M420.4,139.4c5.7,0,9.3,8.1,2,8.1C416.7,147.5,413.1,139.4,420.4,139.4z"/>
		<path class="st1" d="M432.6,138.7c3.5,0,4.2,5,0.7,5C429.8,143.7,429.1,138.7,432.6,138.7z"/>
		<path class="st1" d="M442.2,136.4c3.9,0,6.2,4.5,1.3,4.5C439.7,140.9,437.3,136.4,442.2,136.4z"/>
		<path class="st1" d="M453.2,132c5.1,0,8,7.3,1.7,7.3C449.8,139.3,446.9,132,453.2,132z"/>
		<path class="st1" d="M468.3,130.5c3.6,0,4,3.7,0.2,3.7C464.8,134.2,464.5,130.5,468.3,130.5z"/>
		<path class="st1" d="M480.1,129.6c3.3,0,4.2,4.1,0.5,4.1C477.3,133.7,476.3,129.6,480.1,129.6z"/>
		<path class="st1" d="M490.7,127c6.5,0,7.7,8.6,0.8,8.6C485,135.6,483.7,127,490.7,127z"/>
		<path class="st1" d="M504.9,127.8c4.9,0,4.2,7-0.7,7C499.4,134.8,500.1,127.8,504.9,127.8z"/>
		<path class="st1" d="M515.5,130.4c5.4,0,5.1,5.4-0.3,5.4C509.8,135.8,510.1,130.4,515.5,130.4z"/>
		<path class="st1" d="M393.4,183.2c4.6,0,4,6.5-0.6,6.5C388.2,189.8,388.8,183.2,393.4,183.2z"/>
		<path class="st1" d="M398,176.2c4.2,0,4.1,4.4-0.1,4.4C393.7,180.6,393.8,176.2,398,176.2z"/>
		<path class="st1" d="M403.5,167.9c3.2,0,3.1,4.1-0.1,4.1C400.2,172,400.3,167.9,403.5,167.9z"/>
		<path class="st1" d="M410.7,162.4c2.4,0,5,3.4,1.5,3.4C409.9,165.7,407.2,162.4,410.7,162.4z"/>
		<path class="st1" d="M422,156.4c5.2,0,6.8,7.1,1.2,7.1C418,163.6,416.4,156.4,422,156.4z"/>
		<path class="st1" d="M431.9,153.2c3.8,0,5.6,5.5,1.3,5.5C429.4,158.7,427.6,153.2,431.9,153.2z"/>
		<path class="st1" d="M443.4,149.2c5.8,0,8,8.3,1.5,8.3C439,157.5,436.9,149.2,443.4,149.2z"/>
		<path class="st1" d="M452.8,148.6c4.5,0,5.5,6.5,0.9,6.5C449.1,155.2,448.2,148.6,452.8,148.6z"/>
		<path class="st1" d="M463.9,147.9c4.4,0,3.9,5-0.5,5C458.9,152.9,459.5,147.9,463.9,147.9z"/>
		<path class="st1" d="M477.4,147.3c3.2,0,3.9,4,0.3,4C474.5,151.3,473.8,147.3,477.4,147.3z"/>
		<path class="st1" d="M488.6,147.6c3.3,0,3.4,4.1,0.1,4.1C485.4,151.7,485.3,147.6,488.6,147.6z"/>
		<path class="st1" d="M499.9,146.8c3,0,2.8,2.7-0.2,2.7C496.7,149.6,496.9,146.8,499.9,146.8z"/>
		<path class="st1" d="M513.6,146.5c5,0,4.6,7.2-0.4,7.2C508.1,153.6,508.5,146.5,513.6,146.5z"/>
		<path class="st1" d="M408.7,192.9c3.9,0,4.8,5.6,0.7,5.6C405.5,198.5,404.6,192.9,408.7,192.9z"/>
		<path class="st1" d="M411.2,181.8c4.8,0,7.1,5.7,1.3,5.7C407.7,187.5,405.4,181.8,411.2,181.8z"/>
		<path class="st1" d="M421.4,173.9c5.3,0,7.7,6.9,1.6,6.9C417.7,180.7,415.3,173.9,421.4,173.9z"/>
		<path class="st1" d="M434.2,172.2c2.9,0,2.9,2.8-0.1,2.8C431.2,175,431.2,172.2,434.2,172.2z"/>
		<path class="st1" d="M445.3,165.2c4.6,0,7,6.5,1.5,6.5C442.3,171.7,439.9,165.2,445.3,165.2z"/>
		<path class="st1" d="M457.8,163.1h0.4c2.3,0,4.8,1.3,5,3.6c0.2,2-1.4,4.2-3.8,4.2H459c-2.3,0-4.8-1.3-5-3.6
			C453.8,165.2,455.4,163.1,457.8,163.1z"/>
		<path class="st1" d="M472.4,163.1c2.8,0,3.9,4.1,0.7,4.1C470.3,167.2,469.2,163.1,472.4,163.1z"/>
		<path class="st1" d="M489.4,164c1.2,0,2.5,0.1,3.6,0.6c0.7,0.4,1.6,0.9,1.6,1.8v0.7c0,2-3.3,2.7-4.9,2.7c-1.2,0-2.5-0.1-3.6-0.6
			c-0.7-0.4-1.6-0.9-1.6-1.8v-0.7C484.4,164.8,487.7,164.1,489.4,164z"/>
		<path class="st1" d="M505.9,168.1c3.1,0,3.1,4.3-0.1,4.3C502.6,172.4,502.7,168.1,505.9,168.1z"/>
		<path class="st1" d="M432.9,186.2c5.6,0,5.6,8,0,8C427.4,194.2,427.3,186.2,432.9,186.2z"/>
		<path class="st1" d="M442.4,180.9c4.2,0,4.7,5.4,0.2,5.4C438.4,186.2,437.9,180.9,442.4,180.9z"/>
		<path class="st1" d="M455.3,179.6c3,0,2.8,2.8-0.2,2.8C452.1,182.4,452.3,179.6,455.3,179.6z"/>
		<path class="st1" d="M463,178.5c1.3-1.1,3.7-1.3,5.1-0.1c0.1,0.1,0.3,0.2,0.4,0.4c1.2,1.2,1.5,3.1,0.1,4.2
			c-1.3,1.1-3.7,1.3-5.1,0.1c-0.1-0.1-0.3-0.2-0.4-0.4C461.8,181.6,461.6,179.7,463,178.5z"/>
		<path class="st1" d="M483.1,178.4c3.6,0,5.8,5.2,1.4,5.2C480.9,183.6,478.7,178.4,483.1,178.4z"/>
		<path class="st1" d="M397.5,136.5c5.2,0,5.2,5.1,0,5.1C392.3,141.5,392.3,136.5,397.5,136.5z"/>
		<path class="st1" d="M408.5,126.5c4.6,0,10.6,6.5,3.6,6.5C407.4,133.1,401.4,126.5,408.5,126.5z"/>
		<path class="st1" d="M427.1,121.9c3.3,0,6.9,4.7,2.1,4.7C425.9,126.6,422.3,121.9,427.1,121.9z"/>
		<path class="st1" d="M441.7,118.4c5.8,0,5.9,6.6,0.1,6.6C436,125,435.9,118.4,441.7,118.4z"/>
		<path class="st1" d="M472.8,113.2c5.5,0,5.3,6.8-0.2,6.8C467.1,119.9,467.3,113.2,472.8,113.2z"/>
		<path class="st1" d="M488.2,113.5c2.7,0,4.3,3.1,0.9,3.1C486.5,116.6,484.9,113.5,488.2,113.5z"/>
		<path class="st1" d="M505.9,111.4c6.4,0,6.2,5.2-0.2,5.2C499.3,116.5,499.5,111.4,505.9,111.4z"/>
		<path class="st1" d="M413,111.7c3.6,0,5.2,4.5,1,4.5C410.3,116.2,408.7,111.7,413,111.7z"/>
		<path class="st1" d="M430.1,104.8c0.7-0.1,1.3-0.2,2-0.4c1.4-0.3,3,0.1,3.7,1.3c0.6,1,0.2,2.5-1.2,2.8c-0.7,0.1-1.3,0.2-2,0.4
			c-1.4,0.3-3-0.1-3.7-1.3C428.3,106.6,428.6,105.1,430.1,104.8z"/>
		<path class="st1" d="M453.3,101.7c3,0,4.1,3.9,0.7,3.9C451,105.6,449.9,101.7,453.3,101.7z"/>
		<path class="st1" d="M468.1,99.7c3.6,0,4.3,5,0.6,5C465.1,104.6,464.3,99.7,468.1,99.7z"/>
		<path class="st1" d="M485.7,99.1c2.8,0,5.9,4,1.9,4C484.8,103,481.7,99.1,485.7,99.1z"/>
		<path class="st1" d="M457.8,115.9c3.9,0,6.2,4.5,1.3,4.5C455.3,120.3,452.9,115.9,457.8,115.9z"/>
		<path class="st1" d="M377.6,177.3c3.3,0,4.4,4.4,0.8,4.4C375.1,181.7,374,177.3,377.6,177.3z"/>
		<path class="st1" d="M372.1,189c3.5,0,5.2,3.9,0.8,3.9C369.4,192.8,367.7,189,372.1,189z"/>
		<path class="st1" d="M386.4,194.8c4.3,0,8.6,6.2,2.3,6.2C384.4,201,380.2,194.8,386.4,194.8z"/>
		<path class="st1" d="M455.6,81c0,0-60.9,6.5-79.8,62.8c1.8,2.8,11.3-30.1,41.2-47C439,84.3,452.4,86.9,455.6,81z"/>
		<path class="st1" d="M420.5,76.7c0,0-53.9,17.9-52.9,73.4c2.6,2.2,0.6-29.9,22.5-51.4C406.3,83,419.4,82.8,420.5,76.7z"/>
		<path class="st1" d="M384.8,71.5c3.4-0.4,6.7-0.6,10.1-0.4c1.9,0.1,3.8,1.2,3.9,3.1c0.1,1.7-1.6,3.2-3.5,3.1
			c-2.7-0.2-5.5-0.2-8.2,0.2c-1.9,0.2-4-0.3-4.7-2.2C381.9,73.8,382.9,71.7,384.8,71.5z"/>
		<path class="st1" d="M358.6,71.5c2.9-0.9,5.8-1.8,8.7-2.7c3.4-1.1,5.8,3.7,2.3,4.8c-2.9,0.9-5.8,1.8-8.7,2.7
			C357.5,77.4,355.1,72.6,358.6,71.5z"/>
		<path class="st1" d="M360.1,85.5c2.6-2.1,5.7-2.2,9-2.4c4.8-0.3,9.6-0.5,14.3-0.8c2.7-0.2,4.4,2.9,1,3.1c-3.2,0.2-6.4,0.4-9.6,0.5
			c-3,0.2-8.1-0.3-10.6,1.6C362.8,88.7,358,87.1,360.1,85.5z"/>
		<path class="st1" d="M356.2,97.2c5.8-2.9,12-4.6,18.6-5c1.8-0.1,4.7,0.6,5.2,2.5s-1.7,3-3.5,3.1c-5.2,0.3-10,1.6-14.6,3.9
			C358.5,103.5,351.4,99.6,356.2,97.2z"/>
		<path class="st1" d="M364.3,114.4c-1.7,0.3-3.9,1.1-5.4,1.9c-2.2,1.3-5.6,1.4-7.5-0.6c-0.1-0.1-0.1-0.1-0.2-0.2
			c-1.9,1.4-4.9,1.3-6.9,0.1c-1.5-0.9-3.7-1.6-5.4-1.9c-2.5-0.4-4.8-2.4-4.2-5c0.6-2.4,3.7-3.9,6.2-3.5c3.7,0.6,7.1,1.9,10.3,3.7
			c0.3,0.2,0.6,0.4,0.8,0.6c3.2-1.8,6.5-3,10.2-3.7c2.6-0.4,5.7,1.1,6.2,3.5C369.1,112,366.8,114,364.3,114.4z"/>
		<path class="st1" d="M359.8,124.4c0.1,0.9-0.3,1.5-1,2c-1.8,1.3-4.9,1-6.8,0.3c-0.4-0.1-0.8-0.3-1.2-0.5c-2,0.6-4.7,0.8-6.3-0.4
			c-0.7-0.5-1.1-1.1-1-2s1.1-1.6,1.9-2.1c0.5-0.3,1.2-0.6,1.8-0.8c1.1-0.6,2.3-0.9,3.6-0.9c1.3-0.1,2.9,0.2,3.7,1
			c0.6,0.2,1.1,0.4,1.7,0.6c0.7,0.2,1.3,0.4,1.8,0.8C358.7,122.8,359.7,123.5,359.8,124.4z"/>
		<path class="st1" d="M357.4,134.5c0.1,2.2-1.5,3.9-3.4,4.9c-1.1,0.5-2.5,0.3-3.5-0.4c-0.4,0-0.8-0.1-1.2-0.3
			c-1.9-1-3.5-2.7-3.4-4.9c0.1-1.7,1.1-2.9,3-3.1c1.1-0.1,2.5,0.5,3.2,1.4c0.7-0.5,1.6-0.8,2.4-0.7
			C356.3,131.6,357.3,132.8,357.4,134.5z"/>
		<path class="st1" d="M227.8,387.4c-4.8,3.3,4.1,1.7,13.2-1.9c27.4-10.9,60.2-38.3,73-69.3c8.2-19.8,10.7-61.9,4.7-83
			c-1.4-4.8-4.9-20.3-5.5-13.2C316.5,265.9,332.7,339.9,227.8,387.4z"/>
		<path class="st1" d="M297.9,206.6c-3.1,0-2.9,4.7,0.2,4.7C301.2,211.4,301,206.6,297.9,206.6z"/>
		<path class="st1" d="M301,221.4c-2.1,0-2.1,3.3,0,3.3C303.2,224.6,303.1,221.4,301,221.4z"/>
		<path class="st1" d="M304.3,237.4c-2.4,0-3.2,3.2-0.5,3.2C306.1,240.6,307,237.4,304.3,237.4z"/>
		<path class="st1" d="M305.8,251.2c-2.5,0-2.1,3.6,0.3,3.6C308.6,254.8,308.3,251.2,305.8,251.2z"/>
		<path class="st1" d="M302.1,270.7c-0.7,0-2.4,0.2-2.4,1.2v2c0,1,1.4,1.5,2.2,1.5c0.7,0,2.4-0.2,2.4-1.2v-2
			C304.3,271.1,302.9,270.7,302.1,270.7z"/>
		<path class="st1" d="M300.3,286c-2.8,0-3.8,4-0.7,4C302.5,290,303.4,286,300.3,286z"/>
		<path class="st1" d="M295,302.6c-1.9,0-4.1,2.9-1.3,2.9C295.6,305.4,297.8,302.6,295,302.6z"/>
		<path class="st1" d="M277.5,198.6c-4.6,0-6.4,6.1-1,6.1C281.2,204.7,282.9,198.6,277.5,198.6z"/>
		<path class="st1" d="M281.1,210.9c-4.5,0-4.1,6.9,0.4,6.9C286.1,217.8,285.6,210.9,281.1,210.9z"/>
		<path class="st1" d="M285.1,227.7c-2.1,0-4.6,3.2-1.5,3.2C285.7,231,288.2,227.7,285.1,227.7z"/>
		<path class="st1" d="M285.9,242.6c-3.9,0-3.6,3.4,0.2,3.4C289.9,246,289.7,242.6,285.9,242.6z"/>
		<path class="st1" d="M285.5,252.6c-5.4,0-5.3,8.2,0.3,8.2C291.2,260.8,291.1,252.6,285.5,252.6z"/>
		<path class="st1" d="M284.5,266.7c-5.7,0-5.3,8.5,0.4,8.5C290.5,275.3,290.2,266.7,284.5,266.7z"/>
		<path class="st1" d="M281.4,285.4c-3.7,0-4,3.8-0.2,3.8C285,289.2,285.2,285.4,281.4,285.4z"/>
		<path class="st1" d="M279.6,294.4c-4.7,0-6.2,7.3-1.2,7.3C283.1,301.6,284.6,294.4,279.6,294.4z"/>
		<path class="st1" d="M222.4,190.2c-4.5,0-5.6,6.2-0.7,6.2C226.1,196.5,227.3,190.2,222.4,190.2z"/>
		<path class="st1" d="M241.4,191.8c-2.4,0-4.9,3.7-1.4,3.7C242.3,195.5,244.9,191.8,241.4,191.8z"/>
		<path class="st1" d="M254,197.1c-2.1,0-4.5,3.2-1.3,3.2C254.7,200.3,257.2,197.1,254,197.1z"/>
		<path class="st1" d="M260.2,208.4c-3.3,0-4.8,5.1-1,5.1C262.5,213.6,264,208.4,260.2,208.4z"/>
		<path class="st1" d="M263,223c-4,0-6.1,5.3-1.4,5.3C265.6,228.3,267.7,223,263,223z"/>
		<path class="st1" d="M262.5,235.9c-3,0-3.6,4.2-0.3,4.2C265.1,240.1,265.7,235.9,262.5,235.9z"/>
		<path class="st1" d="M260.7,247.6c-2.3,0-2.5,3.5-0.1,3.5C262.9,251.1,263.1,247.6,260.7,247.6z"/>
		<path class="st1" d="M258,260.9c-3.4,0-4.4,4.8-0.6,4.8C260.7,265.7,261.7,260.9,258,260.9z"/>
		<path class="st1" d="M252,274.5c-2.9,0-3,4.4,0,4.4C254.9,278.9,255,274.5,252,274.5z"/>
		<path class="st1" d="M247.8,282.7c-3.9,0-8,6-2.3,6C249.4,288.7,253.5,282.7,247.8,282.7z"/>
		<path class="st1" d="M227.4,208.9c-4,0-4.1,6.2-0.1,6.2C231.3,215.1,231.4,208.9,227.4,208.9z"/>
		<path class="st1" d="M243.4,212c-0.7-0.4-1.6-0.6-2.4-0.6c-0.8,0-1.7,0.1-2.4,0.6c-0.5,0.3-1,0.7-1,1.4v0.3c0,0.6,0.5,1.1,1,1.3
			c0.7,0.4,1.6,0.6,2.4,0.6c0.8,0,1.7-0.1,2.4-0.6c0.5-0.3,1-0.7,1-1.4v-0.3C244.3,212.7,243.8,212.3,243.4,212z"/>
		<path class="st1" d="M245.1,222.4c-2.8,0-4,3.9-0.8,3.9C247.1,226.3,248.3,222.4,245.1,222.4z"/>
		<path class="st1" d="M243.5,236.2c-2.7,0-4.1,3.5-0.9,3.5C245.2,239.8,246.7,236.2,243.5,236.2z"/>
		<path class="st1" d="M238.4,245.9c-4.6,0-4.8,6.3-0.2,6.3C242.8,252.1,243,245.9,238.4,245.9z"/>
		<path class="st1" d="M233.1,256.4c-1.8,0-2.1,2.4-0.1,2.4C234.7,258.9,235,256.4,233.1,256.4z"/>
		<path class="st1" d="M224.2,266.4c-2.8,0-5,3.2-1,3.2C226,269.6,228.1,266.4,224.2,266.4z"/>
		<path class="st1" d="M227.6,227c-5.2,0-6.9,7.4-1.2,7.4C231.6,234.4,233.3,227,227.6,227z"/>
		<path class="st1" d="M221.8,243.2c-4.1,0-4.5,5.5-0.3,5.5C225.7,248.8,226,243.2,221.8,243.2z"/>
		<path class="st1" d="M213.4,255.2c-4,0-4.2,5-0.2,5C217.3,260.2,217.5,255.2,213.4,255.2z"/>
		<path class="st1" d="M202.9,180.7c-4.2,0-7.7,6.6-1.9,6.6C205.3,187.3,208.8,180.7,202.9,180.7z"/>
		<path class="st1" d="M207,198.3c-3.5,0-3.4,3.4,0,3.4C210.5,201.7,210.5,198.3,207,198.3z"/>
		<path class="st1" d="M505.8,168.4c3.1,0,3.1,4.3-0.1,4.3C502.5,172.7,502.6,168.4,505.8,168.4z"/>
		<path class="st1" d="M480.8,191.2c4.5,0,5.6,6.2,0.7,6.2C477,197.5,475.9,191.2,480.8,191.2z"/>
		<path class="st1" d="M461.8,192.8c2.4,0,4.9,3.7,1.4,3.7C460.8,196.5,458.3,192.8,461.8,192.8z"/>
		<path class="st1" d="M500.2,181.7c4.2,0,7.7,6.6,1.9,6.6C497.9,188.3,494.3,181.7,500.2,181.7z"/>
		<path class="st1" d="M496.2,199.3c3.5,0,3.4,3.4,0,3.4C492.7,202.7,492.7,199.3,496.2,199.3z"/>
		<path class="st1" d="M211.7,211.3c-2,0-4.6,0.8-5.7,2.7c-0.8,1.5-0.5,3.4,1.6,3.4c2,0,4.6-0.8,5.7-2.7
			C214.1,213.2,213.8,211.3,211.7,211.3z"/>
		<path class="st1" d="M208.3,225.8c-2.8,0-5.2,3.1-1.3,3.1C209.8,228.9,212.2,225.8,208.3,225.8z"/>
		<path class="st1" d="M202.7,236.2c-3.6,0-3.9,3.6-0.1,3.6C206.2,239.8,206.4,236.2,202.7,236.2z"/>
		<path class="st1" d="M196.8,241.5c-5.3,0-4.8,7.1,0.5,7.1C202.6,248.5,202,241.5,196.8,241.5z"/>
		<path class="st1" d="M168.2,134.9c-2.7,0-4.5,4.2-1.1,4.2C169.8,139.1,171.7,134.9,168.2,134.9z"/>
		<path class="st1" d="M173.7,152.8c-3.1,0-3.2,4.3-0.1,4.3C176.8,157.2,176.9,152.8,173.7,152.8z"/>
		<path class="st1" d="M177.9,170.2c-3.3,0-4.5,4.2-0.6,4.2C180.7,174.4,181.9,170.2,177.9,170.2z"/>
		<path class="st1" d="M186.7,185.5c-3.3,0-4.5,4.3-0.7,4.3C189.3,189.8,190.5,185.5,186.7,185.5z"/>
		<path class="st1" d="M195.9,200.7c-3,0-6.2,4.7-1.7,4.7C197.1,205.3,200.3,200.7,195.9,200.7z"/>
		<path class="st1" d="M191.7,212.4c-3.4,0-5.5,5.3-1.3,5.3C193.8,217.6,195.9,212.4,191.7,212.4z"/>
		<path class="st1" d="M184.1,226.7c-3.3,0-4.4,4.6-0.8,4.6C186.5,231.3,187.7,226.7,184.1,226.7z"/>
		<path class="st1" d="M175.8,235.9c-3.6,0-4.5,4.8-0.3,4.8C179.1,240.7,180,235.9,175.8,235.9z"/>
		<path class="st1" d="M167,226.6c-0.2-0.6-0.9-0.9-1.4-0.9c-1.6-0.3-3.6,0.4-4.8,1.6l-0.7,0.7c-0.4,0.4-0.8,1-0.6,1.6
			s0.9,0.9,1.4,0.9c1.6,0.3,3.6-0.4,4.8-1.6c0.2-0.2,0.4-0.4,0.7-0.7C166.8,227.8,167.2,227.1,167,226.6z"/>
		<path class="st1" d="M173.2,214.3c-1.8-1-4.3-0.5-5.7,0.9c-0.2,0.2-0.4,0.4-0.7,0.7c-0.6,0.6-1.2,1.5-1.2,2.4
			c0,0.8,0.5,1.7,1.2,2.1c1.8,1,4.3,0.5,5.7-0.9c0.2-0.2,0.4-0.4,0.7-0.7c0.6-0.6,1.2-1.5,1.2-2.4
			C174.4,215.6,173.9,214.7,173.2,214.3z"/>
		<path class="st1" d="M177.1,202.6c-2.4,0-2.6,3.5-0.2,3.5C179.3,206.1,179.5,202.6,177.1,202.6z"/>
		<path class="st1" d="M174.1,187.5c-3.7,0-7,5.6-2.1,5.6C175.6,193.1,179,187.5,174.1,187.5z"/>
		<path class="st1" d="M162.7,174.3c-5.1,0-4.4,6.8,0.5,6.8C168.3,181.1,167.7,174.3,162.7,174.3z"/>
		<path class="st1" d="M157.3,157.1c-1.6,0-2.6,2.5-0.6,2.5C158.3,159.6,159.3,157.1,157.3,157.1z"/>
		<path class="st1" d="M145.6,148.8c-1.6,0-5.4,3.1-2.6,3.1C144.7,151.9,148.4,148.8,145.6,148.8z"/>
		<path class="st1" d="M133.4,164.2c-3,0-4.1,4.3-0.7,4.3C135.7,168.5,136.7,164.2,133.4,164.2z"/>
		<path class="st1" d="M143.7,179.1c-3.4,0-3.4,5,0,5C147.1,184.2,147.1,179.1,143.7,179.1z"/>
		<path class="st1" d="M154.8,195.9c-1.4,0-3.2,2.1-1,2.1C155.2,198.1,157,195.9,154.8,195.9z"/>
		<path class="st1" d="M149.8,212.2c-2.1,0-2.6,2.9-0.3,2.9C151.6,215.1,152.1,212.2,149.8,212.2z"/>
		<path class="st1" d="M143,223.7c-3.7,0-3.7,4,0,4S146.7,223.7,143,223.7z"/>
		<path class="st1" d="M130.2,206.3c-5.4,0-5.1,5.3,0.2,5.3C135.8,211.7,135.5,206.3,130.2,206.3z"/>
		<path class="st1" d="M126.5,185.8c-3.6,0-4.2,5-0.3,5C129.8,190.8,130.4,185.8,126.5,185.8z"/>
		<path class="st1" d="M111.8,194.4c-5,0-5.3,5.2-0.2,5.2C116.5,199.6,116.9,194.4,111.8,194.4z"/>
		<path class="st1" d="M501.2,237.2c3.6,0,3.9,3.6,0.1,3.6C497.7,240.8,497.5,237.2,501.2,237.2z"/>
		<path class="st1" d="M507.2,242.5c5.3,0,4.8,7.1-0.5,7.1C501.4,249.5,501.9,242.5,507.2,242.5z"/>
		<path class="st1" d="M535.7,135.9c2.7,0,4.5,4.2,1.1,4.2C534.1,140.1,532.3,135.9,535.7,135.9z"/>
		<path class="st1" d="M530.2,153.8c3.1,0,3.2,4.3,0.1,4.3C527.2,158.2,527.1,153.8,530.2,153.8z"/>
		<path class="st1" d="M526,171.2c3.3,0,4.5,4.2,0.6,4.2C523.3,175.4,522.1,171.2,526,171.2z"/>
		<path class="st1" d="M517.3,186.5c3.3,0,4.5,4.3,0.7,4.3C514.6,190.8,513.4,186.5,517.3,186.5z"/>
		<path class="st1" d="M508.1,201.7c3,0,6.2,4.7,1.7,4.7C506.8,206.3,503.6,201.7,508.1,201.7z"/>
		<path class="st1" d="M512.3,213.4c3.4,0,5.5,5.3,1.3,5.3C510.2,218.6,508.1,213.4,512.3,213.4z"/>
		<path class="st1" d="M519.9,227.7c3.3,0,4.4,4.6,0.8,4.6C517.4,232.3,516.2,227.7,519.9,227.7z"/>
		<path class="st1" d="M528.1,236.9c3.6,0,4.5,4.8,0.3,4.8C524.8,241.7,523.9,236.9,528.1,236.9z"/>
		<path class="st1" d="M536.9,227.6c0.2-0.6,0.9-0.9,1.4-0.9c1.6-0.3,3.6,0.4,4.8,1.6l0.7,0.7c0.4,0.4,0.8,1,0.6,1.6
			s-0.9,0.9-1.4,0.9c-1.6,0.3-3.6-0.4-4.8-1.6c-0.2-0.2-0.4-0.4-0.7-0.7C537.1,228.8,536.7,228.1,536.9,227.6z"/>
		<path class="st1" d="M530.7,215.3c1.8-1,4.3-0.5,5.7,0.9c0.2,0.2,0.4,0.4,0.7,0.7c0.6,0.6,1.2,1.5,1.2,2.4c0,0.8-0.5,1.7-1.2,2.1
			c-1.8,1-4.3,0.5-5.7-0.9c-0.2-0.2-0.4-0.4-0.7-0.7c-0.6-0.6-1.2-1.5-1.2-2.4C529.5,216.6,530,215.7,530.7,215.3z"/>
		<path class="st1" d="M526.8,203.6c2.4,0,2.6,3.5,0.2,3.5C524.6,207.1,524.4,203.6,526.8,203.6z"/>
		<path class="st1" d="M529.9,188.5c3.7,0,7,5.6,2.1,5.6C528.3,194.1,525,188.5,529.9,188.5z"/>
		<path class="st1" d="M541.2,175.3c5.1,0,4.4,6.8-0.5,6.8C535.6,182.1,536.2,175.3,541.2,175.3z"/>
		<path class="st1" d="M546.6,158.1c1.6,0,2.6,2.5,0.6,2.5C545.6,160.6,544.6,158.1,546.6,158.1z"/>
		<path class="st1" d="M558.3,149.8c1.6,0,5.4,3.1,2.6,3.1C559.3,152.9,555.5,149.8,558.3,149.8z"/>
		<path class="st1" d="M570.6,165.2c3,0,4.1,4.3,0.7,4.3C568.2,169.5,567.2,165.2,570.6,165.2z"/>
		<path class="st1" d="M560.3,180.1c3.4,0,3.4,5,0,5C556.8,185.2,556.8,180.1,560.3,180.1z"/>
		<path class="st1" d="M549.1,196.9c1.4,0,3.2,2.1,1,2.1C548.7,199.1,546.9,196.9,549.1,196.9z"/>
		<path class="st1" d="M554.1,213.2c2.1,0,2.6,2.9,0.3,2.9C552.3,216.1,551.8,213.2,554.1,213.2z"/>
		<path class="st1" d="M560.9,224.7c3.7,0,3.7,4,0,4S557.3,224.7,560.9,224.7z"/>
		<path class="st1" d="M573.7,207.3c5.4,0,5.1,5.3-0.2,5.3C568.1,212.7,568.4,207.3,573.7,207.3z"/>
		<path class="st1" d="M577.5,186.8c3.6,0,4.2,5,0.3,5C574.1,191.8,573.5,186.8,577.5,186.8z"/>
		<path class="st1" d="M592.1,195.4c5,0,5.3,5.2,0.2,5.2C587.4,200.6,587.1,195.4,592.1,195.4z"/>
		<path class="st1" d="M405.9,208.6c3.1,0,2.9,4.7-0.2,4.7C402.6,213.4,402.8,208.6,405.9,208.6z"/>
		<path class="st1" d="M402.8,223.4c2.1,0,2.1,3.3,0,3.3C400.6,226.6,400.7,223.4,402.8,223.4z"/>
		<path class="st1" d="M399.5,239.4c2.4,0,3.2,3.2,0.5,3.2C397.7,242.6,396.8,239.4,399.5,239.4z"/>
		<path class="st1" d="M397.9,253.2c2.5,0,2.1,3.6-0.3,3.6S395.5,253.2,397.9,253.2z"/>
		<path class="st1" d="M401.7,272.7c0.7,0,2.4,0.2,2.4,1.2v2c0,1-1.4,1.5-2.2,1.5c-0.7,0-2.4-0.2-2.4-1.2v-2
			C399.5,273.1,400.9,272.7,401.7,272.7z"/>
		<path class="st1" d="M403.4,288c2.8,0,3.8,4,0.7,4C401.3,292,400.3,288,403.4,288z"/>
		<path class="st1" d="M408.8,304.6c1.9,0,4.1,2.9,1.3,2.9C408.2,307.4,406,304.6,408.8,304.6z"/>
		<path class="st1" d="M426.3,200.6c4.6,0,6.4,6.1,1,6.1C422.6,206.7,420.9,200.6,426.3,200.6z"/>
		<path class="st1" d="M422.7,212.9c4.5,0,4.1,6.9-0.4,6.9C417.7,219.8,418.2,212.9,422.7,212.9z"/>
		<path class="st1" d="M418.7,229.7c2.1,0,4.6,3.2,1.5,3.2C418.1,233,415.6,229.7,418.7,229.7z"/>
		<path class="st1" d="M417.9,244.6c3.9,0,3.6,3.4-0.2,3.4C413.8,248,414.1,244.6,417.9,244.6z"/>
		<path class="st1" d="M418.3,254.6c5.4,0,5.3,8.2-0.3,8.2C412.5,262.8,412.7,254.6,418.3,254.6z"/>
		<path class="st1" d="M419.3,268.7c5.7,0,5.3,8.5-0.4,8.5C413.2,277.3,413.6,268.7,419.3,268.7z"/>
		<path class="st1" d="M422.4,287.4c3.7,0,4,3.8,0.2,3.8C418.8,291.2,418.5,287.4,422.4,287.4z"/>
		<path class="st1" d="M424.2,296.4c4.7,0,6.2,7.3,1.2,7.3C420.7,303.6,419.2,296.4,424.2,296.4z"/>
		<path class="st1" d="M449.8,199.1c2.1,0,4.5,3.2,1.3,3.2C449,202.3,446.6,199.1,449.8,199.1z"/>
		<path class="st1" d="M443.6,210.4c3.3,0,4.8,5.1,1,5.1C441.3,215.6,439.8,210.4,443.6,210.4z"/>
		<path class="st1" d="M440.8,225c4,0,6.1,5.3,1.4,5.3C438.2,230.3,436,225,440.8,225z"/>
		<path class="st1" d="M441.3,237.9c3,0,3.6,4.2,0.3,4.2C438.6,242.1,438,237.9,441.3,237.9z"/>
		<path class="st1" d="M443.1,249.6c2.3,0,2.5,3.5,0.1,3.5C440.9,253.1,440.7,249.6,443.1,249.6z"/>
		<path class="st1" d="M445.8,262.9c3.4,0,4.4,4.8,0.6,4.8C443,267.7,442,262.9,445.8,262.9z"/>
		<path class="st1" d="M451.8,276.5c2.9,0,3,4.4,0,4.4S448.7,276.5,451.8,276.5z"/>
		<path class="st1" d="M456,284.7c3.9,0,8,6,2.3,6C454.4,290.7,450.3,284.7,456,284.7z"/>
		<path class="st1" d="M476.4,210.9c4,0,4.1,6.2,0.1,6.2C472.5,217.1,472.4,210.9,476.4,210.9z"/>
		<path class="st1" d="M460.4,214c0.7-0.4,1.6-0.6,2.4-0.6s1.7,0.1,2.4,0.6c0.5,0.3,1,0.7,1,1.4v0.3c0,0.6-0.5,1.1-1,1.3
			c-0.7,0.4-1.6,0.6-2.4,0.6s-1.7-0.1-2.4-0.6c-0.5-0.3-1-0.7-1-1.4v-0.3C459.4,214.7,460,214.3,460.4,214z"/>
		<path class="st1" d="M458.7,224.4c2.8,0,4,3.9,0.8,3.9C456.7,228.3,455.5,224.4,458.7,224.4z"/>
		<path class="st1" d="M460.3,238.2c2.7,0,4.1,3.5,0.9,3.5C458.6,241.8,457.1,238.2,460.3,238.2z"/>
		<path class="st1" d="M465.3,247.9c4.6,0,4.8,6.3,0.2,6.3C461,254.1,460.7,247.9,465.3,247.9z"/>
		<path class="st1" d="M470.7,258.4c1.8,0,2.1,2.4,0.1,2.4C469.1,260.9,468.8,258.4,470.7,258.4z"/>
		<path class="st1" d="M479.6,268.4c2.8,0,5,3.2,1,3.2C477.8,271.6,475.7,268.4,479.6,268.4z"/>
		<path class="st1" d="M476.2,229c5.2,0,6.9,7.4,1.2,7.4C472.2,236.4,470.5,229,476.2,229z"/>
		<path class="st1" d="M482,245.2c4.1,0,4.5,5.5,0.3,5.5C478.1,250.8,477.7,245.2,482,245.2z"/>
		<path class="st1" d="M490.4,257.2c4,0,4.2,5,0.2,5C486.5,262.2,486.3,257.2,490.4,257.2z"/>
		<path class="st1" d="M492.1,213.3c2,0,4.6,0.8,5.7,2.7c0.8,1.5,0.5,3.4-1.6,3.4c-2,0-4.6-0.8-5.7-2.7
			C489.6,215.2,490,213.3,492.1,213.3z"/>
		<path class="st1" d="M495.5,227.8c2.8,0,5.2,3.1,1.3,3.1C494,230.9,491.6,227.8,495.5,227.8z"/>
		<path class="st1" d="M106.3,511.3"/>
		<line class="st1" x1="80.5" y1="333.6" x2="80.5" y2="333.6"/>
		<path class="st1" d="M211.8,476.7c1.8,3,5.8,0.8,4-2.2C214,471.6,210,473.7,211.8,476.7z"/>
		<path class="st1" d="M206.3,486.6c3.1,5.1,9.4,0.3,6.4-4.8C209.6,476.8,203.3,481.6,206.3,486.6z"/>
		<path class="st1" d="M205.7,499c2.4,4,8.1,1.3,5.5-3C208.7,491.9,203.1,494.6,205.7,499z"/>
		<path class="st1" d="M204.8,509.2c2.6,4.4,7.3,2.2,4.6-2.3C206.7,502.5,202.1,504.7,204.8,509.2z"/>
		<path class="st1" d="M205,520.2c2.9,4.9,11.8,3.8,8-2.5C210,512.9,201.2,514,205,520.2z"/>
		<path class="st1" d="M210.7,531c1.8,3,6.5,1,4.6-2C213.6,526,208.9,528,210.7,531z"/>
		<path class="st1" d="M213.7,540.5c2,3.3,7.1,3,4.5-1.2C216.2,536,211.2,536.2,213.7,540.5z"/>
		<path class="st1" d="M215.7,552.1c2.6,4.4,10.3,3.1,7.1-2.3C220.1,545.4,212.4,546.7,215.7,552.1z"/>
		<path class="st1" d="M222.2,565.8c1.9,3.1,5.2,1.5,3.2-1.7C223.5,560.9,220.2,562.6,222.2,565.8z"/>
		<path class="st1" d="M227.4,576.4c1.7,2.8,5.7,1.5,3.8-1.7C229.5,571.8,225.5,573.2,227.4,576.4z"/>
		<path class="st1" d="M230.7,586.8c3.3,5.5,11.4,2.2,7.8-3.8C235.1,577.5,227.1,580.9,230.7,586.8z"/>
		<path class="st1" d="M238.7,598.6c2.5,4.2,8.1,0,5.6-4.2C241.9,590.2,236.2,594.4,238.7,598.6z"/>
		<path class="st1" d="M246.5,606.2c2.8,4.6,7.2,1.6,4.4-3C248.1,598.6,243.7,601.7,246.5,606.2z"/>
		<path class="st1" d="M228.6,474.5c2.4,4,7.7,0.1,5.3-3.9C231.5,466.6,226.2,470.5,228.6,474.5z"/>
		<path class="st1" d="M225,482c2.2,3.6,5.8,1.2,3.7-2.4C226.5,476,222.8,478.4,225,482z"/>
		<path class="st1" d="M220.7,491c1.7,2.8,5.1,0.6,3.5-2.2C222.5,486.1,219,488.3,220.7,491z"/>
		<path class="st1" d="M219.7,500c1.2,2,5.5,2.6,3.7-0.4C222.1,497.6,217.8,497,219.7,500z"/>
		<path class="st1" d="M220.4,512.8c2.7,4.5,9.6,2.1,6.8-2.6C224.5,505.7,217.5,508,220.4,512.8z"/>
		<path class="st1" d="M222.8,522.9c2,3.3,7.6,2,5.3-1.7C226.1,517.9,220.6,519.3,222.8,522.9z"/>
		<path class="st1" d="M225.3,534.8c3,5,11.2,2.5,7.9-3C230.1,526.8,221.9,529.2,225.3,534.8z"/>
		<path class="st1" d="M229.7,543.2c2.3,3.9,8.4,1.3,6-2.6C233.4,536.7,227.3,539.2,229.7,543.2z"/>
		<path class="st1" d="M234.8,553c2.3,3.8,6.3,0.7,4-3C236.5,546.2,232.5,549.3,234.8,553z"/>
		<path class="st1" d="M241.2,564.9c1.6,2.7,5.4,1.3,3.6-1.8C243.2,560.4,239.4,561.8,241.2,564.9z"/>
		<path class="st1" d="M247.3,574.4c1.7,2.8,5.3,0.8,3.6-2.1C249.2,569.5,245.6,571.5,247.3,574.4z"/>
		<path class="st1" d="M252.5,584.4c1.6,2.6,3.8,1,2.2-1.6C253.1,580.3,250.9,581.9,252.5,584.4z"/>
		<path class="st1" d="M259.2,596.3c2.6,4.3,8.5,0.3,5.9-4S256.6,592,259.2,596.3z"/>
		<path class="st1" d="M244.8,482.6c2,3.4,7.3,1.3,5.2-2.3C247.9,476.9,242.6,479,244.8,482.6z"/>
		<path class="st1" d="M236.6,490.4c2.5,4.1,8.5,3.1,5.6-1.8C239.7,484.5,233.6,485.5,236.6,490.4z"/>
		<path class="st1" d="M235,503.2c2.8,4.6,9.9,3.1,6.7-2.1C239,496.5,231.9,498,235,503.2z"/>
		<path class="st1" d="M240.2,515c1.5,2.5,3.9,1,2.4-1.5C241.1,511,238.7,512.5,240.2,515z"/>
		<path class="st1" d="M240,528.2c2.4,3.9,9.2,2.6,6.4-2.1C244,522.3,237.2,523.5,240,528.2z"/>
		<path class="st1" d="M244.6,540l0.2,0.3c1.2,1.9,3.6,3.4,5.7,2.4c1.9-0.9,2.9-3.4,1.6-5.4l-0.2-0.3c-1.2-1.9-3.6-3.4-5.7-2.4
			C244.4,535.5,243.4,538,244.6,540z"/>
		<path class="st1" d="M252.2,552.5c1.5,2.4,5.5,1.3,3.9-1.5C254.6,548.6,250.5,549.7,252.2,552.5z"/>
		<path class="st1" d="M261.8,566.5c0.6,1,1.4,2.1,2.4,2.8c0.7,0.4,1.6,0.9,2.3,0.4l0.6-0.4c1.7-1,0.6-4.2-0.2-5.6
			c-0.6-1-1.4-2.1-2.4-2.8c-0.7-0.4-1.6-0.9-2.3-0.4l-0.6,0.4C259.8,561.9,260.9,565.1,261.8,566.5z"/>
		<path class="st1" d="M273.8,578.5c1.6,2.7,5.3,0.4,3.6-2.3C275.8,573.5,272.1,575.8,273.8,578.5z"/>
		<path class="st1" d="M251.6,506.8c2.9,4.8,9.7,0.7,6.8-4.1C255.5,497.9,248.7,501.9,251.6,506.8z"/>
		<path class="st1" d="M251.9,517.6c2.1,3.6,7,1.3,4.7-2.6C254.4,511.4,249.6,513.7,251.9,517.6z"/>
		<path class="st1" d="M257.5,529.3c1.6,2.6,3.8,1,2.3-1.6C258.2,525.2,255.9,526.8,257.5,529.3z"/>
		<path class="st1" d="M260.5,536.5c-0.2,1.7,0.8,3.9,2.6,4.4c0.2,0.1,0.3,0.1,0.5,0.2c1.6,0.5,3.4-0.3,3.7-2.1
			c0.2-1.7-0.8-3.9-2.6-4.4c-0.2-0.1-0.3-0.1-0.5-0.2C262.6,533.9,260.8,534.7,260.5,536.5z"/>
		<path class="st1" d="M270.8,553.8c1.9,3.1,7.4,2.3,5.1-1.5C274.1,549.2,268.5,550,270.8,553.8z"/>
		<path class="st1" d="M190.7,502.2c2.7,4.5,7,1.8,4.3-2.7S188,497.7,190.7,502.2z"/>
		<path class="st1" d="M187.8,516.7c2.4,4,11.1,5.7,7.4-0.3C192.9,512.3,184.2,510.6,187.8,516.7z"/>
		<path class="st1" d="M193.5,535c1.7,2.8,7.6,3.5,5.1-0.6C196.9,531.5,191.1,530.9,193.5,535z"/>
		<path class="st1" d="M198,549.3c3,5,8.7,1.7,5.7-3.3S195,544.3,198,549.3z"/>
		<path class="st1" d="M209.7,578.7c2.9,4.7,8.6,1.1,5.7-3.6C212.5,570.3,206.8,573.9,209.7,578.7z"/>
		<path class="st1" d="M217.9,591.6c1.4,2.3,4.9,2,3.1-0.8C219.7,588.6,216.2,588.8,217.9,591.6z"/>
		<path class="st1" d="M225.2,607.9c3.3,5.5,7.6,2.6,4.3-2.8C226.2,599.6,221.9,602.4,225.2,607.9z"/>
		<path class="st1" d="M177.5,528.1c1.9,3.1,6.5,2.1,4.3-1.5C179.9,523.6,175.3,524.5,177.5,528.1z"/>
		<path class="st1" d="M180.4,546.3c0.2,0.6,0.5,1.3,0.7,1.9c0.5,1.3,1.6,2.6,3.1,2.5c1.2,0,2.3-1.1,1.8-2.5
			c-0.2-0.6-0.5-1.3-0.7-1.9c-0.5-1.3-1.6-2.6-3.1-2.5C181,543.9,179.9,545,180.4,546.3z"/>
		<path class="st1" d="M189.8,567.8c1.6,2.6,5.4,1.5,3.7-1.4C191.9,563.9,188,564.9,189.8,567.8z"/>
		<path class="st1" d="M195.7,581.5c1.8,3.1,6.5,1.2,4.6-2C198.4,576.4,193.7,578.3,195.7,581.5z"/>
		<path class="st1" d="M204.3,597c1.4,2.4,6.4,3,4.4-0.4C207.2,594.2,202.2,593.5,204.3,597z"/>
		<path class="st1" d="M204.2,564.4c2,3.3,7.1,3,4.5-1.2C206.7,559.9,201.7,560.2,204.2,564.4z"/>
		
			<ellipse transform="matrix(0.8562 -0.5167 0.5167 0.8562 -206.1093 161.5934)" class="st1" cx="187.2" cy="451" rx="5.8" ry="17.3"/>
		
			<ellipse transform="matrix(0.8562 -0.5167 0.5167 0.8562 -198.8903 168.3689)" class="st1" cx="203" cy="441.4" rx="4.5" ry="12.5"/>
		
			<ellipse transform="matrix(0.8562 -0.5167 0.5167 0.8562 -192.1617 174.7506)" class="st1" cx="217.8" cy="432.5" rx="2.8" ry="7.8"/>
		<path class="st1" d="M215.4,464c1.7,2.8,6,1.5,4.2-1.6C217.8,459.6,213.5,460.9,215.4,464z"/>
		<path class="st1" d="M222.5,453.2c1.8,3,6,2.4,3.7-1.3C224.4,448.9,220.2,449.4,222.5,453.2z"/>
		<path class="st1" d="M173.2,580.5c0,0-26-55.5,12.5-100.8c3.3,0.1-19.9,25.3-19,59.6C167.4,564.6,176.6,574.7,173.2,580.5z"/>
		<path class="st1" d="M151.4,552.7c0,0-12.5-55.4,35.6-83.2c3.2,1-25.3,16-32.3,45.8C149.4,537.2,156,548.7,151.4,552.7z"/>
		<path class="st1" d="M128.5,524.8c1.4,3.1,3,6,4.9,8.9c1,1.5,3,2.6,4.6,1.8c1.5-0.8,1.9-3.1,0.9-4.6c-1.5-2.3-3-4.6-4.1-7.1
			c-0.8-1.7-2.3-3.2-4.3-2.9C128.9,521.1,127.7,523.1,128.5,524.8z"/>
		<path class="st1" d="M114.9,502.4c0.7,3,1.4,5.9,2.2,8.9c0.9,3.5,6.2,3.1,5.3-0.5c-0.7-3-1.4-5.9-2.2-8.9
			C119.4,498.4,114,498.8,114.9,502.4z"/>
		<path class="st1" d="M127.7,496.4c-0.4,3.3,1,6,2.6,9c2.2,4.2,4.5,8.5,6.7,12.7c1.3,2.4,4.8,2.3,3.2-0.7c-1.5-2.8-3-5.6-4.5-8.5
			c-1.4-2.7-4.5-6.8-4.1-9.9C131.9,497,128,493.8,127.7,496.4z"/>
		<path class="st1" d="M135.7,487c0.5,6.4,2.3,12.7,5.4,18.5c0.9,1.6,2.9,3.7,4.8,3.1c1.9-0.6,1.7-3,0.9-4.6
			c-2.4-4.6-3.8-9.4-4.2-14.5C142.3,485.8,135.3,481.7,135.7,487z"/>
		<path class="st1" d="M176.1,416.3c-1.8-3,2-5.5,3.8-2.5C181.7,416.8,178,419.3,176.1,416.3z"/>
		<path class="st1" d="M164.8,416.5c-3.1-5.1,4.2-8.4,7.2-3.4C175.1,418.2,167.9,421.5,164.8,416.5z"/>
		<path class="st1" d="M153.7,411.3c-2.4-4,2.6-7.8,5.2-3.4C161.3,411.9,156.3,415.7,153.7,411.3z"/>
		<path class="st1" d="M144.2,407.3c-2.6-4.4,1.5-7.4,4.2-2.9C151,408.8,146.9,411.8,144.2,407.3z"/>
		<path class="st1" d="M134.5,402.1c-2.9-4.9,2.2-12.2,5.9-5.9C143.3,401,138.2,408.3,134.5,402.1z"/>
		<path class="st1" d="M127.6,391.9c-1.8-3,2.1-6.2,3.9-3.2C133.4,391.8,129.5,395,127.6,391.9z"/>
		<path class="st1" d="M120.7,384.9c-2-3.3,0.6-7.7,3.1-3.5C125.8,384.8,123.2,389.1,120.7,384.9z"/>
		<path class="st1" d="M111.3,377.8c-2.6-4.4,2.1-10.6,5.3-5.2C119.3,376.9,114.5,383.1,111.3,377.8z"/>
		<path class="st1" d="M102.2,365.6c-1.9-3.1,1.1-5.3,3-2.1C107.1,366.7,104.1,368.8,102.2,365.6z"/>
		<path class="st1" d="M95.3,356c-1.7-2.8,1.3-5.7,3.3-2.5C100.3,356.3,97.2,359.2,95.3,356z"/>
		<path class="st1" d="M87.6,348.3c-3.3-5.5,3.4-11.1,7-5.2C97.9,348.7,91.1,354.2,87.6,348.3z"/>
		<path class="st1" d="M80.9,335.7c-2.5-4.2,3.8-7.2,6.3-3C89.7,336.8,83.4,339.8,80.9,335.7z"/>
		<path class="st1" d="M77.7,325.3c-2.8-4.6,2-7.1,4.7-2.5C85.2,327.4,80.5,329.8,77.7,325.3z"/>
		<path class="st1" d="M186,402.5c-2.4-4,3.5-6.8,5.9-2.9C194.3,403.6,188.4,406.4,186,402.5z"/>
		<path class="st1" d="M177.6,402.2c-2.2-3.6,1.6-5.7,3.8-2.2C183.6,403.7,179.8,405.8,177.6,402.2z"/>
		<path class="st1" d="M167.6,401.8c-1.7-2.8,1.9-4.8,3.6-2.1C172.9,402.5,169.3,404.5,167.6,401.8z"/>
		<path class="st1" d="M159.2,398.5c-1.2-2,0.3-6,2.1-3C162.5,397.5,161,401.5,159.2,398.5z"/>
		<path class="st1" d="M148.3,391.9c-2.7-4.5,2.6-9.5,5.5-4.8C156.5,391.6,151.1,396.6,148.3,391.9z"/>
		<path class="st1" d="M140.4,385.1c-2-3.3,1.8-7.6,4-3.9C146.4,384.4,142.6,388.7,140.4,385.1z"/>
		<path class="st1" d="M131.1,377.3c-3-5,3-11.1,6.4-5.6C140.4,376.8,134.4,382.9,131.1,377.3z"/>
		<path class="st1" d="M125.7,369.5c-2.3-3.9,2.7-8.1,5.1-4.1C133.2,369.3,128.1,373.5,125.7,369.5z"/>
		<path class="st1" d="M119.4,360.4c-2.3-3.8,2.3-5.9,4.5-2.1C126.2,362.1,121.6,364.2,119.4,360.4z"/>
		<path class="st1" d="M111.9,349.2c-1.6-2.7,1.4-5.4,3.3-2.3C116.8,349.6,113.7,352.2,111.9,349.2z"/>
		<path class="st1" d="M106.3,339.4c-1.7-2.8,1.8-5,3.5-2.2C111.5,340,108,342.2,106.3,339.4z"/>
		<path class="st1" d="M99.8,330.1c-1.6-2.6,0.9-3.8,2.4-1.3C103.8,331.5,101.4,332.7,99.8,330.1z"/>
		<path class="st1" d="M92.4,318.6c-2.6-4.3,3.7-7.7,6.3-3.4C101.4,319.6,95,322.9,92.4,318.6z"/>
		<path class="st1" d="M186.4,384.4c-2-3.4,2.3-7,4.4-3.5C192.8,384.3,188.5,388,186.4,384.4z"/>
		<path class="st1" d="M175.6,388c-2.5-4.1,1.3-9,4.2-4.1C182.3,388,178.6,392.9,175.6,388z"/>
		<path class="st1" d="M163.5,383.4c-2.8-4.6,1.9-10.2,5-5C171.3,383,166.7,388.6,163.5,383.4z"/>
		<path class="st1" d="M155.5,373.3c-1.5-2.5,0.9-3.9,2.4-1.4S157,375.8,155.5,373.3z"/>
		<path class="st1" d="M143.7,367.4c-2.4-3.9,2-9.3,4.8-4.7C150.9,366.6,146.6,372.1,143.7,367.4z"/>
		<path class="st1" d="M135.5,357.8l-0.2-0.3c-1.2-1.9-1.3-4.8,0.5-6.1c1.6-1.2,4.3-1,5.6,1.1l0.2,0.3c1.2,1.9,1.3,4.8-0.5,6.1
			C139.4,360.1,136.7,359.8,135.5,357.8z"/>
		<path class="st1" d="M128,345.3c-1.5-2.4,1.4-5.5,3.1-2.7C132.5,345,129.6,348,128,345.3z"/>
		<path class="st1" d="M120,330.3c-0.6-1-1.3-2.2-1.3-3.4c0-0.8,0-1.8,0.7-2.2l0.6-0.4c1.7-1,4,1.4,4.9,2.8c0.6,1,1.3,2.2,1.3,3.4
			c0,0.8,0,1.8-0.7,2.2l-0.6,0.4C123.2,334.1,120.9,331.7,120,330.3z"/>
		<path class="st1" d="M115,314c-1.6-2.7,2.1-4.8,3.7-2.1C120.3,314.6,116.6,316.8,115,314z"/>
		<path class="st1" d="M168.1,367.1c-2.9-4.8,3.9-9,6.8-4.1C177.8,367.8,171,371.9,168.1,367.1z"/>
		<path class="st1" d="M158.7,361.8c-2.1-3.6,2.2-6.8,4.5-2.9C165.3,362.4,161,365.7,158.7,361.8z"/>
		<path class="st1" d="M150.9,351.4c-1.6-2.6,0.9-3.9,2.5-1.3C154.9,352.7,152.4,353.9,150.9,351.4z"/>
		<path class="st1" d="M146,345.3c-1.6-0.6-3-2.5-2.7-4.3c0-0.2,0.1-0.4,0.1-0.5c0.3-1.7,1.9-2.9,3.6-2.2c1.6,0.6,3,2.5,2.7,4.3
			c0,0.2-0.1,0.4-0.1,0.5C149.3,344.7,147.7,346,146,345.3z"/>
		<path class="st1" d="M135.5,328.2c-1.9-3.1,1.4-7.7,3.7-3.9C141.1,327.4,137.8,332,135.5,328.2z"/>
		<path class="st1" d="M143.8,423.1c-2.7-4.5,1.7-7.1,4.4-2.6S146.5,427.6,143.8,423.1z"/>
		<path class="st1" d="M129.7,418.9c-2.4-4,0.1-12.5,3.8-6.4C135.8,416.4,133.3,425,129.7,418.9z"/>
		<path class="st1" d="M116.1,405.3c-1.7-2.8,0.4-8.3,2.9-4.2C120.7,403.9,118.6,409.4,116.1,405.3z"/>
		<path class="st1" d="M105.5,394.7c-3-5,2.6-8.5,5.6-3.5S108.5,399.7,105.5,394.7z"/>
		<path class="st1" d="M85,370.7c-2.9-4.7,3-8.1,5.9-3.3C93.7,372.1,87.8,375.4,85,370.7z"/>
		<path class="st1" d="M77.3,357.4c-1.4-2.3,0.5-5.2,2.2-2.4C80.9,357.2,79.1,360.2,77.3,357.4z"/>
		<path class="st1" d="M66.4,343.3c-3.3-5.5,1.2-8,4.5-2.5C74.2,346.3,69.6,348.8,66.4,343.3z"/>
		<path class="st1" d="M114.7,422.7c-1.9-3.1,1.2-6.8,3.3-3.2C119.9,422.7,116.9,426.3,114.7,422.7z"/>
		<path class="st1" d="M99.9,411.6c-0.4-0.5-0.9-1-1.3-1.5c-0.9-1-1.5-2.6-0.8-3.9c0.6-1,2.1-1.5,3-0.4c0.4,0.5,0.9,1,1.3,1.5
			c0.9,1,1.5,2.6,0.8,3.9C102.4,412.2,100.9,412.7,99.9,411.6z"/>
		<path class="st1" d="M85.3,393.3c-1.6-2.6,1.2-5.5,2.9-2.6C89.8,393.3,87,396.3,85.3,393.3z"/>
		<path class="st1" d="M75.9,381.7c-1.8-3.1,2-6.3,3.9-3.1C81.7,381.7,77.8,384.9,75.9,381.7z"/>
		<path class="st1" d="M66.3,366.9c-1.4-2.4,0.3-7.1,2.4-3.7C70.1,365.7,68.3,370.4,66.3,366.9z"/>
		<path class="st1" d="M95,382.2c-2-3.3,0.6-7.7,3.1-3.5C100.2,382.1,97.6,386.4,95,382.2z"/>
		<path class="st1" d="M189.1,419.1c-1.7-2.8,1.5-6.1,3.4-3C194.1,419,191,422.2,189.1,419.1z"/>
		<path class="st1" d="M202,417.8c-1.8-3,0.6-6.4,2.9-2.7C206.7,418.1,204.2,421.6,202,417.8z"/>
		<path class="st1" d="M199.5,402.5c-2.2-3.7,0.9-10.5,4.1-5.2C205.9,401,202.8,407.9,199.5,402.5z"/>
		<path class="st1" d="M66.3,402.1c0,0,37,48.8,95,35.9c1.5-3-31.6,5.9-61.6-11C77.8,414.6,73,401.8,66.3,402.1z"/>
		<path class="st1" d="M80.8,434.4c0,0,43.2,36.9,90.2,7.3c0.6-3.3-25.9,15-55.6,7.3C93.6,443.3,86.5,432.1,80.8,434.4z"/>
		<path class="st1" d="M94.8,467.6c-2.1-2.7-4-5.4-5.6-8.4c-0.9-1.6-1-3.9,0.6-4.9c1.4-1,3.6-0.3,4.5,1.4c1.3,2.4,2.7,4.8,4.4,6.9
			c1.2,1.5,1.8,3.6,0.6,5.1C98.3,468.9,96,469.1,94.8,467.6z"/>
		<path class="st1" d="M108.3,490.1c-2.3-2-4.6-4-6.8-6c-2.7-2.4,0.2-6.9,2.9-4.5c2.3,2,4.6,4,6.8,6
			C114,488,111.1,492.5,108.3,490.1z"/>
		<path class="st1" d="M119.5,481.5c-3.2-1.2-4.9-3.7-6.8-6.5c-2.7-3.9-5.4-7.9-8.1-11.9c-1.6-2.3,0.2-5.3,2.1-2.5
			c1.8,2.6,3.6,5.3,5.4,7.9c1.7,2.5,3.9,7.1,6.8,8.2C120.9,477.6,122,482.5,119.5,481.5z"/>
		<path class="st1" d="M131.6,478.9c-5.5-3.4-10.2-7.9-13.9-13.4c-1-1.5-1.9-4.3-0.5-5.7c1.4-1.4,3.5-0.1,4.5,1.4
			c2.9,4.3,6.5,7.7,10.9,10.4C135.7,473.6,136.1,481.7,131.6,478.9z"/>
		<path class="st1" d="M142.1,463c1.1,1.3,2.9,2.8,4.4,3.6c2.3,1.2,4.1,4.1,3.3,6.7c0,0.1,0,0.2-0.1,0.2c2.2,0.9,3.6,3.5,3.7,5.9
			c0,1.7,0.5,4,1.1,5.6c0.9,2.4,0.4,5.3-2.1,6.2c-2.4,0.8-5.3-1.1-6.2-3.5c-1.4-3.5-2.1-7-2.1-10.7c0-0.4,0-0.7,0.1-1
			c-3.2-1.8-6-4-8.4-6.8c-1.7-2-2-5.4-0.2-7.2C137.6,460.1,140.4,461.1,142.1,463z"/>
		<path class="st1" d="M153,461.7c0.7-0.6,1.4-0.5,2.2-0.2c2.1,0.8,3.3,3.7,3.8,5.7c0.1,0.4,0.1,0.8,0.2,1.3
			c1.5,1.4,3.1,3.6,2.9,5.6c-0.1,0.9-0.4,1.5-1.2,1.9s-2-0.1-2.8-0.5c-0.5-0.3-1.1-0.7-1.6-1.2c-1.1-0.6-1.9-1.6-2.6-2.6
			c-0.7-1-1.3-2.5-1.1-3.7c-0.2-0.6-0.3-1.2-0.3-1.8c-0.2-0.7-0.3-1.4-0.3-2C152.2,463.5,152.3,462.2,153,461.7z"/>
		<path class="st1" d="M162.9,458.5c1.8-1.2,4.1-0.7,6,0.4c1,0.6,1.6,2,1.5,3.2c0.2,0.3,0.3,0.7,0.3,1.1c0.2,2.2-0.5,4.4-2.4,5.5
			c-1.5,0.8-3,0.5-4.2-0.9c-0.7-0.9-0.9-2.4-0.4-3.4c-0.8-0.4-1.5-1-1.8-1.7C161,461,161.5,459.5,162.9,458.5z"/>
		<path class="st1" d="M446.5,445.5c5.2,2.7-0.4-4.5-7.7-10.9c-22.2-19.4-61.5-36.1-95-33.4c-21.4,1.7-60,18.7-76,33.6
			c-3.7,3.4-15.8,13.6-9.3,10.9C297.9,421.9,356.4,373.7,446.5,445.5z"/>
		<path class="st1" d="M255.4,472.2c1.6,2.6,5.5,0,3.9-2.6C257.7,466.9,253.8,469.5,255.4,472.2z"/>
		<path class="st1" d="M266.4,461.9c1.1,1.8,3.9,0.1,2.8-1.7C268.1,458.4,265.3,460.1,266.4,461.9z"/>
		<path class="st1" d="M278.4,450.8c1.2,2,4.4,1.1,3-1.2C280.3,447.6,277,448.5,278.4,450.8z"/>
		<path class="st1" d="M289.4,442.4c1.3,2.1,4.2-0.1,2.9-2.2C291.1,438.1,288.2,440.3,289.4,442.4z"/>
		<path class="st1" d="M308,435.5c0.3,0.6,1.3,1.9,2.2,1.4l1.7-1c0.9-0.5,0.5-1.9,0.1-2.6c-0.3-0.6-1.3-1.9-2.2-1.4l-1.7,1
			C307.3,433.4,307.7,434.8,308,435.5z"/>
		<path class="st1" d="M322.1,429.1c1.5,2.4,5.4,1.2,3.8-1.5C324.4,425.2,320.5,426.4,322.1,429.1z"/>
		<path class="st1" d="M339,425.1c1,1.6,4.6,2,3.2-0.4C341.2,423.1,337.6,422.7,339,425.1z"/>
		<path class="st1" d="M259.1,493.8c2.4,4,8.5,2.3,5.7-2.3C262.4,487.5,256.3,489.2,259.1,493.8z"/>
		<path class="st1" d="M267.7,484.4c2.3,3.9,8.1-0.1,5.7-3.9C271.1,476.6,265.4,480.5,267.7,484.4z"/>
		<path class="st1" d="M280.1,472.3c1.1,1.8,5.2,2.3,3.6-0.4C282.5,470.1,278.4,469.6,280.1,472.3z"/>
		<path class="st1" d="M292.4,463.9c2,3.3,4.8,1.3,2.8-1.9C293.2,458.6,290.4,460.6,292.4,463.9z"/>
		<path class="st1" d="M301.1,459c2.8,4.7,9.8,0.2,6.9-4.5C305.2,449.9,298.2,454.3,301.1,459z"/>
		<path class="st1" d="M313.8,452.6c2.9,4.9,10,0.2,7.1-4.8C317.9,443,310.8,447.7,313.8,452.6z"/>
		<path class="st1" d="M331.4,445.6c1.9,3.2,5.3,1.4,3.4-1.8C332.8,440.6,329.4,442.3,331.4,445.6z"/>
		<path class="st1" d="M340,442.5c2.4,4,9.4,1.5,6.8-2.8C344.4,435.7,337.4,438.3,340,442.5z"/>
		<path class="st1" d="M280.4,545.4c2.3,3.8,8.2,1.6,5.7-2.6C283.8,538.9,277.8,541.1,280.4,545.4z"/>
		<path class="st1" d="M271.9,528.2c1.2,2.1,5.7,2.3,3.9-0.7C274.6,525.5,270.1,525.2,271.9,528.2z"/>
		<path class="st1" d="M269.9,514.7c1.1,1.8,5.1,2.2,3.4-0.5C272.2,512.4,268.2,512,269.9,514.7z"/>
		<path class="st1" d="M276.4,503.6c1.7,2.8,6.9,1.5,4.9-1.8C279.6,498.9,274.4,500.3,276.4,503.6z"/>
		<path class="st1" d="M287.4,493.6c2,3.4,7.7,2.5,5.2-1.6C290.6,488.6,285,489.5,287.4,493.6z"/>
		<path class="st1" d="M298.7,487.4c1.5,2.6,5.5,0.9,3.8-1.9C301,482.9,297,484.6,298.7,487.4z"/>
		<path class="st1" d="M309.6,482.9c1.2,2,4.3,0.3,3.1-1.7C311.5,479.1,308.4,480.9,309.6,482.9z"/>
		<path class="st1" d="M322.5,478.3c1.8,2.9,6.4,1.3,4.4-1.9C325.2,473.5,320.6,475.1,322.5,478.3z"/>
		<path class="st1" d="M337.2,476.4c1.5,2.5,5.3,0.3,3.7-2.3C339.4,471.7,335.6,473.8,337.2,476.4z"/>
		<path class="st1" d="M346.4,475.8c2,3.3,9.3,3.7,6.4-1.1C350.7,471.3,343.4,470.9,346.4,475.8z"/>
		<path class="st1" d="M293.8,531.4c2.1,3.4,7.4,0.3,5.3-3.2C297.1,524.8,291.7,528,293.8,531.4z"/>
		<path class="st1" d="M288.2,516.1c0,0.8,0.3,1.7,0.7,2.3c0.4,0.7,1,1.4,1.7,1.7c0.5,0.3,1.1,0.5,1.7,0.1l0.3-0.2
			c0.5-0.3,0.7-1,0.7-1.5c0-0.8-0.3-1.7-0.7-2.3c-0.4-0.7-1-1.4-1.7-1.7c-0.5-0.3-1.1-0.5-1.7-0.1l-0.3,0.2
			C288.3,514.9,288.2,515.6,288.2,516.1z"/>
		<path class="st1" d="M296.2,509.3c1.5,2.4,5.4,1.4,3.8-1.4C298.5,505.5,294.5,506.5,296.2,509.3z"/>
		<path class="st1" d="M308.9,503.5c1.4,2.3,5.1,1.7,3.5-1C311,500.2,307.2,500.7,308.9,503.5z"/>
		<path class="st1" d="M319.7,502.8c2.4,3.9,7.9,0.9,5.5-3.1C322.8,495.9,317.3,498.9,319.7,502.8z"/>
		<path class="st1" d="M331.5,502c0.9,1.5,3.2,0.5,2.1-1.2C332.8,499.3,330.5,500.3,331.5,502z"/>
		<path class="st1" d="M344.7,504.4c1.5,2.4,5.3,2.6,3.3-0.8C346.4,501.2,342.6,501,344.7,504.4z"/>
		<path class="st1" d="M309.1,521.9c2.7,4.4,9.9,2.1,7-2.8C313.4,514.6,306.2,517,309.1,521.9z"/>
		<path class="st1" d="M326,518.4c2.1,3.5,7.1,1,4.9-2.6C328.8,512.3,323.9,514.8,326,518.4z"/>
		<path class="st1" d="M340.6,519.4c2.1,3.4,6.5,1,4.4-2.5C342.9,513.5,338.5,516,340.6,519.4z"/>
		<path class="st1" d="M282.3,566.9c2.2,3.6,9.6,3.2,6.6-1.8C286.7,561.5,279.2,561.9,282.3,566.9z"/>
		<path class="st1" d="M295.3,554.3c1.8,3,4.7,1.2,2.9-1.8C296.3,549.6,293.5,551.3,295.3,554.3z"/>
		<path class="st1" d="M115.3,313.9c-1.6-2.7,2.1-4.8,3.7-2.1C120.6,314.5,116.9,316.7,115.3,313.9z"/>
		<path class="st1" d="M147.7,323.6c-2.3-3.8,2.4-8,5-3.8C155,323.6,150.2,327.8,147.7,323.6z"/>
		<path class="st1" d="M158.9,339c-1.2-2.1,0.6-6.1,2.4-3.1C162.6,337.9,160.7,342,158.9,339z"/>
		<path class="st1" d="M129.5,311.8c-2.2-3.6,1.6-10,4.6-5C136.3,310.5,132.6,316.9,129.5,311.8z"/>
		<path class="st1" d="M146.7,306.2c-1.8-3,1.1-4.7,2.9-1.7C151.4,307.5,148.5,309.2,146.7,306.2z"/>
		<path class="st1" d="M303.9,543.6c1,1.7,3,3.6,5.2,3.5c1.7-0.1,3.2-1.3,2.1-3.1c-1-1.7-3-3.6-5.2-3.5
			C304.3,540.5,302.8,541.8,303.9,543.6z"/>
		<path class="st1" d="M318.1,539c1.4,2.4,5.4,2.8,3.4-0.5C320,536.1,316,535.7,318.1,539z"/>
		<path class="st1" d="M329.9,538.4c1.9,3.1,5.1,1.4,3.2-1.7C331.2,533.5,328,535.2,329.9,538.4z"/>
		<path class="st1" d="M337.5,540.8c2.8,4.6,8.5,0.5,5.8-4C340.5,532.2,334.8,536.3,337.5,540.8z"/>
		<path class="st1" d="M261,620.3c1.4,2.3,5.9,1.7,4.1-1.2C263.7,616.7,259.2,617.3,261,620.3z"/>
		<path class="st1" d="M273.5,606.3c1.6,2.7,5.4,0.5,3.7-2.2C275.6,601.5,271.9,603.6,273.5,606.3z"/>
		<path class="st1" d="M286.2,593.7c1.7,2.8,5.9,1.7,3.9-1.7C288.4,589.2,284.2,590.3,286.2,593.7z"/>
		<path class="st1" d="M294.8,578.3c1.7,2.8,6,1.7,4-1.6C297.1,573.9,292.8,575,294.8,578.3z"/>
		<path class="st1" d="M303,562.6c1.5,2.6,7.2,2.9,4.9-0.9C306.3,559.1,300.7,558.8,303,562.6z"/>
		<path class="st1" d="M315.2,560.2c1.8,2.9,7.4,2,5.2-1.6C318.6,555.7,313,556.6,315.2,560.2z"/>
		<path class="st1" d="M331.4,559.3c1.7,2.8,6.2,1.4,4.3-1.7C334,554.8,329.5,556.1,331.4,559.3z"/>
		<path class="st1" d="M343.5,561.5c1.9,3.1,6.4,1.4,4.3-2.2C346,556.3,341.4,558,343.5,561.5z"/>
		<path class="st1" d="M340.1,573.9c-0.4,0.4-0.3,1.2-0.1,1.7c0.6,1.5,2.2,2.9,3.8,3.3l0.9,0.2c0.5,0.1,1.3,0.1,1.7-0.3
			c0.4-0.4,0.3-1.2,0.1-1.7c-0.6-1.5-2.2-2.9-3.8-3.3c-0.3-0.1-0.6-0.2-0.9-0.2C341.2,573.5,340.5,573.5,340.1,573.9z"/>
		<path class="st1" d="M326.4,575c0.1,2,1.8,4,3.7,4.5c0.3,0.1,0.6,0.2,0.9,0.2c0.9,0.2,1.9,0.3,2.6-0.2c0.7-0.4,1.2-1.3,1.2-2.1
			c-0.1-2-1.8-4-3.7-4.5c-0.3-0.1-0.6-0.2-0.9-0.2c-0.9-0.2-1.9-0.3-2.6,0.2C326.9,573.3,326.4,574.1,326.4,575z"/>
		<path class="st1" d="M314.4,577.7c1.2,2.1,4.3,0.4,3.1-1.6C316.2,574,313.1,575.6,314.4,577.7z"/>
		<path class="st1" d="M303,588.1c1.9,3.1,8.4,3.1,5.9-1.1C307,583.9,300.5,583.9,303,588.1z"/>
		<path class="st1" d="M297.5,604.6c2.6,4.3,8.1,0.3,5.5-4C300.5,596.3,294.9,600.4,297.5,604.6z"/>
		<path class="st1" d="M285.6,618.2c0.8,1.4,3.4,0.9,2.4-0.8C287.2,616,284.6,616.5,285.6,618.2z"/>
		<path class="st1" d="M284.5,632.5c0.8,1.4,5.4,3,4,0.6C287.7,631.7,283.1,630.1,284.5,632.5z"/>
		<path class="st1" d="M304.1,635c1.6,2.6,5.8,1.2,4.1-1.6C306.6,630.8,302.3,632.1,304.1,635z"/>
		<path class="st1" d="M311.6,618.4c1.8,2.9,6.1,0.3,4.3-2.6C314.1,612.9,309.8,615.5,311.6,618.4z"/>
		<path class="st1" d="M320.2,600.2c0.7,1.2,3.5,1.6,2.3-0.3C321.8,598.8,319,598.3,320.2,600.2z"/>
		<path class="st1" d="M336.7,596.1c1.1,1.8,3.9,0.8,2.7-1.2C338.3,593.1,335.5,594.1,336.7,596.1z"/>
		<path class="st1" d="M350,596c1.9,3.2,5.3,1.1,3.4-2.1C351.5,590.8,348.1,592.9,350,596z"/>
		<path class="st1" d="M341.8,615.9c2.8,4.6,7.2,1.6,4.4-2.9C343.4,608.4,339,611.3,341.8,615.9z"/>
		<path class="st1" d="M326.1,629.7c1.9,3.1,6.5,1,4.5-2.3C328.7,624.3,324.1,626.3,326.1,629.7z"/>
		<path class="st1" d="M341.1,637.9c2.6,4.3,7.2,1.9,4.6-2.5C343.1,631.1,338.5,633.5,341.1,637.9z"/>
		<path class="st1" d="M176.5,282.3c-1.9-3.1,1.1-5.2,3-2S178.4,285.5,176.5,282.3z"/>
		<path class="st1" d="M177.9,274.5c-2.8-4.6,3.6-7.8,6.3-3.2C187,275.8,180.7,279,177.9,274.5z"/>
		<path class="st1" d="M72,305.1c-1.4-2.3,1.2-6,3-3.1C76.4,304.3,73.7,308.1,72,305.1z"/>
		<path class="st1" d="M90.1,300.6c-1.6-2.7,2-5,3.7-2.3C95.4,300.9,91.8,303.3,90.1,300.6z"/>
		<path class="st1" d="M107.2,295.2c-1.7-2.8,1.3-6,3.3-2.6C112.2,295.4,109.2,298.5,107.2,295.2z"/>
		<path class="st1" d="M124.8,294.8c-1.7-2.8,1.3-6.1,3.3-2.8C129.9,294.8,126.8,298.1,124.8,294.8z"/>
		<path class="st1" d="M142.5,294.8c-1.5-2.6,0.8-7.7,3.1-3.9C147.2,293.5,144.9,298.6,142.5,294.8z"/>
		<path class="st1" d="M150.4,285.2c-1.8-2.9,1.7-7.5,3.8-3.9C156,284.2,152.6,288.8,150.4,285.2z"/>
		<path class="st1" d="M158.8,271.2c-1.7-2.8,1.6-6.1,3.5-3C163.9,271,160.6,274.4,158.8,271.2z"/>
		<path class="st1" d="M162.4,259.4c-1.9-3.1,1.8-6.3,3.9-2.8C168.2,259.8,164.5,263,162.4,259.4z"/>
		<path class="st1" d="M149.8,256.8c-0.6,0.1-1.2-0.3-1.5-0.7c-1.1-1.3-1.5-3.3-1.1-4.9l0.2-0.9c0.1-0.5,0.5-1.2,1.1-1.3
			s1.2,0.3,1.5,0.7c1.1,1.3,1.5,3.3,1.1,4.9c-0.1,0.3-0.2,0.6-0.2,0.9C150.8,256,150.4,256.6,149.8,256.8z"/>
		<path class="st1" d="M134.5,277.7c-1.2-2.1,1.6-4,2.9-1.9C138.6,277.9,135.8,279.8,134.5,277.7z"/>
		<path class="st1" d="M120,282.9c-1.9-3.1,1.2-8.9,3.7-4.7C125.6,281.4,122.6,287.1,120,282.9z"/>
		<path class="st1" d="M102.8,280.1c-2.6-4.3,3.5-7.3,6.1-3.1C111.5,281.4,105.4,284.4,102.8,280.1z"/>
		<path class="st1" d="M85.3,284.3c-0.8-1.4,0.8-3.5,1.8-1.8C87.9,283.9,86.3,286,85.3,284.3z"/>
		<path class="st1" d="M72.2,278.6c-0.8-1.4-0.1-6.2,1.3-3.8C74.3,276.2,73.6,281,72.2,278.6z"/>
		<path class="st1" d="M79,260.2c-1.6-2.6,1.6-5.7,3.4-2.9C83.9,259.9,80.7,263,79,260.2z"/>
		<path class="st1" d="M97.1,261.2c-1.8-2.9,2.6-5.5,4.3-2.6C103.2,261.6,98.9,264.2,97.1,261.2z"/>
		<path class="st1" d="M117.3,262.1c-0.7-1.2,0.2-3.8,1.3-1.9C119.3,261.4,118.4,264,117.3,262.1z"/>
		<path class="st1" d="M128.6,249.4c-1.1-1.8,1.1-3.8,2.3-1.8C132,249.4,129.8,251.4,128.6,249.4z"/>
		<path class="st1" d="M134.9,237.7c-1.9-3.2,1.5-5.2,3.4-2C140.3,238.8,136.8,240.8,134.9,237.7z"/>
		<path class="st1" d="M113.5,235.7c-2.8-4.6,1.9-7.1,4.7-2.5C120.9,237.7,116.2,240.2,113.5,235.7z"/>
		<path class="st1" d="M94,243.1c-1.9-3.1,2.1-6.2,4.2-2.9C100,243.3,96,246.4,94,243.1z"/>
		<path class="st1" d="M93.7,226.1c-2.6-4.3,1.7-7.2,4.3-2.9C100.6,227.4,96.4,230.4,93.7,226.1z"/>
		<path class="st1" d="M236.9,460.6c2.2,3.7,9.7,4.2,6.5-1.2C241.2,455.7,233.7,455.2,236.9,460.6z"/>
		<path class="st1" d="M201.3,378.7c-1.6-2.6,2.5-4.9,4.1-2.3C207.1,379.1,202.9,381.4,201.3,378.7z"/>
		<path class="st1" d="M215.5,373.7c-1.1-1.8,1.7-3.5,2.8-1.7C219.4,373.9,216.6,375.6,215.5,373.7z"/>
		<path class="st1" d="M230.9,368.3c-1.2-2,1.1-4.4,2.5-2.1C234.6,368.2,232.3,370.6,230.9,368.3z"/>
		<path class="st1" d="M243.5,362.5c-1.3-2.1,2-3.7,3.3-1.6S244.8,364.6,243.5,362.5z"/>
		<path class="st1" d="M258.3,349.2c-0.4-0.6-1.1-2.1-0.2-2.6l1.7-1c0.9-0.5,1.9,0.4,2.4,1.1c0.4,0.6,1.1,2.1,0.2,2.6l-1.7,1
			C259.8,350.8,258.7,349.9,258.3,349.2z"/>
		<path class="st1" d="M270.5,339.8c-1.5-2.4,1.5-5.3,3.1-2.7C275,339.5,272.1,342.4,270.5,339.8z"/>
		<path class="st1" d="M281.9,326.6c-1-1.6,0.4-5,1.8-2.6C284.7,325.7,283.4,329,281.9,326.6z"/>
		<path class="st1" d="M183.9,365.4c-2.4-4,1.9-8.6,4.7-4C191,365.4,186.7,370,183.9,365.4z"/>
		<path class="st1" d="M196.3,362.2c-2.3-3.9,3.8-7.1,6.2-3.2C204.8,362.8,198.6,366,196.3,362.2z"/>
		<path class="st1" d="M212.7,356.8c-1.1-1.8,0.4-5.6,2-3C215.8,355.7,214.3,359.5,212.7,356.8z"/>
		<path class="st1" d="M225.9,349.8c-2-3.3,1-4.9,3-1.6C230.9,351.5,227.9,353.1,225.9,349.8z"/>
		<path class="st1" d="M234.2,344.4c-2.8-4.7,4.3-8.7,7.2-4C244.2,345,237.1,349.1,234.2,344.4z"/>
		<path class="st1" d="M245.8,336.1c-2.9-4.9,4.5-9,7.5-4C256.3,337,248.8,341.1,245.8,336.1z"/>
		<path class="st1" d="M260.2,323.9c-1.9-3.2,1.2-5.4,3.2-2.1C265.4,325,262.2,327.1,260.2,323.9z"/>
		<path class="st1" d="M266.9,317.7c-2.4-4,3.1-9,5.6-4.8C275,317,269.5,322,266.9,317.7z"/>
		<path class="st1" d="M170.4,346.1c-1.1-1.8,0.4-5.5,2.1-2.8C173.6,345,172.1,348.8,170.4,346.1z"/>
		<path class="st1" d="M183.4,345.5c-1.7-2.8,1.9-6.8,3.9-3.5C188.9,344.8,185.3,348.8,183.4,345.5z"/>
		<path class="st1" d="M197.3,340.4c-2-3.4,1.4-8,3.8-3.9C203.2,339.9,199.8,344.4,197.3,340.4z"/>
		<path class="st1" d="M208.1,333.3c-1.5-2.6,1.8-5.3,3.4-2.5C213.1,333.4,209.7,336.1,208.1,333.3z"/>
		<path class="st1" d="M217.1,325.7c-1.2-2,1.8-3.9,3-1.9C221.3,325.8,218.3,327.7,217.1,325.7z"/>
		<path class="st1" d="M227.2,316.5c-1.8-2.9,1.8-6.2,3.8-3C232.7,316.4,229.1,319.7,227.2,316.5z"/>
		<path class="st1" d="M235.7,304.4c-1.5-2.5,2.2-4.9,3.7-2.3C240.9,304.6,237.3,307,235.7,304.4z"/>
		<path class="st1" d="M240.5,296.5c-2-3.3,1-9.9,4-5.1C246.5,294.8,243.4,301.4,240.5,296.5z"/>
		<path class="st1" d="M166.8,317.1c-2.1-3.4,3.2-6.7,5.3-3.3C174.2,317.3,168.9,320.6,166.8,317.1z"/>
		<path class="st1" d="M177.7,329.2c-0.7-0.4-1.3-1.1-1.7-1.7c-0.4-0.7-0.8-1.5-0.7-2.3c0-0.6,0.1-1.2,0.7-1.5l0.3-0.2
			c0.5-0.3,1.2-0.1,1.7,0.1c0.7,0.4,1.3,1.1,1.7,1.7c0.4,0.7,0.8,1.5,0.7,2.3c0,0.6-0.1,1.2-0.7,1.5l-0.3,0.2
			C178.9,329.7,178.2,329.5,177.7,329.2z"/>
		<path class="st1" d="M187.5,325.3c-1.5-2.4,1.3-5.5,3-2.7C191.9,325.1,189.1,328.1,187.5,325.3z"/>
		<path class="st1" d="M198.5,316.8c-1.4-2.3,0.9-5.4,2.5-2.6C202.4,316.5,200.2,319.5,198.5,316.8z"/>
		<path class="st1" d="M204.2,307.5c-2.4-3.9,2.9-7.4,5.3-3.4C211.8,308,206.5,311.5,204.2,307.5z"/>
		<path class="st1" d="M210.5,297.4c-0.9-1.5,1-3,2-1.4C213.4,297.6,211.5,299.1,210.5,297.4z"/>
		<path class="st1" d="M214.4,284.7c-1.5-2.4,0.2-5.9,2.2-2.5C218.1,284.6,216.4,288.1,214.4,284.7z"/>
		<path class="st1" d="M182.4,308c-2.7-4.4,2.8-9.8,5.7-4.9C190.8,307.6,185.3,312.9,182.4,308z"/>
		<path class="st1" d="M193.3,294.7c-2.1-3.5,2.4-6.7,4.6-3.1C200,295.1,195.5,298.3,193.3,294.7z"/>
		<path class="st1" d="M199.2,281.3c-2.1-3.4,2.1-6.2,4.2-2.7C205.5,282,201.3,284.8,199.2,281.3z"/>
		<path class="st1" d="M160.8,302.5c-1-1.7-1.7-4.4-0.7-6.3c0.8-1.5,2.7-2.2,3.8-0.4c1,1.7,1.7,4.4,0.7,6.3
			C163.7,303.6,161.8,304.3,160.8,302.5z"/>
		<path class="st1" d="M171.4,292.1c-1.4-2.4,0-6.1,2-2.7C174.8,291.7,173.4,295.5,171.4,292.1z"/>
		<path class="st1" d="M143.5,268c-1.8-1-2.7-3.4-2.2-5.4c0.1-0.3,0.2-0.6,0.2-0.9c0.2-0.9,0.6-1.8,1.4-2.2c0.7-0.4,1.7-0.5,2.4-0.1
			c1.8,1,2.7,3.4,2.2,5.4c-0.1,0.3-0.2,0.6-0.2,0.9c-0.2,0.9-0.6,1.8-1.4,2.2C145.2,268.3,144.2,268.4,143.5,268z"/>
		<path class="st1" d="M617,483.5"/>
		<line class="st1" x1="476.5" y1="595.3" x2="476.5" y2="595.3"/>
		<path class="st1" d="M534,409.7c1.7-3.1-2.2-5.4-3.9-2.3C528.5,410.5,532.3,412.8,534,409.7z"/>
		<path class="st1" d="M545.3,409.5c2.9-5.2-4.5-8.2-7.3-3.1C535.2,411.6,542.5,414.6,545.3,409.5z"/>
		<path class="st1" d="M556.3,403.8c2.3-4.2-2.9-7.7-5.4-3.2C548.7,404.7,553.9,408.3,556.3,403.8z"/>
		<path class="st1" d="M565.6,399.4c2.5-4.5-1.8-7.4-4.3-2.8S563.1,404,565.6,399.4z"/>
		<path class="st1" d="M575,393.7c2.7-5-2.7-12-6.2-5.7C566.1,393.1,571.5,400.1,575,393.7z"/>
		<path class="st1" d="M581.5,383.3c1.7-3.1-2.4-6.1-4.1-3C575.7,383.4,579.8,386.4,581.5,383.3z"/>
		<path class="st1" d="M588.1,376c1.9-3.4-0.9-7.6-3.3-3.3C582.9,376.1,585.7,380.3,588.1,376z"/>
		<path class="st1" d="M597.2,368.5c2.4-4.5-2.6-10.5-5.6-5C589.2,367.9,594.2,373.9,597.2,368.5z"/>
		<path class="st1" d="M605.7,355.9c1.7-3.2-1.3-5.2-3.1-2C600.9,357.2,603.9,359.2,605.7,355.9z"/>
		<path class="st1" d="M612.2,346c1.6-2.9-1.6-5.7-3.4-2.4C607.3,346.5,610.4,349.3,612.2,346z"/>
		<path class="st1" d="M619.6,338c3.1-5.7-3.9-10.9-7.2-4.8C609.3,338.8,616.3,344.1,619.6,338z"/>
		<path class="st1" d="M625.7,325.1c2.3-4.3-4.1-7-6.4-2.8C616.9,326.6,623.4,329.3,625.7,325.1z"/>
		<path class="st1" d="M628.4,314.6c2.6-4.7-2.3-7-4.8-2.3C621,317,625.9,319.2,628.4,314.6z"/>
		<path class="st1" d="M523.6,396.4c2.2-4.1-3.8-6.7-6-2.6C515.4,397.8,521.4,400.4,523.6,396.4z"/>
		<path class="st1" d="M531.9,395.7c2-3.7-1.9-5.7-3.9-2C526,397.4,529.9,399.4,531.9,395.7z"/>
		<path class="st1" d="M541.9,394.9c1.5-2.8-2.1-4.7-3.6-1.9C536.7,395.8,540.4,397.7,541.9,394.9z"/>
		<path class="st1" d="M550.2,391.2c1.1-2.1-0.5-6-2.2-2.9C546.8,390.3,548.5,394.3,550.2,391.2z"/>
		<path class="st1" d="M560.8,384.2c2.5-4.6-3-9.4-5.7-4.5C552.6,384.2,558.2,389,560.8,384.2z"/>
		<path class="st1" d="M568.4,377c1.8-3.4-2.1-7.5-4.2-3.7C562.4,376.6,566.3,380.8,568.4,377z"/>
		<path class="st1" d="M577.4,368.9c2.8-5.1-3.5-11-6.6-5.3C568,368.7,574.3,374.6,577.4,368.9z"/>
		<path class="st1" d="M582.4,360.8c2.2-4-3.1-8-5.3-3.9C574.9,360.9,580.2,364.9,582.4,360.8z"/>
		<path class="st1" d="M588.3,351.5c2.1-3.9-2.5-5.8-4.6-2C581.6,353.4,586.3,355.3,588.3,351.5z"/>
		<path class="st1" d="M595.4,339.9c1.5-2.8-1.6-5.3-3.4-2.2C590.5,340.5,593.6,343,595.4,339.9z"/>
		<path class="st1" d="M600.5,329.9c1.6-2.9-2-5-3.6-2C595.3,330.7,598.9,332.8,600.5,329.9z"/>
		<path class="st1" d="M606.6,320.4c1.5-2.7-1-3.8-2.5-1.1C602.6,321.9,605.1,323,606.6,320.4z"/>
		<path class="st1" d="M613.4,308.6c2.4-4.4-4.1-7.5-6.5-3.1C604.6,309.9,611,313,613.4,308.6z"/>
		<path class="st1" d="M522.4,378.3c1.9-3.4-2.6-6.9-4.6-3.3C516,378.5,520.4,382,522.4,378.3z"/>
		<path class="st1" d="M533.4,381.5c2.3-4.2-1.6-8.9-4.4-3.9C526.7,381.8,530.6,386.5,533.4,381.5z"/>
		<path class="st1" d="M545.2,376.3c2.6-4.7-2.3-10.1-5.2-4.7C537.4,376.3,542.3,381.7,545.2,376.3z"/>
		<path class="st1" d="M552.8,365.9c1.4-2.6-1.1-3.9-2.5-1.3C548.9,367.2,551.4,368.5,552.8,365.9z"/>
		<path class="st1" d="M564.3,359.5c2.2-4-2.4-9.3-5-4.5C557.1,359,561.7,364.3,564.3,359.5z"/>
		<path class="st1" d="M572.1,349.5l0.2-0.3c1.1-2,1.1-4.8-0.8-6.1c-1.7-1.2-4.4-0.8-5.5,1.3l-0.2,0.3c-1.1,2-1.1,4.8,0.8,6.1
			C568.3,352,571,351.6,572.1,349.5z"/>
		<path class="st1" d="M579.1,336.7c1.4-2.5-1.7-5.4-3.2-2.6C574.5,336.6,577.6,339.5,579.1,336.7z"/>
		<path class="st1" d="M586.4,321.4c0.6-1,1.2-2.3,1.2-3.5c0-0.8-0.1-1.8-0.8-2.2l-0.6-0.4c-1.8-1-4,1.6-4.8,3
			c-0.6,1-1.2,2.3-1.2,3.5c0,0.8,0.1,1.8,0.8,2.2l0.6,0.4C583.4,325.3,585.6,322.8,586.4,321.4z"/>
		<path class="st1" d="M590.7,304.9c1.5-2.7-2.3-4.7-3.8-1.9C585.4,305.7,589.2,307.7,590.7,304.9z"/>
		<path class="st1" d="M539.9,360.3c2.7-4.9-4.3-8.8-7-3.8C530.3,361.3,537.2,365.2,539.9,360.3z"/>
		<path class="st1" d="M549.1,354.5c2-3.7-2.4-6.7-4.6-2.7C542.5,355.4,547,358.5,549.1,354.5z"/>
		<path class="st1" d="M556.5,343.8c1.5-2.7-1.1-3.8-2.5-1.2C552.5,345.3,555,346.4,556.5,343.8z"/>
		<path class="st1" d="M561.1,337.5c1.6-0.7,2.9-2.6,2.5-4.4c0-0.2-0.1-0.4-0.1-0.5c-0.4-1.6-2-2.8-3.7-2.1
			c-1.6,0.7-2.9,2.6-2.5,4.4c0,0.2,0.1,0.4,0.1,0.5C557.8,337.1,559.4,338.3,561.1,337.5z"/>
		<path class="st1" d="M570.8,320c1.7-3.2-1.7-7.6-3.9-3.7C565.2,319.4,568.7,323.9,570.8,320z"/>
		<path class="st1" d="M566.6,415.2c2.5-4.6-2-7-4.5-2.4C559.7,417.3,564.1,419.8,566.6,415.2z"/>
		<path class="st1" d="M580.6,410.3c2.2-4.1-0.6-12.5-4-6.3C574.3,408.2,577.2,416.6,580.6,410.3z"/>
		<path class="st1" d="M593.6,396.2c1.6-2.9-0.8-8.3-3.1-4.1C588.9,395,591.3,400.4,593.6,396.2z"/>
		<path class="st1" d="M603.6,385.1c2.8-5.1-2.9-8.4-5.7-3.2C595.1,386.9,600.9,390.2,603.6,385.1z"/>
		<path class="st1" d="M623.2,360.3c2.6-4.9-3.4-7.9-6-3.1C614.5,362,620.5,365.1,623.2,360.3z"/>
		<path class="st1" d="M630.2,346.6c1.3-2.3-0.7-5.2-2.3-2.3C626.6,346.6,628.6,349.5,630.2,346.6z"/>
		<path class="st1" d="M640.6,332.1c3.1-5.6-1.6-7.9-4.6-2.3C632.9,335.4,637.5,337.7,640.6,332.1z"/>
		<path class="st1" d="M595.7,413.5c1.7-3.2-1.4-6.7-3.5-3C590.5,413.7,593.7,417.2,595.7,413.5z"/>
		<path class="st1" d="M610,401.8c0.4-0.5,0.9-1,1.3-1.6c0.9-1.1,1.4-2.7,0.6-3.9c-0.6-1-2.1-1.4-3-0.3c-0.4,0.5-0.9,1-1.3,1.6
			c-0.9,1.1-1.4,2.7-0.6,3.9C607.6,402.5,609.1,402.9,610,401.8z"/>
		<path class="st1" d="M623.8,382.9c1.4-2.7-1.4-5.5-3.1-2.5C619.3,383.1,622.2,385.9,623.8,382.9z"/>
		<path class="st1" d="M632.7,370.9c1.7-3.1-2.3-6.2-4.1-2.9C626.9,371.1,630.9,374.2,632.7,370.9z"/>
		<path class="st1" d="M641.7,355.7c1.3-2.5-0.6-7.1-2.6-3.6C637.8,354.6,639.8,359.2,641.7,355.7z"/>
		<path class="st1" d="M613.6,372.2c1.9-3.4-0.9-7.6-3.3-3.3C608.4,372.3,611.2,376.5,613.6,372.2z"/>
		
			<ellipse transform="matrix(0.4792 -0.8777 0.8777 0.4792 -116.6527 691.3178)" class="st1" cx="524.2" cy="444" rx="17.3" ry="5.8"/>
		
			<ellipse transform="matrix(0.4792 -0.8777 0.8777 0.4792 -117.3029 672.421)" class="st1" cx="508" cy="435.1" rx="12.5" ry="4.5"/>
		
			<ellipse transform="matrix(0.4792 -0.8777 0.8777 0.4792 -117.9399 654.7607)" class="st1" cx="492.8" cy="426.8" rx="7.8" ry="2.8"/>
		<path class="st1" d="M521.2,413.1c1.6-2.9-1.7-6-3.5-2.8C516.2,413.2,519.5,416.3,521.2,413.1z"/>
		<path class="st1" d="M508.3,412.4c1.7-3-0.9-6.4-3-2.5C503.6,412.9,506.2,416.2,508.3,412.4z"/>
		<path class="st1" d="M510.1,397c2.1-3.8-1.3-10.5-4.3-5C503.7,395.7,507.1,402.5,510.1,397z"/>
		<path class="st1" d="M643.1,390.8c0,0-34.9,50.4-93.4,40c-1.6-2.9,31.9,4.5,61-13.6C632.3,403.8,636.4,390.8,643.1,390.8z"/>
		<path class="st1" d="M630.1,423.7c0,0-41.5,38.7-89.8,11.2c-0.7-3.3,26.6,13.9,55.9,4.8C617.7,433.1,624.2,421.7,630.1,423.7z"/>
		<path class="st1" d="M617.5,457.5c2-2.8,3.7-5.6,5.2-8.7c0.8-1.7,0.8-3.9-0.8-4.9c-1.4-0.9-3.6-0.1-4.4,1.6
			c-1.2,2.5-2.5,4.9-4.1,7.1c-1.1,1.5-1.6,3.6-0.4,5.1C614.1,459,616.4,459,617.5,457.5z"/>
		<path class="st1" d="M605,480.5c2.2-2.1,4.4-4.2,6.6-6.3c2.6-2.5-0.5-6.9-3.1-4.3c-2.2,2.1-4.4,4.2-6.6,6.3
			C599.3,478.7,602.3,483.1,605,480.5z"/>
		<path class="st1" d="M593.4,472.5c3.1-1.3,4.7-3.9,6.5-6.8c2.5-4.1,5.1-8.1,7.6-12.2c1.5-2.3-0.4-5.3-2.3-2.4
			c-1.7,2.7-3.4,5.4-5.1,8.1c-1.6,2.6-3.6,7.3-6.5,8.5C591.8,468.6,591,473.5,593.4,472.5z"/>
		<path class="st1" d="M581.3,470.3c5.3-3.6,9.8-8.4,13.3-14c1-1.6,1.7-4.4,0.3-5.7c-1.4-1.3-3.5,0.1-4.4,1.6
			c-2.8,4.4-6.2,8-10.4,10.9C576.9,465.2,576.9,473.3,581.3,470.3z"/>
		<path class="st1" d="M499.8,471c-1.7,3.1-5.7,1.1-4-2C497.4,465.9,501.5,467.9,499.8,471z"/>
		<path class="st1" d="M505.7,480.7c-2.9,5.2-9.4,0.7-6.6-4.5C502,470.9,508.5,475.5,505.7,480.7z"/>
		<path class="st1" d="M506.8,492.9c-2.3,4.2-8,1.7-5.6-2.8C503.5,486,509.3,488.5,506.8,492.9z"/>
		<path class="st1" d="M508.2,503.1c-2.5,4.5-7.2,2.5-4.7-2.1C506,496.5,510.7,498.5,508.2,503.1z"/>
		<path class="st1" d="M508.5,514.1c-2.7,5-11.6,4.3-8.1-2.1C503.1,507,512,507.8,508.5,514.1z"/>
		<path class="st1" d="M503.2,525.2c-1.7,3.1-6.4,1.3-4.7-1.8C500.2,520.3,504.9,522.1,503.2,525.2z"/>
		<path class="st1" d="M500.6,534.7c-1.9,3.4-6.9,3.3-4.6-1C497.9,530.3,503,530.4,500.6,534.7z"/>
		<path class="st1" d="M499.2,546.4c-2.4,4.5-10.2,3.5-7.2-2C494.4,540,502.2,540.9,499.2,546.4z"/>
		<path class="st1" d="M493.3,560.4c-1.7,3.2-5.1,1.7-3.3-1.6C491.7,555.6,495.1,557.1,493.3,560.4z"/>
		<path class="st1" d="M488.5,571.2c-1.6,2.9-5.6,1.7-3.8-1.6C486.2,566.8,490.3,567.9,488.5,571.2z"/>
		<path class="st1" d="M485.7,581.8c-3.1,5.7-11.3,2.7-8-3.4C480.8,572.7,489,575.7,485.7,581.8z"/>
		<path class="st1" d="M478.1,593.9c-2.3,4.3-8.1,0.3-5.8-3.9C474.7,585.7,480.5,589.6,478.1,593.9z"/>
		<path class="st1" d="M470.7,601.9c-2.6,4.7-7.1,1.9-4.6-2.8C468.8,594.3,473.3,597.2,470.7,601.9z"/>
		<path class="st1" d="M482.9,469.5c-2.2,4.1-7.7,0.4-5.5-3.7C479.7,461.7,485.1,465.4,482.9,469.5z"/>
		<path class="st1" d="M486.9,476.8c-2,3.7-5.8,1.5-3.8-2.2C485.1,470.9,488.9,473.1,486.9,476.8z"/>
		<path class="st1" d="M491.5,485.7c-1.5,2.8-5.1,0.8-3.6-2C489.5,480.8,493.1,482.8,491.5,485.7z"/>
		<path class="st1" d="M492.9,494.6c-1.1,2.1-5.4,2.8-3.7-0.3C490.4,492.3,494.6,491.5,492.9,494.6z"/>
		<path class="st1" d="M492.8,507.4c-2.5,4.6-9.5,2.5-6.9-2.3C488.4,500.4,495.4,502.5,492.8,507.4z"/>
		<path class="st1" d="M490.8,517.6c-1.8,3.4-7.5,2.3-5.4-1.5C487.2,512.8,492.9,513.8,490.8,517.6z"/>
		<path class="st1" d="M488.8,529.6c-2.8,5.1-11.1,3-8-2.7C483.6,521.8,492,523.9,488.8,529.6z"/>
		<path class="st1" d="M484.8,538.2c-2.2,4-8.4,1.7-6.2-2.4C480.8,531.8,487,534.1,484.8,538.2z"/>
		<path class="st1" d="M480.1,548.2c-2.1,3.9-6.2,1-4.1-2.8C478.1,541.4,482.2,544.4,480.1,548.2z"/>
		<path class="st1" d="M474.2,560.3c-1.5,2.8-5.4,1.5-3.6-1.7C472.1,555.9,475.9,557.2,474.2,560.3z"/>
		<path class="st1" d="M468.5,570.1c-1.6,2.9-5.3,1-3.7-1.9C466.5,565.3,470.1,567.2,468.5,570.1z"/>
		<path class="st1" d="M463.8,580.3c-1.5,2.7-3.7,1.2-2.3-1.5C463,576.2,465.2,577.7,463.8,580.3z"/>
		<path class="st1" d="M457.6,592.5c-2.4,4.4-8.5,0.6-6.1-3.8C453.9,584.3,460,588.1,457.6,592.5z"/>
		<path class="st1" d="M467.1,478.2c-1.9,3.4-7.2,1.6-5.3-2.1C463.7,472.7,469.1,474.6,467.1,478.2z"/>
		<path class="st1" d="M475.6,485.7c-2.3,4.2-8.4,3.5-5.6-1.6C472.3,479.9,478.4,480.7,475.6,485.7z"/>
		<path class="st1" d="M477.7,498.5c-2.6,4.7-9.7,3.5-6.8-1.8C473.5,491.9,480.6,493.1,477.7,498.5z"/>
		<path class="st1" d="M473,510.5c-1.4,2.6-3.8,1.2-2.4-1.4S474.4,507.9,473,510.5z"/>
		<path class="st1" d="M473.8,523.6c-2.2,4-9.1,3-6.4-1.8C469.6,517.9,476.5,518.8,473.8,523.6z"/>
		<path class="st1" d="M469.7,535.6l-0.2,0.3c-1.1,2-3.4,3.6-5.6,2.7c-1.9-0.8-3-3.3-1.9-5.4l0.2-0.3c1.1-2,3.4-3.6,5.6-2.7
			C469.8,531.1,470.9,533.5,469.7,535.6z"/>
		<path class="st1" d="M462.7,548.4c-1.4,2.5-5.5,1.5-3.9-1.3C460.2,544.6,464.3,545.6,462.7,548.4z"/>
		<path class="st1" d="M453.8,562.8c-0.6,1.1-1.3,2.2-2.3,2.9c-0.7,0.4-1.5,0.9-2.3,0.5l-0.6-0.4c-1.8-1-0.8-4.2,0-5.7
			c0.6-1.1,1.3-2.2,2.3-2.9c0.7-0.4,1.5-0.9,2.3-0.5l0.6,0.4C455.5,558.2,454.5,561.4,453.8,562.8z"/>
		<path class="st1" d="M442.2,575.4c-1.5,2.7-5.2,0.6-3.7-2.2C440.1,570.4,443.8,572.5,442.2,575.4z"/>
		<path class="st1" d="M461.4,502.7c-2.7,4.9-9.7,1.1-7-3.8C457,494,464.1,497.8,461.4,502.7z"/>
		<path class="st1" d="M461.5,513.6c-2,3.7-7,1.6-4.8-2.4C458.7,507.5,463.7,509.6,461.5,513.6z"/>
		<path class="st1" d="M456.4,525.5c-1.5,2.7-3.8,1.2-2.4-1.5C455.5,521.4,457.9,522.9,456.4,525.5z"/>
		<path class="st1" d="M453.7,532.8c0.3,1.7-0.6,3.9-2.4,4.5c-0.2,0.1-0.3,0.1-0.5,0.2c-1.6,0.5-3.4-0.2-3.8-2
			c-0.3-1.7,0.6-3.9,2.4-4.5c0.2-0.1,0.3-0.1,0.5-0.2C451.5,530.3,453.4,531,453.7,532.8z"/>
		<path class="st1" d="M444.2,550.5c-1.7,3.2-7.3,2.7-5.2-1.2C440.7,546.1,446.3,546.6,444.2,550.5z"/>
		<path class="st1" d="M522,495.5c-2.5,4.6-6.9,2.1-4.4-2.5C520,488.4,524.5,490.9,522,495.5z"/>
		<path class="st1" d="M525.5,509.8c-2.2,4.1-10.8,6.2-7.4,0C520.2,505.8,528.9,503.6,525.5,509.8z"/>
		<path class="st1" d="M520.6,528.4c-1.6,2.9-7.4,3.8-5.1-0.4C517,525.1,522.9,524.2,520.6,528.4z"/>
		<path class="st1" d="M516.7,542.9c-2.8,5.1-8.6,2-5.8-3.1C513.6,534.7,519.5,537.8,516.7,542.9z"/>
		<path class="st1" d="M506.3,572.7c-2.6,4.9-8.5,1.4-5.9-3.4C503.1,564.5,509,567.9,506.3,572.7z"/>
		<path class="st1" d="M498.6,586c-1.3,2.3-4.8,2.3-3.2-0.7C496.7,583,500.2,583.1,498.6,586z"/>
		<path class="st1" d="M492.1,602.6c-3.1,5.6-7.5,2.9-4.5-2.6C490.7,594.3,495.1,597,492.1,602.6z"/>
		<path class="st1" d="M536.3,520.9c-1.7,3.2-6.4,2.4-4.4-1.3C533.6,516.4,538.3,517.2,536.3,520.9z"/>
		<path class="st1" d="M534.2,539.2c-0.2,0.6-0.4,1.3-0.6,1.9c-0.4,1.3-1.5,2.6-3,2.6c-1.2,0-2.4-1-1.9-2.4c0.2-0.6,0.4-1.3,0.6-1.9
			c0.4-1.3,1.5-2.6,3-2.6C533.4,536.8,534.6,537.8,534.2,539.2z"/>
		<path class="st1" d="M525.7,561.1c-1.4,2.7-5.4,1.8-3.7-1.2C523.5,557.2,527.4,558.1,525.7,561.1z"/>
		<path class="st1" d="M520.4,575c-1.7,3.1-6.4,1.4-4.6-1.8C517.5,570,522.2,571.7,520.4,575z"/>
		<path class="st1" d="M512.5,590.8c-1.3,2.5-6.3,3.3-4.4-0.2C509.5,588.1,514.4,587.3,512.5,590.8z"/>
		<path class="st1" d="M511.2,558.2c-1.9,3.4-6.9,3.3-4.6-1C508.5,553.8,513.5,553.9,511.2,558.2z"/>
		<path class="st1" d="M495.7,458.4c-1.6,2.9-6,1.8-4.2-1.4C493,454.1,497.4,455.2,495.7,458.4z"/>
		<path class="st1" d="M488.1,447.9c-1.7,3-5.9,2.7-3.8-1.2C486,443.7,490.2,444.1,488.1,447.9z"/>
		<path class="st1" d="M476.1,457.7c-2.1,3.8-9.5,4.6-6.5-0.9C471.6,453,479.1,452.2,476.1,457.7z"/>
		<path class="st1" d="M542.9,573c0,0,23.5-56.6-16.8-100.1c-3.3,0.2,21,24.4,21.5,58.7C547.9,556.8,539.2,567.4,542.9,573z"/>
		<path class="st1" d="M563.4,544.2c0,0,10.1-55.9-39.1-81.6c-3.2,1.2,26,14.8,34.3,44.4C564.7,528.7,558.6,540.4,563.4,544.2z"/>
		<path class="st1" d="M585.1,515.4c-1.3,3.2-2.7,6.2-4.5,9.1c-1,1.6-2.8,2.8-4.6,2c-1.6-0.7-2-3-1.1-4.5c1.4-2.3,2.8-4.8,3.8-7.3
			c0.7-1.8,2.2-3.3,4.1-3.1C584.5,511.7,585.8,513.7,585.1,515.4z"/>
		<path class="st1" d="M597.7,492.4c-0.6,3-1.2,6-1.8,8.9c-0.7,3.5-6.1,3.3-5.3-0.3c0.6-3,1.2-6,1.8-8.9
			C593,488.6,598.4,488.8,597.7,492.4z"/>
		<path class="st1" d="M584.7,487c0.6,3.3-0.8,6.1-2.2,9.1c-2,4.3-4.1,8.7-6.2,13c-1.2,2.5-4.7,2.5-3.2-0.6c1.4-2.9,2.7-5.8,4.1-8.7
			c1.3-2.7,4.2-7,3.6-10.1C580.5,487.8,584.2,484.4,584.7,487z"/>
		<path class="st1" d="M576.3,478c-0.2,6.5-1.7,12.8-4.6,18.7c-0.8,1.6-2.7,3.8-4.7,3.3c-1.9-0.5-1.8-3-1.1-4.5
			c2.2-4.7,3.4-9.5,3.5-14.7C569.6,477,576.5,472.7,576.3,478z"/>
		<path class="st1" d="M557.3,476.9c0.6-1.6,0.9-3.9,0.9-5.7c-0.1-2.6,1.5-5.6,4.1-6.3c0.1,0,0.2,0,0.2,0c-0.3-2.4,1.2-4.9,3.2-6.1
			c1.5-0.9,3.2-2.5,4.3-3.8c1.6-2,4.4-3.1,6.4-1.3c1.9,1.7,1.7,5.1,0.1,7.2c-2.3,3-5,5.3-8.2,7.2c-0.3,0.2-0.7,0.3-1,0.4
			c0.1,3.7-0.4,7.2-1.6,10.7c-0.8,2.5-3.6,4.5-6.1,3.8C557.1,482.2,556.4,479.3,557.3,476.9z"/>
		<path class="st1" d="M550.6,468.1c-0.8-0.3-1.2-0.9-1.3-1.9c-0.3-2.2,1.5-4.7,3.1-6.1c0.3-0.3,0.6-0.5,1-0.8
			c0.4-2,1.5-4.5,3.4-5.3c0.8-0.4,1.5-0.5,2.2,0.1c0.7,0.5,0.9,1.8,0.9,2.7c0,0.6-0.1,1.3-0.2,2c0,1.2-0.4,2.5-0.9,3.6
			c-0.5,1.2-1.5,2.4-2.6,2.8c-0.4,0.4-0.9,0.8-1.4,1.1c-0.5,0.5-1,0.9-1.6,1.3C552.6,467.9,551.5,468.4,550.6,468.1z"/>
		<path class="st1" d="M543,461.2c-1.9-1-2.7-3.2-2.6-5.4c0-1.2,0.9-2.3,2-2.9c0.2-0.3,0.5-0.7,0.8-0.9c1.8-1.2,4.1-1.8,5.9-0.7
			c1.4,0.9,2,2.4,1.3,4.1c-0.4,1-1.6,2-2.7,2.1c0.1,0.9-0.1,1.8-0.6,2.5C546,461.6,544.5,461.9,543,461.2z"/>
		<path class="st1" d="M385.8,222.8c-0.2-5.8-3.7,2.6-5.5,12.1c-5.6,28.9-0.2,71.3,19,98.9c12.3,17.6,46.4,42.4,67.3,48.7
			c4.8,1.5,19.7,6.8,14.1,2.5C440.3,363,369.2,336.7,385.8,222.8z"/>
		<path class="st1" d="M508.1,374.4c1.5-2.7-2.8-4.8-4.2-2.1C502.4,375,506.6,377.1,508.1,374.4z"/>
		<path class="st1" d="M493.7,370c1-1.9-1.9-3.4-2.9-1.5C489.8,370.4,492.7,371.9,493.7,370z"/>
		<path class="st1" d="M478.1,365.2c1.1-2.1-1.3-4.4-2.6-2C474.4,365.3,476.8,367.6,478.1,365.2z"/>
		<path class="st1" d="M465.2,360c1.2-2.2-2.2-3.6-3.4-1.4C460.7,360.7,464.1,362.1,465.2,360z"/>
		<path class="st1" d="M449.9,347.4c0.4-0.6,1-2.1,0.1-2.6l-1.8-1c-0.9-0.5-1.9,0.5-2.3,1.2c-0.4,0.6-1,2.1-0.1,2.6l1.8,1
			C448.5,349.1,449.5,348.1,449.9,347.4z"/>
		<path class="st1" d="M437.3,338.5c1.3-2.5-1.7-5.2-3.2-2.5C432.8,338.4,435.8,341.2,437.3,338.5z"/>
		<path class="st1" d="M425.3,325.9c0.9-1.7-0.6-5-1.9-2.5C422.5,325,424,328.3,425.3,325.9z"/>
		<path class="st1" d="M525,360.3c2.2-4.1-2.3-8.5-4.9-3.8C517.8,360.6,522.4,365.1,525,360.3z"/>
		<path class="st1" d="M512.5,357.6c2.2-4-4.1-6.9-6.3-3C504,358.6,510.3,361.6,512.5,357.6z"/>
		<path class="st1" d="M495.8,353c1-1.9-0.6-5.6-2.1-2.9C492.6,352,494.3,355.8,495.8,353z"/>
		<path class="st1" d="M482.3,346.6c1.8-3.4-1.3-4.8-3.1-1.5C477.4,348.5,480.5,349.9,482.3,346.6z"/>
		<path class="st1" d="M473.8,341.5c2.6-4.8-4.7-8.5-7.3-3.7C463.8,342.6,471.1,346.4,473.8,341.5z"/>
		<path class="st1" d="M461.8,333.8c2.7-5-4.9-8.8-7.7-3.7C451.4,335.1,459.1,338.8,461.8,333.8z"/>
		<path class="st1" d="M446.9,322.2c1.8-3.3-1.4-5.3-3.3-2C441.8,323.5,445.1,325.5,446.9,322.2z"/>
		<path class="st1" d="M439.9,316.3c2.3-4.1-3.5-8.9-5.8-4.5C431.8,315.9,437.5,320.7,439.9,316.3z"/>
		<path class="st1" d="M558.8,315.9c2.1-3.9-2.8-7.9-5.1-3.6C551.5,316.3,556.4,320.3,558.8,315.9z"/>
		<path class="st1" d="M548.2,331.9c1.2-2.1-0.9-6.1-2.6-3C544.5,331,546.6,334.9,548.2,331.9z"/>
		<path class="st1" d="M537.6,340.4c1-1.8-0.7-5.5-2.2-2.7C534.4,339.6,536.1,343.2,537.6,340.4z"/>
		<path class="st1" d="M524.6,340.4c1.6-2.9-2.2-6.7-4-3.3C519,340,522.8,343.8,524.6,340.4z"/>
		<path class="st1" d="M510.5,335.9c1.9-3.5-1.7-7.9-4-3.7C504.6,335.7,508.2,340.1,510.5,335.9z"/>
		<path class="st1" d="M499.4,329.3c1.4-2.6-2-5.2-3.6-2.3C494.4,329.6,497.9,332.1,499.4,329.3z"/>
		<path class="st1" d="M490,322.1c1.1-2-1.9-3.8-3.1-1.8C485.9,322.4,488.9,324.2,490,322.1z"/>
		<path class="st1" d="M479.6,313.3c1.6-3-2.1-6.1-3.9-2.9C474.1,313.5,477.8,316.6,479.6,313.3z"/>
		<path class="st1" d="M470.6,301.6c1.4-2.6-2.4-4.8-3.8-2.1C465.3,302.1,469.1,304.3,470.6,301.6z"/>
		<path class="st1" d="M540,311.4c1.9-3.5-3.5-6.5-5.4-3C532.6,311.9,538,314.9,540,311.4z"/>
		<path class="st1" d="M529.6,323.9c0.7-0.4,1.3-1.1,1.6-1.8c0.4-0.7,0.7-1.5,0.6-2.3c0-0.6-0.2-1.2-0.7-1.5l-0.3-0.2
			c-0.5-0.3-1.2-0.1-1.7,0.2c-0.7,0.4-1.3,1.1-1.6,1.8c-0.4,0.7-0.7,1.5-0.6,2.3c0,0.6,0.2,1.2,0.7,1.5l0.3,0.2
			C528.5,324.4,529.1,324.2,529.6,323.9z"/>
		<path class="st1" d="M519.7,320.5c1.4-2.5-1.5-5.4-3.1-2.6C515.2,320.4,518.1,323.3,519.7,320.5z"/>
		<path class="st1" d="M508.2,312.4c1.3-2.3-1.1-5.3-2.6-2.5C504.3,312.3,506.7,315.2,508.2,312.4z"/>
		<path class="st1" d="M502.2,303.4c2.2-4-3.2-7.2-5.4-3.2C494.6,304.2,500,307.4,502.2,303.4z"/>
		<path class="st1" d="M495.5,293.6c0.9-1.6-1.1-3-2.1-1.3C492.6,293.9,494.5,295.3,495.5,293.6z"/>
		<path class="st1" d="M491,281c1.4-2.5-0.4-5.9-2.3-2.4C487.3,281.1,489.1,284.5,491,281z"/>
		<path class="st1" d="M524,303c2.5-4.6-3.2-9.6-5.9-4.6C515.6,302.9,521.3,308,524,303z"/>
		<path class="st1" d="M512.5,290.1c2-3.6-2.7-6.6-4.7-2.9C505.8,290.8,510.5,293.8,512.5,290.1z"/>
		<path class="st1" d="M506,277c1.9-3.5-2.4-6.1-4.3-2.5C499.8,278,504.1,280.5,506,277z"/>
		<path class="st1" d="M576.4,303.5c2-3.7-2-9.9-4.9-4.8C569.5,302.4,573.6,308.6,576.4,303.5z"/>
		<path class="st1" d="M559,298.6c1.7-3-1.3-4.6-3-1.6C554.4,300,557.3,301.6,559,298.6z"/>
		<path class="st1" d="M442,575.2c-1.5,2.7-5.2,0.6-3.7-2.2S443.6,572.3,442,575.2z"/>
		<path class="st1" d="M434,542.3c-2.1,3.9-8.2,1.9-5.8-2.4C430.3,536,436.4,538,434,542.3z"/>
		<path class="st1" d="M441.7,524.8c-1.2,2.1-5.6,2.5-3.9-0.5C439,522.2,443.4,521.8,441.7,524.8z"/>
		<path class="st1" d="M433,563.9c-2,3.7-9.5,3.7-6.6-1.5C428.4,558.7,435.9,558.7,433,563.9z"/>
		<path class="st1" d="M419.5,551.9c-1.7,3-4.6,1.4-2.9-1.6C418.3,547.2,421.2,548.9,419.5,551.9z"/>
		<path class="st1" d="M545.4,296.5c1-1.8,1.6-4.4,0.4-6.3c-0.9-1.4-2.8-2.1-3.8-0.2c-1,1.8-1.6,4.4-0.4,6.3
			C542.5,297.7,544.3,298.4,545.4,296.5z"/>
		<path class="st1" d="M534.3,286.6c1.3-2.4-0.3-6.1-2.1-2.7C530.8,286.4,532.4,290,534.3,286.6z"/>
		<path class="st1" d="M527.8,276.7c1.7-3.2-1.3-5.1-3.1-1.9C522.9,278,526,280,527.8,276.7z"/>
		<path class="st1" d="M526,268.9c2.6-4.7-3.9-7.6-6.4-3C517.1,270.6,523.5,273.6,526,268.9z"/>
		<path class="st1" d="M633.2,294.9c1.3-2.4-1.5-6-3.1-2.9C628.8,294.4,631.6,297.9,633.2,294.9z"/>
		<path class="st1" d="M614.9,291.2c1.5-2.8-2.2-4.9-3.8-2.1C609.6,291.8,613.4,293.9,614.9,291.2z"/>
		<path class="st1" d="M597.6,286.5c1.6-2.9-1.5-5.9-3.4-2.5C592.6,286.9,595.7,290,597.6,286.5z"/>
		<path class="st1" d="M580,286.9c1.6-2.9-1.6-6-3.5-2.6C574.9,287.1,578.1,290.3,580,286.9z"/>
		<path class="st1" d="M562.3,287.7c1.4-2.6-1.1-7.7-3.3-3.8C557.6,286.6,560.1,291.6,562.3,287.7z"/>
		<path class="st1" d="M554,278.4c1.6-3-2-7.4-4-3.7C548.4,277.7,552,282.1,554,278.4z"/>
		<path class="st1" d="M545.1,264.8c1.6-2.9-1.9-6.1-3.6-2.9C539.9,264.8,543.3,268,545.1,264.8z"/>
		<path class="st1" d="M540.9,253.2c1.7-3.2-2.1-6.3-4.1-2.6C535.1,253.8,538.9,256.9,540.9,253.2z"/>
		<path class="st1" d="M553.3,250c0.6,0.1,1.2-0.4,1.5-0.8c1-1.3,1.4-3.3,0.9-4.9l-0.3-0.9c-0.1-0.5-0.5-1.2-1.1-1.3
			s-1.2,0.4-1.5,0.8c-1,1.3-1.4,3.3-0.9,4.9c0.1,0.3,0.2,0.6,0.3,0.9C552.4,249.2,552.8,249.9,553.3,250z"/>
		<path class="st1" d="M561.1,261.3c1.7-1.1,2.5-3.5,2-5.5c-0.1-0.3-0.2-0.6-0.3-0.9c-0.2-0.8-0.7-1.7-1.5-2.2
			c-0.7-0.4-1.7-0.4-2.4,0c-1.7,1.1-2.5,3.5-2,5.5c0.1,0.3,0.2,0.6,0.3,0.9c0.2,0.8,0.7,1.7,1.5,2.2
			C559.5,261.7,560.4,261.7,561.1,261.3z"/>
		<path class="st1" d="M569.6,270.3c1.1-2.1-1.8-3.9-3-1.8C565.5,270.6,568.4,272.4,569.6,270.3z"/>
		<path class="st1" d="M584.3,274.8c1.8-3.2-1.6-8.8-3.9-4.5C578.6,273.5,581.9,279.1,584.3,274.8z"/>
		<path class="st1" d="M601.3,271.3c2.4-4.4-3.8-7.2-6.2-2.8C592.7,272.9,598.9,275.6,601.3,271.3z"/>
		<path class="st1" d="M619,274.7c0.8-1.4-0.9-3.4-1.9-1.7C616.3,274.4,618,276.5,619,274.7z"/>
		<path class="st1" d="M631.9,268.5c0.8-1.4-0.2-6.2-1.5-3.7C629.6,266.1,630.6,270.9,631.9,268.5z"/>
		<path class="st1" d="M624.3,250.3c1.5-2.7-1.9-5.6-3.5-2.7C619.3,250.3,622.7,253.3,624.3,250.3z"/>
		<path class="st1" d="M606.2,252.2c1.6-3-2.8-5.4-4.4-2.4C600.1,252.8,604.5,255.2,606.2,252.2z"/>
		<path class="st1" d="M586.1,253.9c0.7-1.2-0.3-3.8-1.4-1.9C584,253.3,585,255.9,586.1,253.9z"/>
		<path class="st1" d="M574.2,241.8c1-1.8-1.3-3.7-2.4-1.7C570.8,241.9,573.1,243.8,574.2,241.8z"/>
		<path class="st1" d="M588.7,227.4c2.6-4.7-2.2-7-4.8-2.3C581.4,229.7,586.2,232,588.7,227.4z"/>
		<path class="st1" d="M608.6,233.9c1.7-3.2-2.4-6.1-4.3-2.7C602.6,234.4,606.7,237.4,608.6,233.9z"/>
		<path class="st1" d="M608.1,216.9c2.4-4.4-2-7.1-4.5-2.7C601.2,218.6,605.6,221.3,608.1,216.9z"/>
		<path class="st1" d="M383.9,538.2c-1.7,3.2-5,1.6-3.2-1.6C382.4,533.4,385.7,534.9,383.9,538.2z"/>
		<path class="st1" d="M376.4,540.9c-2.6,4.7-8.5,0.8-6-3.8C373,532.4,378.9,536.2,376.4,540.9z"/>
		<path class="st1" d="M456.2,617c-1.3,2.4-5.8,2-4.2-1.1C453.4,613.6,457.9,614,456.2,617z"/>
		<path class="st1" d="M443.1,603.6c-1.5,2.8-5.3,0.8-3.8-2C440.8,598.8,444.7,600.8,443.1,603.6z"/>
		<path class="st1" d="M429.9,591.5c-1.6,2.9-5.8,1.9-3.9-1.5C427.5,587.1,431.8,588.1,429.9,591.5z"/>
		<path class="st1" d="M420.7,576.6c-1.6,2.9-5.9,1.9-4.1-1.5C418.1,572.2,422.5,573.2,420.7,576.6z"/>
		<path class="st1" d="M411.8,561.2c-1.4,2.6-7.1,3.2-4.9-0.7C408.3,557.9,413.9,557.3,411.8,561.2z"/>
		<path class="st1" d="M399.5,559.3c-1.6,3-7.3,2.3-5.3-1.4C395.9,554.9,401.5,555.6,399.5,559.3z"/>
		<path class="st1" d="M383.3,559.1c-1.6,2.9-6.1,1.7-4.4-1.5C380.4,554.8,385,555.9,383.3,559.1z"/>
		<path class="st1" d="M371.2,561.9c-1.7,3.2-6.4,1.6-4.4-2C368.6,556.7,373.2,558.3,371.2,561.9z"/>
		<path class="st1" d="M375.2,574.1c0.4,0.4,0.3,1.2,0.2,1.7c-0.6,1.6-2,3-3.6,3.4l-0.9,0.3c-0.5,0.1-1.3,0.2-1.7-0.3
			c-0.4-0.4-0.3-1.2-0.2-1.7c0.6-1.6,2-3,3.6-3.4c0.3-0.1,0.6-0.2,0.9-0.3C374.1,573.7,374.8,573.7,375.2,574.1z"/>
		<path class="st1" d="M388.9,574.6c0,2-1.6,4.1-3.5,4.6c-0.3,0.1-0.6,0.2-0.9,0.3c-0.8,0.2-1.8,0.3-2.7-0.1
			c-0.7-0.4-1.2-1.2-1.3-2.1c0-2,1.6-4.1,3.5-4.6c0.3-0.1,0.6-0.2,0.9-0.3c0.8-0.2,1.8-0.3,2.7,0.1
			C388.4,572.9,388.9,573.7,388.9,574.6z"/>
		<path class="st1" d="M401.1,576.8c-1.1,2.1-4.3,0.6-3.1-1.5C399.1,573.2,402.2,574.7,401.1,576.8z"/>
		<path class="st1" d="M412.9,586.7c-1.8,3.2-8.3,3.5-5.9-0.8C408.7,582.6,415.2,582.4,412.9,586.7z"/>
		<path class="st1" d="M419.1,603c-2.4,4.4-8.1,0.6-5.7-3.7C415.8,594.8,421.5,598.6,419.1,603z"/>
		<path class="st1" d="M431.5,616c-0.8,1.4-3.4,1.1-2.4-0.7C429.9,613.9,432.5,614.2,431.5,616z"/>
		<path class="st1" d="M433.2,630.2c-0.8,1.4-5.3,3.2-4,0.8C430.1,629.5,434.6,627.7,433.2,630.2z"/>
		<path class="st1" d="M413.9,633.6c-1.5,2.7-5.8,1.5-4.2-1.5C411.2,629.5,415.5,630.7,413.9,633.6z"/>
		<path class="st1" d="M405.6,617.4c-1.6,3-6.1,0.6-4.4-2.4C402.9,611.9,407.3,614.3,405.6,617.4z"/>
		<path class="st1" d="M396.3,599.5c-0.7,1.2-3.4,1.8-2.3-0.2C394.6,598.2,397.3,597.6,396.3,599.5z"/>
		<path class="st1" d="M379.6,596.1c-1,1.8-3.8,0.9-2.7-1.1C377.9,593.2,380.7,594.1,379.6,596.1z"/>
		<path class="st1" d="M366.3,596.6c-1.8,3.2-5.3,1.3-3.5-1.9C364.5,591.4,368,593.4,366.3,596.6z"/>
		<path class="st1" d="M375.3,616.1c-2.6,4.7-7.1,1.9-4.5-2.7C373.4,608.7,377.9,611.5,375.3,616.1z"/>
		<path class="st1" d="M391.6,629.2c-1.7,3.2-6.4,1.3-4.6-2.2C388.7,623.9,393.4,625.8,391.6,629.2z"/>
		<path class="st1" d="M377,638c-2.4,4.4-7.1,2.2-4.7-2.3C374.7,631.4,379.4,633.6,377,638z"/>
		<path class="st1" d="M454.6,468.2c-1.5,2.7-5.5,0.3-4.1-2.4C452.1,463,456.1,465.5,454.6,468.2z"/>
		<path class="st1" d="M443.2,458.4c-1,1.9-3.9,0.3-2.9-1.6C441.3,455,444.2,456.6,443.2,458.4z"/>
		<path class="st1" d="M430.7,447.9c-1.1,2.1-4.4,1.3-3.1-1.1C428.7,444.7,432,445.5,430.7,447.9z"/>
		<path class="st1" d="M419.3,439.9c-1.2,2.2-4.2,0.1-3-2C417.5,435.7,420.5,437.8,419.3,439.9z"/>
		<path class="st1" d="M400.4,433.8c-0.3,0.6-1.3,2-2.2,1.5l-1.8-1c-0.9-0.5-0.6-1.9-0.3-2.6c0.3-0.6,1.3-2,2.2-1.5l1.8,1
			C401.1,431.7,400.8,433.1,400.4,433.8z"/>
		<path class="st1" d="M386.1,428c-1.3,2.5-5.3,1.4-3.8-1.3C383.7,424.2,387.6,425.3,386.1,428z"/>
		<path class="st1" d="M369.1,424.8c-0.9,1.7-4.5,2.2-3.2-0.2C366.8,422.9,370.4,422.3,369.1,424.8z"/>
		<path class="st1" d="M451.9,490c-2.2,4.1-8.4,2.7-5.8-2.1C448.3,483.8,454.5,485.2,451.9,490z"/>
		<path class="st1" d="M442.9,480.9c-2.2,4-8,0.2-5.9-3.7C439.2,473.2,445,477,442.9,480.9z"/>
		<path class="st1" d="M430,469.3c-1,1.9-5.1,2.5-3.6-0.2C427.4,467.3,431.5,466.6,430,469.3z"/>
		<path class="st1" d="M417.3,461.5c-1.8,3.4-4.7,1.5-2.9-1.8C416.2,456.3,419.1,458.1,417.3,461.5z"/>
		<path class="st1" d="M408.4,457.1c-2.6,4.8-9.7,0.7-7.1-4.2C403.9,448.1,411,452.2,408.4,457.1z"/>
		<path class="st1" d="M395.4,451.2c-2.7,5-10,0.6-7.3-4.4C390.9,441.8,398.2,446.1,395.4,451.2z"/>
		<path class="st1" d="M377.6,444.9c-1.8,3.3-5.3,1.7-3.4-1.7C375.9,439.9,379.4,441.6,377.6,444.9z"/>
		<path class="st1" d="M368.9,442.2c-2.3,4.1-9.4,1.9-7-2.5C364.2,435.6,371.3,437.9,368.9,442.2z"/>
		<path class="st1" d="M442,511.3c-1,1.8-5,2.4-3.5-0.4C439.5,509.1,443.5,508.5,442,511.3z"/>
		<path class="st1" d="M435,500.5c-1.6,2.9-6.8,1.8-5-1.6C431.6,496,436.8,497.1,435,500.5z"/>
		<path class="st1" d="M423.5,491c-1.9,3.5-7.6,2.8-5.3-1.3C420.1,486.2,425.8,486.8,423.5,491z"/>
		<path class="st1" d="M412,485.3c-1.4,2.6-5.4,1.1-3.9-1.7C409.6,480.9,413.6,482.4,412,485.3z"/>
		<path class="st1" d="M400.9,481.2c-1.1,2-4.3,0.5-3.2-1.6C398.8,477.6,402,479.2,400.9,481.2z"/>
		<path class="st1" d="M387.8,477.2c-1.6,3-6.3,1.6-4.5-1.7C385,472.5,389.6,473.9,387.8,477.2z"/>
		<path class="st1" d="M373.1,476c-1.4,2.6-5.3,0.6-3.8-2.1C370.7,471.3,374.5,473.3,373.1,476z"/>
		<path class="st1" d="M363.9,475.7c-1.9,3.4-9.1,4.1-6.4-0.9C359.4,471.4,366.6,470.7,363.9,475.7z"/>
		<path class="st1" d="M418.8,529c-1.9,3.5-7.4,0.6-5.5-2.9C415.3,522.6,420.8,525.5,418.8,529z"/>
		<path class="st1" d="M423.8,513.5c0,0.8-0.3,1.7-0.6,2.3c-0.4,0.7-0.9,1.4-1.6,1.8c-0.5,0.3-1.1,0.5-1.7,0.2l-0.3-0.2
			c-0.5-0.3-0.7-1-0.7-1.5c0-0.8,0.3-1.7,0.6-2.3c0.4-0.7,0.9-1.4,1.6-1.8c0.5-0.3,1.1-0.5,1.7-0.2l0.3,0.2
			C423.6,512.3,423.8,513,423.8,513.5z"/>
		<path class="st1" d="M415.5,507c-1.4,2.5-5.4,1.6-3.8-1.2C413,503.4,417.1,504.2,415.5,507z"/>
		<path class="st1" d="M402.6,501.8c-1.3,2.3-5.1,1.9-3.5-0.9C400.3,498.6,404.1,499,402.6,501.8z"/>
		<path class="st1" d="M391.7,501.6c-2.2,4-7.8,1.2-5.6-2.8C388.3,494.8,393.9,497.6,391.7,501.6z"/>
		<path class="st1" d="M379.8,501.2c-0.9,1.6-3.1,0.7-2.2-1.1C378.5,498.6,380.8,499.5,379.8,501.2z"/>
		<path class="st1" d="M366.8,504.3c-1.4,2.5-5.2,2.8-3.3-0.6C364.9,501.1,368.7,500.8,366.8,504.3z"/>
		<path class="st1" d="M403.1,520.1c-2.5,4.6-9.8,2.5-7.1-2.5C398.5,513.1,405.8,515.1,403.1,520.1z"/>
		<path class="st1" d="M386,517.4c-2,3.6-7,1.3-5-2.4C383,511.4,388.1,513.7,386,517.4z"/>
		<path class="st1" d="M371.6,519.1c-1.9,3.5-6.4,1.3-4.5-2.3C369,513.3,373.5,515.5,371.6,519.1z"/>
		<path class="st1" d="M409.2,541.6c-1,1.8-2.9,3.7-5.1,3.7c-1.7,0-3.2-1.2-2.2-3s2.9-3.7,5.1-3.7
			C408.7,538.6,410.3,539.8,409.2,541.6z"/>
		<path class="st1" d="M394.9,537.7c-1.3,2.4-5.3,3.1-3.4-0.4C392.9,534.9,396.8,534.2,394.9,537.7z"/>
		<path class="st1" d="M186.8,255.9c-3.6,0-4.5,4.8-0.3,4.8C190.1,260.7,191,255.9,186.8,255.9z"/>
	</g>
</g>
</svg>
